<svg xmlns="http://www.w3.org/2000/svg" xmlns:xlink="http://www.w3.org/1999/xlink" width="500" zoomAndPan="magnify" viewBox="0 0 375 374.999991" height="500" preserveAspectRatio="xMidYMid meet" version="1.0"><defs><clipPath id="a6e766fbb1"><path d="M 0 23.164062 L 375 23.164062 L 375 352 L 0 352 Z M 0 23.164062 " clip-rule="nonzero"/></clipPath><clipPath id="049bb7fef8"><path d="M 280.683594 23.164062 L 94.316406 23.164062 L 0 187.5 L 94.316406 351.835938 L 280.683594 351.835938 L 375 187.5 L 280.683594 23.164062 M 275.554688 342.933594 L 99.445312 342.933594 L 10.261719 187.5 L 99.445312 32.066406 L 275.554688 32.066406 L 364.738281 187.5 L 275.554688 342.933594 " clip-rule="nonzero"/></clipPath><clipPath id="0120dff77c"><path d="M 191 117.28125 L 250 117.28125 L 250 190 L 191 190 Z M 191 117.28125 " clip-rule="nonzero"/></clipPath><clipPath id="05c758f002"><path d="M 230 158 L 262.5 158 L 262.5 190 L 230 190 Z M 230 158 " clip-rule="nonzero"/></clipPath><clipPath id="bd48c6d8d1"><path d="M 201 197 L 238 197 L 238 257.53125 L 201 257.53125 Z M 201 197 " clip-rule="nonzero"/></clipPath><clipPath id="e1ed45edd1"><path d="M 233 197 L 248 197 L 248 257.53125 L 233 257.53125 Z M 233 197 " clip-rule="nonzero"/></clipPath><clipPath id="5c6ff52ed3"><path d="M 112.5 117.28125 L 184 117.28125 L 184 190 L 112.5 190 Z M 112.5 117.28125 " clip-rule="nonzero"/></clipPath><clipPath id="7f815e67a7"><path d="M 127 197 L 184 197 L 184 257.53125 L 127 257.53125 Z M 127 197 " clip-rule="nonzero"/></clipPath><clipPath id="ef0febeca9"><path d="M 232 248 L 241 248 L 241 257.53125 L 232 257.53125 Z M 232 248 " clip-rule="nonzero"/></clipPath></defs><rect x="-37.5" width="450" fill="#ffffff" y="-37.499999" height="449.999989" fill-opacity="1"/><rect x="-37.5" width="450" fill="#ffffff" y="-37.499999" height="449.999989" fill-opacity="1"/><rect x="-37.5" width="450" fill="#ffffff" y="-37.499999" height="449.999989" fill-opacity="1"/><g clip-path="url(#a6e766fbb1)"><g clip-path="url(#049bb7fef8)"><path fill="#000000" d="M 0 23.164062 L 375 23.164062 L 375 352.136719 L 0 352.136719 Z M 0 23.164062 " fill-opacity="1" fill-rule="nonzero"/></g></g><g clip-path="url(#0120dff77c)"><path fill="#0b0444" d="M 191.726562 122.3125 C 191.726562 120.636719 191.847656 118.957031 191.996094 117.28125 C 204.441406 125.785156 216.972656 134.167969 229.414062 142.703125 C 234.542969 146.175781 239.667969 149.648438 244.828125 153.121094 C 240.660156 155.308594 236.222656 156.773438 231.84375 158.511719 C 219.609375 163.363281 207.289062 167.914062 195.144531 173.003906 C 195.414062 173.542969 195.925781 174.5625 196.195312 175.101562 C 209.355469 169.800781 222.640625 164.769531 235.890625 159.621094 C 240.359375 158.121094 244.554688 155.609375 249.292969 155.070312 C 247.464844 157.492188 244.316406 158.03125 241.679688 159.140625 C 232.773438 162.644531 223.839844 165.9375 214.992188 169.589844 C 208.878906 171.867188 202.789062 174.261719 196.734375 176.6875 C 196.972656 177.34375 197.453125 178.632812 197.722656 179.261719 C 200.242188 178.574219 202.640625 177.164062 205.308594 177.046875 C 211.875 178.125 218.710938 176.328125 225.097656 178.78125 C 225.007812 180.25 224.917969 181.6875 224.859375 183.15625 C 225.847656 183.246094 226.835938 183.335938 227.828125 183.425781 C 228.636719 185.371094 229.445312 187.316406 230.226562 189.261719 C 217.421875 189.292969 204.589844 189.351562 191.789062 189.261719 C 191.699219 166.894531 191.699219 144.589844 191.726562 122.3125 Z M 203.691406 134.945312 C 203.210938 136.714844 202.730469 138.480469 202.042969 140.1875 C 200.871094 140.578125 199.703125 140.996094 198.535156 141.414062 C 199.824219 141.894531 201.113281 142.371094 202.429688 142.820312 C 202.789062 144.4375 203.210938 146.054688 203.691406 147.671875 C 204.109375 146.027344 204.410156 144.378906 204.710938 142.730469 C 206.328125 142.164062 207.976562 141.65625 209.65625 141.324219 C 208.039062 141.027344 206.449219 140.578125 204.859375 140.15625 C 204.441406 138.421875 204.082031 136.683594 203.691406 134.945312 Z M 218.292969 149.257812 C 216.433594 149.886719 214.542969 150.457031 212.683594 151.054688 C 214.484375 151.566406 216.3125 152.015625 218.140625 152.402344 C 218.832031 154.738281 219.429688 157.105469 220.152344 159.410156 C 220.71875 157.042969 221.261719 154.710938 222.039062 152.402344 C 223.898438 152.015625 225.757812 151.59375 227.585938 151.054688 C 225.699219 150.425781 223.777344 149.859375 221.890625 149.257812 C 221.230469 147.074219 220.71875 144.859375 220.152344 142.671875 C 219.429688 144.859375 218.890625 147.074219 218.292969 149.257812 Z M 218.292969 149.257812 " fill-opacity="1" fill-rule="nonzero"/></g><path fill="#0b0444" d="M 142.585938 151.625 C 147.113281 152.3125 150.832031 155.726562 154.429688 158.390625 C 150.890625 158.242188 147.355469 158.453125 143.84375 158.75 C 142.347656 157.433594 141.085938 155.726562 140.609375 153.78125 C 140.277344 152.554688 141.328125 151.445312 142.585938 151.625 Z M 142.585938 151.625 " fill-opacity="1" fill-rule="nonzero"/><g clip-path="url(#05c758f002)"><path fill="#0b0444" d="M 244.527344 161.265625 C 246.984375 160.277344 249.472656 159.230469 251.871094 158.0625 C 252.203125 158.273438 252.890625 158.660156 253.222656 158.871094 C 256.339844 160.878906 259.367188 163.03125 262.457031 165.097656 C 262.457031 169.53125 262.457031 173.992188 262.457031 178.421875 C 257.390625 178.453125 252.351562 178.363281 247.285156 178.484375 C 247.253906 181.566406 247.316406 184.621094 247.375 187.707031 C 247.34375 188.09375 247.253906 188.875 247.195312 189.261719 C 243.058594 189.261719 238.890625 189.324219 234.753906 189.144531 C 233.914062 186.777344 232.773438 184.5 232.234375 182.046875 C 232.652344 180.96875 233.34375 179.980469 233.914062 178.960938 C 232.863281 178.214844 231.84375 177.464844 230.792969 176.71875 C 231.574219 175.25 232.382812 173.8125 233.34375 172.464844 C 236.792969 168.453125 241.738281 165.878906 244.527344 161.265625 Z M 244.527344 161.265625 " fill-opacity="1" fill-rule="nonzero"/></g><path fill="#0b0444" d="M 191.699219 197.976562 C 198.59375 197.828125 205.519531 197.828125 212.414062 197.945312 C 211.515625 199.082031 210.585938 200.191406 209.746094 201.359375 C 208.816406 203.066406 208.097656 204.890625 207.410156 206.6875 C 207.019531 206.839844 206.238281 207.109375 205.878906 207.257812 C 205.910156 209.714844 206.089844 212.199219 205.609375 214.625 C 203.539062 224.625 201.472656 234.65625 199.492188 244.6875 C 199.011719 247.109375 197.902344 249.355469 196.824219 251.574219 C 195.085938 251.511719 193.316406 251.421875 191.578125 251.363281 C 191.9375 233.546875 191.667969 215.761719 191.699219 197.976562 Z M 191.699219 197.976562 " fill-opacity="1" fill-rule="nonzero"/><g clip-path="url(#bd48c6d8d1)"><path fill="#0b0444" d="M 212.234375 201.867188 C 213.734375 200.222656 215.265625 197.828125 217.78125 197.886719 C 221.769531 197.765625 225.757812 197.945312 229.746094 197.855469 C 231.214844 199.113281 232.683594 200.402344 233.972656 201.839844 C 236.671875 205.851562 237.359375 210.761719 237.0625 215.492188 C 236.761719 215.761719 236.160156 216.300781 235.863281 216.601562 C 235.832031 217.109375 235.800781 218.128906 235.773438 218.667969 C 235.292969 218.695312 234.332031 218.757812 233.851562 218.785156 C 233.3125 220.222656 232.921875 221.75 232.113281 223.066406 C 229.863281 225.042969 227.105469 226.390625 225.1875 228.726562 C 219.042969 235.582031 216.941406 245.046875 216.101562 253.96875 C 215.324219 254.085938 214.542969 254.207031 213.765625 254.328125 C 213.585938 255.34375 213.375 256.332031 213.195312 257.351562 C 212.324219 257.320312 211.457031 257.292969 210.585938 257.171875 C 210.4375 256.902344 210.167969 256.332031 210.015625 256.0625 C 209.476562 254.984375 208.9375 253.90625 208.398438 252.859375 C 206.269531 252.589844 204.140625 252.351562 202.011719 252.140625 C 201.980469 249.746094 201.773438 247.320312 202.339844 244.984375 C 204.46875 234.773438 206.507812 224.535156 208.636719 214.324219 C 208.96875 211.570312 211.726562 209.085938 210.316406 206.238281 C 210.855469 204.742188 211.484375 203.277344 212.234375 201.867188 Z M 212.234375 201.867188 " fill-opacity="1" fill-rule="nonzero"/></g><g clip-path="url(#e1ed45edd1)"><path fill="#0b0444" d="M 233.703125 197.945312 C 238.199219 197.976562 242.757812 197.558594 247.226562 198.183594 C 247.375 217.886719 247.226562 237.589844 247.285156 257.292969 C 246.175781 257.320312 245.066406 257.320312 243.957031 257.351562 C 244.078125 256.902344 244.285156 255.972656 244.375 255.496094 C 245.664062 251.394531 243.566406 247.378906 240.179688 245.074219 C 241.078125 236.542969 241.527344 227.976562 242.21875 219.445312 C 241.738281 219.382812 240.808594 219.265625 240.359375 219.203125 C 239.28125 212.945312 240.089844 205.941406 235.980469 200.582031 C 235.261719 199.683594 234.480469 198.8125 233.703125 197.945312 Z M 233.703125 197.945312 " fill-opacity="1" fill-rule="nonzero"/></g><path fill="#0b0444" d="M 159.136719 209.292969 C 160.90625 209.984375 163.335938 209.984375 164.382812 211.808594 C 164.445312 214.203125 161.566406 214.863281 160.007812 216.03125 C 159.644531 213.785156 159.347656 211.539062 159.136719 209.292969 Z M 159.136719 209.292969 " fill-opacity="1" fill-rule="nonzero"/><path fill="#0b0444" d="M 171.160156 163.332031 C 169.839844 164.917969 167.863281 165.90625 165.644531 165.90625 C 162.433594 165.90625 159.675781 163.78125 158.777344 160.847656 C 154.429688 160.339844 149.992188 160.21875 145.613281 160.546875 C 147.382812 162.554688 149.480469 164.199219 151.582031 165.847656 C 151.582031 165.847656 150.953125 167.40625 150.890625 167.554688 C 150.710938 168.183594 150.589844 168.8125 150.621094 169.472656 C 150.652344 170.789062 151.132812 172.046875 152.359375 172.675781 C 154.398438 173.722656 157.308594 173.304688 158.445312 171.148438 C 159.195312 169.710938 158.597656 168.152344 158.355469 166.65625 C 163.394531 166.207031 169.390625 168.035156 173.589844 164.46875 C 172.988281 164.171875 171.789062 163.632812 171.160156 163.332031 Z M 154.609375 171.148438 C 153.558594 171.148438 152.75 170.308594 152.75 169.292969 C 152.75 168.273438 153.589844 167.433594 154.609375 167.433594 C 155.628906 167.433594 156.46875 168.273438 156.46875 169.292969 C 156.46875 170.308594 155.660156 171.148438 154.609375 171.148438 Z M 154.609375 171.148438 " fill-opacity="1" fill-rule="nonzero"/><g clip-path="url(#5c6ff52ed3)"><path fill="#0b0444" d="M 183.210938 117.492188 C 181.984375 118.179688 180.753906 118.867188 179.585938 119.648438 C 168.3125 127.34375 157.007812 135.007812 145.703125 142.671875 C 134.671875 150.15625 123.609375 157.644531 112.542969 165.128906 C 112.574219 169.5625 112.574219 174.023438 112.542969 178.453125 C 117.609375 178.453125 122.679688 178.421875 127.746094 178.511719 C 127.746094 179.710938 127.746094 180.910156 127.714844 182.105469 C 127.714844 184.5 127.714844 186.925781 127.773438 189.324219 C 130.863281 189.261719 133.953125 189.261719 137.070312 189.292969 C 136.890625 180.488281 136.589844 171.65625 136.5 162.851562 C 135.992188 160.160156 139.679688 160.398438 140.667969 158.75 C 139.527344 156.714844 138.328125 154.648438 138.179688 152.34375 C 138.089844 151.207031 138.6875 150.097656 139.707031 149.589844 C 140.757812 149.050781 142.40625 148.78125 144.746094 149.917969 C 150.023438 151.65625 154.070312 155.757812 158.476562 158.992188 C 158.476562 158.902344 158.476562 158.8125 158.476562 158.722656 C 158.476562 154.769531 161.683594 151.566406 165.644531 151.566406 C 169.601562 151.566406 172.808594 154.769531 172.808594 158.722656 C 172.808594 159.738281 172.597656 160.699219 172.207031 161.597656 C 173.558594 162.285156 174.996094 162.851562 176.046875 163.960938 C 176.644531 165.039062 176.167969 166.328125 176.078125 167.464844 C 174.667969 174.710938 173.4375 182.015625 172.027344 189.261719 C 175.71875 189.261719 179.433594 189.261719 183.152344 189.292969 C 183.363281 165.367188 183.242188 141.414062 183.210938 117.492188 Z M 160.304688 150.246094 C 158.027344 150.246094 156.199219 148.421875 156.199219 146.144531 C 156.199219 143.898438 158.027344 142.042969 160.304688 142.042969 C 162.554688 142.042969 164.414062 143.871094 164.414062 146.144531 C 164.414062 148.421875 162.585938 150.246094 160.304688 150.246094 Z M 170.800781 141.625 C 168.820312 141.625 167.203125 140.007812 167.203125 138.03125 C 167.203125 136.054688 168.820312 134.4375 170.800781 134.4375 C 172.777344 134.4375 174.398438 136.054688 174.398438 138.03125 C 174.398438 140.007812 172.808594 141.625 170.800781 141.625 Z M 170.800781 141.625 " fill-opacity="1" fill-rule="nonzero"/></g><g clip-path="url(#7f815e67a7)"><path fill="#0b0444" d="M 183.242188 209.472656 C 177.695312 210.074219 172.179688 210.792969 166.632812 211.332031 C 172.148438 209.234375 177.753906 207.378906 183.300781 205.339844 C 183.273438 204.265625 183.242188 203.1875 183.210938 202.109375 C 177.695312 204.625 172.238281 207.378906 166.601562 209.714844 C 171.757812 205.671875 177.1875 201.957031 182.371094 197.914062 C 164.171875 197.886719 145.945312 197.914062 127.746094 197.914062 C 127.714844 205.460938 127.746094 213.007812 127.746094 220.550781 C 129.425781 218.335938 131.191406 216.03125 133.441406 214.355469 C 134.640625 213.574219 137.070312 212.378906 141.207031 211.929688 C 146.722656 211.210938 152.242188 210.402344 157.789062 209.742188 C 158.027344 211.839844 158.296875 213.90625 158.566406 215.972656 C 157.246094 216.179688 155.898438 216.390625 154.578125 216.601562 C 155.71875 219.445312 156.949219 222.378906 159.105469 224.625 C 160.636719 226.332031 163.003906 227.320312 163.632812 229.683594 C 156.527344 229.175781 151.160156 223.546875 148.734375 217.230469 C 146.875 221.210938 147.234375 225.734375 146.664062 229.984375 C 143.425781 230.464844 140.1875 230.882812 136.949219 231.300781 C 136.140625 229.59375 135.332031 227.859375 134.519531 226.152344 C 132.300781 226.449219 129.992188 226.511719 127.863281 227.230469 C 127.59375 234.773438 127.925781 242.320312 127.683594 249.867188 C 127.773438 252.382812 127.773438 254.867188 127.773438 257.382812 C 129.425781 257.382812 131.042969 257.382812 132.691406 257.410156 C 133.082031 252.230469 133.800781 246.929688 136.5 242.410156 C 133.773438 241.183594 134.160156 237.621094 134.882812 235.285156 C 136.140625 232.261719 139.707031 232.109375 142.496094 231.722656 C 144.714844 231.570312 147.292969 230.734375 149.273438 232.230469 C 151.550781 233.757812 151.671875 236.722656 152.210938 239.148438 C 151.609375 239.535156 151.011719 239.925781 150.441406 240.3125 C 155.300781 244.804688 157.398438 251.304688 159.316406 257.441406 C 167.320312 257.382812 175.328125 257.53125 183.332031 257.382812 C 183.332031 243.816406 183.300781 230.253906 183.332031 216.691406 C 177.785156 215.34375 172.238281 213.90625 166.664062 212.707031 C 172.207031 212.46875 177.785156 212.347656 183.332031 212.316406 C 183.273438 211.359375 183.242188 210.402344 183.242188 209.472656 Z M 160.007812 216.03125 C 159.644531 213.785156 159.347656 211.539062 159.136719 209.292969 C 160.90625 209.984375 163.335938 209.984375 164.382812 211.808594 C 164.414062 214.203125 161.535156 214.863281 160.007812 216.03125 Z M 160.007812 216.03125 " fill-opacity="1" fill-rule="nonzero"/></g><g clip-path="url(#ef0febeca9)"><path fill="#0b0444" d="M 240.71875 252.949219 C 240.71875 253.234375 240.691406 253.515625 240.636719 253.796875 C 240.578125 254.078125 240.496094 254.347656 240.386719 254.613281 C 240.277344 254.875 240.144531 255.125 239.984375 255.363281 C 239.828125 255.597656 239.648438 255.820312 239.445312 256.019531 C 239.242188 256.222656 239.023438 256.402344 238.785156 256.558594 C 238.550781 256.71875 238.296875 256.851562 238.035156 256.960938 C 237.769531 257.070312 237.5 257.152344 237.21875 257.207031 C 236.9375 257.265625 236.65625 257.292969 236.371094 257.292969 C 236.085938 257.292969 235.804688 257.265625 235.523438 257.207031 C 235.242188 257.152344 234.972656 257.070312 234.707031 256.960938 C 234.445312 256.851562 234.191406 256.71875 233.957031 256.558594 C 233.71875 256.402344 233.5 256.222656 233.296875 256.019531 C 233.09375 255.820312 232.914062 255.597656 232.757812 255.363281 C 232.597656 255.125 232.464844 254.875 232.355469 254.613281 C 232.246094 254.347656 232.164062 254.078125 232.105469 253.796875 C 232.050781 253.515625 232.023438 253.234375 232.023438 252.949219 C 232.023438 252.664062 232.050781 252.382812 232.105469 252.101562 C 232.164062 251.824219 232.246094 251.550781 232.355469 251.289062 C 232.464844 251.023438 232.597656 250.773438 232.757812 250.539062 C 232.914062 250.300781 233.09375 250.082031 233.296875 249.878906 C 233.5 249.679688 233.71875 249.5 233.957031 249.339844 C 234.191406 249.183594 234.445312 249.046875 234.707031 248.9375 C 234.972656 248.828125 235.242188 248.746094 235.523438 248.691406 C 235.804688 248.636719 236.085938 248.609375 236.371094 248.609375 C 236.65625 248.609375 236.9375 248.636719 237.21875 248.691406 C 237.5 248.746094 237.769531 248.828125 238.035156 248.9375 C 238.296875 249.046875 238.550781 249.183594 238.785156 249.339844 C 239.023438 249.5 239.242188 249.679688 239.445312 249.878906 C 239.648438 250.082031 239.828125 250.300781 239.984375 250.539062 C 240.144531 250.773438 240.277344 251.023438 240.386719 251.289062 C 240.496094 251.550781 240.578125 251.824219 240.636719 252.101562 C 240.691406 252.382812 240.71875 252.664062 240.71875 252.949219 Z M 240.71875 252.949219 " fill-opacity="1" fill-rule="nonzero"/></g></svg>