<svg xmlns="http://www.w3.org/2000/svg" xmlns:xlink="http://www.w3.org/1999/xlink" width="500" zoomAndPan="magnify" viewBox="0 0 375 374.999991" height="500" preserveAspectRatio="xMidYMid meet" version="1.0"><defs><clipPath id="90dd87e9f4"><path d="M 0 43.976562 L 374.933594 43.976562 L 374.933594 331.226562 L 0 331.226562 Z M 0 43.976562 " clip-rule="nonzero"/></clipPath></defs><g clip-path="url(#90dd87e9f4)"><path fill="#0b0444" d="M 374.695312 99.96875 C 374.695312 106.691406 369.253906 112.144531 362.535156 112.144531 L 187.441406 112.144531 C 145.871094 112.144531 112.054688 145.996094 112.054688 187.609375 C 112.054688 194.332031 106.617188 199.785156 99.894531 199.785156 C 93.171875 199.785156 87.734375 194.332031 87.734375 187.609375 C 87.734375 132.574219 132.457031 87.792969 187.441406 87.792969 L 362.535156 87.792969 C 369.25 87.792969 374.695312 93.246094 374.695312 99.96875 Z M 12.347656 287.425781 L 187.441406 287.425781 C 242.425781 287.425781 287.148438 242.652344 287.148438 187.609375 C 287.148438 180.886719 281.710938 175.433594 274.988281 175.433594 C 268.273438 175.433594 262.824219 180.878906 262.824219 187.609375 C 262.824219 229.222656 229.011719 263.082031 187.433594 263.082031 L 12.347656 263.082031 C 5.625 263.082031 0.1875 268.527344 0.1875 275.25 C 0.1875 281.980469 5.625 287.425781 12.347656 287.425781 Z M 274.988281 131.617188 L 187.441406 131.617188 C 180.726562 131.617188 175.277344 137.0625 175.277344 143.792969 C 175.277344 150.523438 180.71875 155.96875 187.441406 155.96875 L 274.988281 155.96875 C 292.421875 155.96875 306.601562 170.164062 306.601562 187.617188 C 306.601562 253.390625 253.144531 306.90625 187.441406 306.90625 L 12.347656 306.90625 C 5.625 306.898438 0.1875 312.351562 0.1875 319.074219 C 0.1875 325.796875 5.625 331.25 12.347656 331.25 L 187.441406 331.25 C 266.558594 331.25 330.917969 266.820312 330.917969 187.617188 C 330.917969 156.734375 305.828125 131.617188 274.988281 131.617188 Z M 99.894531 243.609375 L 187.441406 243.609375 C 218.28125 243.609375 243.371094 218.492188 243.371094 187.617188 C 243.371094 180.894531 237.933594 175.441406 231.210938 175.441406 C 224.496094 175.441406 219.046875 180.886719 219.046875 187.617188 C 219.046875 205.070312 204.867188 219.265625 187.433594 219.265625 L 99.894531 219.265625 C 82.460938 219.265625 68.28125 205.070312 68.28125 187.617188 C 68.28125 121.84375 121.738281 68.328125 187.441406 68.328125 L 362.535156 68.328125 C 369.25 68.328125 374.695312 62.882812 374.695312 56.152344 C 374.695312 49.421875 369.25 43.976562 362.535156 43.976562 L 187.441406 43.976562 C 108.324219 43.976562 43.957031 108.40625 43.957031 187.609375 C 43.957031 218.484375 69.054688 243.609375 99.894531 243.609375 Z M 99.894531 243.609375 " fill-opacity="1" fill-rule="nonzero"/></g></svg>