<svg xmlns="http://www.w3.org/2000/svg" xmlns:xlink="http://www.w3.org/1999/xlink" width="500" zoomAndPan="magnify" viewBox="0 0 375 374.999991" height="500" preserveAspectRatio="xMidYMid meet" version="1.0"><rect x="-37.5" width="450" fill="#ffffff" y="-37.499999" height="449.999989" fill-opacity="1"/><rect x="-37.5" width="450" fill="#ffffff" y="-37.499999" height="449.999989" fill-opacity="1"/><rect x="-37.5" width="450" fill="#ffffff" y="-37.499999" height="449.999989" fill-opacity="1"/><path fill="#caddff" d="M 147.539062 61.148438 C 132.957031 66.777344 70.730469 90.800781 55.441406 148.730469 C 38.007812 214.785156 90.148438 292.554688 162.222656 306.882812 C 236.988281 321.75 321.441406 286.808594 314.808594 232.675781 C 311.78125 207.976562 278.125 200.503906 279.683594 171.414062 C 281.203125 143.027344 316.980469 129.113281 313.230469 95.332031 C 312.996094 93.210938 312.242188 86.855469 309.046875 80.496094 C 290.917969 44.40625 208.8125 37.492188 147.539062 61.148438 " fill-opacity="1" fill-rule="nonzero"/><path fill="#0b0444" d="M 85.230469 298.1875 L 241.515625 298.1875 C 245.8125 298.1875 249.972656 294.90625 250.804688 290.859375 L 292.949219 85.773438 C 293.96875 80.28125 291.804688 77.132812 286.953125 77.132812 L 130.667969 77.132812 C 126.804688 77.132812 122.964844 79.78125 121.605469 83.390625 L 78.953125 290.859375 C 78.121094 294.90625 80.933594 298.1875 85.230469 298.1875 " fill-opacity="1" fill-rule="nonzero"/><path fill="#99b9ff" d="M 80.683594 298.386719 L 236.988281 298.386719 C 241.289062 298.386719 245.449219 295.097656 246.28125 291.042969 L 288.488281 85.664062 C 289.503906 80.164062 287.339844 77.035156 282.484375 77.035156 L 126.179688 77.035156 C 122.316406 77.035156 118.472656 79.695312 117.113281 83.308594 L 74.40625 291.042969 C 73.574219 295.097656 76.382812 298.386719 80.683594 298.386719 " fill-opacity="1" fill-rule="nonzero"/><path fill="#000000" d="M 287.320312 91.832031 C 287.289062 91.832031 287.257812 91.828125 287.226562 91.820312 C 286.96875 91.769531 286.800781 91.515625 286.855469 91.261719 L 288.023438 85.570312 C 288.535156 82.808594 288.207031 80.625 287.074219 79.265625 C 286.105469 78.101562 284.5625 77.511719 282.484375 77.511719 L 246.617188 77.511719 C 246.355469 77.511719 246.144531 77.300781 246.144531 77.035156 C 246.144531 76.773438 246.355469 76.5625 246.617188 76.5625 L 282.484375 76.5625 C 284.855469 76.5625 286.648438 77.265625 287.804688 78.65625 C 289.140625 80.261719 289.53125 82.648438 288.957031 85.753906 L 287.789062 91.449219 C 287.742188 91.675781 287.542969 91.832031 287.320312 91.832031 " fill-opacity="1" fill-rule="nonzero"/><path fill="#000000" d="M 267.609375 187.746094 C 267.578125 187.746094 267.546875 187.742188 267.511719 187.738281 C 267.253906 187.683594 267.089844 187.433594 267.144531 187.175781 L 277.875 134.949219 C 277.925781 134.691406 278.179688 134.523438 278.4375 134.578125 C 278.695312 134.632812 278.859375 134.882812 278.808594 135.140625 L 268.074219 187.367188 C 268.027344 187.59375 267.832031 187.746094 267.609375 187.746094 " fill-opacity="1" fill-rule="nonzero"/><path fill="#ffffff" d="M 88.046875 291.046875 L 232.644531 291.046875 C 236.621094 291.046875 240.472656 288.003906 241.242188 284.253906 L 280.808594 91.722656 C 281.75 86.632812 279.746094 83.742188 275.253906 83.742188 L 130.65625 83.742188 C 127.078125 83.742188 123.527344 86.199219 122.269531 89.542969 L 82.238281 284.253906 C 81.46875 288.003906 84.070312 291.046875 88.046875 291.046875 " fill-opacity="1" fill-rule="nonzero"/><path fill="#caddff" d="M 129.050781 134.347656 L 151.160156 134.347656 C 151.765625 134.347656 152.355469 133.882812 152.472656 133.308594 L 158.519531 103.878906 C 158.664062 103.101562 158.359375 102.65625 157.671875 102.65625 L 135.566406 102.65625 C 135.019531 102.65625 134.476562 103.03125 134.285156 103.542969 L 128.164062 133.308594 C 128.046875 133.882812 128.445312 134.347656 129.050781 134.347656 " fill-opacity="1" fill-rule="nonzero"/><path fill="#caddff" d="M 126.269531 154.964844 L 220.011719 154.964844 C 221.511719 154.964844 222.976562 153.75 223.28125 152.253906 C 223.59375 150.753906 222.625 149.539062 221.125 149.539062 L 127.386719 149.539062 C 125.886719 149.539062 124.421875 150.753906 124.113281 152.253906 C 123.804688 153.75 124.773438 154.964844 126.269531 154.964844 " fill-opacity="1" fill-rule="nonzero"/><path fill="#caddff" d="M 123.375 167.605469 L 217.414062 167.605469 C 218.914062 167.605469 220.378906 166.390625 220.683594 164.890625 C 220.992188 163.394531 220.027344 162.179688 218.527344 162.179688 L 124.488281 162.179688 C 122.992188 162.179688 121.527344 163.394531 121.21875 164.890625 C 120.910156 166.390625 121.875 167.605469 123.375 167.605469 " fill-opacity="1" fill-rule="nonzero"/><path fill="#caddff" d="M 148.902344 185.375 L 213.761719 185.375 C 215.261719 185.375 216.726562 184.164062 217.03125 182.664062 C 217.339844 181.164062 216.375 179.953125 214.875 179.953125 L 150.019531 179.953125 C 148.519531 179.953125 147.054688 181.164062 146.746094 182.664062 C 146.4375 184.164062 147.402344 185.375 148.902344 185.375 " fill-opacity="1" fill-rule="nonzero"/><path fill="#caddff" d="M 149.445312 198.015625 L 211.164062 198.015625 C 212.660156 198.015625 214.125 196.800781 214.433594 195.304688 C 214.742188 193.804688 213.777344 192.589844 212.277344 192.589844 L 150.558594 192.589844 C 149.058594 192.589844 147.59375 193.804688 147.289062 195.304688 C 146.980469 196.800781 147.945312 198.015625 149.445312 198.015625 " fill-opacity="1" fill-rule="nonzero"/><path fill="#caddff" d="M 128.636719 215.785156 L 207.507812 215.785156 C 209.007812 215.785156 210.472656 214.570312 210.78125 213.074219 C 211.089844 211.574219 210.125 210.363281 208.625 210.363281 L 129.75 210.363281 C 128.25 210.363281 126.785156 211.574219 126.480469 213.074219 C 126.171875 214.570312 127.136719 215.785156 128.636719 215.785156 " fill-opacity="1" fill-rule="nonzero"/><path fill="#caddff" d="M 110.605469 228.425781 L 204.910156 228.425781 C 206.410156 228.425781 207.875 227.210938 208.183594 225.714844 C 208.492188 224.214844 207.527344 223 206.027344 223 L 111.71875 223 C 110.21875 223 108.757812 224.214844 108.449219 225.714844 C 108.140625 227.210938 109.105469 228.425781 110.605469 228.425781 " fill-opacity="1" fill-rule="nonzero"/><path fill="#caddff" d="M 124.570312 246.515625 L 201.191406 246.515625 C 202.691406 246.515625 204.15625 245.300781 204.464844 243.804688 C 204.773438 242.308594 203.808594 241.089844 202.308594 241.089844 L 125.683594 241.089844 C 124.1875 241.089844 122.722656 242.308594 122.414062 243.804688 C 122.105469 245.300781 123.070312 246.515625 124.570312 246.515625 " fill-opacity="1" fill-rule="nonzero"/><path fill="#caddff" d="M 115.316406 259.15625 L 198.59375 259.15625 C 200.09375 259.15625 201.558594 257.941406 201.867188 256.445312 C 202.175781 254.945312 201.207031 253.730469 199.710938 253.730469 L 116.433594 253.730469 C 114.933594 253.730469 113.46875 254.945312 113.160156 256.445312 C 112.851562 257.941406 113.816406 259.15625 115.316406 259.15625 " fill-opacity="1" fill-rule="nonzero"/><path fill="#99b9ff" d="M 169.34375 134.734375 L 256.503906 134.734375 C 258 134.734375 259.464844 133.519531 259.773438 132.019531 C 260.082031 130.523438 259.117188 129.308594 257.617188 129.308594 L 170.460938 129.308594 C 168.960938 129.308594 167.496094 130.523438 167.1875 132.019531 C 166.878906 133.519531 167.84375 134.734375 169.34375 134.734375 " fill-opacity="1" fill-rule="nonzero"/><path fill="#99b9ff" d="M 172.054688 121.546875 L 259.214844 121.546875 C 260.710938 121.546875 262.175781 120.332031 262.484375 118.832031 C 262.792969 117.335938 261.828125 116.121094 260.328125 116.121094 L 173.167969 116.121094 C 171.671875 116.121094 170.207031 117.335938 169.898438 118.832031 C 169.589844 120.332031 170.554688 121.546875 172.054688 121.546875 " fill-opacity="1" fill-rule="nonzero"/><path fill="#99b9ff" d="M 262.996094 102.816406 L 232.78125 102.816406 C 231.292969 102.816406 229.839844 104.023438 229.53125 105.511719 C 229.226562 106.996094 230.183594 108.203125 231.671875 108.203125 L 261.957031 108.203125 C 263.507812 108.203125 265.015625 106.925781 265.25 105.355469 C 265.46875 103.917969 264.4375 102.816406 262.996094 102.816406 " fill-opacity="1" fill-rule="nonzero"/><path fill="#99b9ff" d="M 241.390625 150.238281 C 239.660156 150.238281 237.960938 151.652344 237.605469 153.382812 L 235.40625 164.082031 C 235.238281 164.894531 235.398438 165.648438 235.851562 166.207031 C 236.289062 166.742188 236.957031 167.039062 237.742188 167.039062 L 248.445312 167.039062 C 250.175781 167.039062 251.875 165.625 252.230469 163.890625 L 254.429688 153.191406 C 254.597656 152.382812 254.4375 151.628906 253.984375 151.074219 C 253.546875 150.535156 252.875 150.238281 252.09375 150.238281 Z M 248.445312 167.988281 L 237.742188 167.988281 C 236.667969 167.988281 235.734375 167.566406 235.113281 166.804688 C 234.476562 166.023438 234.25 164.988281 234.472656 163.890625 L 236.671875 153.191406 C 237.113281 151.042969 239.230469 149.289062 241.390625 149.289062 L 252.09375 149.289062 C 253.167969 149.289062 254.101562 149.707031 254.722656 150.472656 C 255.359375 151.253906 255.585938 152.285156 255.363281 153.382812 L 253.164062 164.082031 C 252.71875 166.234375 250.605469 167.988281 248.445312 167.988281 " fill-opacity="1" fill-rule="nonzero"/><path fill="#0b0444" d="M 242.277344 164.953125 C 242.011719 164.953125 241.746094 164.910156 241.492188 164.820312 C 240.699219 164.542969 240.140625 163.859375 240.015625 163.03125 L 239.019531 157.4375 C 238.851562 156.492188 239.480469 155.585938 240.429688 155.417969 C 241.378906 155.25 242.285156 155.878906 242.453125 156.828125 L 243.019531 160.015625 L 249.398438 152.347656 C 250.015625 151.609375 251.117188 151.507812 251.855469 152.121094 C 252.59375 152.738281 252.695312 153.835938 252.082031 154.578125 L 244.109375 164.152344 L 244.042969 164.21875 C 243.550781 164.699219 242.914062 164.953125 242.277344 164.953125 " fill-opacity="1" fill-rule="nonzero"/><path fill="#99b9ff" d="M 235.140625 180.648438 C 233.410156 180.648438 231.710938 182.0625 231.351562 183.796875 L 229.15625 194.492188 C 228.988281 195.304688 229.144531 196.058594 229.597656 196.617188 C 230.035156 197.152344 230.710938 197.449219 231.492188 197.449219 L 242.195312 197.449219 C 243.925781 197.449219 245.621094 196.035156 245.980469 194.300781 L 248.179688 183.605469 C 248.34375 182.789062 248.1875 182.039062 247.734375 181.484375 C 247.296875 180.945312 246.625 180.648438 245.84375 180.648438 Z M 242.195312 198.398438 L 231.492188 198.398438 C 230.417969 198.398438 229.484375 197.976562 228.863281 197.214844 C 228.222656 196.433594 227.996094 195.398438 228.222656 194.300781 L 230.421875 183.605469 C 230.863281 181.453125 232.980469 179.699219 235.140625 179.699219 L 245.84375 179.699219 C 246.917969 179.699219 247.851562 180.121094 248.472656 180.882812 C 249.109375 181.660156 249.335938 182.699219 249.109375 183.796875 L 246.910156 194.492188 C 246.46875 196.648438 244.351562 198.398438 242.195312 198.398438 " fill-opacity="1" fill-rule="nonzero"/><path fill="#0b0444" d="M 235.964844 195.667969 C 235.699219 195.667969 235.433594 195.621094 235.175781 195.53125 C 234.386719 195.253906 233.828125 194.574219 233.703125 193.742188 L 232.707031 188.148438 C 232.539062 187.203125 233.167969 186.296875 234.117188 186.128906 C 235.066406 185.960938 235.96875 186.589844 236.140625 187.539062 L 236.707031 190.726562 L 243.085938 183.0625 C 243.703125 182.320312 244.804688 182.21875 245.542969 182.835938 C 246.28125 183.449219 246.382812 184.550781 245.765625 185.289062 L 237.796875 194.867188 L 237.730469 194.929688 C 237.238281 195.410156 236.605469 195.667969 235.964844 195.667969 " fill-opacity="1" fill-rule="nonzero"/><path fill="#99b9ff" d="M 228.890625 211.058594 C 227.15625 211.058594 225.460938 212.472656 225.105469 214.207031 L 222.902344 224.902344 C 222.738281 225.714844 222.894531 226.46875 223.347656 227.023438 C 223.785156 227.5625 224.457031 227.855469 225.242188 227.855469 L 235.945312 227.855469 C 237.671875 227.855469 239.375 226.445312 239.730469 224.710938 L 241.925781 214.015625 C 242.09375 213.203125 241.9375 212.449219 241.484375 211.890625 C 241.046875 211.355469 240.375 211.058594 239.59375 211.058594 Z M 235.945312 228.808594 L 225.242188 228.808594 C 224.167969 228.808594 223.234375 228.386719 222.609375 227.625 C 221.972656 226.84375 221.746094 225.808594 221.972656 224.710938 L 224.171875 214.015625 C 224.613281 211.863281 226.730469 210.109375 228.890625 210.109375 L 239.59375 210.109375 C 240.664062 210.109375 241.601562 210.53125 242.222656 211.289062 C 242.859375 212.074219 243.085938 213.109375 242.859375 214.207031 L 240.660156 224.902344 C 240.21875 227.054688 238.101562 228.808594 235.945312 228.808594 " fill-opacity="1" fill-rule="nonzero"/><path fill="#0b0444" d="M 229.65625 226.378906 C 229.386719 226.378906 229.121094 226.335938 228.867188 226.242188 C 228.074219 225.964844 227.515625 225.28125 227.390625 224.453125 L 226.394531 218.863281 C 226.226562 217.914062 226.859375 217.007812 227.804688 216.839844 C 228.753906 216.671875 229.660156 217.300781 229.828125 218.25 L 230.394531 221.4375 L 236.773438 213.769531 C 237.390625 213.03125 238.488281 212.929688 239.230469 213.546875 C 239.96875 214.160156 240.070312 215.261719 239.457031 216 L 231.484375 225.578125 L 231.417969 225.640625 C 230.925781 226.121094 230.292969 226.378906 229.65625 226.378906 " fill-opacity="1" fill-rule="nonzero"/><path fill="#99b9ff" d="M 170.226562 91.355469 L 236.953125 91.355469 C 238.675781 91.355469 240.351562 89.960938 240.707031 88.242188 L 243.886719 72.777344 C 244.238281 71.058594 243.132812 69.667969 241.410156 69.667969 L 174.683594 69.667969 C 172.964844 69.667969 171.285156 71.058594 170.933594 72.777344 L 167.753906 88.242188 C 167.402344 89.960938 168.507812 91.355469 170.226562 91.355469 " fill-opacity="1" fill-rule="nonzero"/><path fill="#000000" d="M 236.957031 91.828125 L 214.914062 91.828125 C 214.652344 91.828125 214.4375 91.617188 214.4375 91.355469 C 214.4375 91.09375 214.652344 90.878906 214.914062 90.878906 L 236.957031 90.878906 C 238.457031 90.878906 239.929688 89.65625 240.238281 88.148438 L 243.421875 72.683594 C 243.566406 71.980469 243.429688 71.332031 243.039062 70.855469 C 242.664062 70.394531 242.085938 70.140625 241.414062 70.140625 L 224.316406 70.140625 C 224.050781 70.140625 223.839844 69.929688 223.839844 69.667969 C 223.839844 69.402344 224.050781 69.191406 224.316406 69.191406 L 241.414062 69.191406 C 242.378906 69.191406 243.214844 69.570312 243.777344 70.253906 C 244.351562 70.957031 244.554688 71.886719 244.351562 72.871094 L 241.171875 88.339844 C 240.777344 90.261719 238.882812 91.828125 236.957031 91.828125 " fill-opacity="1" fill-rule="nonzero"/><path fill="#ffffff" d="M 208.804688 69.199219 C 205.398438 69.617188 203.179688 66.824219 204.28125 63.507812 C 205.03125 61.25 207.234375 59.421875 209.554688 59.140625 C 212.957031 58.722656 215.175781 61.511719 214.074219 64.828125 C 213.328125 67.089844 211.125 68.914062 208.804688 69.199219 Z M 211.621094 52.097656 C 204.726562 52.097656 198.011719 57.6875 196.59375 64.585938 L 192.746094 83.292969 C 192.402344 84.976562 193.484375 86.339844 195.167969 86.339844 L 214 86.339844 C 215.683594 86.339844 217.328125 84.976562 217.675781 83.292969 L 221.519531 64.585938 C 222.9375 57.6875 218.519531 52.097656 211.621094 52.097656 " fill-opacity="1" fill-rule="nonzero"/><path fill="#000000" d="M 210.214844 59.574219 C 210.019531 59.574219 209.816406 59.585938 209.609375 59.609375 C 207.476562 59.871094 205.425781 61.574219 204.734375 63.660156 C 204.253906 65.105469 204.445312 66.503906 205.257812 67.496094 C 206.042969 68.453125 207.3125 68.902344 208.746094 68.726562 C 210.882812 68.464844 212.933594 66.761719 213.625 64.679688 C 214.105469 63.230469 213.914062 61.832031 213.101562 60.839844 C 212.429688 60.019531 211.398438 59.574219 210.214844 59.574219 Z M 208.804688 69.199219 L 208.808594 69.199219 Z M 208.140625 69.714844 C 206.671875 69.714844 205.378906 69.144531 204.519531 68.101562 C 203.496094 66.851562 203.246094 65.121094 203.832031 63.359375 C 204.644531 60.90625 206.972656 58.976562 209.496094 58.667969 C 211.257812 58.449219 212.839844 59.023438 213.835938 60.238281 C 214.863281 61.488281 215.113281 63.214844 214.527344 64.976562 C 213.714844 67.429688 211.382812 69.359375 208.863281 69.667969 C 208.617188 69.699219 208.375 69.714844 208.140625 69.714844 Z M 214 86.816406 L 211.105469 86.816406 C 210.839844 86.816406 210.628906 86.601562 210.628906 86.339844 C 210.628906 86.074219 210.839844 85.863281 211.105469 85.863281 L 214 85.863281 C 215.46875 85.863281 216.90625 84.667969 217.207031 83.199219 L 221.054688 64.488281 C 221.722656 61.238281 221.078125 58.207031 219.238281 55.949219 C 217.460938 53.773438 214.757812 52.574219 211.621094 52.574219 C 204.964844 52.574219 198.429688 58.003906 197.058594 64.679688 L 196.0625 69.527344 C 196.007812 69.785156 195.757812 69.949219 195.5 69.898438 C 195.242188 69.84375 195.078125 69.59375 195.132812 69.335938 L 196.125 64.488281 C 197.585938 57.394531 204.539062 51.625 211.621094 51.625 C 215.046875 51.625 218.011719 52.949219 219.972656 55.351562 C 222 57.832031 222.710938 61.144531 221.984375 64.679688 L 218.140625 83.390625 C 217.753906 85.28125 215.894531 86.816406 214 86.816406 " fill-opacity="1" fill-rule="nonzero"/><path fill="#99b9ff" d="M 274.417969 307.980469 L 166.402344 307.980469 C 159.921875 307.980469 155.070312 302.03125 156.375 295.683594 L 172.761719 216.066406 C 174.140625 209.371094 180.039062 204.566406 186.875 204.566406 L 279.523438 204.566406 L 274.417969 307.980469 " fill-opacity="1" fill-rule="nonzero"/><path fill="#000000" d="M 186.875 205.039062 C 180.292969 205.039062 174.554688 209.71875 173.226562 216.160156 L 156.839844 295.78125 C 156.246094 298.664062 156.972656 301.628906 158.835938 303.914062 C 160.699219 306.195312 163.457031 307.503906 166.40625 307.503906 L 273.960938 307.503906 L 279.023438 205.039062 Z M 274.414062 308.457031 L 166.40625 308.457031 C 163.171875 308.457031 160.140625 307.019531 158.101562 304.511719 C 156.054688 302.007812 155.257812 298.753906 155.910156 295.589844 L 172.296875 215.96875 C 173.714844 209.085938 179.84375 204.089844 186.875 204.089844 L 279.523438 204.089844 C 279.65625 204.089844 279.777344 204.144531 279.867188 204.238281 C 279.957031 204.332031 280.003906 204.457031 280 204.589844 L 274.890625 308.003906 C 274.878906 308.257812 274.667969 308.457031 274.414062 308.457031 " fill-opacity="1" fill-rule="nonzero"/><path fill="#0b0444" d="M 288.246094 307.980469 L 267.285156 307.980469 C 260.800781 307.980469 255.949219 302.03125 257.253906 295.683594 L 275.304688 207.988281 C 275.714844 205.996094 277.472656 204.5625 279.507812 204.5625 L 284.898438 204.5625 C 287.132812 204.5625 288.996094 206.277344 289.175781 208.503906 L 296.558594 298.964844 C 296.953125 303.820312 293.121094 307.980469 288.246094 307.980469 " fill-opacity="1" fill-rule="nonzero"/><path fill="#000000" d="M 279.507812 205.039062 C 277.703125 205.039062 276.132812 206.320312 275.769531 208.085938 L 257.71875 295.78125 C 257.125 298.664062 257.855469 301.628906 259.71875 303.914062 C 261.578125 306.195312 264.335938 307.503906 267.285156 307.503906 L 288.246094 307.503906 C 290.46875 307.503906 292.523438 306.605469 294.03125 304.972656 C 295.535156 303.335938 296.265625 301.21875 296.082031 299.003906 L 288.699219 208.542969 C 288.539062 206.578125 286.871094 205.039062 284.898438 205.039062 Z M 288.246094 308.457031 L 267.285156 308.457031 C 264.050781 308.457031 261.023438 307.019531 258.980469 304.511719 C 256.9375 302.007812 256.136719 298.753906 256.789062 295.589844 L 274.839844 207.894531 C 275.292969 205.6875 277.253906 204.089844 279.507812 204.089844 L 284.898438 204.089844 C 287.359375 204.089844 289.449219 206.011719 289.648438 208.464844 L 297.03125 298.925781 C 297.230469 301.375 296.390625 303.808594 294.726562 305.613281 C 293.0625 307.421875 290.703125 308.457031 288.246094 308.457031 " fill-opacity="1" fill-rule="nonzero"/><path fill="#000000" d="M 281.566406 305.34375 L 267.285156 305.34375 C 264.992188 305.34375 262.84375 304.324219 261.394531 302.546875 C 259.945312 300.769531 259.378906 298.460938 259.839844 296.214844 L 265.765625 267.429688 C 265.820312 267.171875 266.070312 267.007812 266.328125 267.058594 C 266.585938 267.109375 266.75 267.363281 266.695312 267.621094 L 260.773438 296.40625 C 260.367188 298.371094 260.863281 300.390625 262.132812 301.945312 C 263.402344 303.5 265.277344 304.390625 267.285156 304.390625 L 281.566406 304.390625 C 281.828125 304.390625 282.042969 304.605469 282.042969 304.867188 C 282.042969 305.128906 281.828125 305.34375 281.566406 305.34375 " fill-opacity="1" fill-rule="nonzero"/><path fill="#000000" d="M 288.246094 305.34375 C 287.980469 305.34375 287.769531 305.128906 287.769531 304.867188 C 287.769531 304.605469 287.980469 304.390625 288.246094 304.390625 C 289.585938 304.390625 290.828125 303.847656 291.738281 302.863281 C 292.648438 301.875 293.089844 300.59375 292.980469 299.257812 L 291.296875 278.644531 C 291.277344 278.382812 291.472656 278.152344 291.734375 278.128906 C 291.996094 278.109375 292.226562 278.304688 292.246094 278.566406 L 293.925781 299.179688 C 294.058594 300.785156 293.53125 302.320312 292.4375 303.507812 C 291.347656 304.691406 289.855469 305.34375 288.246094 305.34375 " fill-opacity="1" fill-rule="nonzero"/><path fill="#000000" d="M 287.089844 221.707031 C 286.84375 221.707031 286.636719 221.519531 286.617188 221.269531 L 286.265625 216.976562 C 286.242188 216.714844 286.4375 216.484375 286.703125 216.464844 C 286.964844 216.441406 287.191406 216.636719 287.210938 216.898438 L 287.5625 221.195312 C 287.585938 221.457031 287.390625 221.683594 287.128906 221.707031 C 287.117188 221.707031 287.101562 221.707031 287.089844 221.707031 " fill-opacity="1" fill-rule="nonzero"/><path fill="#000000" d="M 273.40625 233.140625 C 273.375 233.140625 273.34375 233.136719 273.3125 233.132812 C 273.054688 233.078125 272.886719 232.828125 272.941406 232.570312 L 277.890625 208.519531 C 278.046875 207.757812 278.726562 207.203125 279.507812 207.203125 L 284.898438 207.203125 C 285.753906 207.203125 286.476562 207.867188 286.546875 208.71875 L 286.777344 211.535156 C 286.796875 211.792969 286.601562 212.023438 286.339844 212.046875 C 286.078125 212.066406 285.847656 211.871094 285.828125 211.609375 L 285.597656 208.796875 C 285.566406 208.433594 285.261719 208.152344 284.898438 208.152344 L 279.507812 208.152344 C 279.175781 208.152344 278.886719 208.386719 278.820312 208.710938 L 273.871094 232.761719 C 273.824219 232.984375 273.628906 233.140625 273.40625 233.140625 " fill-opacity="1" fill-rule="nonzero"/><path fill="#000000" d="M 259.699219 246.835938 L 175.128906 246.835938 C 174.867188 246.835938 174.652344 246.621094 174.652344 246.359375 C 174.652344 246.097656 174.867188 245.886719 175.128906 245.886719 L 259.699219 245.886719 C 261.996094 245.886719 263.96875 244.324219 264.5 242.089844 L 271.953125 210.636719 C 272.011719 210.382812 272.269531 210.222656 272.527344 210.285156 C 272.78125 210.34375 272.9375 210.597656 272.878906 210.855469 L 265.421875 242.308594 C 264.792969 244.972656 262.4375 246.835938 259.699219 246.835938 " fill-opacity="1" fill-rule="nonzero"/><path fill="#ffffff" d="M 227.058594 246.359375 L 224.691406 255.910156 C 224.304688 257.527344 222.863281 258.667969 221.203125 258.667969 L 204.453125 258.667969 C 202.628906 258.667969 201.304688 256.929688 201.796875 255.171875 L 204.25 246.359375 L 227.058594 246.359375 " fill-opacity="1" fill-rule="nonzero"/><path fill="#000000" d="M 204.609375 246.835938 L 202.253906 255.300781 C 202.0625 255.992188 202.199219 256.71875 202.636719 257.289062 C 203.070312 257.863281 203.734375 258.191406 204.453125 258.191406 L 221.203125 258.191406 C 222.648438 258.191406 223.894531 257.210938 224.226562 255.800781 L 226.449219 246.835938 Z M 221.203125 259.144531 L 204.453125 259.144531 C 203.433594 259.144531 202.496094 258.675781 201.878906 257.867188 C 201.261719 257.054688 201.066406 256.027344 201.339844 255.046875 L 203.789062 246.230469 C 203.847656 246.027344 204.035156 245.882812 204.25 245.882812 L 227.058594 245.882812 C 227.203125 245.882812 227.34375 245.949219 227.433594 246.066406 C 227.523438 246.183594 227.554688 246.332031 227.519531 246.472656 L 225.152344 256.023438 C 224.71875 257.859375 223.089844 259.144531 221.203125 259.144531 " fill-opacity="1" fill-rule="nonzero"/><path fill="#000000" d="M 251.980469 300.457031 L 162.136719 300.457031 C 161.875 300.457031 161.664062 300.246094 161.664062 299.980469 C 161.664062 299.71875 161.875 299.507812 162.136719 299.507812 L 251.980469 299.507812 C 252.242188 299.507812 252.457031 299.71875 252.457031 299.980469 C 252.457031 300.246094 252.242188 300.457031 251.980469 300.457031 " fill-opacity="1" fill-rule="nonzero"/><path fill="#0b0444" d="M 208.21875 200.949219 L 201.203125 200.949219 C 199.308594 200.949219 197.773438 202.488281 197.773438 204.378906 L 211.648438 204.378906 C 211.648438 202.488281 210.113281 200.949219 208.21875 200.949219 " fill-opacity="1" fill-rule="nonzero"/><path fill="#000000" d="M 198.289062 203.90625 L 211.132812 203.90625 C 210.90625 202.5 209.6875 201.425781 208.21875 201.425781 L 201.203125 201.425781 C 199.738281 201.425781 198.515625 202.5 198.289062 203.90625 Z M 211.648438 204.855469 L 197.773438 204.855469 C 197.511719 204.855469 197.300781 204.640625 197.300781 204.378906 C 197.300781 202.226562 199.050781 200.476562 201.203125 200.476562 L 208.21875 200.476562 C 210.371094 200.476562 212.125 202.226562 212.125 204.378906 C 212.125 204.640625 211.910156 204.855469 211.648438 204.855469 " fill-opacity="1" fill-rule="nonzero"/><path fill="#0b0444" d="M 264.425781 200.949219 L 257.410156 200.949219 C 255.515625 200.949219 253.980469 202.488281 253.980469 204.378906 L 267.855469 204.378906 C 267.855469 202.488281 266.320312 200.949219 264.425781 200.949219 " fill-opacity="1" fill-rule="nonzero"/><path fill="#000000" d="M 254.492188 203.90625 L 267.339844 203.90625 C 267.113281 202.5 265.890625 201.425781 264.421875 201.425781 L 257.410156 201.425781 C 255.941406 201.425781 254.722656 202.5 254.492188 203.90625 Z M 267.851562 204.855469 L 253.980469 204.855469 C 253.714844 204.855469 253.503906 204.640625 253.503906 204.378906 C 253.503906 202.226562 255.257812 200.476562 257.410156 200.476562 L 264.421875 200.476562 C 266.578125 200.476562 268.328125 202.226562 268.328125 204.378906 C 268.328125 204.640625 268.117188 204.855469 267.851562 204.855469 " fill-opacity="1" fill-rule="nonzero"/><path fill="#ffffff" d="M 262.589844 200.765625 L 263.722656 194.054688 C 264.523438 189.300781 261.3125 185.441406 256.550781 185.441406 L 214.5 185.441406 C 209.742188 185.441406 205.230469 189.300781 204.429688 194.054688 L 203.300781 200.765625 L 206.515625 200.765625 L 207.398438 195.542969 C 208.023438 191.84375 211.53125 188.839844 215.234375 188.839844 L 254.675781 188.839844 C 258.378906 188.839844 260.878906 191.84375 260.253906 195.542969 L 259.375 200.765625 L 262.589844 200.765625 " fill-opacity="1" fill-rule="nonzero"/><path fill="#000000" d="M 259.9375 200.292969 L 262.191406 200.292969 L 263.253906 193.976562 C 263.621094 191.792969 263.113281 189.753906 261.824219 188.230469 C 260.5625 186.738281 258.691406 185.917969 256.554688 185.917969 L 214.5 185.917969 C 209.96875 185.917969 205.664062 189.605469 204.898438 194.136719 L 203.863281 200.292969 L 206.117188 200.292969 L 206.929688 195.464844 C 207.589844 191.550781 211.316406 188.363281 215.234375 188.363281 L 254.675781 188.363281 C 256.589844 188.363281 258.277344 189.109375 259.421875 190.460938 C 260.589844 191.84375 261.050781 193.675781 260.722656 195.625 Z M 262.59375 201.242188 L 259.375 201.242188 C 259.234375 201.242188 259.101562 201.179688 259.011719 201.074219 C 258.921875 200.96875 258.882812 200.824219 258.90625 200.6875 L 259.785156 195.464844 C 260.066406 193.796875 259.679688 192.238281 258.695312 191.078125 C 257.734375 189.941406 256.304688 189.316406 254.675781 189.316406 L 215.234375 189.316406 C 211.757812 189.316406 208.453125 192.144531 207.867188 195.625 L 206.988281 200.84375 C 206.949219 201.074219 206.75 201.242188 206.515625 201.242188 L 203.300781 201.242188 C 203.160156 201.242188 203.027344 201.179688 202.9375 201.074219 C 202.847656 200.96875 202.808594 200.824219 202.832031 200.6875 L 203.960938 193.976562 C 204.796875 189.007812 209.527344 184.964844 214.5 184.964844 L 256.554688 184.964844 C 258.976562 184.964844 261.105469 185.910156 262.550781 187.617188 C 264.023438 189.355469 264.605469 191.671875 264.191406 194.136719 L 263.0625 200.84375 C 263.023438 201.074219 262.824219 201.242188 262.59375 201.242188 " fill-opacity="1" fill-rule="nonzero"/><path fill="#99b9ff" d="M 254.464844 182.664062 L 217.523438 182.664062 C 216.039062 182.664062 214.625 183.867188 214.375 185.355469 L 213.832031 188.582031 C 213.582031 190.070312 214.585938 191.277344 216.074219 191.277344 L 253.015625 191.277344 C 254.503906 191.277344 255.914062 190.070312 256.164062 188.582031 L 256.707031 185.355469 C 256.957031 183.867188 255.953125 182.664062 254.464844 182.664062 " fill-opacity="1" fill-rule="nonzero"/><path fill="#000000" d="M 217.527344 183.140625 C 216.257812 183.140625 215.054688 184.171875 214.84375 185.4375 L 214.300781 188.664062 C 214.203125 189.25 214.335938 189.792969 214.675781 190.195312 C 215.007812 190.585938 215.503906 190.804688 216.074219 190.804688 L 253.011719 190.804688 C 254.277344 190.804688 255.480469 189.773438 255.695312 188.503906 L 256.238281 185.28125 C 256.335938 184.691406 256.203125 184.148438 255.863281 183.746094 C 255.53125 183.355469 255.035156 183.140625 254.464844 183.140625 Z M 253.011719 191.753906 L 216.074219 191.753906 C 215.21875 191.753906 214.460938 191.417969 213.949219 190.808594 C 213.425781 190.191406 213.21875 189.371094 213.363281 188.503906 L 213.90625 185.28125 C 214.191406 183.574219 215.816406 182.191406 217.527344 182.191406 L 254.464844 182.191406 C 255.320312 182.191406 256.074219 182.523438 256.589844 183.132812 C 257.113281 183.753906 257.320312 184.570312 257.175781 185.4375 L 256.632812 188.664062 C 256.34375 190.367188 254.722656 191.753906 253.011719 191.753906 " fill-opacity="1" fill-rule="nonzero"/><path fill="#99b9ff" d="M 267.085938 300.457031 C 266.921875 300.457031 266.761719 300.371094 266.671875 300.21875 C 266.542969 299.988281 266.625 299.699219 266.851562 299.566406 L 281.089844 291.460938 L 281.089844 210.746094 C 281.089844 210.480469 281.300781 210.269531 281.566406 210.269531 C 281.828125 210.269531 282.042969 210.480469 282.042969 210.746094 L 282.042969 291.734375 C 282.042969 291.90625 281.949219 292.0625 281.800781 292.148438 L 267.324219 300.394531 C 267.246094 300.4375 267.167969 300.457031 267.085938 300.457031 " fill-opacity="1" fill-rule="nonzero"/><path fill="#ffffff" d="M 108.429688 283.332031 L 108.429688 293.910156 L 103.339844 293.597656 L 102.335938 283.332031 L 108.429688 283.332031 " fill-opacity="1" fill-rule="nonzero"/><path fill="#000000" d="M 103.773438 293.148438 L 107.953125 293.402344 L 107.953125 283.808594 L 102.859375 283.808594 Z M 108.429688 294.382812 C 108.417969 294.382812 108.410156 294.382812 108.398438 294.382812 L 103.308594 294.074219 C 103.078125 294.058594 102.886719 293.875 102.867188 293.644531 L 101.863281 283.382812 C 101.851562 283.246094 101.894531 283.113281 101.984375 283.015625 C 102.074219 282.914062 102.203125 282.859375 102.335938 282.859375 L 108.429688 282.859375 C 108.691406 282.859375 108.902344 283.070312 108.902344 283.332031 L 108.902344 293.910156 C 108.902344 294.039062 108.851562 294.164062 108.753906 294.253906 C 108.667969 294.335938 108.550781 294.382812 108.429688 294.382812 " fill-opacity="1" fill-rule="nonzero"/><path fill="#ffffff" d="M 102.574219 307.09375 C 104.648438 307.316406 108.039062 307.457031 111.992188 306.777344 C 113.289062 306.554688 114.109375 305.265625 113.753906 304 C 112.761719 300.476562 110.804688 293.910156 109.246094 290.761719 L 108.304688 292.476562 L 107.554688 290.667969 C 107.425781 290.453125 107.203125 290.3125 106.953125 290.289062 L 105 290.105469 C 104.59375 290.070312 104.105469 290.46875 104.035156 290.871094 L 102.746094 292.476562 L 102.007812 290.570312 L 100.617188 304.679688 C 100.5 305.882812 101.371094 306.964844 102.574219 307.09375 " fill-opacity="1" fill-rule="nonzero"/><path fill="#000000" d="M 102.625 306.621094 C 104.730469 306.847656 108.046875 306.972656 111.910156 306.3125 C 112.398438 306.226562 112.828125 305.9375 113.09375 305.519531 C 113.359375 305.101562 113.429688 304.605469 113.296875 304.128906 C 112.550781 301.488281 110.753906 295.320312 109.210938 291.816406 L 108.722656 292.707031 C 108.632812 292.867188 108.457031 292.960938 108.277344 292.953125 C 108.097656 292.941406 107.9375 292.828125 107.867188 292.660156 L 107.132812 290.886719 C 107.078125 290.816406 106.996094 290.769531 106.90625 290.761719 L 104.957031 290.578125 C 104.800781 290.5625 104.53125 290.789062 104.503906 290.953125 C 104.488281 291.03125 104.453125 291.109375 104.40625 291.171875 L 103.117188 292.773438 C 103.011719 292.90625 102.84375 292.972656 102.675781 292.945312 C 102.507812 292.921875 102.367188 292.808594 102.304688 292.648438 L 102.285156 292.597656 L 101.089844 304.722656 C 101 305.667969 101.6875 306.519531 102.625 306.621094 Z M 106.113281 307.753906 C 104.707031 307.753906 103.492188 307.667969 102.523438 307.566406 C 101.066406 307.410156 100 306.09375 100.144531 304.632812 L 101.535156 290.523438 C 101.554688 290.304688 101.722656 290.128906 101.941406 290.097656 C 102.15625 290.070312 102.371094 290.191406 102.449219 290.398438 L 102.890625 291.539062 L 103.597656 290.65625 C 103.78125 290.058594 104.441406 289.578125 105.046875 289.632812 L 106.996094 289.816406 C 107.394531 289.851562 107.757812 290.078125 107.960938 290.421875 C 107.972656 290.441406 107.984375 290.464844 107.992188 290.484375 L 108.363281 291.378906 L 108.828125 290.535156 C 108.914062 290.378906 109.078125 290.277344 109.253906 290.289062 C 109.429688 290.289062 109.589844 290.394531 109.671875 290.550781 C 111.324219 293.886719 113.394531 300.976562 114.210938 303.871094 C 114.417969 304.601562 114.300781 305.386719 113.898438 306.027344 C 113.488281 306.675781 112.824219 307.117188 112.074219 307.246094 C 109.875 307.625 107.851562 307.753906 106.113281 307.753906 " fill-opacity="1" fill-rule="nonzero"/><path fill="#000000" d="M 107.496094 305.355469 C 104.519531 305.355469 102.230469 304.796875 102.089844 304.761719 C 101.835938 304.695312 101.679688 304.441406 101.742188 304.183594 C 101.808594 303.929688 102.066406 303.773438 102.320312 303.839844 C 102.371094 303.851562 107.453125 305.09375 112.214844 303.839844 C 112.46875 303.773438 112.730469 303.925781 112.796875 304.179688 C 112.863281 304.433594 112.710938 304.691406 112.457031 304.761719 C 110.753906 305.207031 109.03125 305.355469 107.496094 305.355469 " fill-opacity="1" fill-rule="nonzero"/><path fill="#000000" d="M 109.246094 299.863281 L 104.597656 299.863281 C 104.335938 299.863281 104.125 299.652344 104.125 299.390625 C 104.125 299.125 104.335938 298.914062 104.597656 298.914062 L 109.246094 298.914062 C 109.507812 298.914062 109.71875 299.125 109.71875 299.390625 C 109.71875 299.652344 109.507812 299.863281 109.246094 299.863281 " fill-opacity="1" fill-rule="nonzero"/><path fill="#ffffff" d="M 70.984375 277.742188 L 69.480469 290.488281 L 64.710938 290.320312 L 64.710938 277.742188 L 70.984375 277.742188 " fill-opacity="1" fill-rule="nonzero"/><path fill="#000000" d="M 65.1875 289.863281 L 69.058594 290 L 70.453125 278.214844 L 65.1875 278.214844 Z M 69.480469 290.964844 C 69.476562 290.964844 69.472656 290.964844 69.464844 290.964844 L 64.695312 290.796875 C 64.4375 290.789062 64.234375 290.578125 64.234375 290.320312 L 64.234375 277.742188 C 64.234375 277.476562 64.449219 277.265625 64.710938 277.265625 L 70.984375 277.265625 C 71.121094 277.265625 71.25 277.320312 71.339844 277.425781 C 71.429688 277.523438 71.472656 277.660156 71.457031 277.796875 L 69.953125 290.542969 C 69.925781 290.785156 69.722656 290.964844 69.480469 290.964844 " fill-opacity="1" fill-rule="nonzero"/><path fill="#ffffff" d="M 70.617188 287.445312 C 70.617188 287.445312 71.230469 293.109375 71.039062 295.386719 C 70.90625 297.015625 68.667969 301.9375 67.40625 304.605469 C 66.886719 305.703125 65.898438 306.40625 64.800781 306.453125 C 63.460938 306.511719 61.601562 306.578125 60.097656 306.582031 C 58.035156 306.582031 56.613281 304.234375 57.351562 302.046875 C 58.03125 300.027344 59.113281 297.5 60.8125 294.804688 C 62.089844 292.773438 63.960938 287.261719 63.960938 287.261719 L 67.847656 287.261719 L 68.609375 290.488281 L 70.617188 287.445312 " fill-opacity="1" fill-rule="nonzero"/><path fill="#000000" d="M 64.300781 287.734375 C 63.875 288.960938 62.34375 293.265625 61.214844 295.054688 C 59.78125 297.328125 58.632812 299.730469 57.800781 302.199219 C 57.46875 303.1875 57.621094 304.265625 58.207031 305.082031 C 58.675781 305.730469 59.363281 306.105469 60.097656 306.105469 C 61.597656 306.101562 63.472656 306.035156 64.78125 305.976562 C 65.691406 305.941406 66.535156 305.335938 66.976562 304.402344 C 69.164062 299.773438 70.472656 296.472656 70.566406 295.347656 C 70.695312 293.808594 70.441406 290.632812 70.273438 288.828125 L 69.007812 290.75 C 68.902344 290.90625 68.714844 290.988281 68.527344 290.957031 C 68.339844 290.921875 68.191406 290.78125 68.148438 290.597656 L 67.472656 287.734375 Z M 60.097656 307.054688 C 59.054688 307.054688 58.082031 306.539062 57.433594 305.636719 C 56.667969 304.570312 56.46875 303.171875 56.898438 301.898438 C 57.757812 299.355469 58.9375 296.882812 60.410156 294.550781 C 61.644531 292.589844 63.492188 287.164062 63.511719 287.109375 C 63.574219 286.914062 63.757812 286.785156 63.960938 286.785156 L 67.847656 286.785156 C 68.070312 286.785156 68.261719 286.9375 68.3125 287.152344 L 68.820312 289.304688 L 70.21875 287.183594 C 70.328125 287.015625 70.535156 286.9375 70.726562 286.984375 C 70.921875 287.03125 71.066406 287.195312 71.089844 287.394531 C 71.113281 287.628906 71.707031 293.128906 71.515625 295.425781 C 71.378906 297.035156 69.441406 301.414062 67.835938 304.808594 C 67.242188 306.0625 66.085938 306.875 64.820312 306.929688 C 63.503906 306.984375 61.617188 307.054688 60.097656 307.054688 " fill-opacity="1" fill-rule="nonzero"/><path fill="#000000" d="M 69.230469 297.925781 Z M 63.0625 304.628906 C 63.0625 304.628906 63.0625 304.628906 63.058594 304.628906 L 58.632812 304.625 C 58.371094 304.625 58.15625 304.410156 58.15625 304.148438 C 58.15625 303.886719 58.371094 303.675781 58.632812 303.675781 L 63.058594 303.679688 C 63.0625 303.679688 63.0625 303.679688 63.0625 303.679688 C 64.425781 303.679688 65.664062 302.882812 66.300781 301.601562 C 68.398438 297.375 68.507812 297.285156 68.628906 297.1875 C 68.832031 297.023438 69.128906 297.050781 69.296875 297.257812 C 69.445312 297.441406 69.4375 297.703125 69.28125 297.875 C 69.210938 297.984375 68.855469 298.59375 67.152344 302.027344 C 66.355469 303.632812 64.789062 304.628906 63.0625 304.628906 " fill-opacity="1" fill-rule="nonzero"/><path fill="#000000" d="M 64.933594 300.023438 L 60.679688 300.023438 C 60.414062 300.023438 60.203125 299.808594 60.203125 299.546875 C 60.203125 299.285156 60.414062 299.074219 60.679688 299.074219 L 64.933594 299.074219 C 65.195312 299.074219 65.410156 299.285156 65.410156 299.546875 C 65.410156 299.808594 65.195312 300.023438 64.933594 300.023438 " fill-opacity="1" fill-rule="nonzero"/><path fill="#000000" d="M 116.605469 177.621094 C 116.605469 177.621094 116.097656 216.53125 114.464844 241.859375 C 112.828125 267.1875 109.601562 286.554688 109.601562 286.554688 C 109.601562 286.554688 104.050781 288.550781 100.40625 287.503906 C 100.40625 287.503906 97.386719 265.285156 96.703125 257.773438 C 96.015625 250.265625 97.835938 246.539062 97.988281 240.394531 C 98.144531 234.246094 95.339844 207.109375 95.339844 207.109375 C 95.339844 207.109375 74.410156 268.460938 72.015625 282.011719 C 72.015625 282.011719 66.949219 282.871094 63.375 280.917969 C 63.375 280.917969 63.265625 256.789062 63.769531 253.0625 C 64.710938 246.15625 70.109375 239.355469 71.078125 232.019531 C 72.046875 224.683594 72.609375 206.273438 75.277344 195.230469 C 77.949219 184.1875 83.1875 171.78125 83.1875 171.78125 L 116.605469 177.621094 " fill-opacity="1" fill-rule="nonzero"/><path fill="#ffffff" d="M 80.953125 192.160156 C 80.765625 192.160156 80.585938 192.050781 80.511719 191.863281 C 80.410156 191.621094 80.527344 191.34375 80.769531 191.242188 C 87.5 188.488281 89.511719 181.890625 89.53125 181.824219 C 89.601562 181.570312 89.867188 181.429688 90.121094 181.5 C 90.371094 181.578125 90.515625 181.839844 90.441406 182.089844 C 90.359375 182.378906 88.296875 189.1875 81.132812 192.125 C 81.074219 192.148438 81.011719 192.160156 80.953125 192.160156 " fill-opacity="1" fill-rule="nonzero"/><path fill="#ffffff" d="M 74.632812 210.289062 C 74.609375 210.289062 74.589844 210.289062 74.570312 210.285156 C 74.308594 210.253906 74.125 210.015625 74.160156 209.753906 C 76.570312 191.21875 83.816406 178.824219 83.890625 178.699219 C 84.023438 178.472656 84.3125 178.398438 84.539062 178.53125 C 84.765625 178.667969 84.839844 178.957031 84.707031 179.183594 C 84.636719 179.304688 77.488281 191.546875 75.101562 209.875 C 75.070312 210.117188 74.867188 210.289062 74.632812 210.289062 " fill-opacity="1" fill-rule="nonzero"/><path fill="#ffffff" d="M 174.917969 120.085938 L 167.164062 126.203125 L 165.902344 134 C 164.339844 135.820312 162.71875 137.398438 161.054688 138.769531 C 161.609375 139.410156 162.160156 140.054688 162.695312 140.707031 C 163.566406 141.773438 164.414062 142.855469 165.265625 143.9375 C 168.027344 139.039062 168.496094 135.050781 168.496094 135.050781 C 173.824219 133.210938 172.785156 128.996094 172.210938 127.992188 C 171.640625 126.984375 171.789062 125.617188 173.816406 123.28125 C 176.039062 120.726562 174.917969 120.085938 174.917969 120.085938 " fill-opacity="1" fill-rule="nonzero"/><path fill="#000000" d="M 165.898438 134 L 165.902344 134 Z M 161.730469 138.824219 C 162.164062 139.332031 162.617188 139.867188 163.0625 140.410156 C 163.796875 141.308594 164.53125 142.230469 165.195312 143.078125 C 167.570312 138.617188 168.019531 135.03125 168.023438 134.996094 C 168.046875 134.816406 168.167969 134.660156 168.34375 134.601562 C 170.230469 133.949219 171.449219 132.933594 171.953125 131.585938 C 172.527344 130.074219 172.019531 128.617188 171.800781 128.226562 C 171.015625 126.847656 171.542969 125.175781 173.457031 122.972656 C 174.433594 121.847656 174.671875 121.183594 174.714844 120.851562 L 167.605469 126.464844 L 166.367188 134.078125 C 166.355469 134.164062 166.316406 134.242188 166.261719 134.308594 C 164.851562 135.953125 163.328125 137.472656 161.730469 138.824219 Z M 165.265625 144.410156 C 165.117188 144.410156 164.980469 144.34375 164.890625 144.230469 C 164.121094 143.25 163.222656 142.109375 162.328125 141.011719 C 161.78125 140.34375 161.21875 139.6875 160.695312 139.078125 C 160.609375 138.984375 160.570312 138.855469 160.582031 138.730469 C 160.589844 138.601562 160.652344 138.484375 160.753906 138.402344 C 162.410156 137.035156 163.992188 135.484375 165.449219 133.792969 L 166.695312 126.128906 C 166.714844 126.011719 166.777344 125.90625 166.871094 125.832031 L 174.625 119.714844 C 174.777344 119.59375 174.984375 119.578125 175.15625 119.675781 C 175.222656 119.710938 175.5625 119.933594 175.65625 120.46875 C 175.789062 121.261719 175.289062 122.3125 174.175781 123.59375 C 172.054688 126.039062 172.273438 127.140625 172.625 127.757812 C 173.058594 128.519531 173.472656 130.253906 172.847656 131.921875 C 172.257812 133.476562 170.941406 134.648438 168.929688 135.402344 C 168.761719 136.425781 168.058594 139.949219 165.679688 144.167969 C 165.597656 144.308594 165.457031 144.398438 165.300781 144.410156 C 165.285156 144.410156 165.277344 144.410156 165.265625 144.410156 " fill-opacity="1" fill-rule="nonzero"/><path fill="#ffffff" d="M 120.414062 134.628906 C 120.414062 134.628906 107.925781 132.839844 95.628906 132.484375 C 95.628906 132.484375 80.207031 172.6875 80.210938 175.402344 C 80.210938 178.113281 86.796875 181.582031 95.628906 179.371094 C 104.464844 177.15625 115.6875 176.9375 122 178.410156 C 131.457031 180.617188 120.414062 134.628906 120.414062 134.628906 " fill-opacity="1" fill-rule="nonzero"/><path fill="#000000" d="M 95.953125 132.96875 C 89.769531 149.101562 80.683594 173.488281 80.6875 175.398438 C 80.6875 176.011719 81.144531 176.707031 81.980469 177.359375 C 84.367188 179.21875 89.476562 180.421875 95.515625 178.910156 C 103.960938 176.792969 115.394531 176.378906 122.109375 177.945312 C 122.804688 178.109375 123.339844 177.972656 123.796875 177.515625 C 128 173.285156 122.570312 145.738281 120.027344 135.050781 C 118.019531 134.777344 106.886719 133.308594 95.953125 132.96875 Z M 90.078125 180.558594 C 86.089844 180.558594 83.058594 179.40625 81.394531 178.109375 C 80.324219 177.273438 79.734375 176.3125 79.734375 175.402344 C 79.734375 172.679688 93.605469 136.4375 95.183594 132.3125 C 95.257812 132.125 95.4375 132 95.644531 132.007812 C 107.824219 132.363281 120.355469 134.136719 120.480469 134.15625 C 120.675781 134.183594 120.832031 134.328125 120.875 134.515625 C 121.25 136.070312 129.957031 172.667969 124.46875 178.183594 C 123.789062 178.871094 122.898438 179.109375 121.890625 178.875 C 115.304688 177.335938 104.0625 177.746094 95.746094 179.832031 C 93.699219 180.34375 91.800781 180.558594 90.078125 180.558594 " fill-opacity="1" fill-rule="nonzero"/><path fill="#0b0444" d="M 163.59375 134.824219 L 170.128906 136.78125 C 170.128906 136.78125 168.085938 151.929688 156.527344 159.632812 C 144.972656 167.335938 129.660156 159.023438 129.660156 159.023438 L 130.285156 181.507812 C 130.40625 185.875 127.535156 189.777344 123.324219 190.941406 C 119.664062 191.957031 115.957031 192.71875 115.886719 191.683594 C 115.554688 186.882812 118.933594 133.933594 118.933594 133.933594 C 118.933594 133.933594 122.730469 133.476562 125.828125 136.003906 C 128.925781 138.527344 137.378906 148.039062 147.046875 145.492188 C 156.710938 142.941406 163.59375 134.824219 163.59375 134.824219 " fill-opacity="1" fill-rule="nonzero"/><path fill="#0b0444" d="M 96.136719 131.929688 C 95.207031 131.929688 93.628906 172.042969 93.105469 185.992188 C 92.988281 189.140625 90.597656 191.726562 87.464844 192.117188 C 83.585938 192.601562 78.171875 192.253906 73.015625 188.433594 C 63.492188 181.378906 81.484375 140.789062 89.617188 131.929688 L 96.136719 131.929688 " fill-opacity="1" fill-rule="nonzero"/><path fill="#000000" d="M 134.886719 145.445312 L 112.183594 143.105469 C 111.421875 143.105469 110.699219 143.742188 110.570312 144.53125 L 105.089844 178.355469 C 104.960938 179.140625 105.476562 179.78125 106.238281 179.78125 L 130.3125 178.601562 C 131.074219 178.601562 131.875 179.140625 132 178.355469 L 137.484375 144.53125 C 137.609375 143.742188 135.648438 145.445312 134.886719 145.445312 " fill-opacity="1" fill-rule="nonzero"/><path fill="#000000" d="M 112.160156 143.578125 C 111.640625 143.59375 111.128906 144.058594 111.042969 144.605469 L 105.558594 178.429688 C 105.519531 178.683594 105.574219 178.914062 105.710938 179.078125 C 105.839844 179.226562 106.019531 179.304688 106.238281 179.304688 L 130.289062 178.125 C 130.605469 178.132812 130.871094 178.183594 131.113281 178.234375 C 131.242188 178.265625 131.425781 178.304688 131.527344 178.308594 C 131.527344 178.300781 131.53125 178.289062 131.53125 178.277344 L 136.925781 145.007812 C 136.792969 145.082031 136.660156 145.160156 136.546875 145.222656 C 135.824219 145.644531 135.316406 145.917969 134.886719 145.917969 C 134.871094 145.917969 134.851562 145.917969 134.835938 145.917969 Z M 106.257812 180.253906 C 105.738281 180.253906 105.296875 180.054688 104.988281 179.695312 C 104.667969 179.320312 104.535156 178.804688 104.621094 178.277344 L 110.101562 144.457031 C 110.269531 143.429688 111.183594 142.628906 112.183594 142.628906 C 112.199219 142.628906 112.214844 142.628906 112.230469 142.632812 L 134.902344 144.96875 C 135.125 144.949219 135.714844 144.609375 136.070312 144.402344 C 136.820312 143.96875 137.3125 143.679688 137.710938 143.953125 C 137.804688 144.019531 138.015625 144.210938 137.953125 144.605469 L 132.472656 178.429688 C 132.421875 178.734375 132.289062 178.960938 132.082031 179.101562 C 131.730469 179.34375 131.3125 179.253906 130.910156 179.164062 C 130.707031 179.121094 130.496094 179.074219 130.3125 179.074219 L 106.261719 180.253906 C 106.261719 180.253906 106.261719 180.253906 106.257812 180.253906 " fill-opacity="1" fill-rule="nonzero"/><path fill="#ffffff" d="M 137.085938 143.105469 L 112.933594 143.105469 C 112.171875 143.105469 111.453125 143.742188 111.324219 144.53125 L 105.839844 178.355469 C 105.714844 179.140625 106.226562 179.78125 106.988281 179.78125 L 131.140625 179.78125 C 131.90625 179.78125 132.625 179.140625 132.753906 178.355469 L 138.234375 144.53125 C 138.363281 143.742188 137.847656 143.105469 137.085938 143.105469 " fill-opacity="1" fill-rule="nonzero"/><path fill="#000000" d="M 112.933594 143.578125 C 112.40625 143.578125 111.882812 144.050781 111.792969 144.605469 L 106.3125 178.429688 C 106.269531 178.683594 106.324219 178.914062 106.464844 179.078125 C 106.589844 179.226562 106.773438 179.304688 106.988281 179.304688 L 131.140625 179.304688 C 131.671875 179.304688 132.195312 178.835938 132.285156 178.277344 L 137.765625 144.457031 C 137.808594 144.203125 137.753906 143.96875 137.613281 143.804688 C 137.488281 143.660156 137.304688 143.578125 137.085938 143.578125 Z M 131.140625 180.253906 L 106.988281 180.253906 C 106.492188 180.253906 106.046875 180.054688 105.738281 179.695312 C 105.421875 179.320312 105.285156 178.804688 105.371094 178.277344 L 110.855469 144.457031 C 111.019531 143.429688 111.933594 142.628906 112.933594 142.628906 L 137.085938 142.628906 C 137.585938 142.628906 138.027344 142.828125 138.335938 143.191406 C 138.65625 143.566406 138.789062 144.082031 138.703125 144.605469 L 133.222656 178.429688 C 133.058594 179.453125 132.144531 180.253906 131.140625 180.253906 " fill-opacity="1" fill-rule="nonzero"/><path fill="#ffffff" d="M 107.5625 158.417969 L 107.820312 161.597656 L 117.496094 159.84375 C 117.496094 159.84375 117.71875 160.164062 117.851562 160.679688 C 118.03125 161.371094 118.050781 162.414062 117.167969 163.515625 C 116.746094 164.042969 115.074219 164.058594 115.203125 165.101562 C 115.316406 166.011719 111.535156 166.71875 108.265625 167.328125 C 104.605469 168.007812 104.917969 162.792969 105.824219 160.121094 C 106.527344 158.042969 107.5625 158.417969 107.5625 158.417969 " fill-opacity="1" fill-rule="nonzero"/><path fill="#000000" d="M 107.128906 158.933594 C 106.878906 159.074219 106.554688 159.445312 106.273438 160.273438 C 105.574219 162.332031 105.429688 165.253906 106.410156 166.386719 C 106.8125 166.851562 107.390625 167.007812 108.179688 166.859375 C 110.324219 166.460938 114.292969 165.726562 114.726562 165.109375 C 114.632812 164.117188 115.5625 163.757812 116.179688 163.519531 C 116.410156 163.433594 116.722656 163.3125 116.796875 163.21875 C 117.5625 162.265625 117.542969 161.375 117.390625 160.796875 C 117.347656 160.628906 117.292969 160.484375 117.242188 160.371094 L 107.90625 162.066406 C 107.777344 162.09375 107.640625 162.058594 107.53125 161.976562 C 107.425781 161.894531 107.359375 161.773438 107.347656 161.636719 Z M 107.652344 167.863281 C 106.664062 167.863281 106.046875 167.421875 105.691406 167.007812 C 104.265625 165.363281 104.71875 161.898438 105.371094 159.96875 C 105.707031 158.980469 106.171875 158.339844 106.75 158.058594 C 107.253906 157.820312 107.648438 157.941406 107.722656 157.96875 C 107.898438 158.035156 108.019531 158.191406 108.035156 158.378906 L 108.253906 161.039062 L 117.410156 159.375 C 117.59375 159.34375 117.777344 159.417969 117.886719 159.570312 C 117.914062 159.609375 118.160156 159.976562 118.3125 160.558594 C 118.515625 161.347656 118.550781 162.554688 117.535156 163.816406 C 117.304688 164.105469 116.925781 164.253906 116.523438 164.40625 C 115.820312 164.679688 115.644531 164.808594 115.675781 165.042969 C 115.828125 166.269531 113.445312 166.847656 108.351562 167.792969 C 108.101562 167.84375 107.867188 167.863281 107.652344 167.863281 " fill-opacity="1" fill-rule="nonzero"/><path fill="#0b0444" d="M 106.351562 167.203125 L 104.414062 164.253906 C 104.414062 164.253906 94.792969 166.207031 90.351562 164.253906 C 82.597656 160.851562 84.0625 148.949219 85.382812 143.027344 C 86.703125 137.101562 89.617188 131.929688 89.617188 131.929688 C 89.617188 131.929688 82.492188 135.953125 77.660156 144.800781 C 72.828125 153.648438 71.253906 173.445312 87.417969 177.023438 C 97.988281 179.363281 106.351562 167.203125 106.351562 167.203125 " fill-opacity="1" fill-rule="nonzero"/><path fill="#ffffff" d="M 89.195312 178.070312 C 80.757812 178.070312 76.777344 170.273438 76.726562 170.175781 C 76.613281 169.941406 76.707031 169.660156 76.941406 169.539062 C 77.179688 169.421875 77.460938 169.519531 77.582031 169.753906 C 77.808594 170.210938 83.304688 180.917969 95.5 175.710938 C 95.742188 175.605469 96.019531 175.71875 96.125 175.960938 C 96.226562 176.203125 96.113281 176.480469 95.875 176.582031 C 93.398438 177.640625 91.175781 178.070312 89.195312 178.070312 " fill-opacity="1" fill-rule="nonzero"/><path fill="#ffffff" d="M 95.199219 165.6875 C 88.957031 165.6875 86.160156 161.894531 86.035156 161.71875 C 85.882812 161.503906 85.929688 161.207031 86.144531 161.054688 C 86.355469 160.902344 86.652344 160.953125 86.804688 161.164062 C 86.9375 161.34375 89.996094 165.433594 96.980469 164.632812 C 97.238281 164.601562 97.476562 164.789062 97.507812 165.050781 C 97.535156 165.308594 97.351562 165.546875 97.089844 165.578125 C 96.429688 165.652344 95.796875 165.6875 95.199219 165.6875 " fill-opacity="1" fill-rule="nonzero"/><path fill="#000000" d="M 116.066406 109.296875 C 116.066406 118.863281 109.707031 129.777344 100.136719 129.777344 C 90.570312 129.777344 80.828125 121.539062 80.828125 111.972656 C 80.828125 102.410156 88.878906 93.199219 98.449219 93.199219 C 108.019531 93.199219 116.066406 99.734375 116.066406 109.296875 " fill-opacity="1" fill-rule="nonzero"/><path fill="#000000" d="M 84.804688 117.296875 C 84.804688 118.394531 83.914062 119.28125 82.816406 119.28125 C 81.71875 119.28125 80.828125 118.394531 80.828125 117.296875 C 80.828125 116.199219 81.71875 115.308594 82.816406 115.308594 C 83.914062 115.308594 84.804688 116.199219 84.804688 117.296875 " fill-opacity="1" fill-rule="nonzero"/><path fill="#000000" d="M 82.816406 121.078125 C 82.816406 122.746094 84.167969 124.097656 85.835938 124.097656 C 87.503906 124.097656 88.855469 122.746094 88.855469 121.078125 C 88.855469 119.410156 87.503906 118.058594 85.835938 118.058594 C 84.167969 118.058594 82.816406 119.410156 82.816406 121.078125 " fill-opacity="1" fill-rule="nonzero"/><path fill="#000000" d="M 87.0625 121.667969 C 85.648438 123.082031 85.648438 125.371094 87.0625 126.78125 C 88.476562 128.195312 90.765625 128.195312 92.179688 126.78125 C 93.59375 125.371094 93.59375 123.082031 92.179688 121.667969 C 90.765625 120.253906 88.476562 120.253906 87.0625 121.667969 " fill-opacity="1" fill-rule="nonzero"/><path fill="#000000" d="M 91.042969 126.238281 C 91.042969 128.507812 92.878906 130.34375 95.148438 130.34375 C 97.417969 130.34375 99.253906 128.507812 99.253906 126.238281 C 99.253906 123.972656 97.417969 122.136719 95.148438 122.136719 C 92.878906 122.136719 91.042969 123.972656 91.042969 126.238281 " fill-opacity="1" fill-rule="nonzero"/><path fill="#000000" d="M 96.476562 126.707031 C 96.734375 129.191406 98.960938 131 101.449219 130.746094 C 103.941406 130.488281 105.75 128.261719 105.492188 125.773438 C 105.234375 123.285156 103.007812 121.476562 100.519531 121.734375 C 98.03125 121.992188 96.21875 124.214844 96.476562 126.707031 " fill-opacity="1" fill-rule="nonzero"/><path fill="#000000" d="M 86.460938 110.441406 C 86.460938 112.480469 84.808594 114.136719 82.765625 114.136719 C 80.726562 114.136719 79.070312 112.480469 79.070312 110.441406 C 79.070312 108.402344 80.726562 106.75 82.765625 106.75 C 84.808594 106.75 86.460938 108.402344 86.460938 110.441406 " fill-opacity="1" fill-rule="nonzero"/><path fill="#000000" d="M 87.679688 108.910156 C 86.113281 110.476562 83.574219 110.476562 82.003906 108.910156 C 80.4375 107.34375 80.4375 104.804688 82.003906 103.238281 C 83.574219 101.671875 86.113281 101.671875 87.679688 103.238281 C 89.25 104.804688 89.25 107.34375 87.679688 108.910156 " fill-opacity="1" fill-rule="nonzero"/><path fill="#000000" d="M 85.058594 114.472656 C 85.058594 115.738281 84.03125 116.765625 82.765625 116.765625 C 81.5 116.765625 80.472656 115.738281 80.472656 114.472656 C 80.472656 113.207031 81.5 112.179688 82.765625 112.179688 C 84.03125 112.179688 85.058594 113.207031 85.058594 114.472656 " fill-opacity="1" fill-rule="nonzero"/><path fill="#000000" d="M 117.09375 109.855469 C 117.09375 111.570312 115.703125 112.964844 113.984375 112.964844 C 112.269531 112.964844 110.875 111.570312 110.875 109.855469 C 110.875 108.140625 112.269531 106.75 113.984375 106.75 C 115.703125 106.75 117.09375 108.140625 117.09375 109.855469 " fill-opacity="1" fill-rule="nonzero"/><path fill="#000000" d="M 117.460938 105.863281 C 117.460938 107.683594 115.988281 109.15625 114.167969 109.15625 C 112.351562 109.15625 110.875 107.683594 110.875 105.863281 C 110.875 104.046875 112.351562 102.574219 114.167969 102.574219 C 115.988281 102.574219 117.460938 104.046875 117.460938 105.863281 " fill-opacity="1" fill-rule="nonzero"/><path fill="#000000" d="M 115.363281 101.933594 C 115.363281 103.855469 113.800781 105.414062 111.878906 105.414062 C 109.953125 105.414062 108.394531 103.855469 108.394531 101.933594 C 108.394531 100.007812 109.953125 98.449219 111.878906 98.449219 C 113.800781 98.449219 115.363281 100.007812 115.363281 101.933594 " fill-opacity="1" fill-rule="nonzero"/><path fill="#000000" d="M 106.140625 97.671875 C 106.140625 99.472656 107.601562 100.933594 109.40625 100.933594 C 111.207031 100.933594 112.671875 99.472656 112.671875 97.671875 C 112.671875 95.867188 111.207031 94.40625 109.40625 94.40625 C 107.601562 94.40625 106.140625 95.867188 106.140625 97.671875 " fill-opacity="1" fill-rule="nonzero"/><path fill="#000000" d="M 107.5 95.433594 C 107.5 96.667969 106.5 97.671875 105.265625 97.671875 C 104.027344 97.671875 103.027344 96.667969 103.027344 95.433594 C 103.027344 94.199219 104.027344 93.199219 105.265625 93.199219 C 106.5 93.199219 107.5 94.199219 107.5 95.433594 " fill-opacity="1" fill-rule="nonzero"/><path fill="#000000" d="M 104.101562 94.695312 C 104.101562 96.253906 102.835938 97.519531 101.273438 97.519531 C 99.714844 97.519531 98.449219 96.253906 98.449219 94.695312 C 98.449219 93.136719 99.714844 91.871094 101.273438 91.871094 C 102.835938 91.871094 104.101562 93.136719 104.101562 94.695312 " fill-opacity="1" fill-rule="nonzero"/><path fill="#000000" d="M 100.578125 96.40625 C 100.578125 98.519531 98.867188 100.226562 96.757812 100.226562 C 94.644531 100.226562 92.933594 98.519531 92.933594 96.40625 C 92.933594 94.296875 94.644531 92.585938 96.757812 92.585938 C 98.867188 92.585938 100.578125 94.296875 100.578125 96.40625 " fill-opacity="1" fill-rule="nonzero"/><path fill="#000000" d="M 92.273438 93.199219 C 94.15625 93.199219 95.6875 94.726562 95.6875 96.613281 C 95.6875 98.496094 94.15625 100.023438 92.273438 100.023438 C 90.386719 100.023438 88.855469 98.496094 88.855469 96.613281 C 88.855469 94.726562 90.386719 93.199219 92.273438 93.199219 " fill-opacity="1" fill-rule="nonzero"/><path fill="#000000" d="M 88.855469 94.738281 C 90.910156 94.738281 92.570312 96.398438 92.570312 98.449219 C 92.570312 100.5 90.910156 102.164062 88.855469 102.164062 C 86.804688 102.164062 85.144531 100.5 85.144531 98.449219 C 85.144531 96.398438 86.804688 94.738281 88.855469 94.738281 " fill-opacity="1" fill-rule="nonzero"/><path fill="#000000" d="M 86.460938 101.425781 C 86.460938 102.816406 85.332031 103.945312 83.9375 103.945312 C 82.546875 103.945312 81.414062 102.816406 81.414062 101.425781 C 81.414062 100.03125 82.546875 98.902344 83.9375 98.902344 C 85.332031 98.902344 86.460938 100.03125 86.460938 101.425781 " fill-opacity="1" fill-rule="nonzero"/><path fill="#ffffff" d="M 115.289062 133.914062 C 112.675781 133.460938 113.046875 124.964844 113.234375 123.203125 L 113.886719 123.351562 C 115.722656 123.761719 117.304688 122.011719 116.707031 120.234375 C 116.34375 119.144531 116.011719 118.253906 116.011719 118.253906 L 116.207031 116.699219 C 114.148438 115.929688 112.589844 113.230469 112.589844 113.230469 L 108.113281 114.136719 C 105.886719 115.042969 107.648438 115.976562 108.671875 118.152344 C 108.671875 118.152344 109.042969 120.023438 107.28125 118.875 C 105.726562 117.859375 105.328125 117.929688 104.925781 118.550781 C 104.570312 119.09375 104.570312 119.796875 104.890625 120.359375 L 105.195312 120.894531 C 105.503906 121.433594 106.03125 121.8125 106.640625 121.933594 L 106.648438 121.9375 C 106.914062 128.125 102.800781 131.976562 98.660156 132.894531 C 98.558594 132.917969 98.449219 132.941406 98.34375 132.960938 L 98.265625 132.976562 C 98.421875 133.121094 113.609375 143.589844 116.929688 134.363281 L 115.289062 133.914062 " fill-opacity="1" fill-rule="nonzero"/><path fill="#000000" d="M 98.265625 132.976562 L 98.269531 132.976562 Z M 99.421875 133.191406 C 101.976562 134.828125 108.960938 138.6875 113.242188 137.4375 C 114.652344 137.023438 115.65625 136.121094 116.292969 134.683594 L 115.183594 134.378906 C 111.800781 133.742188 112.75 123.261719 112.761719 123.15625 C 112.777344 123.019531 112.847656 122.898438 112.957031 122.816406 C 113.066406 122.738281 113.207031 122.710938 113.339844 122.742188 L 113.992188 122.886719 C 114.683594 123.042969 115.382812 122.820312 115.859375 122.292969 C 116.332031 121.769531 116.480469 121.054688 116.257812 120.382812 C 115.898438 119.316406 115.570312 118.425781 115.566406 118.421875 C 115.539062 118.347656 115.53125 118.273438 115.542969 118.195312 L 115.691406 116.996094 C 114.0625 116.21875 112.8125 114.460938 112.359375 113.761719 L 108.253906 114.59375 C 107.660156 114.839844 107.542969 115.027344 107.523438 115.097656 C 107.457031 115.316406 107.796875 115.820312 108.125 116.304688 C 108.421875 116.746094 108.796875 117.296875 109.105469 117.949219 C 109.121094 117.980469 109.132812 118.019531 109.140625 118.058594 C 109.175781 118.242188 109.324219 119.167969 108.730469 119.570312 C 108.113281 119.984375 107.289062 119.449219 107.019531 119.273438 C 106.769531 119.109375 106.003906 118.605469 105.628906 118.574219 C 105.542969 118.5625 105.484375 118.558594 105.324219 118.808594 C 105.074219 119.191406 105.066406 119.707031 105.304688 120.125 L 105.609375 120.660156 C 105.847656 121.078125 106.257812 121.375 106.734375 121.46875 C 106.949219 121.511719 107.113281 121.695312 107.121094 121.917969 C 107.390625 128.105469 103.433594 132.003906 99.421875 133.191406 Z M 111.359375 138.636719 C 105.539062 138.636719 98.007812 133.382812 97.941406 133.320312 C 97.808594 133.199219 97.761719 133.011719 97.808594 132.84375 C 97.859375 132.671875 98.003906 132.542969 98.175781 132.507812 L 98.257812 132.496094 C 98.355469 132.476562 98.457031 132.453125 98.558594 132.433594 C 102.332031 131.59375 106.277344 128.074219 106.183594 122.300781 C 105.59375 122.089844 105.097656 121.675781 104.785156 121.128906 L 104.480469 120.59375 C 104.058594 119.859375 104.078125 118.976562 104.527344 118.289062 C 104.65625 118.089844 105.003906 117.558594 105.714844 117.625 C 106.148438 117.664062 106.679688 117.910156 107.542969 118.476562 C 107.945312 118.738281 108.136719 118.773438 108.195312 118.773438 C 108.234375 118.6875 108.242188 118.472656 108.214844 118.296875 C 107.945312 117.738281 107.621094 117.257812 107.335938 116.835938 C 106.820312 116.078125 106.414062 115.476562 106.613281 114.824219 C 106.796875 114.21875 107.453125 113.890625 107.933594 113.695312 C 107.960938 113.683594 107.988281 113.675781 108.019531 113.671875 L 112.496094 112.761719 C 112.695312 112.722656 112.898438 112.816406 113 112.992188 C 113.015625 113.015625 114.5 115.554688 116.375 116.253906 C 116.578125 116.332031 116.707031 116.539062 116.679688 116.757812 L 116.5 118.199219 C 116.597656 118.472656 116.867188 119.21875 117.15625 120.082031 C 117.492188 121.082031 117.269531 122.148438 116.5625 122.929688 C 115.855469 123.714844 114.816406 124.046875 113.785156 123.816406 L 113.660156 123.785156 C 113.417969 126.898438 113.566406 133.132812 115.371094 133.445312 C 115.386719 133.449219 115.402344 133.453125 115.417969 133.457031 L 117.058594 133.90625 C 117.183594 133.941406 117.292969 134.027344 117.351562 134.144531 C 117.414062 134.261719 117.421875 134.398438 117.378906 134.527344 C 116.617188 136.636719 115.207031 137.953125 113.191406 138.433594 C 112.609375 138.570312 111.992188 138.636719 111.359375 138.636719 " fill-opacity="1" fill-rule="nonzero"/><path fill="#000000" d="M 109.511719 133.785156 C 109.214844 133.785156 108.867188 133.730469 108.488281 133.570312 C 108.246094 133.46875 108.132812 133.1875 108.234375 132.945312 C 108.335938 132.707031 108.617188 132.59375 108.859375 132.695312 C 109.613281 133.011719 110.117188 132.695312 110.140625 132.683594 C 110.355469 132.542969 110.652344 132.601562 110.796875 132.816406 C 110.941406 133.03125 110.886719 133.320312 110.675781 133.46875 C 110.648438 133.484375 110.207031 133.785156 109.511719 133.785156 " fill-opacity="1" fill-rule="nonzero"/><path fill="#0b0444" d="M 109.539062 124.183594 C 109.539062 125.6875 108.316406 126.910156 106.8125 126.910156 C 105.308594 126.910156 104.085938 125.6875 104.085938 124.183594 C 104.085938 122.679688 105.308594 121.460938 106.8125 121.460938 C 108.316406 121.460938 109.539062 122.679688 109.539062 124.183594 " fill-opacity="1" fill-rule="nonzero"/><path fill="#000000" d="M 307.601562 157.511719 C 307.347656 157.511719 307.132812 157.304688 307.128906 157.046875 L 307.09375 155.363281 C 307.085938 155.097656 307.296875 154.882812 307.558594 154.875 C 307.558594 154.875 307.5625 154.875 307.566406 154.875 C 307.824219 154.875 308.039062 155.082031 308.042969 155.339844 L 308.082031 157.027344 C 308.085938 157.289062 307.878906 157.503906 307.613281 157.511719 C 307.609375 157.511719 307.605469 157.511719 307.601562 157.511719 " fill-opacity="1" fill-rule="nonzero"/><path fill="#000000" d="M 307.730469 163.410156 C 307.46875 163.410156 307.261719 163.203125 307.253906 162.945312 L 307.214844 161.261719 C 307.210938 160.996094 307.417969 160.777344 307.683594 160.773438 C 307.6875 160.773438 307.6875 160.773438 307.695312 160.773438 C 307.949219 160.773438 308.164062 160.980469 308.167969 161.238281 L 308.207031 162.925781 C 308.210938 163.1875 308.003906 163.402344 307.738281 163.410156 C 307.738281 163.410156 307.730469 163.410156 307.730469 163.410156 " fill-opacity="1" fill-rule="nonzero"/><path fill="#000000" d="M 303.910156 159.648438 C 303.648438 159.648438 303.4375 159.4375 303.4375 159.175781 C 303.433594 158.914062 303.644531 158.699219 303.90625 158.695312 L 305.570312 158.683594 C 305.839844 158.6875 306.046875 158.890625 306.046875 159.15625 C 306.050781 159.417969 305.839844 159.632812 305.578125 159.632812 L 303.914062 159.648438 C 303.914062 159.648438 303.914062 159.648438 303.910156 159.648438 " fill-opacity="1" fill-rule="nonzero"/><path fill="#000000" d="M 309.726562 159.601562 C 309.460938 159.601562 309.25 159.390625 309.25 159.128906 C 309.246094 158.871094 309.457031 158.652344 309.722656 158.652344 L 311.382812 158.640625 C 311.382812 158.640625 311.382812 158.640625 311.386719 158.640625 C 311.648438 158.640625 311.859375 158.847656 311.859375 159.109375 C 311.863281 159.375 311.652344 159.585938 311.390625 159.589844 L 309.726562 159.601562 " fill-opacity="1" fill-rule="nonzero"/><path fill="#000000" d="M 277.488281 191.96875 C 277.367188 191.96875 277.246094 191.921875 277.152344 191.828125 C 276.96875 191.640625 276.96875 191.339844 277.152344 191.15625 L 299.550781 168.769531 C 299.734375 168.585938 300.035156 168.585938 300.222656 168.769531 C 300.40625 168.957031 300.40625 169.257812 300.222656 169.441406 L 277.828125 191.828125 C 277.730469 191.921875 277.613281 191.96875 277.488281 191.96875 " fill-opacity="1" fill-rule="nonzero"/><path fill="#000000" d="M 52.417969 158.539062 C 52.296875 158.539062 52.171875 158.492188 52.082031 158.402344 C 51.894531 158.214844 51.894531 157.914062 52.082031 157.730469 L 70.589844 139.226562 C 70.777344 139.039062 71.078125 139.039062 71.265625 139.226562 C 71.449219 139.414062 71.449219 139.714844 71.265625 139.898438 L 52.753906 158.402344 C 52.660156 158.492188 52.539062 158.539062 52.417969 158.539062 " fill-opacity="1" fill-rule="nonzero"/><path fill="#000000" d="M 62.335938 136.828125 C 62.214844 136.828125 62.09375 136.78125 62 136.6875 C 61.816406 136.503906 61.816406 136.203125 62 136.015625 L 74.292969 123.730469 C 74.480469 123.542969 74.78125 123.542969 74.96875 123.730469 C 75.152344 123.914062 75.152344 124.21875 74.96875 124.402344 L 62.675781 136.6875 C 62.582031 136.78125 62.460938 136.828125 62.335938 136.828125 " fill-opacity="1" fill-rule="nonzero"/><path fill="#000000" d="M 299.84375 63.035156 C 299.582031 63.035156 299.371094 62.828125 299.367188 62.570312 L 299.328125 60.882812 C 299.324219 60.621094 299.53125 60.40625 299.796875 60.398438 C 299.796875 60.398438 299.800781 60.398438 299.804688 60.398438 C 300.0625 60.398438 300.277344 60.605469 300.28125 60.863281 L 300.316406 62.550781 C 300.324219 62.8125 300.113281 63.027344 299.851562 63.035156 C 299.847656 63.035156 299.84375 63.035156 299.84375 63.035156 " fill-opacity="1" fill-rule="nonzero"/><path fill="#000000" d="M 299.96875 68.933594 C 299.710938 68.933594 299.496094 68.726562 299.492188 68.46875 L 299.457031 66.78125 C 299.449219 66.519531 299.660156 66.300781 299.921875 66.296875 C 299.925781 66.296875 299.929688 66.296875 299.933594 66.296875 C 300.191406 66.296875 300.402344 66.5 300.410156 66.761719 L 300.445312 68.445312 C 300.449219 68.707031 300.242188 68.925781 299.980469 68.933594 C 299.976562 68.933594 299.972656 68.933594 299.96875 68.933594 " fill-opacity="1" fill-rule="nonzero"/><path fill="#000000" d="M 296.148438 65.171875 C 295.886719 65.171875 295.675781 64.960938 295.671875 64.699219 C 295.671875 64.4375 295.882812 64.222656 296.144531 64.21875 L 297.804688 64.207031 C 297.808594 64.207031 297.808594 64.207031 297.8125 64.207031 C 298.070312 64.207031 298.28125 64.417969 298.285156 64.679688 C 298.289062 64.941406 298.078125 65.15625 297.8125 65.15625 L 296.152344 65.171875 C 296.152344 65.171875 296.148438 65.171875 296.148438 65.171875 " fill-opacity="1" fill-rule="nonzero"/><path fill="#000000" d="M 301.964844 65.125 C 301.703125 65.125 301.488281 64.914062 301.484375 64.652344 C 301.484375 64.390625 301.695312 64.175781 301.960938 64.175781 L 303.617188 64.164062 C 303.621094 64.164062 303.621094 64.164062 303.625 64.164062 C 303.882812 64.164062 304.097656 64.371094 304.097656 64.632812 C 304.101562 64.898438 303.890625 65.109375 303.628906 65.113281 L 301.96875 65.125 C 301.964844 65.125 301.964844 65.125 301.964844 65.125 " fill-opacity="1" fill-rule="nonzero"/><path fill="#000000" d="M 105.335938 68.035156 C 105.078125 68.035156 104.867188 67.832031 104.863281 67.570312 L 104.824219 65.886719 C 104.820312 65.621094 105.027344 65.40625 105.289062 65.398438 C 105.542969 65.386719 105.769531 65.601562 105.777344 65.867188 L 105.8125 67.550781 C 105.820312 67.8125 105.609375 68.03125 105.347656 68.035156 C 105.34375 68.035156 105.339844 68.035156 105.335938 68.035156 " fill-opacity="1" fill-rule="nonzero"/><path fill="#000000" d="M 105.464844 73.933594 C 105.207031 73.933594 104.996094 73.726562 104.988281 73.46875 L 104.953125 71.785156 C 104.945312 71.519531 105.15625 71.304688 105.417969 71.296875 C 105.671875 71.285156 105.898438 71.5 105.902344 71.761719 L 105.9375 73.449219 C 105.945312 73.710938 105.738281 73.925781 105.472656 73.933594 C 105.472656 73.933594 105.46875 73.933594 105.464844 73.933594 " fill-opacity="1" fill-rule="nonzero"/><path fill="#000000" d="M 101.644531 70.171875 C 101.382812 70.171875 101.171875 69.960938 101.167969 69.699219 C 101.167969 69.4375 101.378906 69.222656 101.640625 69.21875 L 103.300781 69.207031 C 103.304688 69.207031 103.304688 69.207031 103.304688 69.207031 C 103.566406 69.207031 103.78125 69.417969 103.78125 69.679688 C 103.785156 69.941406 103.574219 70.15625 103.308594 70.15625 L 101.648438 70.171875 C 101.648438 70.171875 101.644531 70.171875 101.644531 70.171875 " fill-opacity="1" fill-rule="nonzero"/><path fill="#000000" d="M 107.460938 70.125 C 107.199219 70.125 106.988281 69.914062 106.984375 69.652344 C 106.980469 69.390625 107.191406 69.175781 107.457031 69.171875 L 109.117188 69.160156 C 109.117188 69.160156 109.121094 69.160156 109.121094 69.160156 C 109.382812 69.160156 109.59375 69.371094 109.597656 69.632812 C 109.597656 69.894531 109.386719 70.109375 109.125 70.109375 L 107.464844 70.125 C 107.460938 70.125 107.460938 70.125 107.460938 70.125 " fill-opacity="1" fill-rule="nonzero"/><path fill="#000000" d="M 287.894531 161.863281 C 287.773438 161.863281 287.652344 161.816406 287.558594 161.722656 C 287.375 161.535156 287.375 161.234375 287.558594 161.050781 L 303.574219 145.042969 C 303.761719 144.855469 304.0625 144.855469 304.246094 145.042969 C 304.433594 145.226562 304.433594 145.527344 304.246094 145.714844 L 288.230469 161.722656 C 288.140625 161.816406 288.019531 161.863281 287.894531 161.863281 " fill-opacity="1" fill-rule="nonzero"/></svg>