<svg xmlns="http://www.w3.org/2000/svg" xmlns:xlink="http://www.w3.org/1999/xlink" width="500" zoomAndPan="magnify" viewBox="0 0 375 374.999991" height="500" preserveAspectRatio="xMidYMid meet" version="1.0"><defs><clipPath id="d48fea8e94"><path d="M 0 23.164062 L 375 23.164062 L 375 352 L 0 352 Z M 0 23.164062 " clip-rule="nonzero"/></clipPath><clipPath id="962568a37a"><path d="M 280.683594 23.164062 L 94.316406 23.164062 L 0 187.5 L 94.316406 351.835938 L 280.683594 351.835938 L 375 187.5 L 280.683594 23.164062 M 275.554688 342.933594 L 99.445312 342.933594 L 10.261719 187.5 L 99.445312 32.066406 L 275.554688 32.066406 L 364.738281 187.5 L 275.554688 342.933594 " clip-rule="nonzero"/></clipPath><clipPath id="6dacb87661"><path d="M 77 102.097656 L 298 102.097656 L 298 273.097656 L 77 273.097656 Z M 77 102.097656 " clip-rule="nonzero"/></clipPath></defs><rect x="-37.5" width="450" fill="#ffffff" y="-37.499999" height="449.999989" fill-opacity="1"/><rect x="-37.5" width="450" fill="#ffffff" y="-37.499999" height="449.999989" fill-opacity="1"/><g clip-path="url(#d48fea8e94)"><g clip-path="url(#962568a37a)"><path fill="#000000" d="M 0 23.164062 L 375 23.164062 L 375 352.136719 L 0 352.136719 Z M 0 23.164062 " fill-opacity="1" fill-rule="nonzero"/></g></g><g clip-path="url(#6dacb87661)"><path fill="#0b0444" d="M 232.75 102.117188 C 231.992188 104.722656 231.015625 110.335938 229.777344 112.398438 C 228.113281 115.175781 225.992188 116.257812 223.570312 117.65625 C 225.992188 119.058594 228.308594 121.488281 229.777344 124.074219 C 231.648438 127.355469 231.992188 132.394531 232.75 134.988281 C 233.503906 132.394531 233.847656 127.355469 235.707031 124.074219 C 237.1875 121.488281 239.492188 119.058594 241.914062 117.65625 C 239.492188 116.246094 237.382812 115.175781 235.707031 112.398438 C 234.480469 110.335938 233.503906 104.722656 232.75 102.117188 Z M 252.089844 131.738281 C 250.964844 135.59375 249.519531 143.929688 247.683594 146.992188 C 245.207031 151.125 242.0625 152.707031 238.472656 154.796875 C 242.0625 156.886719 245.503906 160.476562 247.683594 164.324219 C 250.449219 169.1875 250.964844 176.660156 252.089844 180.527344 C 253.214844 176.660156 253.730469 169.1875 256.496094 164.324219 C 258.675781 160.476562 262.117188 156.886719 265.707031 154.796875 C 262.117188 152.707031 258.972656 151.125 256.496094 146.992188 C 254.660156 143.929688 253.214844 135.59375 252.089844 131.738281 Z M 214.265625 133.105469 C 211.078125 133.105469 208.449219 135.734375 208.449219 138.925781 C 208.449219 142.113281 211.078125 144.742188 214.265625 144.742188 C 217.457031 144.742188 220.082031 142.113281 220.082031 138.925781 C 220.082031 135.734375 217.457031 133.105469 214.265625 133.105469 Z M 197.105469 143.355469 C 196.199219 146.464844 195.039062 153.203125 193.550781 155.667969 C 191.554688 159.007812 189.019531 160.292969 186.117188 161.980469 C 189.019531 163.667969 191.792969 166.574219 193.550781 169.683594 C 195.785156 173.609375 196.199219 179.644531 197.105469 182.765625 C 198.023438 179.644531 198.4375 173.609375 200.671875 169.683594 C 202.429688 166.574219 205.203125 163.667969 208.105469 161.980469 C 205.203125 160.292969 202.667969 159.007812 200.671875 155.667969 C 199.183594 153.203125 198.023438 146.464844 197.105469 143.355469 Z M 223.089844 163.347656 C 221.757812 167.902344 220.058594 177.738281 217.902344 181.355469 C 214.980469 186.222656 211.261719 188.101562 207.027344 190.558594 C 211.261719 193.027344 215.324219 197.273438 217.902344 201.808594 C 221.160156 207.546875 221.757812 216.371094 223.089844 220.917969 C 224.417969 216.371094 225.027344 207.546875 228.285156 201.808594 C 230.867188 197.273438 234.917969 193.015625 239.160156 190.558594 C 234.917969 188.101562 231.210938 186.222656 228.285156 181.355469 C 226.117188 177.738281 224.417969 167.902344 223.089844 163.347656 Z M 259.144531 191.84375 C 255.667969 191.84375 252.800781 194.714844 252.800781 198.203125 C 252.800781 201.679688 255.667969 204.550781 259.144531 204.550781 C 262.621094 204.550781 265.5 201.679688 265.5 198.203125 C 265.5 194.714844 262.621094 191.84375 259.144531 191.84375 Z M 187.574219 199.019531 L 135.914062 216.394531 L 187.390625 233.460938 L 219.980469 222.648438 C 219.28125 217.4375 217.925781 212.664062 216.101562 208.613281 Z M 197.75 207.167969 C 201.578125 207.167969 204.734375 210.324219 204.734375 214.15625 C 204.734375 217.988281 201.578125 221.144531 197.75 221.144531 C 193.917969 221.144531 190.761719 217.988281 190.761719 214.15625 C 190.761719 210.324219 193.917969 207.167969 197.75 207.167969 Z M 197.75 210.769531 C 195.945312 210.769531 194.582031 212.148438 194.582031 213.9375 C 194.582031 215.742188 195.945312 217.105469 197.75 217.105469 C 199.550781 217.105469 200.914062 215.742188 200.914062 213.9375 C 200.914062 212.148438 199.550781 210.769531 197.75 210.769531 Z M 228.332031 212.710938 C 227.503906 215.15625 226.839844 217.773438 226.371094 220.527344 L 239.058594 216.324219 Z M 246.914062 218.976562 C 246.859375 219 246.800781 219.023438 246.742188 219.035156 L 225.691406 226.023438 C 225.566406 227.5625 225.507812 229.132812 225.507812 230.742188 C 225.488281 234.046875 220.542969 234.046875 220.519531 230.742188 C 220.519531 229.730469 220.496094 228.742188 220.4375 227.757812 L 195.316406 236.089844 L 246.742188 253.144531 C 246.765625 253.144531 246.789062 253.15625 246.8125 253.167969 L 297.699219 236.054688 Z M 128.035156 219.035156 L 77.445312 236.042969 L 128.148438 253.097656 L 179.449219 236.089844 Z M 187.390625 238.71875 L 136.03125 255.75 L 187.574219 273.078125 L 238.929688 255.808594 Z M 187.390625 238.71875 " fill-opacity="1" fill-rule="nonzero"/></g></svg>