<svg xmlns="http://www.w3.org/2000/svg" xmlns:xlink="http://www.w3.org/1999/xlink" width="500" zoomAndPan="magnify" viewBox="0 0 375 374.999991" height="500" preserveAspectRatio="xMidYMid meet" version="1.0"><rect x="-37.5" width="450" fill="#ffffff" y="-37.499999" height="449.999989" fill-opacity="1"/><rect x="-37.5" width="450" fill="#ffffff" y="-37.499999" height="449.999989" fill-opacity="1"/><path fill="#caddff" d="M 239.558594 53.273438 C 225.59375 46.964844 198.859375 37.625 165.613281 41.378906 C 122.949219 46.195312 105.128906 57.808594 85.300781 80.214844 C 42.730469 128.320312 37.871094 185.484375 39.179688 247.527344 C 40.121094 292.113281 54.78125 328.382812 94.144531 331.425781 C 171.21875 337.375 183.539062 299.417969 226.492188 286.226562 C 265.582031 274.21875 282.042969 279.355469 299.421875 268.128906 C 337.117188 243.777344 336.503906 180.125 318.429688 131.757812 C 311.488281 113.179688 290.65625 76.355469 239.558594 53.273438 " fill-opacity="1" fill-rule="nonzero"/><path fill="#0b0444" d="M 67.265625 95.175781 C 63.308594 95.277344 60.0625 92.074219 60.011719 88.023438 C 59.964844 83.96875 63.132812 80.601562 67.089844 80.5 C 71.046875 80.398438 74.292969 83.601562 74.34375 87.652344 C 74.390625 91.703125 71.222656 95.074219 67.265625 95.175781 Z M 81.59375 88.890625 L 81.558594 86.039062 L 78.585938 85.433594 C 78.460938 84.777344 78.289062 84.136719 78.0625 83.527344 L 80.269531 81.359375 L 78.847656 78.925781 L 75.957031 79.929688 C 75.53125 79.433594 75.070312 78.976562 74.570312 78.558594 L 75.4375 75.566406 L 73.011719 74.203125 L 70.976562 76.539062 C 70.371094 76.335938 69.742188 76.179688 69.097656 76.078125 L 68.390625 73.058594 L 65.609375 73.132812 L 64.976562 76.183594 C 64.332031 76.320312 63.707031 76.503906 63.109375 76.742188 L 61.019531 74.511719 L 58.628906 76 L 59.566406 78.949219 C 59.078125 79.390625 58.625 79.871094 58.214844 80.386719 L 55.300781 79.535156 L 53.9375 82.042969 L 56.195312 84.089844 C 55.984375 84.714844 55.824219 85.363281 55.71875 86.023438 L 52.761719 86.785156 L 52.792969 89.636719 L 55.769531 90.242188 C 55.890625 90.902344 56.066406 91.539062 56.292969 92.148438 L 54.085938 94.316406 L 55.507812 96.75 L 58.398438 95.746094 C 58.824219 96.242188 59.285156 96.699219 59.785156 97.113281 L 58.917969 100.109375 L 61.34375 101.476562 L 63.378906 99.136719 C 63.984375 99.34375 64.613281 99.496094 65.257812 99.597656 L 65.964844 102.617188 L 68.746094 102.542969 L 69.378906 99.492188 C 70.023438 99.359375 70.648438 99.171875 71.246094 98.933594 L 73.335938 101.164062 L 75.726562 99.675781 L 74.789062 96.726562 C 75.277344 96.285156 75.730469 95.804688 76.140625 95.289062 L 79.054688 96.140625 L 80.417969 93.632812 L 78.160156 91.585938 C 78.371094 90.960938 78.53125 90.3125 78.636719 89.652344 L 81.59375 88.890625 " fill-opacity="1" fill-rule="nonzero"/><path fill="#0b0444" d="M 99.132812 78.695312 C 93.882812 80.171875 88.457031 76.996094 87.019531 71.597656 C 85.582031 66.199219 88.671875 60.625 93.925781 59.148438 C 99.179688 57.667969 104.601562 60.847656 106.042969 66.246094 C 107.480469 71.640625 104.386719 77.214844 99.132812 78.695312 Z M 116.148438 65.441406 L 115.136719 61.644531 L 110.957031 61.839844 C 110.570312 61.003906 110.121094 60.210938 109.617188 59.46875 L 111.828125 55.828125 L 109.105469 53.058594 L 105.578125 55.375 C 104.84375 54.859375 104.070312 54.40625 103.261719 54.019531 L 103.40625 49.722656 L 99.703125 48.722656 L 97.777344 52.535156 C 96.898438 52.464844 96.007812 52.472656 95.109375 52.554688 L 93.144531 48.761719 L 89.449219 49.800781 L 89.640625 54.09375 C 88.824219 54.492188 88.054688 54.953125 87.332031 55.476562 L 83.789062 53.203125 L 81.09375 56 L 83.347656 59.625 C 82.84375 60.375 82.402344 61.171875 82.027344 62.003906 L 77.84375 61.851562 L 76.875 65.660156 L 80.585938 67.636719 C 80.515625 68.539062 80.523438 69.457031 80.605469 70.378906 L 76.910156 72.398438 L 77.921875 76.195312 L 82.101562 76 C 82.488281 76.835938 82.9375 77.628906 83.445312 78.371094 L 81.230469 82.011719 L 83.957031 84.78125 L 87.480469 82.464844 C 88.214844 82.980469 88.988281 83.433594 89.796875 83.820312 L 89.652344 88.117188 L 93.359375 89.117188 L 95.28125 85.304688 C 96.160156 85.375 97.054688 85.367188 97.949219 85.285156 L 99.917969 89.078125 L 103.613281 88.039062 L 103.421875 83.746094 C 104.234375 83.347656 105.007812 82.886719 105.726562 82.363281 L 109.273438 84.636719 L 111.964844 81.839844 L 109.710938 78.21875 C 110.214844 77.464844 110.65625 76.667969 111.03125 75.839844 L 115.214844 75.984375 L 116.183594 72.179688 L 112.476562 70.203125 C 112.542969 69.300781 112.539062 68.382812 112.457031 67.460938 L 116.148438 65.441406 " fill-opacity="1" fill-rule="nonzero"/><path fill="#ffffff" d="M 59.316406 273.582031 L 55.523438 293.570312 L 64.359375 291.453125 L 66.578125 289.113281 C 66.578125 289.113281 63.648438 287.785156 66.25 281.378906 L 69.472656 274.464844 L 59.316406 273.582031 " fill-opacity="1" fill-rule="nonzero"/><path fill="#000000" d="M 59.746094 274.148438 L 56.191406 292.867188 L 64.082031 290.976562 L 65.789062 289.179688 C 64.953125 288.371094 63.714844 286.214844 65.761719 281.179688 L 68.675781 274.925781 Z M 55.523438 294.097656 C 55.386719 294.097656 55.257812 294.046875 55.15625 293.953125 C 55.027344 293.828125 54.96875 293.648438 55.003906 293.472656 L 58.796875 273.484375 C 58.847656 273.21875 59.089844 273.03125 59.363281 273.054688 L 69.519531 273.941406 C 69.6875 273.957031 69.84375 274.050781 69.929688 274.203125 C 70.015625 274.351562 70.023438 274.53125 69.949219 274.6875 L 66.730469 281.601562 C 64.390625 287.355469 66.78125 288.625 66.804688 288.636719 C 66.957031 288.710938 67.066406 288.851562 67.097656 289.019531 C 67.125 289.183594 67.078125 289.355469 66.960938 289.476562 L 64.742188 291.816406 C 64.667969 291.890625 64.578125 291.941406 64.480469 291.964844 L 55.644531 294.082031 C 55.605469 294.09375 55.5625 294.097656 55.523438 294.097656 " fill-opacity="1" fill-rule="nonzero"/><path fill="#0b0444" d="M 54.886719 287 C 54.207031 288.640625 53.003906 291.691406 52.234375 294.507812 C 51.753906 296.277344 52.886719 297.753906 54.382812 298.796875 C 57.429688 300.929688 61.046875 302.144531 65.191406 303.253906 C 68.808594 304.222656 72.8125 305.183594 77.414062 305.679688 C 78.664062 305.816406 81.328125 305.679688 82.691406 304.324219 C 86.804688 300.21875 76.015625 295.25 66.589844 288.527344 C 66.21875 288.265625 65.734375 288.238281 65.335938 288.460938 L 63.921875 289.269531 C 62.507812 290.074219 60.753906 289.949219 59.46875 288.953125 L 56.417969 286.589844 C 55.898438 286.1875 55.140625 286.390625 54.886719 287 " fill-opacity="1" fill-rule="nonzero"/><path fill="#000000" d="M 55.375 287.203125 C 54.71875 288.78125 53.507812 291.839844 52.746094 294.644531 C 52.296875 296.289062 53.550781 297.574219 54.683594 298.363281 C 57.628906 300.421875 61.066406 301.601562 65.328125 302.746094 C 68.726562 303.65625 72.828125 304.652344 77.46875 305.15625 C 78.789062 305.296875 81.167969 305.09375 82.320312 303.949219 C 82.878906 303.390625 83.117188 302.824219 83.054688 302.21875 C 82.800781 299.816406 77.96875 296.679688 72.847656 293.359375 C 70.695312 291.960938 68.46875 290.515625 66.28125 288.957031 C 66.082031 288.8125 65.8125 288.796875 65.597656 288.921875 L 64.183594 289.726562 C 62.582031 290.640625 60.601562 290.5 59.144531 289.371094 L 56.09375 287.007812 C 55.980469 286.917969 55.832031 286.886719 55.691406 286.925781 C 55.546875 286.964844 55.433594 287.066406 55.375 287.203125 Z M 78.234375 306.25 C 77.898438 306.25 77.601562 306.230469 77.355469 306.207031 C 72.640625 305.695312 68.492188 304.6875 65.054688 303.765625 C 61.273438 302.75 57.332031 301.5 54.078125 299.230469 C 52.085938 297.839844 51.253906 296.113281 51.726562 294.367188 C 52.503906 291.507812 53.734375 288.398438 54.398438 286.800781 C 54.585938 286.355469 54.957031 286.027344 55.421875 285.90625 C 55.882812 285.78125 56.363281 285.882812 56.742188 286.171875 L 59.792969 288.539062 C 60.910156 289.40625 62.429688 289.511719 63.664062 288.808594 L 65.074219 288.003906 C 65.644531 287.679688 66.359375 287.714844 66.894531 288.097656 C 69.0625 289.644531 71.277344 291.082031 73.421875 292.472656 C 79.21875 296.234375 83.800781 299.203125 84.105469 302.109375 C 84.203125 303.039062 83.851562 303.910156 83.066406 304.695312 C 81.828125 305.929688 79.695312 306.25 78.234375 306.25 " fill-opacity="1" fill-rule="nonzero"/><path fill="#ffffff" d="M 52.671875 293.171875 C 52.671875 293.171875 52.273438 294.371094 52.234375 294.507812 C 52.117188 294.949219 52.113281 295.421875 52.179688 295.878906 C 52.390625 297.355469 53.351562 298.625 54.671875 299.324219 C 54.988281 299.492188 55.417969 299.703125 55.910156 299.933594 C 61.019531 302.332031 66.433594 304.03125 71.992188 305.03125 C 74.8125 305.542969 81 306.457031 82.691406 304.324219 C 83.214844 303.664062 83.179688 302.195312 83.179688 302.195312 C 83.179688 302.195312 82.167969 303.375 77.734375 302.75 C 70.238281 301.695312 64.6875 299.558594 57.953125 297.039062 C 56.625 296.542969 55.648438 296.007812 54.597656 295.335938 C 53.769531 294.804688 53.101562 294.058594 52.671875 293.171875 " fill-opacity="1" fill-rule="nonzero"/><path fill="#000000" d="M 52.820312 294.410156 C 52.78125 294.53125 52.753906 294.617188 52.746094 294.644531 C 52.65625 294.980469 52.640625 295.371094 52.703125 295.804688 C 52.882812 297.078125 53.710938 298.21875 54.917969 298.855469 C 55.210938 299.011719 55.621094 299.210938 56.132812 299.453125 C 61.132812 301.800781 66.5 303.503906 72.085938 304.511719 C 79.53125 305.859375 81.667969 304.765625 82.277344 303.996094 C 82.429688 303.800781 82.527344 303.460938 82.582031 303.113281 C 81.730469 303.410156 80.21875 303.636719 77.660156 303.273438 C 70.347656 302.246094 64.820312 300.175781 58.417969 297.777344 L 57.765625 297.535156 C 56.542969 297.074219 55.542969 296.566406 54.3125 295.78125 C 53.734375 295.410156 53.230469 294.945312 52.820312 294.410156 Z M 77.988281 306.199219 C 76.320312 306.199219 74.289062 305.984375 71.898438 305.554688 C 66.21875 304.527344 60.765625 302.796875 55.683594 300.410156 C 55.15625 300.160156 54.734375 299.953125 54.425781 299.789062 C 52.921875 298.992188 51.886719 297.558594 51.65625 295.953125 C 51.574219 295.375 51.597656 294.84375 51.726562 294.367188 C 51.765625 294.226562 52.078125 293.285156 52.171875 293.003906 C 52.242188 292.800781 52.425781 292.65625 52.640625 292.644531 C 52.859375 292.628906 53.054688 292.746094 53.148438 292.9375 C 53.535156 293.738281 54.132812 294.410156 54.882812 294.890625 C 56.042969 295.636719 56.988281 296.113281 58.136719 296.542969 L 58.785156 296.785156 C 65.132812 299.164062 70.609375 301.214844 77.804688 302.226562 C 81.769531 302.789062 82.785156 301.84375 82.796875 301.835938 C 82.9375 301.671875 83.15625 301.617188 83.367188 301.691406 C 83.570312 301.765625 83.703125 301.964844 83.707031 302.183594 C 83.710938 302.355469 83.730469 303.863281 83.105469 304.648438 C 82.289062 305.679688 80.574219 306.199219 77.988281 306.199219 " fill-opacity="1" fill-rule="nonzero"/><path fill="#000000" d="M 67.441406 295.640625 C 67.261719 295.640625 67.085938 295.546875 66.988281 295.378906 C 66.839844 295.128906 66.921875 294.804688 67.171875 294.65625 L 71.804688 291.917969 C 72.054688 291.769531 72.378906 291.851562 72.527344 292.101562 C 72.675781 292.351562 72.59375 292.675781 72.34375 292.828125 L 67.710938 295.566406 C 67.625 295.617188 67.53125 295.640625 67.441406 295.640625 " fill-opacity="1" fill-rule="nonzero"/><path fill="#000000" d="M 70.949219 296.960938 C 70.773438 296.960938 70.597656 296.871094 70.5 296.710938 C 70.347656 296.460938 70.421875 296.136719 70.671875 295.984375 L 74.402344 293.679688 C 74.648438 293.527344 74.976562 293.601562 75.128906 293.851562 C 75.28125 294.101562 75.207031 294.425781 74.957031 294.578125 L 71.226562 296.882812 C 71.140625 296.9375 71.042969 296.960938 70.949219 296.960938 " fill-opacity="1" fill-rule="nonzero"/><path fill="#ffffff" d="M 50.550781 266.121094 C 52.984375 263.378906 56.285156 261.101562 59.933594 261.425781 L 66.867188 262.863281 L 64.839844 253.617188 L 50.800781 253.441406 L 50.550781 266.121094 " fill-opacity="1" fill-rule="nonzero"/><path fill="#000000" d="M 51.320312 253.976562 L 51.105469 264.769531 C 53.914062 262.003906 57.027344 260.636719 59.980469 260.902344 C 60.003906 260.902344 60.023438 260.90625 60.042969 260.910156 L 66.175781 262.183594 L 64.414062 254.136719 Z M 50.550781 266.648438 C 50.488281 266.648438 50.421875 266.636719 50.359375 266.613281 C 50.152344 266.53125 50.019531 266.332031 50.023438 266.109375 L 50.273438 253.433594 C 50.28125 253.144531 50.515625 252.914062 50.800781 252.914062 C 50.804688 252.914062 50.804688 252.914062 50.808594 252.914062 L 64.84375 253.085938 C 65.089844 253.089844 65.300781 253.261719 65.355469 253.503906 L 67.382812 262.75 C 67.417969 262.925781 67.367188 263.109375 67.242188 263.234375 C 67.113281 263.363281 66.933594 263.417969 66.757812 263.382812 L 59.859375 261.949219 C 55.894531 261.617188 52.574219 264.636719 50.945312 266.46875 C 50.84375 266.585938 50.699219 266.648438 50.550781 266.648438 " fill-opacity="1" fill-rule="nonzero"/><path fill="#0b0444" d="M 51.363281 252.765625 C 49.589844 252.773438 46.308594 252.851562 43.414062 253.242188 C 41.597656 253.488281 40.265625 255.066406 40.296875 256.890625 C 40.386719 262.042969 41.355469 273.621094 43.679688 283.265625 C 43.839844 283.925781 44.503906 285.035156 46.234375 285.117188 C 52.035156 285.394531 51.988281 275.433594 54.511719 264.136719 C 54.609375 263.695312 54.445312 263.234375 54.085938 262.957031 L 52.792969 261.96875 C 51.5 260.980469 50.929688 259.3125 51.347656 257.742188 L 52.335938 254.011719 C 52.503906 253.378906 52.023438 252.757812 51.363281 252.765625 " fill-opacity="1" fill-rule="nonzero"/><path fill="#000000" d="M 51.363281 252.765625 Z M 51.363281 253.289062 C 49.660156 253.300781 46.371094 253.375 43.488281 253.765625 C 41.945312 253.976562 40.800781 255.3125 40.828125 256.882812 C 40.917969 262.203125 41.890625 273.585938 44.195312 283.140625 C 44.25 283.367188 44.609375 284.511719 46.257812 284.589844 C 50.230469 284.777344 51.199219 279.273438 52.53125 271.652344 C 52.960938 269.207031 53.402344 266.679688 53.996094 264.023438 C 54.050781 263.78125 53.960938 263.527344 53.765625 263.378906 L 52.472656 262.390625 C 51.003906 261.265625 50.363281 259.390625 50.835938 257.609375 L 51.824219 253.878906 C 51.863281 253.734375 51.832031 253.589844 51.746094 253.476562 C 51.652344 253.359375 51.527344 253.296875 51.363281 253.289062 Z M 46.476562 285.652344 C 46.386719 285.652344 46.296875 285.648438 46.207031 285.644531 C 44.34375 285.554688 43.40625 284.371094 43.167969 283.386719 C 40.84375 273.75 39.863281 262.269531 39.769531 256.898438 C 39.734375 254.796875 41.269531 253 43.34375 252.722656 C 46.289062 252.324219 49.628906 252.246094 51.359375 252.234375 C 51.363281 252.234375 51.363281 252.234375 51.367188 252.234375 C 51.847656 252.234375 52.285156 252.449219 52.578125 252.828125 C 52.871094 253.207031 52.96875 253.6875 52.847656 254.148438 L 51.855469 257.878906 C 51.492188 259.246094 51.984375 260.6875 53.113281 261.550781 L 54.40625 262.539062 C 54.925781 262.9375 55.167969 263.609375 55.027344 264.25 C 54.4375 266.886719 54 269.402344 53.574219 271.835938 C 52.226562 279.535156 51.15625 285.652344 46.476562 285.652344 " fill-opacity="1" fill-rule="nonzero"/><path fill="#ffffff" d="M 43.851562 253.1875 C 43.851562 253.1875 43.558594 253.222656 43.414062 253.242188 C 41.597656 253.488281 40.265625 255.066406 40.296875 256.890625 C 40.386719 262.042969 41.355469 273.621094 43.679688 283.265625 C 43.839844 283.925781 44.503906 285.035156 46.234375 285.117188 C 46.761719 285.144531 47.683594 284.945312 47.683594 284.945312 L 47.546875 284.257812 C 45.609375 274.453125 44.394531 264.519531 43.914062 254.539062 L 43.851562 253.1875 " fill-opacity="1" fill-rule="nonzero"/><path fill="#000000" d="M 43.351562 253.785156 C 41.875 254.054688 40.800781 255.359375 40.828125 256.882812 C 40.917969 262.203125 41.890625 273.585938 44.195312 283.140625 C 44.25 283.367188 44.609375 284.511719 46.257812 284.589844 C 46.46875 284.601562 46.785156 284.566406 47.058594 284.523438 L 47.027344 284.359375 C 45.089844 274.5625 43.867188 264.539062 43.390625 254.5625 Z M 46.332031 285.648438 C 46.289062 285.648438 46.246094 285.648438 46.207031 285.644531 C 44.34375 285.554688 43.40625 284.371094 43.167969 283.386719 C 40.84375 273.75 39.863281 262.269531 39.769531 256.898438 C 39.734375 254.796875 41.269531 253 43.34375 252.722656 C 43.488281 252.699219 43.785156 252.664062 43.785156 252.664062 C 43.929688 252.644531 44.078125 252.6875 44.191406 252.78125 C 44.304688 252.878906 44.371094 253.015625 44.378906 253.160156 L 44.441406 254.515625 C 44.917969 264.433594 46.136719 274.410156 48.0625 284.15625 L 48.199219 284.84375 C 48.253906 285.125 48.074219 285.402344 47.792969 285.460938 C 47.699219 285.480469 46.910156 285.648438 46.332031 285.648438 " fill-opacity="1" fill-rule="nonzero"/><path fill="#000000" d="M 53.105469 271.210938 C 52.996094 271.210938 52.886719 271.179688 52.792969 271.109375 L 48.464844 267.90625 C 48.230469 267.734375 48.179688 267.40625 48.355469 267.167969 C 48.527344 266.933594 48.859375 266.886719 49.09375 267.058594 L 53.421875 270.261719 C 53.65625 270.433594 53.703125 270.761719 53.53125 271 C 53.425781 271.136719 53.265625 271.210938 53.105469 271.210938 " fill-opacity="1" fill-rule="nonzero"/><path fill="#000000" d="M 52.503906 274.296875 C 52.394531 274.296875 52.289062 274.265625 52.195312 274.199219 L 48.621094 271.660156 C 48.386719 271.492188 48.328125 271.160156 48.5 270.921875 C 48.667969 270.683594 48.996094 270.628906 49.234375 270.796875 L 52.808594 273.339844 C 53.046875 273.507812 53.101562 273.835938 52.933594 274.074219 C 52.828125 274.21875 52.667969 274.296875 52.503906 274.296875 " fill-opacity="1" fill-rule="nonzero"/><path fill="#000000" d="M 103.984375 191.652344 C 103.984375 191.652344 78.992188 186.328125 83.605469 178.558594 C 86.539062 173.621094 103.257812 183.078125 108.078125 186.070312 C 108.902344 186.582031 130.570312 189.703125 130.570312 189.703125 L 121.992188 199.902344 L 103.984375 191.652344 " fill-opacity="1" fill-rule="nonzero"/><path fill="#000000" d="M 129.316406 180.039062 C 129.316406 180.039062 134.78125 215.917969 128.671875 238.675781 C 125.367188 250.976562 89.445312 263.257812 61.09375 264.125 C 59.351562 264.175781 57.890625 262.820312 57.824219 261.078125 L 57.546875 253.9375 C 57.484375 252.398438 58.539062 251.039062 60.050781 250.71875 C 68.253906 248.976562 93.613281 243 104.453125 233.648438 C 117.476562 222.414062 95.851562 200.839844 95.851562 200.839844 L 96.175781 176.457031 L 129.316406 180.039062 " fill-opacity="1" fill-rule="nonzero"/><path fill="#000000" d="M 91.621094 169.925781 C 91.621094 169.925781 89.5625 176.082031 88.371094 184.089844 C 87.226562 191.792969 84.542969 199.175781 80.539062 205.855469 C 73.257812 218.015625 63.039062 247 56.710938 279.722656 C 56.378906 281.429688 57.601562 283.050781 59.335938 283.199219 L 64.957031 283.691406 C 66.125 283.789062 67.238281 283.191406 67.789062 282.160156 C 73.671875 271.21875 106.300781 210.710938 114.34375 199.90625 C 123.195312 188.019531 128.535156 178.589844 128.535156 178.589844 L 91.621094 169.925781 " fill-opacity="1" fill-rule="nonzero"/><path fill="#caddff" d="M 82.921875 255.351562 C 82.835938 255.351562 82.742188 255.328125 82.660156 255.28125 C 82.40625 255.136719 82.320312 254.8125 82.464844 254.558594 L 91.175781 239.40625 C 91.320312 239.152344 91.644531 239.066406 91.898438 239.210938 C 92.148438 239.355469 92.234375 239.679688 92.089844 239.929688 L 83.382812 255.085938 C 83.285156 255.257812 83.105469 255.351562 82.921875 255.351562 " fill-opacity="1" fill-rule="nonzero"/><path fill="#caddff" d="M 105.8125 214.894531 C 105.722656 214.894531 105.636719 214.871094 105.550781 214.824219 C 105.296875 214.679688 105.210938 214.359375 105.351562 214.105469 L 108.90625 207.808594 C 109.050781 207.554688 109.371094 207.464844 109.625 207.605469 C 109.878906 207.75 109.96875 208.074219 109.828125 208.328125 L 106.273438 214.625 C 106.175781 214.796875 105.996094 214.894531 105.8125 214.894531 " fill-opacity="1" fill-rule="nonzero"/><path fill="#caddff" d="M 87.261719 187.792969 C 87.226562 187.792969 87.191406 187.789062 87.15625 187.78125 C 86.871094 187.726562 86.6875 187.445312 86.742188 187.160156 L 87.871094 181.5 C 87.929688 181.214844 88.207031 181.03125 88.492188 181.085938 C 88.777344 181.140625 88.964844 181.421875 88.90625 181.707031 L 87.777344 187.367188 C 87.726562 187.617188 87.507812 187.792969 87.261719 187.792969 " fill-opacity="1" fill-rule="nonzero"/><path fill="#ffffff" d="M 138.609375 127.429688 C 138.609375 127.429688 147.601562 138.3125 153.914062 140.058594 C 160.226562 141.804688 175.25 136.703125 179.058594 134.023438 C 182.09375 131.886719 184.398438 130.863281 186.734375 131.097656 C 192.617188 131.691406 198.757812 138.273438 196.984375 139.605469 C 195.105469 141.011719 190.707031 138.886719 188.414062 137.941406 C 187.9375 137.746094 188.371094 138.746094 188.976562 139.78125 C 189.683594 140.996094 188.257812 142.542969 186.898438 140.96875 L 184.894531 138.257812 C 184.480469 137.695312 183.671875 137.613281 183.152344 138.078125 L 182.824219 138.371094 C 172.09375 149.195312 154.746094 160.402344 141.382812 152.285156 C 126.421875 143.203125 128.933594 139.519531 128.933594 139.519531 L 138.609375 127.429688 " fill-opacity="1" fill-rule="nonzero"/><path fill="#000000" d="M 129.367188 139.824219 C 129.296875 139.984375 127.9375 143.503906 141.65625 151.835938 C 154.117188 159.398438 170.898438 149.648438 182.453125 138.003906 L 182.796875 137.6875 C 183.160156 137.363281 183.636719 137.207031 184.117188 137.257812 C 184.597656 137.308594 185.035156 137.558594 185.320312 137.945312 L 187.3125 140.640625 C 187.695312 141.078125 188.089844 141.21875 188.367188 141.019531 C 188.617188 140.839844 188.742188 140.429688 188.519531 140.046875 C 187.480469 138.265625 187.605469 137.875 187.84375 137.601562 C 187.914062 137.523438 188.175781 137.273438 188.617188 137.457031 C 188.855469 137.554688 189.125 137.667969 189.40625 137.789062 C 191.585938 138.714844 195.230469 140.261719 196.667969 139.183594 C 196.8125 139.074219 196.773438 138.804688 196.714844 138.59375 C 196.144531 136.550781 191.410156 132.101562 186.683594 131.625 C 184.628906 131.417969 182.511719 132.238281 179.363281 134.453125 C 175.675781 137.046875 160.398438 142.402344 153.773438 140.570312 C 148.082031 138.992188 140.488281 130.449219 138.617188 128.261719 Z M 151.507812 155.605469 C 147.730469 155.605469 144.257812 154.648438 141.109375 152.738281 C 131.375 146.828125 128.785156 143.070312 128.328125 140.957031 C 128.097656 139.882812 128.429688 139.324219 128.5 139.222656 C 128.507812 139.210938 128.515625 139.203125 128.523438 139.191406 L 138.195312 127.097656 C 138.296875 126.976562 138.445312 126.902344 138.605469 126.902344 C 138.769531 126.898438 138.914062 126.96875 139.015625 127.09375 C 139.105469 127.199219 147.972656 137.867188 154.054688 139.550781 C 160.167969 141.242188 175.101562 136.164062 178.753906 133.589844 C 182.132812 131.210938 184.460938 130.335938 186.789062 130.570312 C 191.691406 131.066406 196.996094 135.675781 197.730469 138.3125 C 198.011719 139.3125 197.582031 139.816406 197.300781 140.027344 C 195.386719 141.464844 191.570312 139.855469 189.03125 138.777344 C 189.128906 138.976562 189.261719 139.222656 189.433594 139.515625 C 189.902344 140.320312 189.707031 141.363281 188.984375 141.878906 C 188.414062 142.285156 187.421875 142.382812 186.5 141.316406 C 186.492188 141.304688 186.484375 141.296875 186.476562 141.285156 L 184.472656 138.570312 C 184.359375 138.421875 184.195312 138.328125 184.011719 138.308594 C 183.820312 138.289062 183.640625 138.347656 183.503906 138.472656 L 183.179688 138.765625 C 179.558594 142.417969 172.125 149.144531 163.296875 152.917969 C 159.101562 154.707031 155.164062 155.605469 151.507812 155.605469 " fill-opacity="1" fill-rule="nonzero"/><path fill="#0b0444" d="M 111.605469 121.28125 C 111.605469 121.28125 101.957031 126.261719 98.113281 134.640625 C 95.808594 139.664062 96.050781 148.457031 95.140625 153.410156 C 92.710938 166.617188 83.523438 178.585938 83.523438 178.585938 C 83.523438 178.585938 85.144531 176.605469 90.304688 180.871094 C 95.113281 184.847656 99.597656 187.878906 109.9375 188.414062 C 119.289062 188.894531 124.949219 188.175781 128.179688 187.40625 C 130.320312 186.898438 131.753906 184.890625 131.515625 182.699219 C 131.175781 179.539062 130.800781 174.605469 131.109375 169.953125 C 131.542969 163.421875 136.5625 151.414062 136.5625 151.414062 C 136.5625 151.414062 149.714844 145.042969 151.027344 137.046875 C 151.027344 137.046875 144.035156 125.039062 132.261719 123.039062 C 120.027344 120.960938 111.605469 121.28125 111.605469 121.28125 " fill-opacity="1" fill-rule="nonzero"/><path fill="#ffffff" d="M 108.921875 155.207031 C 108.921875 155.207031 119.015625 166.617188 132.28125 166.949219 C 139.363281 167.128906 145.988281 165.523438 150.328125 164.132812 C 152.929688 163.300781 155.367188 162.027344 157.585938 160.429688 C 158.382812 159.855469 159.253906 159.351562 159.898438 159.3125 C 160.914062 159.246094 161.558594 159.761719 161.558594 159.761719 L 160.359375 161.0625 C 159.855469 161.605469 160.222656 162.496094 160.96875 162.519531 L 166.957031 162.730469 C 167.894531 162.761719 168.664062 163.558594 168.578125 164.488281 C 168.449219 165.839844 167.546875 168.550781 163.398438 169.304688 C 160.890625 169.761719 155.585938 169.539062 153.320312 169.191406 C 152.675781 169.09375 152.023438 169.25 151.5 169.640625 C 148.3125 172.007812 137.6875 178.867188 122.371094 177.140625 C 99.308594 174.546875 92.25 160.511719 92.25 160.511719 L 108.921875 155.207031 " fill-opacity="1" fill-rule="nonzero"/><path fill="#000000" d="M 93.039062 160.816406 C 94.628906 163.394531 102.523438 174.378906 122.429688 176.617188 C 137.160156 178.277344 147.449219 171.992188 151.183594 169.214844 C 151.820312 168.742188 152.605469 168.546875 153.398438 168.667969 C 155.644531 169.015625 160.910156 169.21875 163.300781 168.785156 C 167.28125 168.0625 167.949219 165.503906 168.050781 164.4375 C 168.078125 164.160156 167.984375 163.882812 167.792969 163.660156 C 167.578125 163.417969 167.265625 163.269531 166.941406 163.257812 L 160.949219 163.050781 C 160.394531 163.03125 159.921875 162.699219 159.707031 162.191406 C 159.496094 161.679688 159.597656 161.109375 159.972656 160.703125 L 160.691406 159.921875 C 160.488281 159.859375 160.230469 159.820312 159.929688 159.839844 C 159.675781 159.855469 159.074219 160.007812 157.894531 160.859375 C 155.558594 162.539062 153.066406 163.808594 150.488281 164.636719 C 146.132812 166.03125 139.4375 167.660156 132.265625 167.476562 C 120.042969 167.167969 110.375 157.515625 108.761719 155.8125 Z M 127.28125 177.949219 C 125.683594 177.949219 124.027344 177.859375 122.3125 177.667969 C 110.269531 176.3125 102.621094 171.804688 98.328125 168.257812 C 93.648438 164.402344 91.855469 160.894531 91.78125 160.75 C 91.710938 160.609375 91.703125 160.449219 91.765625 160.304688 C 91.824219 160.164062 91.945312 160.054688 92.089844 160.007812 L 108.761719 154.703125 C 108.960938 154.640625 109.179688 154.699219 109.316406 154.855469 C 109.417969 154.96875 119.417969 166.097656 132.292969 166.421875 C 139.316406 166.601562 145.886719 165.003906 150.167969 163.628906 C 152.636719 162.835938 155.03125 161.617188 157.277344 160 C 158.351562 159.226562 159.199219 158.824219 159.863281 158.78125 C 161.070312 158.707031 161.855469 159.324219 161.890625 159.351562 C 162.003906 159.445312 162.074219 159.578125 162.085938 159.726562 C 162.097656 159.871094 162.046875 160.015625 161.945312 160.121094 L 160.746094 161.417969 C 160.613281 161.566406 160.65625 161.722656 160.679688 161.785156 C 160.707031 161.84375 160.789062 161.988281 160.984375 161.992188 L 166.976562 162.203125 C 167.59375 162.226562 168.179688 162.5 168.585938 162.964844 C 168.972656 163.40625 169.15625 163.964844 169.101562 164.539062 C 169.003906 165.554688 168.3125 168.945312 163.492188 169.824219 C 160.957031 170.285156 155.609375 170.078125 153.238281 169.710938 C 152.726562 169.632812 152.222656 169.757812 151.816406 170.0625 C 148.414062 172.59375 139.730469 177.949219 127.28125 177.949219 " fill-opacity="1" fill-rule="nonzero"/><path fill="#0b0444" d="M 111.542969 143.15625 C 111.542969 143.15625 106.722656 150.417969 112.785156 155.203125 L 88.140625 162.492188 L 86.484375 151.675781 C 84.453125 137.601562 93.8125 124.234375 107.8125 121.734375 C 109.167969 121.492188 110.539062 121.335938 111.90625 121.277344 L 111.542969 143.15625 " fill-opacity="1" fill-rule="nonzero"/><path fill="#000000" d="M 111.457031 155.730469 C 111.296875 155.730469 111.136719 155.660156 111.035156 155.519531 C 107.351562 150.589844 109.824219 138.433594 109.933594 137.917969 C 109.992188 137.632812 110.269531 137.449219 110.554688 137.507812 C 110.84375 137.566406 111.023438 137.847656 110.964844 138.132812 C 110.941406 138.253906 108.480469 150.339844 111.878906 154.886719 C 112.054688 155.121094 112.007812 155.453125 111.773438 155.628906 C 111.675781 155.699219 111.566406 155.730469 111.457031 155.730469 " fill-opacity="1" fill-rule="nonzero"/><path fill="#ffffff" d="M 118.152344 121.789062 L 123.007812 108.09375 L 131.679688 113.191406 L 128.75 121.84375 C 128.335938 123.097656 128.820312 124.480469 129.933594 125.203125 L 130.933594 125.851562 C 131.453125 126.1875 131.265625 126.984375 130.652344 127.058594 L 125.9375 127.621094 C 121.417969 128.15625 116.84375 127.191406 112.925781 124.875 C 112.367188 124.542969 112.496094 123.691406 113.136719 123.550781 C 115.082031 123.109375 117.9375 122.378906 118.152344 121.789062 " fill-opacity="1" fill-rule="nonzero"/><path fill="#000000" d="M 118.152344 121.789062 L 118.15625 121.789062 Z M 123.289062 108.875 L 118.652344 121.96875 C 118.648438 121.96875 118.648438 121.96875 118.648438 121.972656 C 118.527344 122.308594 118.296875 122.929688 113.25 124.066406 C 113.140625 124.089844 113.109375 124.175781 113.101562 124.222656 C 113.09375 124.273438 113.097656 124.359375 113.195312 124.421875 C 116.992188 126.664062 121.496094 127.613281 125.875 127.09375 L 130.589844 126.535156 C 130.652344 126.527344 130.6875 126.496094 130.703125 126.433594 C 130.714844 126.375 130.699219 126.328125 130.648438 126.296875 L 129.644531 125.644531 C 128.332031 124.792969 127.757812 123.164062 128.246094 121.675781 L 131.039062 113.425781 Z M 123.519531 128.289062 C 119.722656 128.289062 115.9375 127.269531 112.660156 125.328125 C 112.214844 125.066406 111.980469 124.566406 112.058594 124.058594 C 112.140625 123.546875 112.515625 123.148438 113.019531 123.035156 C 116.859375 122.171875 117.5625 121.671875 117.671875 121.570312 L 122.507812 107.917969 C 122.5625 107.769531 122.679688 107.652344 122.824219 107.597656 C 122.972656 107.542969 123.136719 107.558594 123.273438 107.636719 L 131.945312 112.734375 C 132.160156 112.863281 132.257812 113.125 132.179688 113.359375 L 129.25 122.011719 C 128.910156 123.039062 129.308594 124.167969 130.21875 124.757812 L 131.222656 125.410156 C 131.648438 125.683594 131.847656 126.179688 131.730469 126.675781 C 131.617188 127.167969 131.21875 127.523438 130.714844 127.582031 L 126 128.144531 C 125.175781 128.242188 124.347656 128.289062 123.519531 128.289062 " fill-opacity="1" fill-rule="nonzero"/><path fill="#000000" d="M 143.4375 99.554688 C 141.203125 98.242188 142.894531 102.09375 135.652344 95.242188 C 132.765625 92.511719 132.472656 97.347656 131.722656 96.640625 C 128.953125 94.035156 128.179688 93.355469 126.386719 92.957031 C 125.195312 92.695312 121.921875 93.628906 121.550781 95.222656 C 120.335938 100.425781 123.007812 100.257812 122.355469 105.007812 C 121.898438 108.339844 122.253906 109.609375 123.179688 110.609375 C 124.117188 111.613281 125.742188 110.511719 126.847656 111.535156 C 128.277344 112.855469 126.484375 115.570312 127.496094 117.601562 C 128.136719 118.882812 130.339844 120.453125 135.09375 120.558594 C 135.867188 120.574219 136.539062 120.035156 136.695312 119.277344 C 136.894531 118.304688 137.136719 117.074219 137.273438 115.878906 C 137.917969 110.179688 136.765625 108.222656 138.011719 107.304688 C 139.917969 105.890625 142.957031 108.824219 144.34375 107.570312 C 145.78125 106.269531 146.492188 101.355469 143.4375 99.554688 " fill-opacity="1" fill-rule="nonzero"/><path fill="#ffffff" d="M 131.230469 103.667969 L 131.265625 105.234375 C 131.28125 105.972656 131.246094 106.710938 131.164062 107.441406 C 131.003906 108.816406 130.820312 111.1875 130.703125 112.519531 C 130.324219 116.800781 136.667969 115.144531 136.667969 115.144531 L 137.46875 114.320312 L 138.175781 114.382812 C 138.3125 114.398438 138.453125 114.378906 138.578125 114.320312 C 138.890625 114.175781 139.054688 113.855469 139.015625 113.535156 C 138.792969 111.789062 138.441406 107.941406 139.109375 104.992188 C 139.109375 104.992188 135.855469 102.097656 131.230469 103.667969 " fill-opacity="1" fill-rule="nonzero"/><path fill="#000000" d="M 131.769531 104.054688 L 131.792969 105.222656 C 131.808594 105.984375 131.773438 106.75 131.6875 107.503906 C 131.574219 108.488281 131.441406 110.027344 131.339844 111.265625 C 131.300781 111.75 131.261719 112.195312 131.226562 112.566406 C 131.15625 113.363281 131.34375 113.933594 131.792969 114.316406 C 132.890625 115.242188 135.363281 114.910156 136.394531 114.667969 L 137.089844 113.953125 C 137.199219 113.839844 137.355469 113.78125 137.515625 113.796875 L 138.222656 113.859375 C 138.277344 113.863281 138.324219 113.859375 138.355469 113.84375 C 138.449219 113.800781 138.503906 113.703125 138.488281 113.601562 C 138.25 111.6875 137.945312 108.113281 138.527344 105.199219 C 137.761719 104.632812 135.21875 103.046875 131.769531 104.054688 Z M 134.148438 115.984375 C 133.078125 115.984375 131.90625 115.792969 131.113281 115.121094 C 130.390625 114.511719 130.074219 113.621094 130.175781 112.472656 C 130.210938 112.105469 130.246094 111.660156 130.289062 111.175781 C 130.390625 109.929688 130.523438 108.386719 130.636719 107.382812 C 130.71875 106.675781 130.753906 105.960938 130.738281 105.246094 L 130.703125 103.679688 C 130.699219 103.449219 130.84375 103.242188 131.0625 103.171875 C 135.917969 101.519531 139.320312 104.46875 139.460938 104.597656 C 139.605469 104.726562 139.667969 104.921875 139.625 105.105469 C 138.964844 108.019531 139.34375 111.925781 139.539062 113.46875 C 139.609375 114.027344 139.3125 114.5625 138.804688 114.800781 C 138.605469 114.894531 138.371094 114.929688 138.128906 114.910156 L 137.671875 114.871094 L 137.046875 115.511719 C 136.980469 115.578125 136.894531 115.628906 136.800781 115.65625 C 136.714844 115.675781 135.507812 115.984375 134.148438 115.984375 " fill-opacity="1" fill-rule="nonzero"/><path fill="#ffffff" d="M 129.984375 108.433594 C 129.984375 108.433594 129.90625 104.667969 128.210938 105.0625 C 126.515625 105.460938 126.703125 109.605469 129.984375 108.433594 " fill-opacity="1" fill-rule="nonzero"/><path fill="#000000" d="M 135.828125 111.246094 Z M 135.816406 111.234375 C 136.066406 111.382812 136.230469 111.359375 136.332031 111.328125 C 136.546875 111.261719 136.984375 110.980469 137.484375 109.832031 C 137.621094 109.523438 137.820312 108.96875 137.632812 108.742188 C 137.464844 108.539062 137.285156 108.5 137.195312 108.492188 C 137.078125 108.484375 137.011719 108.519531 136.996094 108.53125 C 135.703125 109.691406 135.652344 110.964844 135.816406 111.234375 Z M 136.183594 112.40625 C 135.863281 112.40625 135.539062 112.308594 135.226562 112.109375 C 134.933594 111.925781 134.746094 111.554688 134.707031 111.0625 C 134.636719 110.210938 135.015625 108.886719 136.292969 107.746094 C 136.539062 107.523438 136.898438 107.410156 137.273438 107.4375 C 137.71875 107.472656 138.136719 107.695312 138.445312 108.070312 C 138.867188 108.582031 138.871094 109.296875 138.453125 110.253906 C 137.933594 111.441406 137.339844 112.121094 136.644531 112.339844 C 136.492188 112.382812 136.339844 112.40625 136.183594 112.40625 " fill-opacity="1" fill-rule="nonzero"/><path fill="#000000" d="M 137.445312 108.515625 C 137.386719 108.515625 137.324219 108.503906 137.265625 108.480469 L 129.613281 105.699219 C 129.339844 105.601562 129.199219 105.296875 129.296875 105.023438 C 129.398438 104.75 129.699219 104.609375 129.972656 104.710938 L 137.625 107.488281 C 137.898438 107.585938 138.042969 107.890625 137.941406 108.164062 C 137.863281 108.378906 137.660156 108.515625 137.445312 108.515625 " fill-opacity="1" fill-rule="nonzero"/><path fill="#000000" d="M 139.183594 112.078125 Z M 139.167969 113.132812 C 139.160156 113.132812 139.152344 113.132812 139.140625 113.132812 C 138.851562 113.121094 138.625 112.875 138.636719 112.585938 C 138.644531 112.324219 138.84375 112.117188 139.089844 112.082031 C 139.394531 111.929688 140.332031 110.914062 140.269531 109.863281 C 140.261719 109.714844 140.214844 109.65625 140.160156 109.617188 C 139.898438 109.410156 139.246094 109.453125 138.988281 109.507812 C 138.703125 109.5625 138.425781 109.378906 138.367188 109.09375 C 138.3125 108.804688 138.5 108.527344 138.785156 108.472656 C 138.914062 108.445312 140.09375 108.230469 140.808594 108.78125 C 141.121094 109.027344 141.300781 109.378906 141.324219 109.804688 C 141.402344 111.183594 140.457031 112.257812 140.167969 112.554688 C 139.789062 112.9375 139.453125 113.132812 139.167969 113.132812 " fill-opacity="1" fill-rule="nonzero"/><path fill="#0b0444" d="M 289.378906 215.644531 L 206.160156 264.035156 L 123.011719 215.582031 L 207.105469 166.605469 L 289.378906 215.644531 " fill-opacity="1" fill-rule="nonzero"/><path fill="#000000" d="M 124.058594 215.582031 L 206.160156 263.425781 L 288.339844 215.636719 L 207.101562 167.21875 Z M 206.160156 264.5625 C 206.070312 264.5625 205.976562 264.539062 205.894531 264.492188 L 122.746094 216.039062 C 122.582031 215.945312 122.484375 215.769531 122.484375 215.582031 C 122.484375 215.394531 122.582031 215.222656 122.746094 215.125 L 206.839844 166.148438 C 207.003906 166.054688 207.207031 166.054688 207.375 166.152344 L 289.652344 215.1875 C 289.8125 215.285156 289.910156 215.460938 289.910156 215.644531 C 289.910156 215.832031 289.808594 216.007812 289.644531 216.101562 L 206.425781 264.492188 C 206.34375 264.539062 206.253906 264.5625 206.160156 264.5625 " fill-opacity="1" fill-rule="nonzero"/><path fill="#99b9ff" d="M 206.085938 332.636719 L 206.085938 264.132812 L 289.378906 215.644531 L 289.378906 284.148438 L 206.085938 332.636719 " fill-opacity="1" fill-rule="nonzero"/><path fill="#000000" d="M 206.613281 264.433594 L 206.613281 331.71875 L 288.855469 283.84375 L 288.855469 216.558594 Z M 206.085938 333.164062 C 205.996094 333.164062 205.90625 333.140625 205.824219 333.09375 C 205.660156 333 205.558594 332.828125 205.558594 332.636719 L 205.558594 264.132812 C 205.558594 263.941406 205.660156 263.769531 205.820312 263.675781 L 289.117188 215.1875 C 289.28125 215.089844 289.480469 215.089844 289.644531 215.183594 C 289.808594 215.277344 289.910156 215.453125 289.910156 215.640625 L 289.910156 284.148438 C 289.910156 284.335938 289.808594 284.511719 289.648438 284.605469 L 206.351562 333.09375 C 206.269531 333.140625 206.175781 333.164062 206.085938 333.164062 " fill-opacity="1" fill-rule="nonzero"/><path fill="#ffffff" d="M 206.035156 332.53125 L 206.035156 264.027344 L 122.980469 215.652344 L 122.980469 284.160156 L 206.035156 332.53125 " fill-opacity="1" fill-rule="nonzero"/><path fill="#000000" d="M 123.507812 283.855469 L 205.511719 331.613281 L 205.511719 264.332031 L 123.507812 216.570312 Z M 206.035156 333.0625 C 205.945312 333.0625 205.855469 333.035156 205.773438 332.988281 L 122.714844 284.617188 C 122.550781 284.519531 122.453125 284.347656 122.453125 284.160156 L 122.453125 215.652344 C 122.453125 215.464844 122.554688 215.289062 122.71875 215.195312 C 122.882812 215.101562 123.082031 215.101562 123.246094 215.195312 L 206.300781 263.570312 C 206.464844 263.664062 206.566406 263.839844 206.566406 264.027344 L 206.566406 332.53125 C 206.566406 332.722656 206.464844 332.898438 206.300781 332.992188 C 206.21875 333.035156 206.128906 333.0625 206.035156 333.0625 " fill-opacity="1" fill-rule="nonzero"/><path fill="#000000" d="M 205.550781 298.773438 C 205.460938 298.773438 205.367188 298.75 205.285156 298.703125 L 122.734375 250.683594 C 122.480469 250.539062 122.398438 250.214844 122.542969 249.960938 C 122.691406 249.710938 123.015625 249.625 123.265625 249.769531 L 205.816406 297.789062 C 206.070312 297.9375 206.152344 298.257812 206.007812 298.511719 C 205.910156 298.679688 205.730469 298.773438 205.550781 298.773438 " fill-opacity="1" fill-rule="nonzero"/><path fill="#000000" d="M 176.476562 315.109375 C 176.183594 315.109375 175.945312 314.875 175.945312 314.585938 L 175.945312 247.363281 C 175.945312 247.070312 176.183594 246.835938 176.476562 246.835938 C 176.765625 246.835938 177.003906 247.070312 177.003906 247.363281 L 177.003906 314.585938 C 177.003906 314.875 176.765625 315.109375 176.476562 315.109375 " fill-opacity="1" fill-rule="nonzero"/><path fill="#000000" d="M 148.320312 298.921875 C 148.027344 298.921875 147.789062 298.6875 147.789062 298.394531 L 147.789062 231.527344 C 147.789062 231.234375 148.027344 231 148.320312 231 C 148.609375 231 148.847656 231.234375 148.847656 231.527344 L 148.847656 298.394531 C 148.847656 298.6875 148.609375 298.921875 148.320312 298.921875 " fill-opacity="1" fill-rule="nonzero"/><path fill="#000000" d="M 206.8125 298.773438 C 206.632812 298.773438 206.457031 298.679688 206.355469 298.511719 C 206.210938 298.257812 206.296875 297.9375 206.546875 297.789062 L 289.042969 249.722656 C 289.296875 249.574219 289.617188 249.660156 289.765625 249.910156 C 289.914062 250.164062 289.828125 250.488281 289.574219 250.632812 L 207.078125 298.703125 C 206.996094 298.75 206.90625 298.773438 206.8125 298.773438 " fill-opacity="1" fill-rule="nonzero"/><path fill="#000000" d="M 235.953125 315.109375 C 235.660156 315.109375 235.421875 314.875 235.421875 314.585938 L 235.421875 247.363281 C 235.421875 247.070312 235.660156 246.835938 235.953125 246.835938 C 236.242188 246.835938 236.480469 247.070312 236.480469 247.363281 L 236.480469 314.585938 C 236.480469 314.875 236.242188 315.109375 235.953125 315.109375 " fill-opacity="1" fill-rule="nonzero"/><path fill="#000000" d="M 264.109375 298.921875 C 263.816406 298.921875 263.578125 298.6875 263.578125 298.394531 L 263.578125 230.410156 C 263.578125 230.121094 263.816406 229.886719 264.109375 229.886719 C 264.398438 229.886719 264.636719 230.121094 264.636719 230.410156 L 264.636719 298.394531 C 264.636719 298.6875 264.398438 298.921875 264.109375 298.921875 " fill-opacity="1" fill-rule="nonzero"/><path fill="#0b0444" d="M 288.546875 170.308594 L 229.175781 229.679688 L 126.273438 195.300781 L 185.207031 136.371094 L 288.546875 170.308594 " fill-opacity="1" fill-rule="nonzero"/><path fill="#000000" d="M 127.25 195.074219 L 229.03125 229.074219 L 287.566406 170.539062 L 185.351562 136.972656 Z M 229.175781 230.207031 C 229.117188 230.207031 229.0625 230.199219 229.007812 230.179688 L 126.105469 195.804688 C 125.933594 195.746094 125.800781 195.601562 125.761719 195.425781 C 125.71875 195.246094 125.769531 195.058594 125.902344 194.929688 L 184.832031 135.996094 C 184.972656 135.855469 185.183594 135.804688 185.371094 135.867188 L 288.710938 169.804688 C 288.886719 169.863281 289.019531 170.007812 289.0625 170.1875 C 289.101562 170.363281 289.050781 170.550781 288.921875 170.679688 L 229.550781 230.050781 C 229.449219 230.152344 229.3125 230.207031 229.175781 230.207031 " fill-opacity="1" fill-rule="nonzero"/><path fill="#99b9ff" d="M 288.578125 170.347656 L 288.578125 205.65625 L 229.265625 264.726562 L 229.265625 229.617188 L 288.578125 170.347656 " fill-opacity="1" fill-rule="nonzero"/><path fill="#000000" d="M 229.792969 229.835938 L 229.792969 263.453125 L 288.046875 205.4375 L 288.046875 171.625 Z M 229.265625 265.253906 C 229.195312 265.253906 229.125 265.238281 229.0625 265.210938 C 228.863281 265.132812 228.738281 264.9375 228.738281 264.726562 L 228.738281 229.617188 C 228.738281 229.476562 228.792969 229.34375 228.894531 229.246094 L 288.203125 169.976562 C 288.355469 169.824219 288.582031 169.78125 288.777344 169.863281 C 288.976562 169.941406 289.105469 170.136719 289.105469 170.347656 L 289.105469 205.660156 C 289.105469 205.796875 289.046875 205.933594 288.949219 206.03125 L 229.636719 265.097656 C 229.539062 265.199219 229.402344 265.253906 229.265625 265.253906 " fill-opacity="1" fill-rule="nonzero"/><path fill="#ffffff" d="M 229.265625 264.925781 L 126.132812 230.605469 C 126.480469 230.957031 126.222656 195.296875 126.222656 195.296875 L 229.265625 229.617188 C 229.265625 229.617188 229.265625 265.128906 229.265625 264.925781 " fill-opacity="1" fill-rule="nonzero"/><path fill="#000000" d="M 126.71875 230.246094 L 228.738281 264.195312 L 228.738281 229.996094 L 126.753906 196.03125 C 126.769531 198.332031 126.816406 205.648438 126.835938 212.898438 C 126.847656 218.015625 126.84375 222.097656 126.820312 225.035156 C 126.800781 228.03125 126.785156 229.5 126.71875 230.246094 Z M 229.265625 265.457031 C 229.195312 265.457031 229.128906 265.441406 229.070312 265.417969 L 125.964844 231.105469 C 125.886719 231.082031 125.816406 231.039062 125.757812 230.980469 C 125.601562 230.824219 125.5625 230.585938 125.652344 230.386719 C 125.855469 228.738281 125.789062 208.628906 125.695312 195.300781 C 125.691406 195.132812 125.773438 194.96875 125.910156 194.871094 C 126.050781 194.769531 126.226562 194.742188 126.390625 194.796875 L 229.433594 229.117188 C 229.648438 229.1875 229.792969 229.390625 229.792969 229.617188 L 229.792969 264.925781 C 229.792969 265.21875 229.558594 265.457031 229.265625 265.457031 " fill-opacity="1" fill-rule="nonzero"/><path fill="#000000" d="M 195.832031 253.875 C 195.539062 253.875 195.300781 253.636719 195.300781 253.347656 L 195.300781 218.503906 C 195.300781 218.210938 195.539062 217.976562 195.832031 217.976562 C 196.121094 217.976562 196.359375 218.210938 196.359375 218.503906 L 196.359375 253.347656 C 196.359375 253.636719 196.121094 253.875 195.832031 253.875 " fill-opacity="1" fill-rule="nonzero"/><path fill="#000000" d="M 160.988281 242.261719 C 160.699219 242.261719 160.460938 242.023438 160.460938 241.730469 L 160.460938 206.890625 C 160.460938 206.597656 160.699219 206.363281 160.988281 206.363281 C 161.28125 206.363281 161.515625 206.597656 161.515625 206.890625 L 161.515625 241.730469 C 161.515625 242.023438 161.28125 242.261719 160.988281 242.261719 " fill-opacity="1" fill-rule="nonzero"/><path fill="#000000" d="M 249.328125 245.074219 C 249.035156 245.074219 248.800781 244.835938 248.800781 244.546875 L 248.800781 209.351562 C 248.800781 209.0625 249.035156 208.824219 249.328125 208.824219 C 249.617188 208.824219 249.855469 209.0625 249.855469 209.351562 L 249.855469 244.546875 C 249.855469 244.835938 249.617188 245.074219 249.328125 245.074219 " fill-opacity="1" fill-rule="nonzero"/><path fill="#000000" d="M 269.386719 224.664062 C 269.097656 224.664062 268.859375 224.425781 268.859375 224.136719 L 268.859375 189.292969 C 268.859375 189.003906 269.097656 188.765625 269.386719 188.765625 C 269.679688 188.765625 269.914062 189.003906 269.914062 189.292969 L 269.914062 224.136719 C 269.914062 224.425781 269.679688 224.664062 269.386719 224.664062 " fill-opacity="1" fill-rule="nonzero"/><path fill="#000000" d="M 248.28125 210.027344 C 248.226562 210.027344 248.171875 210.015625 248.117188 210 L 145.707031 176.171875 C 145.429688 176.078125 145.277344 175.78125 145.371094 175.503906 C 145.460938 175.226562 145.757812 175.074219 146.035156 175.167969 L 248.445312 208.996094 C 248.722656 209.085938 248.875 209.386719 248.785156 209.664062 C 248.710938 209.886719 248.503906 210.027344 248.28125 210.027344 " fill-opacity="1" fill-rule="nonzero"/><path fill="#000000" d="M 269.132812 189.851562 C 269.078125 189.851562 269.019531 189.84375 268.96875 189.824219 L 166.148438 155.878906 C 165.871094 155.789062 165.71875 155.488281 165.8125 155.214844 C 165.902344 154.9375 166.199219 154.785156 166.476562 154.878906 L 269.296875 188.820312 C 269.574219 188.910156 269.722656 189.210938 269.632812 189.488281 C 269.558594 189.710938 269.351562 189.851562 269.132812 189.851562 " fill-opacity="1" fill-rule="nonzero"/><path fill="#000000" d="M 196.496094 219.011719 C 196.359375 219.011719 196.226562 218.960938 196.121094 218.855469 C 195.914062 218.648438 195.917969 218.316406 196.125 218.109375 L 255.363281 159.546875 C 255.570312 159.339844 255.90625 159.34375 256.109375 159.546875 C 256.316406 159.757812 256.3125 160.09375 256.105469 160.296875 L 196.867188 218.859375 C 196.765625 218.960938 196.632812 219.011719 196.496094 219.011719 " fill-opacity="1" fill-rule="nonzero"/><path fill="#000000" d="M 160.851562 207.242188 C 160.714844 207.242188 160.578125 207.191406 160.476562 207.085938 C 160.273438 206.878906 160.273438 206.546875 160.480469 206.339844 L 219.71875 147.777344 C 219.925781 147.570312 220.261719 147.574219 220.464844 147.78125 C 220.671875 147.988281 220.671875 148.324219 220.460938 148.527344 L 161.222656 207.09375 C 161.121094 207.191406 160.988281 207.242188 160.851562 207.242188 " fill-opacity="1" fill-rule="nonzero"/><path fill="#ffffff" d="M 170.625 148.398438 C 175.609375 145.34375 179.027344 142.203125 182.824219 138.371094 L 183.152344 138.078125 C 183.671875 137.613281 184.480469 137.695312 184.894531 138.257812 L 186.898438 140.96875 C 188.257812 142.542969 189.683594 140.996094 188.976562 139.78125 C 188.371094 138.746094 187.9375 137.746094 188.414062 137.941406 C 190.707031 138.886719 195.105469 141.011719 196.984375 139.605469 C 198.757812 138.273438 192.617188 131.691406 186.734375 131.097656 C 184.398438 130.863281 182.09375 131.886719 179.058594 134.023438 C 178.136719 134.667969 177.707031 135.117188 175.757812 135.917969 L 170.625 148.398438 " fill-opacity="1" fill-rule="nonzero"/><path fill="#000000" d="M 170.144531 149.207031 C 169.96875 149.207031 169.800781 149.121094 169.695312 148.960938 C 169.539062 148.714844 169.617188 148.390625 169.859375 148.234375 C 174.148438 145.523438 178.5 141.984375 182.453125 138.003906 L 182.796875 137.6875 C 183.160156 137.363281 183.636719 137.207031 184.117188 137.257812 C 184.597656 137.308594 185.035156 137.558594 185.320312 137.945312 L 187.3125 140.640625 C 187.695312 141.078125 188.089844 141.21875 188.367188 141.019531 C 188.617188 140.839844 188.742188 140.429688 188.519531 140.046875 C 187.480469 138.265625 187.605469 137.875 187.84375 137.601562 C 187.914062 137.523438 188.175781 137.273438 188.617188 137.457031 C 188.855469 137.554688 189.125 137.667969 189.40625 137.789062 C 191.585938 138.714844 195.230469 140.261719 196.667969 139.183594 C 196.8125 139.074219 196.773438 138.804688 196.714844 138.59375 C 196.144531 136.550781 191.410156 132.101562 186.683594 131.621094 C 184.628906 131.417969 182.511719 132.238281 179.363281 134.453125 C 178.476562 135.078125 177.039062 135.816406 175.199219 136.585938 C 174.929688 136.699219 174.621094 136.574219 174.507812 136.304688 C 174.398438 136.035156 174.523438 135.726562 174.789062 135.613281 C 176.535156 134.882812 177.941406 134.164062 178.753906 133.589844 C 182.132812 131.210938 184.460938 130.335938 186.789062 130.570312 C 191.691406 131.066406 196.996094 135.675781 197.730469 138.3125 C 198.011719 139.3125 197.582031 139.816406 197.300781 140.027344 C 195.386719 141.464844 191.570312 139.855469 189.03125 138.777344 C 189.128906 138.976562 189.261719 139.222656 189.433594 139.515625 C 189.902344 140.320312 189.707031 141.363281 188.984375 141.878906 C 188.414062 142.285156 187.421875 142.382812 186.5 141.316406 C 186.492188 141.304688 186.484375 141.296875 186.476562 141.285156 L 184.472656 138.570312 C 184.359375 138.421875 184.195312 138.328125 184.011719 138.308594 C 183.820312 138.289062 183.640625 138.347656 183.503906 138.472656 L 183.179688 138.765625 C 179.195312 142.78125 174.777344 146.375 170.425781 149.125 C 170.339844 149.183594 170.242188 149.207031 170.144531 149.207031 " fill-opacity="1" fill-rule="nonzero"/><path fill="#ffffff" d="M 148.730469 171.484375 C 149.933594 170.761719 150.867188 170.109375 151.5 169.640625 C 152.023438 169.25 152.675781 169.09375 153.320312 169.191406 C 155.585938 169.539062 160.890625 169.761719 163.398438 169.304688 C 167.546875 168.550781 168.449219 165.839844 168.578125 164.488281 C 168.664062 163.558594 167.894531 162.761719 166.957031 162.730469 L 160.96875 162.519531 C 160.222656 162.496094 159.855469 161.605469 160.359375 161.0625 L 161.558594 159.761719 C 161.558594 159.761719 160.914062 159.246094 159.898438 159.3125 C 159.253906 159.351562 158.382812 159.855469 157.585938 160.429688 C 155.367188 162.027344 152.929688 163.300781 150.328125 164.132812 C 149.535156 164.386719 148.664062 164.648438 147.726562 164.90625 L 148.730469 171.484375 " fill-opacity="1" fill-rule="nonzero"/><path fill="#000000" d="M 144.941406 174.027344 C 144.742188 174.027344 144.550781 173.914062 144.460938 173.722656 C 144.339844 173.460938 144.453125 173.144531 144.71875 173.019531 C 147.699219 171.632812 149.878906 170.183594 151.183594 169.214844 C 151.820312 168.742188 152.605469 168.546875 153.398438 168.667969 C 155.644531 169.015625 160.910156 169.21875 163.300781 168.785156 C 167.28125 168.0625 167.949219 165.503906 168.050781 164.4375 C 168.078125 164.160156 167.984375 163.882812 167.792969 163.660156 C 167.578125 163.417969 167.265625 163.269531 166.941406 163.257812 L 160.949219 163.050781 C 160.394531 163.03125 159.921875 162.699219 159.707031 162.191406 C 159.496094 161.679688 159.597656 161.109375 159.972656 160.703125 L 160.691406 159.921875 C 160.488281 159.859375 160.230469 159.820312 159.929688 159.839844 C 159.675781 159.855469 159.074219 160.007812 157.894531 160.859375 C 155.558594 162.539062 153.066406 163.808594 150.488281 164.636719 C 148.949219 165.128906 147.378906 165.570312 145.8125 165.941406 C 145.53125 166.007812 145.242188 165.835938 145.175781 165.550781 C 145.109375 165.269531 145.285156 164.984375 145.566406 164.914062 C 147.105469 164.546875 148.652344 164.117188 150.167969 163.628906 C 152.636719 162.835938 155.03125 161.617188 157.277344 160 C 158.351562 159.226562 159.199219 158.824219 159.863281 158.78125 C 161.070312 158.707031 161.855469 159.324219 161.890625 159.351562 C 162.003906 159.445312 162.074219 159.578125 162.085938 159.726562 C 162.097656 159.871094 162.046875 160.015625 161.945312 160.121094 L 160.746094 161.417969 C 160.613281 161.566406 160.65625 161.722656 160.679688 161.785156 C 160.707031 161.84375 160.789062 161.988281 160.984375 161.992188 L 166.976562 162.203125 C 167.59375 162.226562 168.179688 162.5 168.585938 162.964844 C 168.972656 163.40625 169.15625 163.964844 169.101562 164.539062 C 169.003906 165.554688 168.3125 168.945312 163.492188 169.824219 C 160.957031 170.285156 155.609375 170.078125 153.238281 169.710938 C 152.726562 169.632812 152.222656 169.757812 151.816406 170.0625 C 150.472656 171.0625 148.226562 172.550781 145.164062 173.976562 C 145.089844 174.011719 145.015625 174.027344 144.941406 174.027344 " fill-opacity="1" fill-rule="nonzero"/><path fill="#ffffff" d="M 204.320312 97.898438 C 204.3125 92.507812 199.976562 88.246094 194.6875 88.507812 C 189.527344 88.757812 185.507812 93.152344 185.59375 98.441406 C 185.636719 100.992188 186.625 103.28125 188.246094 104.941406 C 189.492188 106.21875 190.203125 107.941406 190.203125 109.765625 L 190.203125 110.847656 C 190.207031 111.738281 190.914062 112.449219 191.785156 112.429688 L 198.152344 112.296875 C 199.023438 112.277344 199.730469 111.539062 199.726562 110.644531 L 199.726562 109.570312 C 199.722656 107.773438 200.382812 106.015625 201.617188 104.71875 C 203.304688 102.945312 204.324219 100.539062 204.320312 97.898438 " fill-opacity="1" fill-rule="nonzero"/><path fill="#000000" d="M 195.144531 89.023438 C 195 89.023438 194.855469 89.027344 194.710938 89.035156 C 189.8125 89.273438 186.039062 93.40625 186.117188 98.4375 C 186.15625 100.78125 187.046875 102.960938 188.621094 104.574219 C 189.980469 105.964844 190.726562 107.808594 190.730469 109.765625 L 190.730469 110.847656 C 190.730469 111.144531 190.847656 111.417969 191.050781 111.617188 C 191.246094 111.808594 191.503906 111.914062 191.773438 111.90625 L 198.140625 111.769531 C 198.722656 111.757812 199.199219 111.253906 199.195312 110.648438 L 199.195312 109.570312 C 199.195312 107.617188 199.9375 105.714844 201.234375 104.355469 C 202.886719 102.621094 203.796875 100.328125 203.792969 97.902344 C 203.789062 95.386719 202.804688 93.070312 201.027344 91.378906 C 199.421875 89.851562 197.34375 89.023438 195.144531 89.023438 Z M 191.75 112.960938 C 191.210938 112.960938 190.699219 112.753906 190.3125 112.375 C 189.902344 111.972656 189.675781 111.429688 189.675781 110.847656 L 189.675781 109.765625 C 189.671875 108.085938 189.03125 106.503906 187.867188 105.3125 C 186.101562 103.503906 185.105469 101.070312 185.066406 98.453125 C 184.972656 92.847656 189.1875 88.25 194.660156 87.980469 C 197.308594 87.847656 199.832031 88.785156 201.753906 90.617188 C 203.742188 92.503906 204.84375 95.09375 204.847656 97.898438 C 204.851562 100.601562 203.839844 103.152344 201.996094 105.085938 C 200.886719 106.25 200.25 107.886719 200.253906 109.570312 L 200.253906 110.648438 C 200.253906 111.824219 199.316406 112.800781 198.160156 112.828125 L 191.796875 112.960938 C 191.78125 112.960938 191.765625 112.960938 191.75 112.960938 " fill-opacity="1" fill-rule="nonzero"/><path fill="#ffffff" d="M 194.988281 118.910156 C 192.820312 118.957031 191.054688 117.1875 191.050781 114.960938 L 191.046875 112.34375 L 198.910156 112.179688 L 198.917969 114.796875 C 198.917969 117.023438 197.160156 118.863281 194.988281 118.910156 " fill-opacity="1" fill-rule="nonzero"/><path fill="#000000" d="M 191.574219 112.863281 L 191.578125 114.960938 C 191.578125 115.914062 191.945312 116.796875 192.609375 117.445312 C 193.246094 118.070312 194.082031 118.402344 194.976562 118.382812 C 196.859375 118.34375 198.390625 116.738281 198.386719 114.796875 L 198.382812 112.71875 Z M 194.90625 119.441406 C 193.765625 119.441406 192.691406 119.003906 191.871094 118.199219 C 191.003906 117.351562 190.523438 116.203125 190.519531 114.964844 L 190.515625 111.828125 L 199.4375 111.640625 L 199.441406 114.796875 C 199.445312 117.304688 197.453125 119.386719 195 119.4375 C 194.96875 119.441406 194.9375 119.441406 194.90625 119.441406 " fill-opacity="1" fill-rule="nonzero"/><path fill="#000000" d="M 195.085938 82.09375 C 194.796875 82.09375 194.558594 81.859375 194.558594 81.570312 L 194.527344 72.046875 C 194.527344 71.753906 194.761719 71.519531 195.054688 71.519531 C 195.347656 71.519531 195.582031 71.753906 195.582031 72.042969 L 195.613281 81.566406 C 195.613281 81.859375 195.378906 82.09375 195.085938 82.09375 " fill-opacity="1" fill-rule="nonzero"/><path fill="#000000" d="M 166.335938 101 C 166.046875 101 165.808594 100.765625 165.808594 100.472656 C 165.808594 100.183594 166.042969 99.945312 166.335938 99.945312 L 178.738281 99.910156 C 178.742188 99.910156 178.742188 99.910156 178.742188 99.910156 C 179.03125 99.910156 179.269531 100.148438 179.269531 100.4375 C 179.269531 100.730469 179.03125 100.96875 178.742188 100.96875 L 166.339844 101 L 166.335938 101 " fill-opacity="1" fill-rule="nonzero"/><path fill="#000000" d="M 223.300781 101.246094 C 223.300781 101.246094 223.300781 101.246094 223.296875 101.246094 L 210.550781 101.136719 C 210.257812 101.132812 210.023438 100.898438 210.027344 100.605469 C 210.03125 100.3125 210.25 100.074219 210.558594 100.078125 L 223.304688 100.191406 C 223.597656 100.191406 223.832031 100.429688 223.832031 100.722656 C 223.828125 101.011719 223.59375 101.246094 223.300781 101.246094 " fill-opacity="1" fill-rule="nonzero"/><path fill="#000000" d="M 182.300781 88.40625 C 182.164062 88.40625 182.027344 88.355469 181.921875 88.25 L 174.285156 80.503906 C 174.078125 80.292969 174.082031 79.960938 174.289062 79.757812 C 174.496094 79.550781 174.828125 79.554688 175.035156 79.761719 L 182.675781 87.507812 C 182.878906 87.714844 182.878906 88.050781 182.671875 88.253906 C 182.570312 88.355469 182.433594 88.40625 182.300781 88.40625 " fill-opacity="1" fill-rule="nonzero"/><path fill="#000000" d="M 207.1875 88.941406 C 207.050781 88.941406 206.917969 88.890625 206.8125 88.785156 C 206.609375 88.582031 206.609375 88.246094 206.8125 88.039062 L 214.941406 79.933594 C 215.148438 79.726562 215.484375 79.726562 215.6875 79.933594 C 215.894531 80.140625 215.894531 80.476562 215.6875 80.679688 L 207.5625 88.789062 C 207.457031 88.890625 207.320312 88.941406 207.1875 88.941406 " fill-opacity="1" fill-rule="nonzero"/><path fill="#ffffff" d="M 316.683594 143.117188 C 318.207031 150.398438 313.539062 157.53125 306.261719 159.054688 C 298.980469 160.578125 291.847656 155.910156 290.324219 148.632812 C 288.804688 141.355469 293.46875 134.21875 300.746094 132.699219 C 308.023438 131.175781 315.160156 135.839844 316.683594 143.117188 " fill-opacity="1" fill-rule="nonzero"/><path fill="#000000" d="M 303.53125 132.933594 C 302.644531 132.933594 301.746094 133.027344 300.855469 133.210938 C 293.875 134.671875 289.382812 141.542969 290.84375 148.523438 C 292.304688 155.503906 299.175781 159.996094 306.15625 158.535156 C 309.539062 157.832031 312.441406 155.847656 314.332031 152.957031 C 316.222656 150.0625 316.875 146.609375 316.167969 143.226562 C 315.460938 139.84375 313.476562 136.9375 310.585938 135.046875 C 308.453125 133.65625 306.019531 132.933594 303.53125 132.933594 Z M 303.5 159.871094 C 297.019531 159.871094 291.1875 155.328125 289.808594 148.742188 C 288.230469 141.1875 293.089844 133.757812 300.640625 132.179688 C 304.296875 131.414062 308.035156 132.117188 311.164062 134.164062 C 314.292969 136.210938 316.4375 139.351562 317.203125 143.011719 C 317.96875 146.667969 317.261719 150.402344 315.214844 153.53125 C 313.171875 156.660156 310.027344 158.808594 306.371094 159.570312 C 305.410156 159.773438 304.449219 159.871094 303.5 159.871094 " fill-opacity="1" fill-rule="nonzero"/><path fill="#000000" d="M 303.480469 157.507812 C 301.246094 157.507812 299.054688 156.859375 297.140625 155.609375 C 294.539062 153.910156 292.757812 151.296875 292.121094 148.253906 C 290.808594 141.980469 294.847656 135.804688 301.121094 134.492188 C 304.910156 133.699219 308.832031 134.835938 311.613281 137.535156 C 311.820312 137.738281 311.828125 138.070312 311.625 138.28125 C 311.421875 138.488281 311.085938 138.496094 310.878906 138.292969 C 308.351562 135.839844 304.785156 134.804688 301.339844 135.523438 C 295.632812 136.71875 291.960938 142.332031 293.152344 148.039062 C 293.734375 150.804688 295.351562 153.179688 297.71875 154.726562 C 300.082031 156.269531 302.90625 156.804688 305.667969 156.226562 C 308.433594 155.648438 310.808594 154.027344 312.355469 151.664062 C 313.902344 149.296875 314.433594 146.472656 313.855469 143.707031 C 313.796875 143.425781 313.976562 143.144531 314.265625 143.085938 C 314.546875 143.027344 314.832031 143.207031 314.890625 143.492188 C 315.527344 146.535156 314.941406 149.640625 313.238281 152.242188 C 311.539062 154.84375 308.929688 156.621094 305.886719 157.257812 C 305.085938 157.425781 304.28125 157.507812 303.480469 157.507812 " fill-opacity="1" fill-rule="nonzero"/><path fill="#0b0444" d="M 304.003906 152.324219 L 303.699219 150.863281 C 302.65625 151.03125 301.597656 150.960938 300.945312 150.746094 L 301.027344 148.851562 C 301.75 149.066406 302.726562 149.203125 303.726562 148.996094 C 304.601562 148.808594 305.128906 148.34375 305 147.730469 C 304.878906 147.144531 304.308594 146.878906 303.089844 146.730469 C 301.328125 146.523438 300.046875 145.988281 299.734375 144.496094 C 299.449219 143.144531 300.179688 141.878906 301.761719 141.214844 L 301.453125 139.753906 L 302.960938 139.4375 L 303.246094 140.789062 C 304.285156 140.621094 305.023438 140.691406 305.582031 140.832031 L 305.5 142.664062 C 305.0625 142.578125 304.28125 142.371094 303.175781 142.605469 C 302.175781 142.8125 301.941406 143.3125 302.03125 143.742188 C 302.136719 144.25 302.742188 144.460938 304.15625 144.679688 C 306.121094 144.945312 307.035156 145.632812 307.324219 147.019531 C 307.613281 148.390625 306.886719 149.761719 305.183594 150.4375 L 305.511719 152.007812 L 304.003906 152.324219 " fill-opacity="1" fill-rule="nonzero"/><path fill="#ffffff" d="M 269.980469 51.628906 L 288.53125 71.871094 L 315.332031 63.800781 L 269.980469 51.628906 " fill-opacity="1" fill-rule="nonzero"/><path fill="#000000" d="M 271.59375 52.605469 L 288.699219 71.269531 L 313.40625 63.828125 Z M 288.535156 72.398438 C 288.390625 72.398438 288.25 72.335938 288.148438 72.226562 L 269.59375 51.984375 C 269.433594 51.808594 269.410156 51.554688 269.53125 51.351562 C 269.652344 51.152344 269.894531 51.054688 270.117188 51.117188 L 315.472656 63.285156 C 315.699219 63.347656 315.859375 63.554688 315.859375 63.789062 C 315.867188 64.023438 315.714844 64.234375 315.488281 64.300781 L 288.6875 72.375 C 288.640625 72.386719 288.585938 72.398438 288.535156 72.398438 " fill-opacity="1" fill-rule="nonzero"/><path fill="#99b9ff" d="M 274.785156 69.023438 L 276.636719 58.890625 L 307.914062 63.519531 L 279.898438 62.449219 L 283.773438 66.679688 L 274.785156 69.023438 " fill-opacity="1" fill-rule="nonzero"/><path fill="#000000" d="M 277.0625 59.488281 L 275.453125 68.304688 L 282.792969 66.390625 L 279.507812 62.804688 C 279.363281 62.648438 279.328125 62.417969 279.417969 62.226562 C 279.507812 62.03125 279.6875 61.910156 279.917969 61.917969 L 298.242188 62.621094 Z M 274.785156 69.550781 C 274.652344 69.550781 274.523438 69.503906 274.425781 69.410156 C 274.292969 69.289062 274.234375 69.105469 274.265625 68.929688 L 276.113281 58.796875 C 276.167969 58.515625 276.433594 58.328125 276.710938 58.367188 L 307.992188 62.996094 C 308.269531 63.035156 308.46875 63.289062 308.441406 63.566406 C 308.414062 63.84375 308.167969 64.046875 307.894531 64.046875 L 281.140625 63.023438 L 284.164062 66.324219 C 284.289062 66.460938 284.335938 66.652344 284.28125 66.828125 C 284.226562 67.007812 284.085938 67.144531 283.90625 67.191406 L 274.917969 69.535156 C 274.875 69.546875 274.828125 69.550781 274.785156 69.550781 " fill-opacity="1" fill-rule="nonzero"/><path fill="#000000" d="M 276.582031 67.203125 C 276.476562 67.203125 276.367188 67.171875 276.28125 67.101562 C 276.066406 66.933594 276.027344 66.628906 276.191406 66.410156 L 279.511719 62.144531 C 279.675781 61.929688 279.984375 61.894531 280.199219 62.0625 C 280.414062 62.226562 280.449219 62.535156 280.28125 62.746094 L 276.96875 67.015625 C 276.871094 67.136719 276.726562 67.203125 276.582031 67.203125 " fill-opacity="1" fill-rule="nonzero"/><path fill="#000000" d="M 311.289062 92.765625 C 311.152344 92.765625 311.015625 92.710938 310.914062 92.609375 L 309.355469 91.039062 C 309.152344 90.832031 309.152344 90.5 309.355469 90.292969 C 309.5625 90.089844 309.898438 90.089844 310.105469 90.296875 L 311.664062 91.863281 C 311.867188 92.070312 311.867188 92.40625 311.660156 92.609375 C 311.558594 92.714844 311.421875 92.765625 311.289062 92.765625 " fill-opacity="1" fill-rule="nonzero"/><path fill="#000000" d="M 316.746094 98.253906 C 316.613281 98.253906 316.476562 98.199219 316.375 98.09375 L 314.8125 96.527344 C 314.609375 96.320312 314.609375 95.988281 314.816406 95.78125 C 315.023438 95.578125 315.359375 95.578125 315.5625 95.785156 L 317.125 97.351562 C 317.328125 97.558594 317.328125 97.894531 317.121094 98.097656 C 317.019531 98.203125 316.882812 98.253906 316.746094 98.253906 " fill-opacity="1" fill-rule="nonzero"/><path fill="#000000" d="M 309.730469 98.253906 C 309.59375 98.253906 309.460938 98.203125 309.355469 98.101562 C 309.152344 97.894531 309.152344 97.5625 309.355469 97.351562 L 310.914062 95.785156 C 311.121094 95.578125 311.453125 95.578125 311.660156 95.78125 C 311.867188 95.988281 311.867188 96.324219 311.664062 96.53125 L 310.105469 98.097656 C 310 98.203125 309.863281 98.253906 309.730469 98.253906 " fill-opacity="1" fill-rule="nonzero"/><path fill="#000000" d="M 315.191406 92.761719 C 315.054688 92.761719 314.917969 92.710938 314.816406 92.609375 C 314.609375 92.402344 314.609375 92.070312 314.8125 91.863281 L 316.375 90.292969 C 316.578125 90.085938 316.914062 90.085938 317.121094 90.292969 C 317.328125 90.496094 317.328125 90.832031 317.125 91.039062 L 315.5625 92.605469 C 315.460938 92.710938 315.324219 92.761719 315.191406 92.761719 " fill-opacity="1" fill-rule="nonzero"/><path fill="#000000" d="M 309.644531 290.242188 C 309.511719 290.242188 309.375 290.191406 309.269531 290.085938 L 308.082031 288.898438 C 307.875 288.691406 307.875 288.359375 308.082031 288.152344 C 308.289062 287.945312 308.621094 287.945312 308.828125 288.152344 L 310.015625 289.339844 C 310.222656 289.546875 310.222656 289.878906 310.015625 290.085938 C 309.914062 290.191406 309.78125 290.242188 309.644531 290.242188 " fill-opacity="1" fill-rule="nonzero"/><path fill="#000000" d="M 315.34375 295.9375 C 315.207031 295.9375 315.070312 295.886719 314.96875 295.785156 L 313.777344 294.59375 C 313.570312 294.390625 313.570312 294.054688 313.777344 293.847656 C 313.984375 293.644531 314.316406 293.644531 314.523438 293.847656 L 315.714844 295.039062 C 315.921875 295.242188 315.921875 295.578125 315.714844 295.785156 C 315.609375 295.886719 315.476562 295.9375 315.34375 295.9375 " fill-opacity="1" fill-rule="nonzero"/><path fill="#000000" d="M 308.453125 295.9375 C 308.320312 295.9375 308.1875 295.886719 308.082031 295.785156 C 307.875 295.578125 307.875 295.242188 308.082031 295.039062 L 309.269531 293.847656 C 309.480469 293.644531 309.8125 293.644531 310.015625 293.847656 C 310.222656 294.054688 310.222656 294.390625 310.015625 294.59375 L 308.828125 295.785156 C 308.726562 295.886719 308.589844 295.9375 308.453125 295.9375 " fill-opacity="1" fill-rule="nonzero"/><path fill="#000000" d="M 314.148438 290.242188 C 314.015625 290.242188 313.882812 290.191406 313.777344 290.085938 C 313.570312 289.878906 313.570312 289.546875 313.777344 289.339844 L 314.96875 288.152344 C 315.175781 287.945312 315.507812 287.945312 315.714844 288.152344 C 315.921875 288.359375 315.921875 288.691406 315.714844 288.898438 L 314.523438 290.085938 C 314.421875 290.191406 314.285156 290.242188 314.148438 290.242188 " fill-opacity="1" fill-rule="nonzero"/><path fill="#000000" d="M 299.25 303.972656 C 297.859375 303.972656 296.730469 305.105469 296.730469 306.496094 C 296.730469 307.882812 297.859375 309.015625 299.25 309.015625 C 300.636719 309.015625 301.769531 307.882812 301.769531 306.496094 C 301.769531 305.105469 300.636719 303.972656 299.25 303.972656 Z M 299.25 310.070312 C 297.277344 310.070312 295.671875 308.46875 295.671875 306.496094 C 295.671875 304.523438 297.277344 302.917969 299.25 302.917969 C 301.222656 302.917969 302.824219 304.523438 302.824219 306.496094 C 302.824219 308.46875 301.222656 310.070312 299.25 310.070312 " fill-opacity="1" fill-rule="nonzero"/><path fill="#000000" d="M 282.894531 314.4375 C 282.027344 314.4375 281.324219 315.144531 281.324219 316.007812 C 281.324219 316.875 282.027344 317.578125 282.894531 317.578125 C 283.757812 317.578125 284.464844 316.875 284.464844 316.007812 C 284.464844 315.144531 283.757812 314.4375 282.894531 314.4375 Z M 282.894531 318.632812 C 281.449219 318.632812 280.265625 317.457031 280.265625 316.007812 C 280.265625 314.5625 281.449219 313.382812 282.894531 313.382812 C 284.339844 313.382812 285.519531 314.5625 285.519531 316.007812 C 285.519531 317.457031 284.339844 318.632812 282.894531 318.632812 " fill-opacity="1" fill-rule="nonzero"/><path fill="#000000" d="M 111.519531 315.167969 C 110.65625 315.167969 109.949219 315.871094 109.949219 316.738281 C 109.949219 317.601562 110.65625 318.304688 111.519531 318.304688 C 112.386719 318.304688 113.089844 317.601562 113.089844 316.738281 C 113.089844 315.871094 112.386719 315.167969 111.519531 315.167969 Z M 111.519531 319.363281 C 110.074219 319.363281 108.894531 318.183594 108.894531 316.738281 C 108.894531 315.289062 110.074219 314.113281 111.519531 314.113281 C 112.96875 314.113281 114.144531 315.289062 114.144531 316.738281 C 114.144531 318.183594 112.96875 319.363281 111.519531 319.363281 " fill-opacity="1" fill-rule="nonzero"/><path fill="#000000" d="M 132.914062 56.042969 C 131.800781 56.042969 130.890625 56.953125 130.890625 58.066406 C 130.890625 59.183594 131.800781 60.089844 132.914062 60.089844 C 134.03125 60.089844 134.9375 59.183594 134.9375 58.066406 C 134.9375 56.953125 134.03125 56.042969 132.914062 56.042969 Z M 132.914062 61.144531 C 131.21875 61.144531 129.835938 59.761719 129.835938 58.066406 C 129.835938 56.371094 131.21875 54.988281 132.914062 54.988281 C 134.613281 54.988281 135.992188 56.371094 135.992188 58.066406 C 135.992188 59.761719 134.613281 61.144531 132.914062 61.144531 " fill-opacity="1" fill-rule="nonzero"/><path fill="#000000" d="M 54.429688 243.839844 C 54.222656 243.839844 54.023438 243.71875 53.941406 243.511719 C 38.976562 206.609375 48.03125 159.015625 77.015625 122.261719 C 95.449219 98.886719 121.15625 80.886719 151.363281 70.199219 C 186.246094 57.855469 226.652344 55.027344 271.453125 61.800781 C 271.742188 61.84375 271.941406 62.109375 271.894531 62.398438 C 271.851562 62.6875 271.582031 62.886719 271.292969 62.84375 C 157.726562 45.683594 101.347656 93.113281 77.847656 122.914062 C 49.09375 159.375 40.09375 206.558594 54.917969 243.117188 C 55.027344 243.382812 54.898438 243.691406 54.628906 243.804688 C 54.5625 243.828125 54.496094 243.839844 54.429688 243.839844 " fill-opacity="1" fill-rule="nonzero"/><path fill="#000000" d="M 156.429688 309.800781 C 156.417969 309.800781 156.410156 309.800781 156.402344 309.800781 C 144.273438 309.242188 131.761719 307.207031 119.214844 303.746094 C 102.273438 299.074219 86.832031 289.570312 74.558594 276.265625 C 74.363281 276.050781 74.375 275.71875 74.589844 275.519531 C 74.804688 275.320312 75.136719 275.335938 75.335938 275.550781 C 87.476562 288.710938 102.746094 298.109375 119.496094 302.726562 C 131.964844 306.167969 144.398438 308.191406 156.453125 308.746094 C 156.742188 308.757812 156.96875 309.007812 156.953125 309.296875 C 156.941406 309.582031 156.707031 309.800781 156.429688 309.800781 " fill-opacity="1" fill-rule="nonzero"/><path fill="#000000" d="M 293.542969 237.832031 C 293.410156 237.832031 293.273438 237.78125 293.171875 237.679688 C 292.964844 237.472656 292.964844 237.140625 293.171875 236.933594 C 306.585938 223.519531 313.972656 205.683594 313.972656 186.714844 C 313.972656 177.386719 312.191406 168.320312 308.679688 159.765625 C 308.570312 159.492188 308.699219 159.183594 308.96875 159.074219 C 309.238281 158.964844 309.546875 159.09375 309.65625 159.363281 C 313.21875 168.042969 315.027344 177.246094 315.027344 186.714844 C 315.027344 205.96875 307.53125 224.066406 293.917969 237.679688 C 293.8125 237.78125 293.679688 237.832031 293.542969 237.832031 " fill-opacity="1" fill-rule="nonzero"/><path fill="#000000" d="M 291.253906 134.457031 C 291.125 134.457031 291 134.410156 290.898438 134.320312 C 289.210938 132.773438 287.429688 131.296875 285.601562 129.921875 C 285.371094 129.746094 285.324219 129.414062 285.496094 129.183594 C 285.675781 128.949219 286.007812 128.902344 286.238281 129.078125 C 288.089844 130.472656 289.898438 131.972656 291.609375 133.542969 C 291.824219 133.738281 291.839844 134.070312 291.644531 134.285156 C 291.539062 134.398438 291.394531 134.457031 291.253906 134.457031 " fill-opacity="1" fill-rule="nonzero"/><path fill="#000000" d="M 199.261719 130.582031 C 199.105469 130.582031 198.945312 130.507812 198.84375 130.375 C 198.664062 130.144531 198.710938 129.8125 198.9375 129.636719 C 211.644531 119.824219 226.863281 114.640625 242.953125 114.640625 C 246.984375 114.640625 251.027344 114.976562 254.972656 115.636719 C 255.257812 115.6875 255.453125 115.957031 255.40625 116.246094 C 255.355469 116.535156 255.082031 116.726562 254.796875 116.679688 C 250.910156 116.027344 246.925781 115.695312 242.953125 115.695312 C 227.097656 115.695312 212.101562 120.804688 199.585938 130.472656 C 199.488281 130.546875 199.375 130.582031 199.261719 130.582031 " fill-opacity="1" fill-rule="nonzero"/></svg>