<svg xmlns="http://www.w3.org/2000/svg" xmlns:xlink="http://www.w3.org/1999/xlink" width="500" zoomAndPan="magnify" viewBox="0 0 375 374.999991" height="500" preserveAspectRatio="xMidYMid meet" version="1.0"><defs><clipPath id="f6fb07cc31"><path d="M 0 23.164062 L 375 23.164062 L 375 352 L 0 352 Z M 0 23.164062 " clip-rule="nonzero"/></clipPath><clipPath id="8aa3545b6d"><path d="M 280.683594 23.164062 L 94.316406 23.164062 L 0 187.5 L 94.316406 351.835938 L 280.683594 351.835938 L 375 187.5 L 280.683594 23.164062 M 275.554688 342.933594 L 99.445312 342.933594 L 10.261719 187.5 L 99.445312 32.066406 L 275.554688 32.066406 L 364.738281 187.5 L 275.554688 342.933594 " clip-rule="nonzero"/></clipPath><clipPath id="6daf85cf67"><path d="M 155 205 L 285.28125 205 L 285.28125 260 L 155 260 Z M 155 205 " clip-rule="nonzero"/></clipPath><clipPath id="cecd14d3a2"><path d="M 89.53125 238 L 115 238 L 115 260 L 89.53125 260 Z M 89.53125 238 " clip-rule="nonzero"/></clipPath><clipPath id="ab85d5eeb4"><path d="M 90 143 L 134 143 L 134 263.457031 L 90 263.457031 Z M 90 143 " clip-rule="nonzero"/></clipPath><clipPath id="fc1de4e39b"><path d="M 136 200 L 153 200 L 153 263.457031 L 136 263.457031 Z M 136 200 " clip-rule="nonzero"/></clipPath><clipPath id="59d2068f68"><path d="M 161 238 L 201 238 L 201 263.457031 L 161 263.457031 Z M 161 238 " clip-rule="nonzero"/></clipPath><clipPath id="8e13578cac"><path d="M 120 111.207031 L 160 111.207031 L 160 141 L 120 141 Z M 120 111.207031 " clip-rule="nonzero"/></clipPath></defs><rect x="-37.5" width="450" fill="#ffffff" y="-37.499999" height="449.999989" fill-opacity="1"/><rect x="-37.5" width="450" fill="#ffffff" y="-37.499999" height="449.999989" fill-opacity="1"/><g clip-path="url(#f6fb07cc31)"><g clip-path="url(#8aa3545b6d)"><path fill="#000000" d="M 0 23.164062 L 375 23.164062 L 375 352.136719 L 0 352.136719 Z M 0 23.164062 " fill-opacity="1" fill-rule="nonzero"/></g></g><g clip-path="url(#6daf85cf67)"><path fill="#0b0444" d="M 168.519531 205.359375 C 168.457031 205.441406 168.386719 205.523438 168.320312 205.605469 L 168.710938 205.605469 L 165.464844 211.253906 L 155.933594 211.253906 L 155.933594 211.597656 L 165.269531 211.597656 L 160.570312 219.78125 L 155.933594 219.78125 L 155.933594 220.292969 L 160.273438 220.292969 L 155.933594 227.855469 L 155.933594 230.605469 L 161.570312 220.292969 L 186.773438 220.292969 L 186.59375 233.195312 L 155.933594 233.195312 L 155.933594 234.050781 L 186.582031 234.050781 L 186.578125 234.476562 L 188.257812 234.476562 L 188.25 234.050781 L 220.785156 234.050781 L 233.558594 257.410156 L 201.121094 257.410156 L 201.023438 259.097656 L 285.082031 259.097656 L 224.105469 205.359375 Z M 186.777344 219.777344 L 161.851562 219.777344 L 166.328125 211.597656 L 186.890625 211.597656 Z M 186.894531 211.253906 L 166.511719 211.253906 L 169.601562 205.605469 L 186.972656 205.605469 Z M 187.863281 205.605469 L 205.234375 205.605469 L 208.320312 211.253906 L 187.941406 211.253906 Z M 187.945312 211.597656 L 208.507812 211.597656 L 212.984375 219.777344 L 188.058594 219.777344 Z M 188.238281 233.191406 L 188.0625 220.292969 L 213.265625 220.292969 L 220.320312 233.191406 Z M 235.875 257.40625 L 222.460938 234.050781 L 254.996094 234.050781 L 280.863281 257.40625 Z M 221.96875 233.191406 L 214.558594 220.292969 L 239.761719 220.292969 L 254.046875 233.191406 Z M 214.265625 219.777344 L 209.566406 211.597656 L 230.132812 211.597656 L 239.191406 219.777344 Z M 209.371094 211.253906 L 206.125 205.605469 L 223.496094 205.605469 L 229.75 211.253906 Z M 209.371094 211.253906 " fill-opacity="1" fill-rule="nonzero"/></g><path fill="#0b0444" d="M 155.761719 257.40625 C 155.667969 257.984375 155.539062 258.550781 155.363281 259.09375 L 165.207031 259.09375 L 165.113281 257.40625 Z M 155.761719 257.40625 " fill-opacity="1" fill-rule="nonzero"/><g clip-path="url(#cecd14d3a2)"><path fill="#0b0444" d="M 93.972656 257.40625 L 113.457031 239.8125 L 113.457031 238.203125 L 89.753906 259.09375 L 114.027344 259.09375 C 113.851562 258.550781 113.722656 257.984375 113.628906 257.40625 Z M 93.972656 257.40625 " fill-opacity="1" fill-rule="nonzero"/></g><g clip-path="url(#ab85d5eeb4)"><path fill="#0b0444" d="M 117.3125 255.496094 C 117.3125 259.878906 120.871094 263.429688 125.257812 263.429688 C 129.648438 263.429688 133.207031 259.878906 133.207031 255.496094 L 133.207031 202.53125 C 124.195312 202.417969 119.179688 201.265625 117.3125 200.730469 L 117.3125 202.046875 L 113.039062 201.289062 C 113.175781 200.777344 113.234375 200.234375 113.203125 199.679688 C 112.949219 195.410156 112.835938 191.523438 112.835938 187.984375 C 112.816406 172.4375 115.085938 163.707031 117.3125 159.152344 L 117.3125 194.960938 L 122.347656 162.613281 L 122.375 162.613281 L 122.375 143.683594 C 122.316406 143.679688 122.253906 143.679688 122.1875 143.679688 C 121.046875 143.675781 119.046875 143.902344 116.765625 145.054688 C 113.308594 146.765625 109.582031 150.507812 106.972656 157.144531 C 104.335938 163.808594 102.5625 173.441406 102.554688 187.984375 C 102.554688 191.515625 102.664062 195.347656 102.894531 199.488281 L 99 198.796875 L 98.507812 198.710938 C 98.355469 198.683594 98.199219 198.667969 98.058594 198.667969 C 96.828125 198.667969 95.75 199.546875 95.527344 200.792969 L 94.433594 206.9375 L 91.746094 206.460938 L 90.945312 210.976562 L 113.457031 214.96875 L 117.3125 215.652344 Z M 98.058594 201.238281 L 99.195312 201.441406 L 103.429688 202.191406 C 104.261719 203.933594 106.039062 205.117188 108.066406 205.117188 C 108.164062 205.117188 108.269531 205.113281 108.371094 205.105469 C 109.660156 205.03125 110.804688 204.484375 111.660156 203.652344 L 117.3125 204.652344 L 117.3125 210.996094 L 113.457031 210.3125 L 96.96875 207.386719 Z M 98.058594 201.238281 " fill-opacity="1" fill-rule="nonzero"/></g><path fill="#0b0444" d="M 125.589844 143.734375 L 143.800781 143.734375 L 143.800781 162.617188 L 125.589844 162.617188 Z M 125.589844 143.734375 " fill-opacity="1" fill-rule="nonzero"/><path fill="#0b0444" d="M 147.011719 162.617188 L 147.039062 162.617188 L 152.078125 194.976562 L 152.078125 159.179688 C 152.457031 159.960938 152.839844 160.855469 153.21875 161.898438 C 155.03125 166.914062 156.554688 175.140625 156.550781 187.984375 C 156.550781 191.523438 156.4375 195.410156 156.1875 199.679688 C 156.023438 202.511719 158.1875 204.941406 161.019531 205.105469 C 161.121094 205.113281 161.222656 205.117188 161.324219 205.117188 C 164.027344 205.117188 166.292969 203.007812 166.453125 200.28125 C 166.714844 195.828125 166.832031 191.742188 166.832031 187.984375 C 166.808594 168.613281 163.710938 157.890625 159.484375 151.441406 C 157.375 148.242188 154.902344 146.191406 152.621094 145.050781 C 150.339844 143.902344 148.339844 143.675781 147.199219 143.679688 C 147.132812 143.679688 147.074219 143.683594 147.011719 143.683594 Z M 147.011719 162.617188 " fill-opacity="1" fill-rule="nonzero"/><g clip-path="url(#fc1de4e39b)"><path fill="#0b0444" d="M 152.078125 255.496094 L 152.078125 200.730469 C 150.210938 201.265625 145.195312 202.417969 136.183594 202.535156 L 136.183594 255.496094 C 136.183594 259.878906 139.742188 263.429688 144.128906 263.429688 C 148.519531 263.429688 152.078125 259.878906 152.078125 255.496094 Z M 152.078125 255.496094 " fill-opacity="1" fill-rule="nonzero"/></g><path fill="#0b0444" d="M 128.132812 166.8125 C 128.132812 167.058594 128.085938 167.292969 127.992188 167.519531 C 127.898438 167.746094 127.765625 167.945312 127.59375 168.117188 C 127.417969 168.292969 127.21875 168.425781 126.992188 168.519531 C 126.765625 168.613281 126.53125 168.660156 126.285156 168.660156 C 126.042969 168.660156 125.804688 168.613281 125.578125 168.519531 C 125.351562 168.425781 125.152344 168.292969 124.980469 168.117188 C 124.808594 167.945312 124.671875 167.746094 124.578125 167.519531 C 124.484375 167.292969 124.4375 167.058594 124.4375 166.8125 C 124.4375 166.570312 124.484375 166.332031 124.578125 166.109375 C 124.671875 165.882812 124.808594 165.683594 124.980469 165.507812 C 125.152344 165.335938 125.351562 165.203125 125.578125 165.109375 C 125.804688 165.015625 126.042969 164.96875 126.285156 164.96875 C 126.53125 164.96875 126.765625 165.015625 126.992188 165.109375 C 127.21875 165.203125 127.417969 165.335938 127.59375 165.507812 C 127.765625 165.683594 127.898438 165.882812 127.992188 166.109375 C 128.085938 166.332031 128.132812 166.570312 128.132812 166.8125 Z M 128.132812 166.8125 " fill-opacity="1" fill-rule="nonzero"/><path fill="#0b0444" d="M 144.949219 166.8125 C 144.949219 167.058594 144.902344 167.292969 144.808594 167.519531 C 144.714844 167.746094 144.582031 167.945312 144.410156 168.117188 C 144.234375 168.292969 144.035156 168.425781 143.808594 168.519531 C 143.582031 168.613281 143.347656 168.660156 143.101562 168.660156 C 142.859375 168.660156 142.621094 168.613281 142.394531 168.519531 C 142.167969 168.425781 141.96875 168.292969 141.796875 168.117188 C 141.621094 167.945312 141.488281 167.746094 141.394531 167.519531 C 141.300781 167.292969 141.253906 167.058594 141.253906 166.8125 C 141.253906 166.570312 141.300781 166.332031 141.394531 166.109375 C 141.488281 165.882812 141.621094 165.683594 141.796875 165.507812 C 141.96875 165.335938 142.167969 165.203125 142.394531 165.109375 C 142.621094 165.015625 142.859375 164.96875 143.101562 164.96875 C 143.347656 164.96875 143.582031 165.015625 143.808594 165.109375 C 144.035156 165.203125 144.234375 165.335938 144.410156 165.507812 C 144.582031 165.683594 144.714844 165.882812 144.808594 166.109375 C 144.902344 166.332031 144.949219 166.570312 144.949219 166.8125 Z M 144.949219 166.8125 " fill-opacity="1" fill-rule="nonzero"/><g clip-path="url(#59d2068f68)"><path fill="#0b0444" d="M 161.519531 252.164062 C 161.519531 252.378906 161.570312 252.601562 161.671875 252.796875 C 162.085938 253.515625 162.851562 253.644531 163.648438 253.65625 C 164.027344 253.65625 164.441406 253.613281 164.894531 253.542969 C 165.269531 253.484375 165.667969 253.40625 166.09375 253.300781 C 166.8125 253.125 167.59375 252.886719 168.429688 252.597656 L 168.007812 251.386719 L 168.003906 251.386719 C 167.203125 251.667969 166.457031 251.890625 165.789062 252.054688 C 165.441406 252.140625 165.121094 252.203125 164.820312 252.253906 C 164.371094 252.332031 163.96875 252.371094 163.648438 252.371094 C 163.332031 252.375 163.09375 252.332031 162.957031 252.28125 C 162.816406 252.230469 162.816406 252.199219 162.8125 252.203125 C 162.8125 252.195312 162.804688 252.195312 162.804688 252.164062 C 162.742188 251.949219 163.367188 250.914062 164.628906 249.847656 C 164.644531 249.832031 164.664062 249.816406 164.683594 249.800781 C 165.632812 248.964844 166.90625 248.035156 168.394531 247.101562 L 168.621094 251.15625 C 170.15625 250.585938 171.855469 249.835938 173.613281 248.917969 C 177.257812 247.019531 180.238281 244.875 181.632812 243.34375 C 181.292969 242.980469 181.082031 242.5 181.082031 241.964844 C 181.082031 240.84375 181.992188 239.933594 183.117188 239.933594 C 184.242188 239.933594 185.152344 240.84375 185.152344 241.964844 C 185.152344 243.089844 184.242188 244 183.117188 244 C 183.003906 244 182.898438 243.984375 182.792969 243.964844 C 182.3125 244.527344 181.6875 245.125 180.917969 245.753906 C 179.234375 247.132812 176.902344 248.648438 174.210938 250.054688 C 172.265625 251.070312 170.382812 251.890625 168.699219 252.5 L 169.300781 263.148438 L 196.933594 263.148438 L 198.101562 242.496094 L 200.253906 242.496094 L 200.253906 238.328125 L 165.980469 238.328125 L 165.980469 242.496094 L 168.132812 242.496094 L 168.308594 245.640625 C 166.882812 246.507812 165.628906 247.375 164.59375 248.203125 C 164.304688 248.433594 164.027344 248.660156 163.773438 248.882812 C 162.457031 250.089844 161.582031 251.042969 161.519531 252.164062 Z M 161.519531 252.164062 " fill-opacity="1" fill-rule="nonzero"/></g><g clip-path="url(#8e13578cac)"><path fill="#0b0444" d="M 137.136719 139.882812 C 143.328125 138.828125 148.175781 133.847656 149.019531 127.59375 C 147.714844 127.527344 146.339844 127.386719 144.925781 127.167969 C 137.523438 126.019531 131.8125 123.121094 131.980469 120.640625 C 132.957031 122.859375 138.6875 124.566406 145.632812 124.566406 C 150.875 124.566406 155.433594 123.597656 157.773438 122.164062 C 158.84375 121.511719 159.453125 120.761719 159.453125 119.96875 C 159.453125 117.425781 153.265625 115.367188 145.632812 115.367188 C 145.371094 115.367188 145.117188 115.375 144.859375 115.378906 C 142.25 112.800781 138.660156 111.207031 134.695312 111.207031 C 126.707031 111.207031 120.234375 117.671875 120.234375 125.648438 C 120.234375 132.792969 125.429688 138.722656 132.25 139.882812 C 133.046875 140.015625 133.863281 140.089844 134.695312 140.089844 C 135.527344 140.089844 136.34375 140.015625 137.136719 139.882812 Z M 137.136719 139.882812 " fill-opacity="1" fill-rule="nonzero"/></g></svg>