<svg xmlns="http://www.w3.org/2000/svg" xmlns:xlink="http://www.w3.org/1999/xlink" width="500" zoomAndPan="magnify" viewBox="0 0 375 374.999991" height="500" preserveAspectRatio="xMidYMid meet" version="1.0"><defs><clipPath id="9964693fc1"><path d="M 157.636719 187.019531 L 293.550781 187.019531 L 293.550781 306.492188 L 157.636719 306.492188 Z M 157.636719 187.019531 " clip-rule="nonzero"/></clipPath><clipPath id="480f5abaa1"><path d="M 203.730469 60.007812 C 146.167969 49.375 80.371094 72.511719 77.121094 75.554688 C 73.949219 78.527344 62.589844 79.796875 60.707031 106.878906 C 59.109375 129.800781 58.710938 149.734375 59.507812 191.988281 C 60.425781 240.550781 91.214844 281.144531 134.222656 298.410156 C 201.308594 325.34375 292.941406 281.398438 305.964844 203.304688 C 317.160156 136.148438 265.609375 71.4375 203.730469 60.007812 Z M 203.730469 60.007812 " clip-rule="nonzero"/></clipPath><clipPath id="750b6a2128"><path d="M 157.230469 186.476562 L 293.957031 186.476562 L 293.957031 306.492188 L 157.230469 306.492188 Z M 157.230469 186.476562 " clip-rule="nonzero"/></clipPath><clipPath id="b599234264"><path d="M 203.730469 60.007812 C 146.167969 49.375 80.371094 72.511719 77.121094 75.554688 C 73.949219 78.527344 62.589844 79.796875 60.707031 106.878906 C 59.109375 129.800781 58.710938 149.734375 59.507812 191.988281 C 60.425781 240.550781 91.214844 281.144531 134.222656 298.410156 C 201.308594 325.34375 292.941406 281.398438 305.964844 203.304688 C 317.160156 136.148438 265.609375 71.4375 203.730469 60.007812 Z M 203.730469 60.007812 " clip-rule="nonzero"/></clipPath><clipPath id="114041896c"><path d="M 77.0625 153 L 304.671875 153 L 304.671875 191.085938 L 77.0625 191.085938 Z M 77.0625 153 " clip-rule="nonzero"/></clipPath><clipPath id="1b1a3abcec"><path d="M 203.730469 60.007812 C 146.167969 49.375 80.371094 72.511719 77.121094 75.554688 C 73.949219 78.527344 62.589844 79.796875 60.707031 106.878906 C 59.109375 129.800781 58.710938 149.734375 59.507812 191.988281 C 60.425781 240.550781 91.214844 281.144531 134.222656 298.410156 C 201.308594 325.34375 292.941406 281.398438 305.964844 203.304688 C 317.160156 136.148438 265.609375 71.4375 203.730469 60.007812 Z M 203.730469 60.007812 " clip-rule="nonzero"/></clipPath><clipPath id="00808e6534"><path d="M 217.453125 203.292969 L 275.101562 203.292969 L 275.101562 251.976562 L 217.453125 251.976562 Z M 217.453125 203.292969 " clip-rule="nonzero"/></clipPath><clipPath id="d553fcd667"><path d="M 203.730469 60.007812 C 146.167969 49.375 80.371094 72.511719 77.121094 75.554688 C 73.949219 78.527344 62.589844 79.796875 60.707031 106.878906 C 59.109375 129.800781 58.710938 149.734375 59.507812 191.988281 C 60.425781 240.550781 91.214844 281.144531 134.222656 298.410156 C 201.308594 325.34375 292.941406 281.398438 305.964844 203.304688 C 317.160156 136.148438 265.609375 71.4375 203.730469 60.007812 Z M 203.730469 60.007812 " clip-rule="nonzero"/></clipPath><clipPath id="66cddbcef4"><path d="M 245.804688 207.632812 L 246.753906 207.632812 L 246.753906 246.550781 L 245.804688 246.550781 Z M 245.804688 207.632812 " clip-rule="nonzero"/></clipPath><clipPath id="9e26e6770c"><path d="M 203.730469 60.007812 C 146.167969 49.375 80.371094 72.511719 77.121094 75.554688 C 73.949219 78.527344 62.589844 79.796875 60.707031 106.878906 C 59.109375 129.800781 58.710938 149.734375 59.507812 191.988281 C 60.425781 240.550781 91.214844 281.144531 134.222656 298.410156 C 201.308594 325.34375 292.941406 281.398438 305.964844 203.304688 C 317.160156 136.148438 265.609375 71.4375 203.730469 60.007812 Z M 203.730469 60.007812 " clip-rule="nonzero"/></clipPath><clipPath id="06590371b8"><path d="M 220.03125 223.089844 L 243.90625 223.089844 L 243.90625 246.957031 L 220.03125 246.957031 Z M 220.03125 223.089844 " clip-rule="nonzero"/></clipPath><clipPath id="92208dd568"><path d="M 203.730469 60.007812 C 146.167969 49.375 80.371094 72.511719 77.121094 75.554688 C 73.949219 78.527344 62.589844 79.796875 60.707031 106.878906 C 59.109375 129.800781 58.710938 149.734375 59.507812 191.988281 C 60.425781 240.550781 91.214844 281.144531 134.222656 298.410156 C 201.308594 325.34375 292.941406 281.398438 305.964844 203.304688 C 317.160156 136.148438 265.609375 71.4375 203.730469 60.007812 Z M 203.730469 60.007812 " clip-rule="nonzero"/></clipPath><clipPath id="47fca12b8b"><path d="M 223.695312 208.308594 L 240.378906 208.308594 L 240.378906 224.988281 L 223.695312 224.988281 Z M 223.695312 208.308594 " clip-rule="nonzero"/></clipPath><clipPath id="b7003ef5a8"><path d="M 203.730469 60.007812 C 146.167969 49.375 80.371094 72.511719 77.121094 75.554688 C 73.949219 78.527344 62.589844 79.796875 60.707031 106.878906 C 59.109375 129.800781 58.710938 149.734375 59.507812 191.988281 C 60.425781 240.550781 91.214844 281.144531 134.222656 298.410156 C 201.308594 325.34375 292.941406 281.398438 305.964844 203.304688 C 317.160156 136.148438 265.609375 71.4375 203.730469 60.007812 Z M 203.730469 60.007812 " clip-rule="nonzero"/></clipPath><clipPath id="c775749e0e"><path d="M 251.09375 222.953125 L 267.234375 222.953125 L 267.234375 238.957031 L 251.09375 238.957031 Z M 251.09375 222.953125 " clip-rule="nonzero"/></clipPath><clipPath id="1b4301893e"><path d="M 203.730469 60.007812 C 146.167969 49.375 80.371094 72.511719 77.121094 75.554688 C 73.949219 78.527344 62.589844 79.796875 60.707031 106.878906 C 59.109375 129.800781 58.710938 149.734375 59.507812 191.988281 C 60.425781 240.550781 91.214844 281.144531 134.222656 298.410156 C 201.308594 325.34375 292.941406 281.398438 305.964844 203.304688 C 317.160156 136.148438 265.609375 71.4375 203.730469 60.007812 Z M 203.730469 60.007812 " clip-rule="nonzero"/></clipPath><clipPath id="199261795d"><path d="M 217.453125 262.554688 L 275.101562 262.554688 L 275.101562 306.492188 L 217.453125 306.492188 Z M 217.453125 262.554688 " clip-rule="nonzero"/></clipPath><clipPath id="f74b082186"><path d="M 203.730469 60.007812 C 146.167969 49.375 80.371094 72.511719 77.121094 75.554688 C 73.949219 78.527344 62.589844 79.796875 60.707031 106.878906 C 59.109375 129.800781 58.710938 149.734375 59.507812 191.988281 C 60.425781 240.550781 91.214844 281.144531 134.222656 298.410156 C 201.308594 325.34375 292.941406 281.398438 305.964844 203.304688 C 317.160156 136.148438 265.609375 71.4375 203.730469 60.007812 Z M 203.730469 60.007812 " clip-rule="nonzero"/></clipPath><clipPath id="e656479ae4"><path d="M 245.804688 279.234375 L 246.753906 279.234375 L 246.753906 306.492188 L 245.804688 306.492188 Z M 245.804688 279.234375 " clip-rule="nonzero"/></clipPath><clipPath id="9218cbd73d"><path d="M 203.730469 60.007812 C 146.167969 49.375 80.371094 72.511719 77.121094 75.554688 C 73.949219 78.527344 62.589844 79.796875 60.707031 106.878906 C 59.109375 129.800781 58.710938 149.734375 59.507812 191.988281 C 60.425781 240.550781 91.214844 281.144531 134.222656 298.410156 C 201.308594 325.34375 292.941406 281.398438 305.964844 203.304688 C 317.160156 136.148438 265.609375 71.4375 203.730469 60.007812 Z M 203.730469 60.007812 " clip-rule="nonzero"/></clipPath><clipPath id="9ec5350d67"><path d="M 220.03125 294.558594 L 243.90625 294.558594 L 243.90625 306.492188 L 220.03125 306.492188 Z M 220.03125 294.558594 " clip-rule="nonzero"/></clipPath><clipPath id="45ecbe2bd4"><path d="M 203.730469 60.007812 C 146.167969 49.375 80.371094 72.511719 77.121094 75.554688 C 73.949219 78.527344 62.589844 79.796875 60.707031 106.878906 C 59.109375 129.800781 58.710938 149.734375 59.507812 191.988281 C 60.425781 240.550781 91.214844 281.144531 134.222656 298.410156 C 201.308594 325.34375 292.941406 281.398438 305.964844 203.304688 C 317.160156 136.148438 265.609375 71.4375 203.730469 60.007812 Z M 203.730469 60.007812 " clip-rule="nonzero"/></clipPath><clipPath id="ae03440072"><path d="M 223.695312 279.910156 L 240.378906 279.910156 L 240.378906 296.457031 L 223.695312 296.457031 Z M 223.695312 279.910156 " clip-rule="nonzero"/></clipPath><clipPath id="2b5c7f75c3"><path d="M 203.730469 60.007812 C 146.167969 49.375 80.371094 72.511719 77.121094 75.554688 C 73.949219 78.527344 62.589844 79.796875 60.707031 106.878906 C 59.109375 129.800781 58.710938 149.734375 59.507812 191.988281 C 60.425781 240.550781 91.214844 281.144531 134.222656 298.410156 C 201.308594 325.34375 292.941406 281.398438 305.964844 203.304688 C 317.160156 136.148438 265.609375 71.4375 203.730469 60.007812 Z M 203.730469 60.007812 " clip-rule="nonzero"/></clipPath><clipPath id="d64165ba06"><path d="M 251.09375 294.421875 L 267.234375 294.421875 L 267.234375 306.492188 L 251.09375 306.492188 Z M 251.09375 294.421875 " clip-rule="nonzero"/></clipPath><clipPath id="2fe1ddb654"><path d="M 203.730469 60.007812 C 146.167969 49.375 80.371094 72.511719 77.121094 75.554688 C 73.949219 78.527344 62.589844 79.796875 60.707031 106.878906 C 59.109375 129.800781 58.710938 149.734375 59.507812 191.988281 C 60.425781 240.550781 91.214844 281.144531 134.222656 298.410156 C 201.308594 325.34375 292.941406 281.398438 305.964844 203.304688 C 317.160156 136.148438 265.609375 71.4375 203.730469 60.007812 Z M 203.730469 60.007812 " clip-rule="nonzero"/></clipPath><clipPath id="f498329076"><path d="M 249.058594 152.574219 L 263.4375 152.574219 L 263.4375 153.523438 L 249.058594 153.523438 Z M 249.058594 152.574219 " clip-rule="nonzero"/></clipPath><clipPath id="c35c8903bf"><path d="M 203.730469 60.007812 C 146.167969 49.375 80.371094 72.511719 77.121094 75.554688 C 73.949219 78.527344 62.589844 79.796875 60.707031 106.878906 C 59.109375 129.800781 58.710938 149.734375 59.507812 191.988281 C 60.425781 240.550781 91.214844 281.144531 134.222656 298.410156 C 201.308594 325.34375 292.941406 281.398438 305.964844 203.304688 C 317.160156 136.148438 265.609375 71.4375 203.730469 60.007812 Z M 203.730469 60.007812 " clip-rule="nonzero"/></clipPath><clipPath id="5601e8b088"><path d="M 270.761719 152.574219 L 305.214844 152.574219 L 305.214844 191.492188 L 270.761719 191.492188 Z M 270.761719 152.574219 " clip-rule="nonzero"/></clipPath><clipPath id="d67ec49b24"><path d="M 203.730469 60.007812 C 146.167969 49.375 80.371094 72.511719 77.121094 75.554688 C 73.949219 78.527344 62.589844 79.796875 60.707031 106.878906 C 59.109375 129.800781 58.710938 149.734375 59.507812 191.988281 C 60.425781 240.550781 91.214844 281.144531 134.222656 298.410156 C 201.308594 325.34375 292.941406 281.398438 305.964844 203.304688 C 317.160156 136.148438 265.609375 71.4375 203.730469 60.007812 Z M 203.730469 60.007812 " clip-rule="nonzero"/></clipPath><clipPath id="3fecb1d7ac"><path d="M 186 152.574219 L 227.898438 152.574219 L 227.898438 153.523438 L 186 153.523438 Z M 186 152.574219 " clip-rule="nonzero"/></clipPath><clipPath id="b368e41b4e"><path d="M 203.730469 60.007812 C 146.167969 49.375 80.371094 72.511719 77.121094 75.554688 C 73.949219 78.527344 62.589844 79.796875 60.707031 106.878906 C 59.109375 129.800781 58.710938 149.734375 59.507812 191.988281 C 60.425781 240.550781 91.214844 281.144531 134.222656 298.410156 C 201.308594 325.34375 292.941406 281.398438 305.964844 203.304688 C 317.160156 136.148438 265.609375 71.4375 203.730469 60.007812 Z M 203.730469 60.007812 " clip-rule="nonzero"/></clipPath><clipPath id="791285bb4f"><path d="M 59.023438 140.503906 L 183.136719 140.503906 L 183.136719 306.492188 L 59.023438 306.492188 Z M 59.023438 140.503906 " clip-rule="nonzero"/></clipPath><clipPath id="909deaf9ba"><path d="M 203.730469 60.007812 C 146.167969 49.375 80.371094 72.511719 77.121094 75.554688 C 73.949219 78.527344 62.589844 79.796875 60.707031 106.878906 C 59.109375 129.800781 58.710938 149.734375 59.507812 191.988281 C 60.425781 240.550781 91.214844 281.144531 134.222656 298.410156 C 201.308594 325.34375 292.941406 281.398438 305.964844 203.304688 C 317.160156 136.148438 265.609375 71.4375 203.730469 60.007812 Z M 203.730469 60.007812 " clip-rule="nonzero"/></clipPath><clipPath id="34e832cf87"><path d="M 59.023438 140 L 183.542969 140 L 183.542969 306.492188 L 59.023438 306.492188 Z M 59.023438 140 " clip-rule="nonzero"/></clipPath><clipPath id="bee9a65b11"><path d="M 203.730469 60.007812 C 146.167969 49.375 80.371094 72.511719 77.121094 75.554688 C 73.949219 78.527344 62.589844 79.796875 60.707031 106.878906 C 59.109375 129.800781 58.710938 149.734375 59.507812 191.988281 C 60.425781 240.550781 91.214844 281.144531 134.222656 298.410156 C 201.308594 325.34375 292.941406 281.398438 305.964844 203.304688 C 317.160156 136.148438 265.609375 71.4375 203.730469 60.007812 Z M 203.730469 60.007812 " clip-rule="nonzero"/></clipPath><clipPath id="5f01f37fae"><path d="M 59.023438 82.871094 L 182.59375 82.871094 L 182.59375 149.589844 L 59.023438 149.589844 Z M 59.023438 82.871094 " clip-rule="nonzero"/></clipPath><clipPath id="8bfad407b8"><path d="M 203.730469 60.007812 C 146.167969 49.375 80.371094 72.511719 77.121094 75.554688 C 73.949219 78.527344 62.589844 79.796875 60.707031 106.878906 C 59.109375 129.800781 58.710938 149.734375 59.507812 191.988281 C 60.425781 240.550781 91.214844 281.144531 134.222656 298.410156 C 201.308594 325.34375 292.941406 281.398438 305.964844 203.304688 C 317.160156 136.148438 265.609375 71.4375 203.730469 60.007812 Z M 203.730469 60.007812 " clip-rule="nonzero"/></clipPath><clipPath id="e74e506296"><path d="M 59.023438 72.292969 L 192 72.292969 L 192 147.691406 L 59.023438 147.691406 Z M 59.023438 72.292969 " clip-rule="nonzero"/></clipPath><clipPath id="0a6ffe4d91"><path d="M 203.730469 60.007812 C 146.167969 49.375 80.371094 72.511719 77.121094 75.554688 C 73.949219 78.527344 62.589844 79.796875 60.707031 106.878906 C 59.109375 129.800781 58.710938 149.734375 59.507812 191.988281 C 60.425781 240.550781 91.214844 281.144531 134.222656 298.410156 C 201.308594 325.34375 292.941406 281.398438 305.964844 203.304688 C 317.160156 136.148438 265.609375 71.4375 203.730469 60.007812 Z M 203.730469 60.007812 " clip-rule="nonzero"/></clipPath><clipPath id="75d072343b"><path d="M 59.023438 71.886719 L 192.496094 71.886719 L 192.496094 148.097656 L 59.023438 148.097656 Z M 59.023438 71.886719 " clip-rule="nonzero"/></clipPath><clipPath id="ca33599954"><path d="M 203.730469 60.007812 C 146.167969 49.375 80.371094 72.511719 77.121094 75.554688 C 73.949219 78.527344 62.589844 79.796875 60.707031 106.878906 C 59.109375 129.800781 58.710938 149.734375 59.507812 191.988281 C 60.425781 240.550781 91.214844 281.144531 134.222656 298.410156 C 201.308594 325.34375 292.941406 281.398438 305.964844 203.304688 C 317.160156 136.148438 265.609375 71.4375 203.730469 60.007812 Z M 203.730469 60.007812 " clip-rule="nonzero"/></clipPath><clipPath id="05a3e7e12e"><path d="M 71 121.925781 L 149.496094 121.925781 L 149.496094 163.964844 L 71 163.964844 Z M 71 121.925781 " clip-rule="nonzero"/></clipPath><clipPath id="fde030c2f0"><path d="M 203.730469 60.007812 C 146.167969 49.375 80.371094 72.511719 77.121094 75.554688 C 73.949219 78.527344 62.589844 79.796875 60.707031 106.878906 C 59.109375 129.800781 58.710938 149.734375 59.507812 191.988281 C 60.425781 240.550781 91.214844 281.144531 134.222656 298.410156 C 201.308594 325.34375 292.941406 281.398438 305.964844 203.304688 C 317.160156 136.148438 265.609375 71.4375 203.730469 60.007812 Z M 203.730469 60.007812 " clip-rule="nonzero"/></clipPath><clipPath id="b6f4cbf7dc"><path d="M 70.550781 121.519531 L 149.902344 121.519531 L 149.902344 164.371094 L 70.550781 164.371094 Z M 70.550781 121.519531 " clip-rule="nonzero"/></clipPath><clipPath id="fbcd7f9dc8"><path d="M 203.730469 60.007812 C 146.167969 49.375 80.371094 72.511719 77.121094 75.554688 C 73.949219 78.527344 62.589844 79.796875 60.707031 106.878906 C 59.109375 129.800781 58.710938 149.734375 59.507812 191.988281 C 60.425781 240.550781 91.214844 281.144531 134.222656 298.410156 C 201.308594 325.34375 292.941406 281.398438 305.964844 203.304688 C 317.160156 136.148438 265.609375 71.4375 203.730469 60.007812 Z M 203.730469 60.007812 " clip-rule="nonzero"/></clipPath><clipPath id="62571b8a1b"><path d="M 109.753906 128.707031 L 110.703125 128.707031 L 110.703125 159.355469 L 109.753906 159.355469 Z M 109.753906 128.707031 " clip-rule="nonzero"/></clipPath><clipPath id="c06363a9f3"><path d="M 203.730469 60.007812 C 146.167969 49.375 80.371094 72.511719 77.121094 75.554688 C 73.949219 78.527344 62.589844 79.796875 60.707031 106.878906 C 59.109375 129.800781 58.710938 149.734375 59.507812 191.988281 C 60.425781 240.550781 91.214844 281.144531 134.222656 298.410156 C 201.308594 325.34375 292.941406 281.398438 305.964844 203.304688 C 317.160156 136.148438 265.609375 71.4375 203.730469 60.007812 Z M 203.730469 60.007812 " clip-rule="nonzero"/></clipPath><clipPath id="01f85ed2d9"><path d="M 79.234375 131.960938 L 103.378906 131.960938 L 103.378906 156.097656 L 79.234375 156.097656 Z M 79.234375 131.960938 " clip-rule="nonzero"/></clipPath><clipPath id="c54db9501a"><path d="M 203.730469 60.007812 C 146.167969 49.375 80.371094 72.511719 77.121094 75.554688 C 73.949219 78.527344 62.589844 79.796875 60.707031 106.878906 C 59.109375 129.800781 58.710938 149.734375 59.507812 191.988281 C 60.425781 240.550781 91.214844 281.144531 134.222656 298.410156 C 201.308594 325.34375 292.941406 281.398438 305.964844 203.304688 C 317.160156 136.148438 265.609375 71.4375 203.730469 60.007812 Z M 203.730469 60.007812 " clip-rule="nonzero"/></clipPath><clipPath id="45486051d7"><path d="M 117.890625 135.757812 L 134.167969 135.757812 L 134.167969 152.03125 L 117.890625 152.03125 Z M 117.890625 135.757812 " clip-rule="nonzero"/></clipPath><clipPath id="eb28d683b5"><path d="M 203.730469 60.007812 C 146.167969 49.375 80.371094 72.511719 77.121094 75.554688 C 73.949219 78.527344 62.589844 79.796875 60.707031 106.878906 C 59.109375 129.800781 58.710938 149.734375 59.507812 191.988281 C 60.425781 240.550781 91.214844 281.144531 134.222656 298.410156 C 201.308594 325.34375 292.941406 281.398438 305.964844 203.304688 C 317.160156 136.148438 265.609375 71.4375 203.730469 60.007812 Z M 203.730469 60.007812 " clip-rule="nonzero"/></clipPath><clipPath id="b7a13b6b85"><path d="M 161.839844 244.652344 L 174.726562 244.652344 L 174.726562 306.492188 L 161.839844 306.492188 Z M 161.839844 244.652344 " clip-rule="nonzero"/></clipPath><clipPath id="b5482b7449"><path d="M 203.730469 60.007812 C 146.167969 49.375 80.371094 72.511719 77.121094 75.554688 C 73.949219 78.527344 62.589844 79.796875 60.707031 106.878906 C 59.109375 129.800781 58.710938 149.734375 59.507812 191.988281 C 60.425781 240.550781 91.214844 281.144531 134.222656 298.410156 C 201.308594 325.34375 292.941406 281.398438 305.964844 203.304688 C 317.160156 136.148438 265.609375 71.4375 203.730469 60.007812 Z M 203.730469 60.007812 " clip-rule="nonzero"/></clipPath><clipPath id="92f78a89b8"><path d="M 161.433594 244.109375 L 175.269531 244.109375 L 175.269531 306.492188 L 161.433594 306.492188 Z M 161.433594 244.109375 " clip-rule="nonzero"/></clipPath><clipPath id="956a06b7b6"><path d="M 203.730469 60.007812 C 146.167969 49.375 80.371094 72.511719 77.121094 75.554688 C 73.949219 78.527344 62.589844 79.796875 60.707031 106.878906 C 59.109375 129.800781 58.710938 149.734375 59.507812 191.988281 C 60.425781 240.550781 91.214844 281.144531 134.222656 298.410156 C 201.308594 325.34375 292.941406 281.398438 305.964844 203.304688 C 317.160156 136.148438 265.609375 71.4375 203.730469 60.007812 Z M 203.730469 60.007812 " clip-rule="nonzero"/></clipPath><clipPath id="4816987425"><path d="M 73.128906 253.195312 L 106.632812 253.195312 L 106.632812 306.492188 L 73.128906 306.492188 Z M 73.128906 253.195312 " clip-rule="nonzero"/></clipPath><clipPath id="17611205c6"><path d="M 203.730469 60.007812 C 146.167969 49.375 80.371094 72.511719 77.121094 75.554688 C 73.949219 78.527344 62.589844 79.796875 60.707031 106.878906 C 59.109375 129.800781 58.710938 149.734375 59.507812 191.988281 C 60.425781 240.550781 91.214844 281.144531 134.222656 298.410156 C 201.308594 325.34375 292.941406 281.398438 305.964844 203.304688 C 317.160156 136.148438 265.609375 71.4375 203.730469 60.007812 Z M 203.730469 60.007812 " clip-rule="nonzero"/></clipPath><clipPath id="b39884901d"><path d="M 113.957031 253.195312 L 147.328125 253.195312 L 147.328125 306.492188 L 113.957031 306.492188 Z M 113.957031 253.195312 " clip-rule="nonzero"/></clipPath><clipPath id="a459dccaa5"><path d="M 203.730469 60.007812 C 146.167969 49.375 80.371094 72.511719 77.121094 75.554688 C 73.949219 78.527344 62.589844 79.796875 60.707031 106.878906 C 59.109375 129.800781 58.710938 149.734375 59.507812 191.988281 C 60.425781 240.550781 91.214844 281.144531 134.222656 298.410156 C 201.308594 325.34375 292.941406 281.398438 305.964844 203.304688 C 317.160156 136.148438 265.609375 71.4375 203.730469 60.007812 Z M 203.730469 60.007812 " clip-rule="nonzero"/></clipPath><clipPath id="bc69bf190f"><path d="M 59.023438 214.003906 L 197.515625 214.003906 L 197.515625 244.789062 L 59.023438 244.789062 Z M 59.023438 214.003906 " clip-rule="nonzero"/></clipPath><clipPath id="ac86594473"><path d="M 203.730469 60.007812 C 146.167969 49.375 80.371094 72.511719 77.121094 75.554688 C 73.949219 78.527344 62.589844 79.796875 60.707031 106.878906 C 59.109375 129.800781 58.710938 149.734375 59.507812 191.988281 C 60.425781 240.550781 91.214844 281.144531 134.222656 298.410156 C 201.308594 325.34375 292.941406 281.398438 305.964844 203.304688 C 317.160156 136.148438 265.609375 71.4375 203.730469 60.007812 Z M 203.730469 60.007812 " clip-rule="nonzero"/></clipPath><clipPath id="63c2dae023"><path d="M 71 170.339844 L 149.496094 170.339844 L 149.496094 202.613281 L 71 202.613281 Z M 71 170.339844 " clip-rule="nonzero"/></clipPath><clipPath id="da65788eb4"><path d="M 203.730469 60.007812 C 146.167969 49.375 80.371094 72.511719 77.121094 75.554688 C 73.949219 78.527344 62.589844 79.796875 60.707031 106.878906 C 59.109375 129.800781 58.710938 149.734375 59.507812 191.988281 C 60.425781 240.550781 91.214844 281.144531 134.222656 298.410156 C 201.308594 325.34375 292.941406 281.398438 305.964844 203.304688 C 317.160156 136.148438 265.609375 71.4375 203.730469 60.007812 Z M 203.730469 60.007812 " clip-rule="nonzero"/></clipPath><clipPath id="79d9ba2938"><path d="M 70.550781 169.796875 L 149.902344 169.796875 L 149.902344 203.15625 L 70.550781 203.15625 Z M 70.550781 169.796875 " clip-rule="nonzero"/></clipPath><clipPath id="20eb3a6877"><path d="M 203.730469 60.007812 C 146.167969 49.375 80.371094 72.511719 77.121094 75.554688 C 73.949219 78.527344 62.589844 79.796875 60.707031 106.878906 C 59.109375 129.800781 58.710938 149.734375 59.507812 191.988281 C 60.425781 240.550781 91.214844 281.144531 134.222656 298.410156 C 201.308594 325.34375 292.941406 281.398438 305.964844 203.304688 C 317.160156 136.148438 265.609375 71.4375 203.730469 60.007812 Z M 203.730469 60.007812 " clip-rule="nonzero"/></clipPath><clipPath id="2aa67be0e7"><path d="M 86.015625 175.492188 L 105 175.492188 L 105 194.613281 L 86.015625 194.613281 Z M 86.015625 175.492188 " clip-rule="nonzero"/></clipPath><clipPath id="8f5e93b134"><path d="M 203.730469 60.007812 C 146.167969 49.375 80.371094 72.511719 77.121094 75.554688 C 73.949219 78.527344 62.589844 79.796875 60.707031 106.878906 C 59.109375 129.800781 58.710938 149.734375 59.507812 191.988281 C 60.425781 240.550781 91.214844 281.144531 134.222656 298.410156 C 201.308594 325.34375 292.941406 281.398438 305.964844 203.304688 C 317.160156 136.148438 265.609375 71.4375 203.730469 60.007812 Z M 203.730469 60.007812 " clip-rule="nonzero"/></clipPath><clipPath id="009a3924a0"><path d="M 118.164062 188.917969 L 126.574219 188.917969 L 126.574219 197.324219 L 118.164062 197.324219 Z M 118.164062 188.917969 " clip-rule="nonzero"/></clipPath><clipPath id="97a4d42c62"><path d="M 203.730469 60.007812 C 146.167969 49.375 80.371094 72.511719 77.121094 75.554688 C 73.949219 78.527344 62.589844 79.796875 60.707031 106.878906 C 59.109375 129.800781 58.710938 149.734375 59.507812 191.988281 C 60.425781 240.550781 91.214844 281.144531 134.222656 298.410156 C 201.308594 325.34375 292.941406 281.398438 305.964844 203.304688 C 317.160156 136.148438 265.609375 71.4375 203.730469 60.007812 Z M 203.730469 60.007812 " clip-rule="nonzero"/></clipPath></defs><rect x="-37.5" width="450" fill="#ffffff" y="-37.499999" height="449.999989" fill-opacity="1"/><rect x="-37.5" width="450" fill="#ffffff" y="-37.499999" height="449.999989" fill-opacity="1"/><path fill="#caddff" d="M 203.730469 60.007812 C 146.167969 49.371094 102.324219 89.132812 99.074219 92.175781 C 93.921875 97.003906 57.65625 132.132812 59.34375 187.222656 C 60.828125 235.769531 91.214844 281.144531 134.222656 298.410156 C 201.308594 325.34375 292.941406 281.398438 305.964844 203.304688 C 317.160156 136.148438 265.609375 71.441406 203.730469 60.007812 " fill-opacity="1" fill-rule="nonzero"/><path fill="#000000" d="M 280.355469 126.875 L 282.390625 127.578125 C 282.328125 127.070312 282.234375 126.339844 282.109375 125.5625 Z M 282.914062 128.683594 C 282.867188 128.683594 282.816406 128.675781 282.769531 128.65625 L 279.257812 127.449219 C 279.101562 127.394531 278.988281 127.253906 278.960938 127.09375 C 278.9375 126.925781 279.003906 126.761719 279.136719 126.664062 L 282.15625 124.402344 C 282.28125 124.3125 282.445312 124.289062 282.589844 124.347656 C 282.734375 124.402344 282.839844 124.53125 282.867188 124.683594 C 283.1875 126.410156 283.359375 128.171875 283.363281 128.191406 C 283.378906 128.34375 283.3125 128.492188 283.191406 128.585938 C 283.113281 128.648438 283.015625 128.683594 282.914062 128.683594 " fill-opacity="1" fill-rule="nonzero"/><path fill="#000000" d="M 250.515625 100.5625 C 250.398438 100.5625 250.285156 100.519531 250.199219 100.433594 C 246.980469 97.28125 243.492188 94.320312 239.84375 91.636719 C 216.308594 74.328125 186.449219 68.570312 155.757812 75.414062 C 155.515625 75.464844 155.277344 75.3125 155.222656 75.074219 C 155.167969 74.828125 155.320312 74.589844 155.5625 74.535156 C 170.605469 71.179688 185.515625 70.824219 199.875 73.472656 C 214.746094 76.21875 228.375 82.085938 240.378906 90.914062 C 244.058594 93.621094 247.574219 96.609375 250.828125 99.792969 C 251.007812 99.96875 251.011719 100.25 250.835938 100.429688 C 250.746094 100.515625 250.632812 100.5625 250.515625 100.5625 " fill-opacity="1" fill-rule="nonzero"/><path fill="#000000" d="M 279.199219 122.417969 C 279.035156 122.417969 278.875 122.324219 278.796875 122.167969 C 271.40625 107.378906 261.039062 95.011719 247.988281 85.410156 C 246.191406 84.09375 244.332031 82.816406 242.457031 81.621094 C 242.246094 81.488281 242.183594 81.210938 242.320312 81 C 242.453125 80.792969 242.730469 80.730469 242.941406 80.863281 C 244.832031 82.070312 246.707031 83.355469 248.519531 84.6875 C 261.6875 94.371094 272.148438 106.847656 279.601562 121.765625 C 279.710938 121.988281 279.621094 122.257812 279.398438 122.371094 C 279.335938 122.402344 279.265625 122.417969 279.199219 122.417969 " fill-opacity="1" fill-rule="nonzero"/><path fill="#000000" d="M 230.660156 75.121094 C 230.597656 75.121094 230.53125 75.105469 230.46875 75.078125 C 216.03125 68.425781 200.242188 65.21875 183.542969 65.554688 C 183.296875 65.554688 183.089844 65.363281 183.085938 65.113281 C 183.082031 64.867188 183.277344 64.660156 183.527344 64.65625 C 200.355469 64.316406 216.28125 67.550781 230.847656 74.261719 C 231.070312 74.367188 231.171875 74.632812 231.066406 74.859375 C 230.992188 75.023438 230.828125 75.121094 230.660156 75.121094 " fill-opacity="1" fill-rule="nonzero"/><g clip-path="url(#9964693fc1)"><g clip-path="url(#480f5abaa1)"><path fill="#caddff" d="M 157.761719 341.261719 L 293.445312 341.261719 L 293.445312 187.046875 L 157.761719 187.046875 L 157.761719 341.261719 " fill-opacity="1" fill-rule="nonzero"/></g></g><g clip-path="url(#750b6a2128)"><g clip-path="url(#b599234264)"><path fill="#0b0444" d="M 158.210938 340.8125 L 292.996094 340.8125 L 292.996094 187.496094 L 158.210938 187.496094 Z M 293.445312 341.714844 L 157.761719 341.714844 C 157.511719 341.714844 157.3125 341.511719 157.3125 341.265625 L 157.3125 187.046875 C 157.3125 186.800781 157.511719 186.597656 157.761719 186.597656 L 293.445312 186.597656 C 293.691406 186.597656 293.894531 186.800781 293.894531 187.046875 L 293.894531 341.265625 C 293.894531 341.511719 293.691406 341.714844 293.445312 341.714844 " fill-opacity="1" fill-rule="nonzero"/></g></g><g clip-path="url(#114041896c)"><g clip-path="url(#1b1a3abcec)"><path fill="#99b9ff" d="M 284.285156 153.058594 L 97.527344 153.058594 L 77.152344 191.015625 L 304.664062 191.015625 L 284.285156 153.058594 " fill-opacity="1" fill-rule="nonzero"/></g></g><g clip-path="url(#00808e6534)"><g clip-path="url(#d553fcd667)"><path fill="#99b9ff" d="M 275.003906 251.863281 L 217.566406 251.863281 L 217.566406 203.382812 L 275.003906 203.382812 L 275.003906 251.863281 " fill-opacity="1" fill-rule="nonzero"/></g></g><g clip-path="url(#66cddbcef4)"><g clip-path="url(#9e26e6770c)"><path fill="#ffffff" d="M 246.285156 246.464844 C 246.035156 246.464844 245.835938 246.265625 245.835938 246.019531 L 245.835938 208.195312 C 245.835938 207.945312 246.035156 207.746094 246.285156 207.746094 C 246.535156 207.746094 246.734375 207.945312 246.734375 208.195312 L 246.734375 246.019531 C 246.734375 246.265625 246.535156 246.464844 246.285156 246.464844 " fill-opacity="1" fill-rule="nonzero"/></g></g><g clip-path="url(#06590371b8)"><g clip-path="url(#92208dd568)"><path fill="#ffffff" d="M 220.609375 246.867188 C 220.496094 246.867188 220.378906 246.824219 220.292969 246.734375 C 220.117188 246.558594 220.117188 246.277344 220.292969 246.097656 L 243.101562 223.292969 C 243.277344 223.121094 243.5625 223.121094 243.738281 223.292969 C 243.914062 223.46875 243.914062 223.753906 243.738281 223.929688 L 220.929688 246.734375 C 220.839844 246.824219 220.726562 246.867188 220.609375 246.867188 " fill-opacity="1" fill-rule="nonzero"/></g></g><g clip-path="url(#47fca12b8b)"><g clip-path="url(#b7003ef5a8)"><path fill="#ffffff" d="M 224.21875 224.914062 C 224.105469 224.914062 223.992188 224.871094 223.90625 224.785156 C 223.730469 224.609375 223.730469 224.324219 223.90625 224.148438 L 239.492188 208.566406 C 239.667969 208.390625 239.953125 208.390625 240.125 208.566406 C 240.304688 208.742188 240.304688 209.027344 240.125 209.199219 L 224.539062 224.785156 C 224.453125 224.871094 224.335938 224.914062 224.21875 224.914062 " fill-opacity="1" fill-rule="nonzero"/></g></g><g clip-path="url(#c775749e0e)"><g clip-path="url(#1b4301893e)"><path fill="#ffffff" d="M 251.636719 238.910156 C 251.519531 238.910156 251.402344 238.867188 251.316406 238.777344 C 251.140625 238.601562 251.140625 238.316406 251.316406 238.140625 L 266.375 223.085938 C 266.550781 222.910156 266.835938 222.910156 267.011719 223.085938 C 267.1875 223.261719 267.1875 223.546875 267.011719 223.722656 L 251.953125 238.777344 C 251.863281 238.867188 251.75 238.910156 251.636719 238.910156 " fill-opacity="1" fill-rule="nonzero"/></g></g><g clip-path="url(#199261795d)"><g clip-path="url(#f74b082186)"><path fill="#99b9ff" d="M 275.003906 311.070312 L 217.566406 311.070312 L 217.566406 262.589844 L 275.003906 262.589844 L 275.003906 311.070312 " fill-opacity="1" fill-rule="nonzero"/></g></g><g clip-path="url(#e656479ae4)"><g clip-path="url(#9218cbd73d)"><path fill="#ffffff" d="M 246.285156 317.988281 C 246.035156 317.988281 245.835938 317.785156 245.835938 317.539062 L 245.835938 279.714844 C 245.835938 279.46875 246.035156 279.265625 246.285156 279.265625 C 246.535156 279.265625 246.734375 279.46875 246.734375 279.714844 L 246.734375 317.539062 C 246.734375 317.785156 246.535156 317.988281 246.285156 317.988281 " fill-opacity="1" fill-rule="nonzero"/></g></g><g clip-path="url(#9ec5350d67)"><g clip-path="url(#45ecbe2bd4)"><path fill="#ffffff" d="M 220.609375 318.386719 C 220.496094 318.386719 220.378906 318.34375 220.292969 318.253906 C 220.117188 318.078125 220.117188 317.796875 220.292969 317.621094 L 243.101562 294.8125 C 243.277344 294.640625 243.5625 294.640625 243.738281 294.8125 C 243.914062 294.992188 243.914062 295.277344 243.738281 295.449219 L 220.929688 318.253906 C 220.839844 318.34375 220.726562 318.386719 220.609375 318.386719 " fill-opacity="1" fill-rule="nonzero"/></g></g><g clip-path="url(#ae03440072)"><g clip-path="url(#2b5c7f75c3)"><path fill="#ffffff" d="M 224.21875 296.4375 C 224.105469 296.4375 223.992188 296.390625 223.90625 296.304688 C 223.730469 296.128906 223.730469 295.84375 223.90625 295.667969 L 239.492188 280.085938 C 239.667969 279.910156 239.953125 279.910156 240.125 280.085938 C 240.304688 280.261719 240.304688 280.546875 240.125 280.722656 L 224.539062 296.304688 C 224.453125 296.390625 224.335938 296.4375 224.21875 296.4375 " fill-opacity="1" fill-rule="nonzero"/></g></g><g clip-path="url(#d64165ba06)"><g clip-path="url(#2fe1ddb654)"><path fill="#ffffff" d="M 251.636719 310.429688 C 251.519531 310.429688 251.402344 310.386719 251.316406 310.296875 C 251.140625 310.121094 251.140625 309.839844 251.316406 309.660156 L 266.375 294.609375 C 266.550781 294.429688 266.835938 294.429688 267.011719 294.609375 C 267.1875 294.78125 267.1875 295.066406 267.011719 295.242188 L 251.953125 310.296875 C 251.863281 310.386719 251.75 310.429688 251.636719 310.429688 " fill-opacity="1" fill-rule="nonzero"/></g></g><g clip-path="url(#f498329076)"><g clip-path="url(#c35c8903bf)"><path fill="#000000" d="M 262.867188 153.507812 L 249.507812 153.507812 C 249.261719 153.507812 249.058594 153.308594 249.058594 153.058594 C 249.058594 152.8125 249.261719 152.613281 249.507812 152.613281 L 262.867188 152.613281 C 263.117188 152.613281 263.316406 152.8125 263.316406 153.058594 C 263.316406 153.308594 263.117188 153.507812 262.867188 153.507812 " fill-opacity="1" fill-rule="nonzero"/></g></g><g clip-path="url(#5601e8b088)"><g clip-path="url(#d67ec49b24)"><path fill="#000000" d="M 304.664062 191.464844 L 286.59375 191.441406 C 286.34375 191.441406 286.140625 191.238281 286.140625 190.992188 C 286.144531 190.742188 286.34375 190.542969 286.59375 190.542969 L 303.910156 190.566406 L 284.015625 153.507812 L 271.242188 153.507812 C 270.992188 153.507812 270.789062 153.308594 270.789062 153.058594 C 270.789062 152.8125 270.992188 152.613281 271.242188 152.613281 L 284.285156 152.613281 C 284.453125 152.613281 284.601562 152.703125 284.683594 152.847656 L 305.058594 190.804688 C 305.132812 190.941406 305.128906 191.113281 305.050781 191.246094 C 304.96875 191.382812 304.820312 191.464844 304.664062 191.464844 " fill-opacity="1" fill-rule="nonzero"/></g></g><g clip-path="url(#3fecb1d7ac)"><g clip-path="url(#b368e41b4e)"><path fill="#000000" d="M 227.378906 153.507812 L 186.507812 153.507812 C 186.261719 153.507812 186.058594 153.308594 186.058594 153.058594 C 186.058594 152.8125 186.261719 152.609375 186.507812 152.609375 L 227.378906 152.609375 C 227.628906 152.609375 227.828125 152.8125 227.828125 153.058594 C 227.828125 153.308594 227.628906 153.507812 227.378906 153.507812 " fill-opacity="1" fill-rule="nonzero"/></g></g><g clip-path="url(#791285bb4f)"><g clip-path="url(#909deaf9ba)"><path fill="#caddff" d="M 183.070312 341.261719 L 37.4375 341.261719 L 37.4375 140.539062 L 183.070312 140.539062 L 183.070312 341.261719 " fill-opacity="1" fill-rule="nonzero"/></g></g><g clip-path="url(#34e832cf87)"><g clip-path="url(#bee9a65b11)"><path fill="#000000" d="M 37.886719 340.8125 L 182.621094 340.8125 L 182.621094 140.988281 L 37.886719 140.988281 Z M 183.070312 341.714844 L 37.4375 341.714844 C 37.1875 341.714844 36.984375 341.511719 36.984375 341.265625 L 36.984375 140.539062 C 36.984375 140.292969 37.1875 140.089844 37.4375 140.089844 L 183.070312 140.089844 C 183.320312 140.089844 183.519531 140.292969 183.519531 140.539062 L 183.519531 341.265625 C 183.519531 341.511719 183.320312 341.714844 183.070312 341.714844 " fill-opacity="1" fill-rule="nonzero"/></g></g><g clip-path="url(#5f01f37fae)"><g clip-path="url(#8bfad407b8)"><path fill="#caddff" d="M 182.582031 149.472656 L 37.925781 149.472656 L 110.253906 82.910156 L 182.582031 149.472656 " fill-opacity="1" fill-rule="nonzero"/></g></g><g clip-path="url(#e74e506296)"><g clip-path="url(#0a6ffe4d91)"><path fill="#0b0444" d="M 110.253906 82.914062 L 180.53125 147.589844 L 191.957031 147.589844 L 110.253906 72.398438 L 28.546875 147.589844 L 39.976562 147.589844 L 110.253906 82.914062 " fill-opacity="1" fill-rule="nonzero"/></g></g><g clip-path="url(#75d072343b)"><g clip-path="url(#ca33599954)"><path fill="#000000" d="M 180.707031 147.136719 L 190.808594 147.136719 L 110.253906 73.007812 L 29.699219 147.136719 L 39.800781 147.136719 L 109.949219 82.582031 C 110.121094 82.421875 110.386719 82.421875 110.558594 82.582031 Z M 191.960938 148.035156 L 180.53125 148.035156 C 180.417969 148.035156 180.308594 147.992188 180.226562 147.917969 L 110.253906 83.523438 L 40.28125 147.917969 C 40.195312 147.992188 40.089844 148.035156 39.976562 148.035156 L 28.546875 148.035156 C 28.363281 148.035156 28.195312 147.921875 28.128906 147.75 C 28.0625 147.578125 28.105469 147.378906 28.242188 147.253906 L 109.949219 72.0625 C 110.121094 71.90625 110.386719 71.90625 110.558594 72.0625 L 192.265625 147.253906 C 192.402344 147.378906 192.445312 147.578125 192.378906 147.75 C 192.3125 147.921875 192.144531 148.035156 191.960938 148.035156 " fill-opacity="1" fill-rule="nonzero"/></g></g><g clip-path="url(#05a3e7e12e)"><g clip-path="url(#fde030c2f0)"><path fill="#99b9ff" d="M 114.582031 121.988281 L 105.921875 121.988281 C 86.664062 121.988281 71.054688 137.597656 71.054688 156.851562 L 71.054688 163.914062 L 149.453125 163.914062 L 149.453125 156.851562 C 149.453125 137.597656 133.84375 121.988281 114.582031 121.988281 " fill-opacity="1" fill-rule="nonzero"/></g></g><g clip-path="url(#b6f4cbf7dc)"><g clip-path="url(#fbcd7f9dc8)"><path fill="#0b0444" d="M 71.503906 163.464844 L 149.003906 163.464844 L 149.003906 156.851562 C 149.003906 137.878906 133.5625 122.441406 114.582031 122.441406 L 105.921875 122.441406 C 86.945312 122.441406 71.503906 137.878906 71.503906 156.851562 Z M 149.902344 164.367188 L 70.601562 164.367188 L 70.601562 156.851562 C 70.601562 137.382812 86.449219 121.542969 105.921875 121.542969 L 114.582031 121.542969 C 134.058594 121.542969 149.902344 137.382812 149.902344 156.851562 L 149.902344 164.367188 " fill-opacity="1" fill-rule="nonzero"/></g></g><g clip-path="url(#62571b8a1b)"><g clip-path="url(#c06363a9f3)"><path fill="#ffffff" d="M 110.253906 159.351562 C 110.003906 159.351562 109.804688 159.152344 109.804688 158.902344 L 109.804688 129.285156 C 109.804688 129.035156 110.003906 128.832031 110.253906 128.832031 C 110.5 128.832031 110.703125 129.035156 110.703125 129.285156 L 110.703125 158.902344 C 110.703125 159.152344 110.5 159.351562 110.253906 159.351562 " fill-opacity="1" fill-rule="nonzero"/></g></g><g clip-path="url(#01f85ed2d9)"><g clip-path="url(#c54db9501a)"><path fill="#ffffff" d="M 79.691406 156.035156 C 79.574219 156.035156 79.460938 155.992188 79.371094 155.902344 C 79.199219 155.726562 79.199219 155.441406 79.371094 155.269531 L 102.550781 132.097656 C 102.726562 131.921875 103.011719 131.921875 103.1875 132.097656 C 103.363281 132.273438 103.363281 132.554688 103.1875 132.734375 L 80.007812 155.902344 C 79.921875 155.992188 79.804688 156.035156 79.691406 156.035156 " fill-opacity="1" fill-rule="nonzero"/></g></g><g clip-path="url(#45486051d7)"><g clip-path="url(#eb28d683b5)"><path fill="#ffffff" d="M 118.386719 152.003906 C 118.273438 152.003906 118.15625 151.960938 118.070312 151.875 C 117.894531 151.699219 117.894531 151.414062 118.070312 151.238281 L 133.386719 135.925781 C 133.5625 135.75 133.847656 135.75 134.023438 135.925781 C 134.199219 136.101562 134.199219 136.386719 134.023438 136.5625 L 118.707031 151.875 C 118.617188 151.960938 118.503906 152.003906 118.386719 152.003906 " fill-opacity="1" fill-rule="nonzero"/></g></g><g clip-path="url(#b7a13b6b85)"><g clip-path="url(#b5482b7449)"><path fill="#ffffff" d="M 174.722656 323.949219 L 161.960938 323.949219 L 161.960938 244.679688 L 174.722656 244.679688 L 174.722656 323.949219 " fill-opacity="1" fill-rule="nonzero"/></g></g><g clip-path="url(#92f78a89b8)"><g clip-path="url(#956a06b7b6)"><path fill="#99b9ff" d="M 162.410156 323.496094 L 174.273438 323.496094 L 174.273438 245.128906 L 162.410156 245.128906 Z M 174.722656 324.394531 L 161.960938 324.394531 C 161.710938 324.394531 161.511719 324.195312 161.511719 323.949219 L 161.511719 244.679688 C 161.511719 244.433594 161.710938 244.230469 161.960938 244.230469 L 174.722656 244.230469 C 174.972656 244.230469 175.171875 244.433594 175.171875 244.679688 L 175.171875 323.949219 C 175.171875 324.195312 174.972656 324.394531 174.722656 324.394531 " fill-opacity="1" fill-rule="nonzero"/></g></g><g clip-path="url(#4816987425)"><g clip-path="url(#17611205c6)"><path fill="#99b9ff" d="M 106.515625 323.949219 L 73.238281 323.949219 L 73.238281 253.3125 L 106.515625 253.3125 L 106.515625 323.949219 " fill-opacity="1" fill-rule="nonzero"/></g></g><g clip-path="url(#b39884901d)"><g clip-path="url(#a459dccaa5)"><path fill="#99b9ff" d="M 147.265625 323.949219 L 113.992188 323.949219 L 113.992188 253.3125 L 147.265625 253.3125 L 147.265625 323.949219 " fill-opacity="1" fill-rule="nonzero"/></g></g><g clip-path="url(#bc69bf190f)"><g clip-path="url(#ac86594473)"><path fill="#0b0444" d="M 190.433594 214.121094 L 30.074219 214.121094 L 12.574219 244.679688 L 197.484375 244.589844 L 190.433594 214.121094 " fill-opacity="1" fill-rule="nonzero"/></g></g><g clip-path="url(#63c2dae023)"><g clip-path="url(#da65788eb4)"><path fill="#99b9ff" d="M 149.390625 202.597656 L 71.027344 202.597656 L 71.027344 170.359375 L 149.390625 170.359375 L 149.390625 202.597656 " fill-opacity="1" fill-rule="nonzero"/></g></g><g clip-path="url(#79d9ba2938)"><g clip-path="url(#20eb3a6877)"><path fill="#0b0444" d="M 71.476562 202.148438 L 148.941406 202.148438 L 148.941406 170.808594 L 71.476562 170.808594 Z M 149.839844 203.046875 L 70.578125 203.046875 L 70.578125 169.910156 L 149.839844 169.910156 L 149.839844 203.046875 " fill-opacity="1" fill-rule="nonzero"/></g></g><g clip-path="url(#2aa67be0e7)"><g clip-path="url(#8f5e93b134)"><path fill="#ffffff" d="M 86.542969 194.511719 C 86.429688 194.511719 86.3125 194.46875 86.226562 194.378906 C 86.050781 194.203125 86.050781 193.917969 86.226562 193.746094 L 104.226562 175.75 C 104.402344 175.574219 104.6875 175.574219 104.863281 175.75 C 105.035156 175.925781 105.035156 176.207031 104.863281 176.386719 L 86.863281 194.378906 C 86.773438 194.46875 86.660156 194.511719 86.542969 194.511719 " fill-opacity="1" fill-rule="nonzero"/></g></g><g clip-path="url(#009a3924a0)"><g clip-path="url(#97a4d42c62)"><path fill="#ffffff" d="M 118.652344 197.265625 C 118.539062 197.265625 118.421875 197.226562 118.335938 197.136719 C 118.160156 196.960938 118.160156 196.675781 118.335938 196.5 L 125.726562 189.109375 C 125.902344 188.933594 126.1875 188.933594 126.363281 189.109375 C 126.539062 189.285156 126.539062 189.570312 126.363281 189.746094 L 118.96875 197.136719 C 118.882812 197.226562 118.769531 197.265625 118.652344 197.265625 " fill-opacity="1" fill-rule="nonzero"/></g></g><path fill="#ffffff" d="M 285.28125 225.238281 L 285.28125 193.632812 L 278.015625 193.632812 L 278.015625 229.410156 C 278.015625 231.253906 279.523438 232.746094 281.382812 232.746094 L 287.226562 232.746094 C 288.941406 232.746094 290.332031 234.125 290.332031 235.824219 L 290.332031 305.34375 L 298.226562 305.34375 L 298.226562 229.667969 C 298.226562 227.738281 296.648438 226.175781 294.699219 226.175781 L 286.226562 226.175781 C 285.703125 226.175781 285.28125 225.753906 285.28125 225.238281 " fill-opacity="1" fill-rule="nonzero"/><path fill="#000000" d="M 298.226562 305.851562 C 297.976562 305.851562 297.777344 305.648438 297.777344 305.402344 L 297.777344 229.894531 C 297.777344 228.203125 296.398438 226.828125 294.699219 226.828125 L 286.226562 226.828125 C 285.457031 226.828125 284.828125 226.203125 284.828125 225.433594 L 284.828125 194.078125 L 278.464844 194.078125 L 278.464844 229.632812 C 278.464844 231.234375 279.777344 232.539062 281.382812 232.539062 L 287.226562 232.539062 C 289.1875 232.539062 290.78125 234.128906 290.78125 236.085938 L 290.78125 305.402344 C 290.78125 305.648438 290.578125 305.851562 290.332031 305.851562 C 290.085938 305.851562 289.882812 305.648438 289.882812 305.402344 L 289.882812 236.085938 C 289.882812 234.625 288.691406 233.4375 287.226562 233.4375 L 281.382812 233.4375 C 279.28125 233.4375 277.566406 231.730469 277.566406 229.632812 L 277.566406 193.632812 C 277.566406 193.382812 277.769531 193.179688 278.015625 193.179688 L 285.28125 193.179688 C 285.527344 193.179688 285.730469 193.382812 285.730469 193.632812 L 285.730469 225.433594 C 285.730469 225.707031 285.953125 225.929688 286.226562 225.929688 L 294.699219 225.929688 C 296.894531 225.929688 298.675781 227.707031 298.675781 229.894531 L 298.675781 305.402344 C 298.675781 305.648438 298.476562 305.851562 298.226562 305.851562 " fill-opacity="1" fill-rule="nonzero"/><path fill="#0b0444" d="M 283.554688 183.964844 C 283.320312 188.726562 285.453125 191.667969 288.644531 193.789062 C 289.769531 189.210938 288.019531 185.960938 283.554688 183.964844 " fill-opacity="1" fill-rule="nonzero"/><path fill="#0b0444" d="M 294.917969 174.996094 C 294.6875 179.753906 296.816406 182.699219 300.007812 184.820312 C 301.132812 180.242188 299.382812 176.992188 294.917969 174.996094 " fill-opacity="1" fill-rule="nonzero"/><path fill="#0b0444" d="M 296.003906 183.953125 C 295.769531 188.710938 297.902344 191.65625 301.09375 193.777344 C 302.21875 189.199219 300.464844 185.949219 296.003906 183.953125 " fill-opacity="1" fill-rule="nonzero"/><path fill="#0b0444" d="M 296.722656 191.519531 C 292.800781 194.230469 291.757812 197.710938 292.015625 201.535156 C 296.335938 199.640625 297.851562 196.273438 296.722656 191.519531 " fill-opacity="1" fill-rule="nonzero"/><path fill="#0b0444" d="M 280.851562 171.992188 C 280.617188 176.753906 282.746094 179.695312 285.941406 181.820312 C 287.066406 177.238281 285.3125 173.988281 280.851562 171.992188 " fill-opacity="1" fill-rule="nonzero"/><path fill="#0b0444" d="M 297.585938 210.488281 C 297.355469 215.246094 299.480469 218.191406 302.675781 220.3125 C 303.800781 215.734375 302.046875 212.484375 297.585938 210.488281 " fill-opacity="1" fill-rule="nonzero"/><path fill="#0b0444" d="M 304.382812 223.554688 C 302.542969 227.949219 303.539062 231.441406 305.816406 234.523438 C 308.4375 230.601562 307.894531 226.949219 304.382812 223.554688 " fill-opacity="1" fill-rule="nonzero"/><path fill="#0b0444" d="M 252.253906 183.910156 C 252.023438 188.671875 254.152344 191.617188 257.34375 193.738281 C 258.46875 189.15625 256.714844 185.90625 252.253906 183.910156 " fill-opacity="1" fill-rule="nonzero"/><path fill="#0b0444" d="M 254.675781 183.03125 C 254.445312 187.789062 256.570312 190.734375 259.765625 192.855469 C 260.890625 188.277344 259.140625 185.027344 254.675781 183.03125 " fill-opacity="1" fill-rule="nonzero"/><path fill="#0b0444" d="M 270.652344 185.519531 C 266.953125 182.511719 263.320312 182.484375 259.71875 183.796875 C 262.742188 187.417969 266.398438 187.929688 270.652344 185.519531 " fill-opacity="1" fill-rule="nonzero"/><path fill="#0b0444" d="M 276.84375 185.449219 C 278.730469 189.828125 281.9375 191.53125 285.742188 192.03125 C 284.734375 187.425781 281.730469 185.277344 276.84375 185.449219 " fill-opacity="1" fill-rule="nonzero"/><path fill="#0b0444" d="M 284.496094 184.742188 C 289.230469 185.28125 292.308594 183.351562 294.632812 180.300781 C 290.132812 178.882812 286.777344 180.421875 284.496094 184.742188 " fill-opacity="1" fill-rule="nonzero"/><path fill="#0b0444" d="M 280.34375 241.683594 C 282.230469 246.058594 285.4375 247.761719 289.238281 248.265625 C 288.230469 243.65625 285.226562 241.507812 280.34375 241.683594 " fill-opacity="1" fill-rule="nonzero"/><path fill="#0b0444" d="M 260.21875 185.835938 C 262.105469 190.210938 265.3125 191.917969 269.113281 192.417969 C 268.105469 187.808594 265.101562 185.664062 260.21875 185.835938 " fill-opacity="1" fill-rule="nonzero"/><path fill="#0b0444" d="M 306.492188 204.445312 C 303.328125 205.660156 302.023438 207.890625 301.558594 210.574219 C 304.863281 209.992188 306.472656 207.921875 306.492188 204.445312 " fill-opacity="1" fill-rule="nonzero"/><path fill="#0b0444" d="M 286.53125 201.242188 C 286.265625 204.621094 287.714844 206.753906 289.941406 208.332031 C 290.835938 205.097656 289.65625 202.753906 286.53125 201.242188 " fill-opacity="1" fill-rule="nonzero"/><path fill="#0b0444" d="M 272.671875 184.132812 C 270.484375 188.363281 271.203125 191.925781 273.226562 195.179688 C 276.148438 191.480469 275.902344 187.796875 272.671875 184.132812 " fill-opacity="1" fill-rule="nonzero"/><path fill="#0b0444" d="M 275.660156 178.550781 C 273.472656 182.785156 274.191406 186.347656 276.214844 189.601562 C 279.140625 185.898438 278.890625 182.214844 275.660156 178.550781 " fill-opacity="1" fill-rule="nonzero"/><path fill="#0b0444" d="M 292.375 184.582031 C 289.113281 186.402344 288.699219 188.988281 289.566406 191.921875 C 293.335938 190.753906 294.214844 188.28125 292.375 184.582031 " fill-opacity="1" fill-rule="nonzero"/><path fill="#0b0444" d="M 296.140625 203.46875 C 292.527344 204.398438 291.46875 206.796875 291.5625 209.855469 C 295.503906 209.679688 296.984375 207.511719 296.140625 203.46875 " fill-opacity="1" fill-rule="nonzero"/><path fill="#0b0444" d="M 288.476562 211.496094 C 286.816406 214.835938 287.933594 217.207031 290.308594 219.136719 C 292.757812 216.042969 292.089844 213.503906 288.476562 211.496094 " fill-opacity="1" fill-rule="nonzero"/><path fill="#0b0444" d="M 248.929688 184.375 C 245.671875 186.195312 245.257812 188.78125 246.125 191.714844 C 249.894531 190.542969 250.773438 188.070312 248.929688 184.375 " fill-opacity="1" fill-rule="nonzero"/><path fill="#0b0444" d="M 301.761719 199.121094 C 298.5 200.9375 298.085938 203.527344 298.953125 206.460938 C 302.722656 205.289062 303.601562 202.816406 301.761719 199.121094 " fill-opacity="1" fill-rule="nonzero"/><path fill="#0b0444" d="M 271.820312 181.074219 C 268.5625 182.894531 268.148438 185.480469 269.015625 188.414062 C 272.785156 187.242188 273.664062 184.773438 271.820312 181.074219 " fill-opacity="1" fill-rule="nonzero"/><path fill="#ffffff" d="M 288.402344 198.691406 L 183.371094 198.691406 L 183.371094 191.085938 L 290.898438 191.085938 L 290.898438 196.199219 C 290.898438 197.574219 289.777344 198.691406 288.402344 198.691406 " fill-opacity="1" fill-rule="nonzero"/><path fill="#000000" d="M 183.820312 198.242188 L 288.402344 198.242188 C 289.53125 198.242188 290.445312 197.324219 290.445312 196.195312 L 290.445312 191.535156 L 183.820312 191.535156 Z M 288.402344 199.140625 L 183.371094 199.140625 C 183.121094 199.140625 182.917969 198.941406 182.917969 198.691406 L 182.917969 191.085938 C 182.917969 190.835938 183.121094 190.636719 183.371094 190.636719 L 290.894531 190.636719 C 291.144531 190.636719 291.347656 190.835938 291.347656 191.085938 L 291.347656 196.195312 C 291.347656 197.820312 290.023438 199.140625 288.402344 199.140625 " fill-opacity="1" fill-rule="nonzero"/><path fill="#ffffff" d="M 269.683594 156.011719 C 267.671875 157.566406 268.128906 159.710938 270.015625 161.851562 L 271.941406 158.398438 L 269.683594 156.011719 " fill-opacity="1" fill-rule="nonzero"/><path fill="#000000" d="M 269.648438 156.628906 C 269.160156 157.09375 268.886719 157.617188 268.832031 158.1875 C 268.753906 159.027344 269.132812 160.007812 269.941406 161.058594 L 271.386719 158.46875 Z M 270.015625 162.304688 C 269.886719 162.304688 269.761719 162.25 269.675781 162.148438 C 268.402344 160.703125 267.820312 159.339844 267.9375 158.101562 C 268.027344 157.164062 268.523438 156.339844 269.40625 155.652344 C 269.589844 155.511719 269.847656 155.535156 270.007812 155.703125 L 272.265625 158.09375 C 272.402344 158.234375 272.429688 158.449219 272.332031 158.621094 L 270.40625 162.070312 C 270.335938 162.199219 270.207031 162.285156 270.0625 162.300781 C 270.046875 162.300781 270.03125 162.304688 270.015625 162.304688 " fill-opacity="1" fill-rule="nonzero"/><path fill="#0b0444" d="M 246.917969 306.101562 C 246.425781 306.101562 246.023438 305.703125 246.019531 305.210938 L 244.984375 201.859375 C 244.980469 201.363281 245.375 200.957031 245.875 200.953125 C 246.363281 200.941406 246.777344 201.347656 246.78125 201.84375 L 247.820312 305.195312 C 247.824219 305.691406 247.421875 306.097656 246.925781 306.101562 C 246.925781 306.101562 246.921875 306.101562 246.917969 306.101562 " fill-opacity="1" fill-rule="nonzero"/><path fill="#0b0444" d="M 203.257812 305.304688 C 203.226562 305.304688 203.195312 305.300781 203.160156 305.300781 C 202.667969 305.246094 202.308594 304.804688 202.359375 304.308594 L 213.328125 201.0625 C 213.378906 200.570312 213.824219 200.210938 214.316406 200.265625 C 214.8125 200.316406 215.167969 200.757812 215.117188 201.253906 L 204.152344 304.5 C 204.101562 304.960938 203.710938 305.304688 203.257812 305.304688 " fill-opacity="1" fill-rule="nonzero"/><path fill="#0b0444" d="M 246.71875 304.308594 C 246.71875 304.308594 246.714844 304.308594 246.710938 304.308594 L 203.648438 303.90625 C 203.148438 303.902344 202.75 303.496094 202.757812 303 C 202.761719 302.507812 203.164062 302.113281 203.65625 302.113281 C 203.660156 302.113281 203.660156 302.113281 203.664062 302.113281 L 246.726562 302.507812 C 247.226562 302.515625 247.625 302.917969 247.621094 303.417969 C 247.613281 303.910156 247.210938 304.308594 246.71875 304.308594 " fill-opacity="1" fill-rule="nonzero"/><path fill="#0b0444" d="M 246.519531 289.558594 C 246.515625 289.558594 246.515625 289.558594 246.507812 289.558594 L 205.039062 289.160156 C 204.542969 289.152344 204.144531 288.75 204.148438 288.25 C 204.15625 287.753906 204.554688 287.34375 205.058594 287.363281 L 246.527344 287.761719 C 247.023438 287.765625 247.421875 288.171875 247.417969 288.667969 C 247.414062 289.160156 247.011719 289.558594 246.519531 289.558594 " fill-opacity="1" fill-rule="nonzero"/><path fill="#0b0444" d="M 246.320312 274.410156 C 246.316406 274.410156 246.3125 274.410156 246.308594 274.410156 L 206.636719 274.011719 C 206.140625 274.007812 205.742188 273.601562 205.746094 273.101562 C 205.75 272.609375 206.152344 272.210938 206.644531 272.210938 C 206.648438 272.210938 206.652344 272.210938 206.652344 272.210938 L 246.328125 272.609375 C 246.824219 272.617188 247.222656 273.023438 247.21875 273.519531 C 247.214844 274.011719 246.8125 274.410156 246.320312 274.410156 " fill-opacity="1" fill-rule="nonzero"/><path fill="#0b0444" d="M 246.121094 258.863281 C 246.117188 258.863281 246.117188 258.863281 246.113281 258.863281 L 208.382812 258.5625 C 207.886719 258.558594 207.488281 258.152344 207.488281 257.65625 C 207.492188 257.164062 207.898438 256.765625 208.390625 256.765625 C 208.390625 256.765625 208.394531 256.765625 208.394531 256.765625 L 246.128906 257.066406 C 246.625 257.066406 247.023438 257.472656 247.019531 257.972656 C 247.015625 258.464844 246.613281 258.863281 246.121094 258.863281 " fill-opacity="1" fill-rule="nonzero"/><path fill="#0b0444" d="M 209.734375 244.808594 C 209.242188 244.808594 208.839844 244.414062 208.835938 243.917969 C 208.832031 243.421875 209.230469 243.015625 209.726562 243.011719 L 246.113281 242.714844 C 246.117188 242.714844 246.117188 242.714844 246.121094 242.714844 C 246.613281 242.714844 247.015625 243.109375 247.019531 243.605469 C 247.023438 244.101562 246.625 244.507812 246.128906 244.511719 L 209.742188 244.808594 C 209.738281 244.808594 209.738281 244.808594 209.734375 244.808594 " fill-opacity="1" fill-rule="nonzero"/><path fill="#0b0444" d="M 246.121094 219.597656 C 246.113281 219.597656 246.105469 219.597656 246.097656 219.597656 L 212.804688 218.796875 C 212.308594 218.785156 211.914062 218.375 211.925781 217.878906 C 211.9375 217.382812 212.339844 216.984375 212.847656 217 L 246.140625 217.796875 C 246.640625 217.808594 247.03125 218.222656 247.019531 218.71875 C 247.007812 219.207031 246.609375 219.597656 246.121094 219.597656 " fill-opacity="1" fill-rule="nonzero"/><path fill="#0b0444" d="M 213.824219 207.636719 C 213.328125 207.636719 212.925781 207.238281 212.925781 206.742188 C 212.921875 206.246094 213.320312 205.84375 213.816406 205.839844 L 245.914062 205.640625 C 245.917969 205.640625 245.917969 205.640625 245.921875 205.640625 C 246.414062 205.640625 246.816406 206.039062 246.820312 206.535156 C 246.824219 207.03125 246.421875 207.433594 245.925781 207.4375 L 213.828125 207.636719 C 213.824219 207.636719 213.824219 207.636719 213.824219 207.636719 " fill-opacity="1" fill-rule="nonzero"/><path fill="#0b0444" d="M 245.324219 231.058594 C 245.320312 231.058594 245.316406 231.058594 245.3125 231.058594 L 211.519531 230.609375 C 211.023438 230.601562 210.625 230.195312 210.632812 229.695312 C 210.636719 229.199219 211.035156 228.796875 211.542969 228.808594 L 245.335938 229.257812 C 245.832031 229.265625 246.230469 229.671875 246.222656 230.167969 C 246.214844 230.664062 245.816406 231.058594 245.324219 231.058594 " fill-opacity="1" fill-rule="nonzero"/><path fill="#000000" d="M 281.707031 185.613281 C 281.375 185.613281 281.058594 185.425781 280.902344 185.109375 L 260.167969 142.851562 C 259.945312 142.40625 260.132812 141.867188 260.578125 141.648438 C 261.023438 141.429688 261.5625 141.613281 261.78125 142.0625 L 282.515625 184.316406 C 282.734375 184.761719 282.550781 185.300781 282.105469 185.519531 C 281.976562 185.582031 281.839844 185.613281 281.707031 185.613281 " fill-opacity="1" fill-rule="nonzero"/><path fill="#000000" d="M 281.304688 184.523438 L 281.996094 190.277344 C 282.058594 190.792969 282.507812 191.179688 283.027344 191.160156 L 289.308594 190.953125 C 289.917969 190.933594 290.152344 190.15625 289.664062 189.800781 L 281.871094 184.191406 C 281.617188 184.011719 281.269531 184.214844 281.304688 184.523438 " fill-opacity="1" fill-rule="nonzero"/><path fill="#ffffff" d="M 241.449219 163.769531 C 241.449219 163.769531 240.058594 163.117188 240.390625 160.859375 C 240.390625 160.851562 240.386719 160.84375 240.378906 160.835938 L 241.273438 155.644531 L 235.765625 154.222656 L 234.707031 159.925781 C 234.4375 161.386719 233.457031 162.640625 232.074219 163.179688 C 231.714844 163.320312 231.316406 163.441406 230.875 163.539062 C 230.402344 163.644531 230.171875 164.085938 230.71875 164.503906 C 233.644531 166.722656 238.679688 165.859375 241.277344 165.0625 C 242.027344 164.828125 242.136719 164.140625 241.449219 163.769531 " fill-opacity="1" fill-rule="nonzero"/><path fill="#000000" d="M 230.863281 164.019531 C 230.882812 164.046875 230.917969 164.089844 230.992188 164.144531 C 234.214844 166.59375 240.011719 164.980469 241.144531 164.632812 C 241.363281 164.5625 241.453125 164.457031 241.460938 164.402344 C 241.460938 164.347656 241.398438 164.253906 241.242188 164.167969 C 241.054688 164.074219 239.625 163.265625 239.933594 160.886719 C 239.929688 160.847656 239.929688 160.800781 239.9375 160.761719 L 240.757812 155.976562 L 236.121094 154.777344 L 235.148438 160.007812 C 234.847656 161.644531 233.730469 163.015625 232.238281 163.597656 C 231.847656 163.75 231.425781 163.878906 230.972656 163.976562 C 230.921875 163.988281 230.882812 164.007812 230.863281 164.019531 Z M 235.8125 166.363281 C 233.9375 166.363281 231.960938 166.011719 230.449219 164.859375 C 229.902344 164.449219 229.933594 164 229.96875 163.828125 C 230.046875 163.472656 230.355469 163.195312 230.777344 163.101562 C 231.183594 163.011719 231.566406 162.894531 231.914062 162.761719 C 233.117188 162.292969 234.019531 161.175781 234.265625 159.84375 L 235.324219 154.140625 C 235.34375 154.019531 235.417969 153.910156 235.523438 153.84375 C 235.628906 153.777344 235.757812 153.757812 235.878906 153.785156 L 241.386719 155.210938 C 241.613281 155.269531 241.757812 155.492188 241.714844 155.722656 L 240.835938 160.828125 C 240.839844 160.859375 240.839844 160.890625 240.835938 160.925781 C 240.5625 162.796875 241.601562 163.34375 241.644531 163.367188 C 241.648438 163.367188 241.660156 163.371094 241.664062 163.375 C 242.136719 163.628906 242.398438 164.046875 242.351562 164.488281 C 242.308594 164.949219 241.953125 165.324219 241.40625 165.492188 C 240.714844 165.703125 238.363281 166.363281 235.8125 166.363281 " fill-opacity="1" fill-rule="nonzero"/><path fill="#000000" d="M 242.46875 145.128906 C 240.910156 145.171875 242.996094 146.605469 237.109375 145.417969 C 234.769531 144.945312 236.148438 147.515625 235.539062 147.398438 C 233.292969 146.949219 233.371094 146.960938 232.320312 147.335938 C 231.628906 147.582031 231.277344 148.929688 231.488281 149.894531 C 231.773438 151.167969 232.867188 151.414062 234.03125 154.058594 C 234.851562 155.917969 234.789062 157.09375 235.574219 157.308594 C 236.375 157.523438 236.859375 156.433594 237.75 156.605469 C 238.902344 156.824219 238.84375 158.796875 240.003906 159.511719 C 240.738281 159.960938 242.363281 160.0625 244.839844 158.589844 C 245.238281 158.347656 245.414062 157.855469 245.253906 157.414062 C 245.046875 156.855469 244.78125 156.144531 244.472656 155.488281 C 243 152.355469 241.789062 151.71875 242.136719 150.847656 C 242.671875 149.511719 245.15625 150.039062 245.472656 148.953125 C 245.796875 147.820312 244.605469 145.070312 242.46875 145.128906 " fill-opacity="1" fill-rule="nonzero"/><path fill="#ffffff" d="M 237.257812 150.207031 L 237.769531 151 C 238.011719 151.371094 238.226562 151.761719 238.414062 152.164062 C 238.769531 152.921875 239.386719 154.21875 239.785156 154.917969 C 240.375 155.945312 243.675781 154.347656 243.675781 154.347656 L 243.828125 153.667969 L 244.210938 153.472656 C 244.285156 153.433594 244.351562 153.382812 244.398438 153.3125 C 244.511719 153.136719 244.492188 152.921875 244.371094 152.769531 C 243.707031 151.945312 242.304688 150.082031 241.714844 148.351562 C 241.714844 148.351562 239.128906 147.914062 237.257812 150.207031 " fill-opacity="1" fill-rule="nonzero"/><path fill="#000000" d="M 237.820312 150.246094 L 238.148438 150.753906 C 238.398438 151.144531 238.628906 151.550781 238.824219 151.972656 C 239.160156 152.691406 239.78125 154 240.175781 154.691406 C 240.363281 155.019531 241.84375 154.699219 243.285156 154.035156 L 243.390625 153.570312 C 243.417969 153.441406 243.503906 153.328125 243.625 153.269531 L 244.007812 153.074219 C 243.296875 152.152344 242.03125 150.441406 241.390625 148.773438 C 240.773438 148.738281 239.152344 148.804688 237.820312 150.246094 Z M 240.632812 155.707031 C 240.09375 155.707031 239.632812 155.554688 239.398438 155.140625 C 238.984375 154.421875 238.351562 153.085938 238.007812 152.355469 C 237.828125 151.96875 237.621094 151.597656 237.390625 151.242188 L 236.878906 150.449219 C 236.773438 150.285156 236.785156 150.070312 236.910156 149.921875 C 238.925781 147.453125 241.675781 147.890625 241.792969 147.910156 C 241.953125 147.9375 242.089844 148.050781 242.144531 148.207031 C 242.71875 149.894531 244.136719 151.761719 244.722656 152.488281 C 244.96875 152.792969 244.992188 153.222656 244.773438 153.554688 C 244.691406 153.6875 244.566406 153.796875 244.414062 153.871094 L 244.222656 153.972656 L 244.117188 154.445312 C 244.085938 154.578125 243.996094 154.691406 243.875 154.75 C 243.285156 155.035156 241.777344 155.707031 240.632812 155.707031 " fill-opacity="1" fill-rule="nonzero"/><path fill="#ffffff" d="M 235.8125 151.933594 C 236.773438 151.199219 237.878906 152.714844 238.308594 153.398438 C 238.421875 153.578125 238.359375 153.8125 238.179688 153.917969 C 237.761719 154.15625 237.003906 154.472656 236.347656 154.136719 C 234.394531 153.136719 235.8125 151.933594 235.8125 151.933594 " fill-opacity="1" fill-rule="nonzero"/><path fill="#0b0444" d="M 244.535156 145.488281 C 244.386719 145.222656 244.222656 144.960938 244.039062 144.707031 C 241.621094 141.378906 236.957031 140.640625 233.628906 143.058594 C 230.300781 145.480469 229.5625 150.136719 231.980469 153.46875 C 232.167969 153.71875 232.363281 153.957031 232.574219 154.179688 L 244.535156 145.488281 " fill-opacity="1" fill-rule="nonzero"/><path fill="#0b0444" d="M 232.679688 155.738281 L 232.105469 153.566406 L 244.105469 145.027344 L 247.535156 144.945312 L 232.679688 155.738281 " fill-opacity="1" fill-rule="nonzero"/><path fill="#0b0444" d="M 234.585938 157.476562 C 234.492188 157.476562 234.40625 157.449219 234.324219 157.394531 C 234.121094 157.25 234.074219 156.972656 234.214844 156.765625 C 235.703125 154.652344 235.695312 152.746094 235.691406 152.601562 C 235.652344 152.394531 235.761719 152.183594 235.960938 152.101562 C 236.191406 152.003906 236.453125 152.113281 236.550781 152.34375 C 236.664062 152.632812 236.617188 154.917969 234.953125 157.285156 C 234.863281 157.410156 234.726562 157.476562 234.585938 157.476562 " fill-opacity="1" fill-rule="nonzero"/><path fill="#caddff" d="M 242.882812 146.34375 C 242.769531 146.34375 242.65625 146.300781 242.566406 146.210938 C 238.722656 142.386719 233.78125 145.421875 233.730469 145.457031 C 233.550781 145.566406 233.320312 145.539062 233.171875 145.390625 L 232.179688 144.386719 C 232.003906 144.210938 232.007812 143.925781 232.183594 143.75 C 232.359375 143.574219 232.644531 143.578125 232.820312 143.753906 L 233.570312 144.515625 C 234.816406 143.867188 239.457031 141.847656 243.203125 145.574219 C 243.378906 145.75 243.378906 146.035156 243.203125 146.210938 C 243.117188 146.300781 243 146.34375 242.882812 146.34375 " fill-opacity="1" fill-rule="nonzero"/><path fill="#ffffff" d="M 249.808594 177.933594 C 249.789062 179.007812 271.226562 180.917969 271.640625 179.855469 C 273.96875 175.804688 273.050781 168.171875 272.9375 162.988281 C 272.976562 162.019531 274.359375 160.332031 274.257812 159.523438 C 273.949219 157.097656 271.9375 155.707031 269.769531 155.933594 C 269.691406 156.59375 270.328125 158.601562 270.195312 159.382812 C 269.515625 163.449219 268.070312 170.632812 267.652344 172.554688 C 263.867188 170.363281 252.464844 166.132812 248.316406 164.28125 L 249.808594 177.933594 " fill-opacity="1" fill-rule="nonzero"/><path fill="#000000" d="M 250.238281 177.746094 C 252.011719 178.679688 269.636719 180.21875 271.285156 179.570312 C 273.085938 176.359375 272.820312 170.648438 272.605469 166.054688 C 272.554688 164.972656 272.507812 163.949219 272.484375 162.996094 C 272.507812 162.398438 272.871094 161.707031 273.222656 161.042969 C 273.5 160.515625 273.847656 159.855469 273.8125 159.582031 C 273.5625 157.65625 272.09375 156.359375 270.246094 156.359375 C 270.242188 156.359375 270.238281 156.359375 270.238281 156.359375 C 270.273438 156.648438 270.34375 157.023438 270.414062 157.371094 C 270.574219 158.1875 270.726562 158.953125 270.640625 159.457031 C 269.960938 163.503906 268.535156 170.605469 268.09375 172.648438 C 268.0625 172.789062 267.964844 172.90625 267.835938 172.964844 C 267.703125 173.023438 267.550781 173.015625 267.429688 172.945312 C 264.972656 171.523438 259.113281 169.167969 254.40625 167.277344 C 252.207031 166.394531 250.261719 165.613281 248.847656 165.003906 Z M 269.027344 180.621094 C 267.769531 180.621094 265.980469 180.554688 263.414062 180.371094 C 258.785156 180.046875 254.011719 179.5 251.539062 179.011719 C 249.902344 178.6875 249.378906 178.4375 249.363281 177.964844 L 247.867188 164.332031 C 247.851562 164.171875 247.917969 164.011719 248.046875 163.917969 C 248.179688 163.824219 248.347656 163.804688 248.5 163.871094 C 249.917969 164.507812 252.152344 165.402344 254.738281 166.441406 C 259.390625 168.3125 264.621094 170.414062 267.339844 171.867188 C 267.875 169.3125 269.140625 162.949219 269.753906 159.308594 C 269.8125 158.96875 269.65625 158.179688 269.53125 157.542969 C 269.394531 156.851562 269.277344 156.257812 269.324219 155.878906 C 269.351562 155.675781 269.515625 155.511719 269.722656 155.488281 C 272.234375 155.222656 274.378906 156.933594 274.703125 159.46875 C 274.773438 160.023438 274.40625 160.722656 274.019531 161.460938 C 273.730469 162.011719 273.402344 162.636719 273.386719 163.003906 C 273.40625 163.917969 273.453125 164.933594 273.503906 166.011719 C 273.734375 170.984375 274 176.621094 272.046875 180.050781 C 271.945312 180.304688 271.710938 180.621094 269.027344 180.621094 " fill-opacity="1" fill-rule="nonzero"/><path fill="#ffffff" d="M 219.679688 202.203125 L 217.585938 202.054688 L 217.4375 203.699219 L 217.289062 203.101562 L 213.742188 192.53125 C 213.972656 191.941406 214.222656 191.359375 214.5 190.789062 L 218.59375 183.589844 L 211.511719 179.3125 C 210.238281 181.710938 207.195312 188.109375 206.5625 191.34375 C 206.480469 191.765625 206.546875 192.207031 206.742188 192.589844 L 213.921875 205.566406 C 214.582031 206.945312 217.660156 205.941406 217.660156 205.941406 L 219.679688 202.203125 " fill-opacity="1" fill-rule="nonzero"/><path fill="#000000" d="M 211.691406 179.945312 C 210.316406 182.601562 207.589844 188.433594 207.003906 191.429688 C 206.945312 191.746094 206.992188 192.085938 207.144531 192.390625 L 214.316406 205.347656 C 214.675781 206.097656 216.414062 205.835938 217.351562 205.566406 L 218.953125 202.601562 L 217.996094 202.535156 L 217.882812 203.738281 C 217.863281 203.957031 217.691406 204.128906 217.472656 204.144531 C 217.253906 204.164062 217.054688 204.019531 217 203.808594 L 216.855469 203.226562 L 213.316406 192.671875 C 213.28125 192.574219 213.285156 192.464844 213.324219 192.367188 C 213.5625 191.746094 213.824219 191.148438 214.097656 190.59375 L 217.984375 183.75 Z M 215.574219 206.746094 C 214.730469 206.746094 213.882812 206.527344 213.515625 205.761719 L 206.347656 192.808594 C 206.097656 192.3125 206.023438 191.769531 206.121094 191.257812 C 206.757812 187.996094 209.820312 181.542969 211.117188 179.101562 C 211.175781 178.992188 211.273438 178.914062 211.394531 178.878906 C 211.511719 178.847656 211.640625 178.863281 211.746094 178.929688 L 218.824219 183.207031 C 219.035156 183.332031 219.105469 183.601562 218.984375 183.8125 L 214.890625 191.011719 C 214.664062 191.480469 214.4375 192 214.21875 192.542969 L 217.296875 201.710938 C 217.382812 201.636719 217.496094 201.597656 217.617188 201.605469 L 219.710938 201.753906 C 219.863281 201.765625 220 201.851562 220.074219 201.988281 C 220.148438 202.121094 220.148438 202.28125 220.074219 202.417969 L 218.058594 206.152344 C 218 206.257812 217.910156 206.332031 217.800781 206.367188 C 217.609375 206.429688 216.589844 206.746094 215.574219 206.746094 " fill-opacity="1" fill-rule="nonzero"/><path fill="#0b0444" d="M 217.640625 187.171875 C 218.167969 186.335938 218.746094 185.535156 219.371094 184.78125 C 220.03125 183.988281 221.304688 184.222656 221.613281 185.207031 C 222.089844 186.734375 222.210938 189.988281 220.953125 196.835938 C 220.917969 197.042969 220.203125 205.839844 220.203125 205.839844 C 220.203125 205.839844 235.972656 207.992188 241.773438 206.945312 C 246.355469 206.117188 247.738281 204.984375 248.117188 204.546875 C 248.207031 204.445312 248.242188 204.3125 248.230469 204.179688 L 247.554688 198.292969 C 247.316406 196.15625 246.726562 192.167969 247.421875 187.082031 C 248.382812 180.09375 252.554688 180.226562 252.554688 180.226562 C 253.863281 180.140625 255.390625 180.171875 257.03125 180 L 257.046875 165.496094 C 257.046875 165.496094 252.78125 164.980469 250.53125 164.414062 C 250.53125 164.414062 244.753906 163.058594 243.152344 162.90625 C 241.941406 162.792969 238.734375 161.972656 231.21875 162.820312 C 228.296875 163.148438 225.464844 164.042969 222.878906 165.453125 L 222.492188 165.664062 C 222.492188 165.664062 214.644531 170.089844 209.652344 180.050781 L 217.640625 187.171875 " fill-opacity="1" fill-rule="nonzero"/><path fill="#000000" d="M 220.683594 205.449219 C 223.230469 205.78125 236.554688 207.429688 241.691406 206.5 C 246.246094 205.679688 247.503906 204.570312 247.777344 204.25 L 247.042969 197.765625 C 246.777344 195.507812 246.332031 191.734375 246.976562 187.023438 C 247.953125 179.917969 252.136719 179.765625 252.542969 179.777344 C 253.042969 179.746094 253.566406 179.726562 254.125 179.710938 C 254.914062 179.691406 255.730469 179.664062 256.582031 179.59375 L 256.597656 165.890625 C 255.480469 165.75 252.292969 165.320312 250.421875 164.847656 C 250.371094 164.835938 244.660156 163.5 243.109375 163.351562 C 242.917969 163.335938 242.679688 163.300781 242.386719 163.257812 C 240.828125 163.03125 237.582031 162.558594 231.265625 163.265625 C 228.390625 163.589844 225.640625 164.460938 223.09375 165.847656 L 222.707031 166.058594 C 222.636719 166.097656 215.082031 170.445312 210.207031 179.945312 L 217.546875 186.488281 C 218.019531 185.777344 218.511719 185.109375 219.023438 184.496094 C 219.441406 183.996094 220.09375 183.765625 220.726562 183.890625 C 221.359375 184.015625 221.851562 184.457031 222.042969 185.074219 C 222.679688 187.121094 222.464844 191.105469 221.394531 196.917969 C 221.363281 197.160156 220.964844 202 220.683594 205.449219 Z M 237.378906 207.683594 C 230.484375 207.683594 220.65625 206.355469 220.140625 206.285156 C 219.90625 206.253906 219.734375 206.042969 219.753906 205.804688 C 219.921875 203.734375 220.472656 196.96875 220.511719 196.753906 C 221.808594 189.695312 221.589844 186.652344 221.183594 185.339844 C 221.089844 185.042969 220.859375 184.832031 220.550781 184.773438 C 220.238281 184.707031 219.925781 184.820312 219.71875 185.070312 C 219.125 185.78125 218.554688 186.570312 218.023438 187.414062 C 217.949219 187.527344 217.835938 187.601562 217.703125 187.621094 C 217.574219 187.636719 217.441406 187.597656 217.34375 187.507812 L 209.351562 180.386719 C 209.199219 180.25 209.15625 180.03125 209.25 179.847656 C 214.246094 169.882812 222.191406 165.316406 222.269531 165.273438 L 222.664062 165.058594 C 225.3125 163.613281 228.175781 162.707031 231.167969 162.375 C 237.597656 161.648438 240.921875 162.136719 242.515625 162.367188 C 242.792969 162.410156 243.015625 162.441406 243.195312 162.457031 C 244.808594 162.609375 250.394531 163.917969 250.632812 163.976562 C 252.839844 164.53125 257.058594 165.042969 257.097656 165.050781 C 257.328125 165.078125 257.496094 165.269531 257.496094 165.496094 L 257.480469 180 C 257.480469 180.230469 257.304688 180.425781 257.078125 180.449219 C 256.042969 180.554688 255.082031 180.585938 254.148438 180.613281 C 253.597656 180.628906 253.074219 180.644531 252.582031 180.675781 C 252.566406 180.675781 252.550781 180.675781 252.539062 180.675781 C 252.398438 180.675781 248.753906 180.679688 247.871094 187.144531 C 247.238281 191.742188 247.675781 195.449219 247.933594 197.660156 L 248.675781 204.128906 C 248.703125 204.386719 248.625 204.644531 248.457031 204.835938 C 247.941406 205.4375 246.394531 206.566406 241.851562 207.386719 C 240.679688 207.597656 239.125 207.683594 237.378906 207.683594 " fill-opacity="1" fill-rule="nonzero"/><path fill="#ffffff" d="M 235.046875 274.394531 L 234.296875 282.371094 C 234.273438 282.59375 234.421875 282.800781 234.621094 282.8125 L 238.5625 283.058594 C 238.730469 283.066406 238.878906 282.929688 238.902344 282.738281 L 239.636719 275.488281 L 235.046875 274.394531 " fill-opacity="1" fill-rule="nonzero"/><path fill="#000000" d="M 234.75 282.371094 L 238.464844 282.601562 L 239.148438 275.832031 L 235.445312 274.949219 Z M 238.582031 283.507812 C 238.566406 283.507812 238.550781 283.503906 238.535156 283.503906 L 234.59375 283.261719 C 234.382812 283.246094 234.1875 283.148438 234.050781 282.980469 C 233.894531 282.800781 233.824219 282.558594 233.851562 282.320312 L 234.597656 274.351562 C 234.609375 274.21875 234.679688 274.101562 234.785156 274.027344 C 234.890625 273.949219 235.023438 273.925781 235.152344 273.953125 L 239.738281 275.050781 C 239.960938 275.101562 240.105469 275.308594 240.082031 275.535156 L 239.351562 282.78125 C 239.296875 283.207031 238.972656 283.507812 238.582031 283.507812 " fill-opacity="1" fill-rule="nonzero"/><path fill="#0b0444" d="M 233.675781 280.304688 C 233.414062 281.246094 232.863281 283.902344 232.632812 285.5 C 232.484375 286.5 233.117188 287.449219 234.082031 287.710938 C 236.808594 288.453125 243.328125 288.421875 248.757812 288.660156 C 249.128906 288.679688 249.8125 288.496094 250.121094 287.589844 C 251.152344 284.523438 245.445312 283.570312 239.808594 280.449219 C 239.699219 280.386719 239.5625 280.394531 239.460938 280.46875 C 239.394531 280.515625 239.308594 280.570312 239.214844 280.632812 C 238.230469 281.261719 236.601562 281.261719 235.605469 280.660156 L 234.480469 279.980469 C 234.171875 279.792969 233.773438 279.953125 233.675781 280.304688 " fill-opacity="1" fill-rule="nonzero"/><path fill="#000000" d="M 234.109375 280.425781 C 233.84375 281.375 233.296875 284.035156 233.074219 285.5625 C 232.964844 286.335938 233.445312 287.074219 234.199219 287.277344 C 236.175781 287.816406 240.390625 287.941406 244.46875 288.0625 C 245.898438 288.105469 247.382812 288.152344 248.777344 288.214844 C 248.882812 288.21875 249.4375 288.203125 249.691406 287.445312 C 250.253906 285.78125 248.222656 284.804688 244.585938 283.222656 C 243.074219 282.5625 241.363281 281.820312 239.652344 280.878906 C 239.597656 280.921875 239.53125 280.964844 239.453125 281.015625 C 238.347656 281.722656 236.515625 281.734375 235.371094 281.046875 L 234.246094 280.367188 C 234.21875 280.34375 234.1875 280.351562 234.164062 280.355469 C 234.144531 280.367188 234.121094 280.382812 234.109375 280.425781 Z M 248.804688 289.113281 C 248.78125 289.113281 248.757812 289.113281 248.738281 289.109375 C 247.351562 289.050781 245.871094 289.003906 244.441406 288.960938 C 240.121094 288.832031 236.042969 288.710938 233.964844 288.144531 C 232.773438 287.820312 232.007812 286.65625 232.183594 285.433594 C 232.417969 283.835938 232.96875 281.167969 233.242188 280.183594 C 233.328125 279.878906 233.542969 279.636719 233.835938 279.523438 C 234.125 279.40625 234.445312 279.433594 234.710938 279.59375 L 235.835938 280.277344 C 236.703125 280.796875 238.136719 280.789062 238.96875 280.253906 C 239.0625 280.199219 239.136719 280.144531 239.195312 280.105469 C 239.4375 279.929688 239.761719 279.914062 240.023438 280.054688 C 241.714844 280.992188 243.429688 281.738281 244.945312 282.398438 C 248.550781 283.964844 251.394531 285.207031 250.542969 287.734375 C 250.199219 288.753906 249.40625 289.113281 248.804688 289.113281 " fill-opacity="1" fill-rule="nonzero"/><path fill="#ffffff" d="M 232.46875 286.222656 C 232.460938 286.25 232.457031 286.269531 232.457031 286.277344 C 232.3125 287.28125 233.261719 287.894531 234.164062 288.324219 C 236.855469 289.589844 247.707031 288.863281 248.125 288.835938 C 248.132812 288.835938 248.140625 288.835938 248.148438 288.835938 C 248.28125 288.835938 249.660156 288.835938 250.058594 287.976562 C 250.109375 287.871094 250.136719 287.71875 250.15625 287.578125 C 250.1875 287.347656 250.167969 287.113281 250.121094 286.886719 C 250.078125 286.703125 249.898438 286.585938 249.714844 286.632812 C 247.703125 287.152344 243 287.324219 238.296875 286.804688 C 235.175781 286.457031 233.816406 285.773438 233.09375 285.335938 C 232.894531 285.21875 232.640625 285.332031 232.597656 285.5625 C 232.5625 285.753906 232.515625 285.984375 232.46875 286.222656 " fill-opacity="1" fill-rule="nonzero"/><path fill="#000000" d="M 232.46875 286.222656 Z M 233.007812 285.808594 L 232.910156 286.308594 L 232.902344 286.34375 C 232.820312 286.917969 233.265625 287.402344 234.355469 287.917969 C 236.417969 288.886719 244.242188 288.648438 248.09375 288.386719 C 248.105469 288.386719 248.144531 288.386719 248.15625 288.386719 C 248.585938 288.390625 249.421875 288.273438 249.648438 287.789062 C 249.65625 287.769531 249.6875 287.695312 249.707031 287.519531 C 249.726562 287.386719 249.726562 287.246094 249.703125 287.101562 C 247.703125 287.574219 243.082031 287.785156 238.25 287.25 C 235.300781 286.921875 233.847656 286.292969 233.007812 285.808594 Z M 241.316406 289.523438 C 238.363281 289.523438 235.292969 289.351562 233.972656 288.730469 C 233.378906 288.449219 231.796875 287.703125 232.011719 286.214844 C 232.011719 286.203125 232.019531 286.175781 232.027344 286.132812 L 232.15625 285.476562 C 232.207031 285.222656 232.375 285.011719 232.605469 284.910156 C 232.839844 284.804688 233.105469 284.824219 233.324219 284.953125 C 234.066406 285.398438 235.394531 286.03125 238.347656 286.355469 C 243.179688 286.890625 247.753906 286.675781 249.601562 286.199219 C 249.808594 286.144531 250.019531 286.175781 250.199219 286.289062 C 250.382812 286.398438 250.511719 286.582031 250.558594 286.789062 C 250.621094 287.078125 250.636719 287.363281 250.601562 287.636719 C 250.570312 287.855469 250.527344 288.027344 250.464844 288.164062 C 249.960938 289.257812 248.445312 289.289062 248.140625 289.285156 C 247.542969 289.324219 244.5 289.523438 241.316406 289.523438 " fill-opacity="1" fill-rule="nonzero"/><path fill="#000000" d="M 240.195312 283.378906 C 240.058594 283.378906 239.925781 283.320312 239.835938 283.203125 C 239.6875 283.007812 239.726562 282.726562 239.921875 282.574219 L 241.566406 281.3125 C 241.765625 281.164062 242.046875 281.199219 242.199219 281.398438 C 242.347656 281.59375 242.3125 281.878906 242.117188 282.027344 L 240.46875 283.289062 C 240.386719 283.351562 240.289062 283.378906 240.195312 283.378906 " fill-opacity="1" fill-rule="nonzero"/><path fill="#000000" d="M 242.382812 284.28125 C 242.246094 284.28125 242.109375 284.21875 242.023438 284.101562 C 241.875 283.902344 241.914062 283.621094 242.109375 283.472656 L 243.550781 282.386719 C 243.75 282.234375 244.03125 282.277344 244.179688 282.472656 C 244.332031 282.671875 244.289062 282.953125 244.09375 283.105469 L 242.652344 284.1875 C 242.574219 284.25 242.476562 284.28125 242.382812 284.28125 " fill-opacity="1" fill-rule="nonzero"/><path fill="#000000" d="M 221.753906 204.277344 C 221.753906 204.277344 219.699219 210.074219 219.148438 213.535156 C 218.167969 219.703125 214.566406 245.105469 205.785156 265.480469 C 204.792969 267.789062 205.941406 270.191406 208.390625 270.726562 C 209.367188 270.941406 209.777344 270.589844 210.625 270.175781 C 211.0625 269.960938 211.785156 269.332031 211.785156 269.332031 C 211.785156 269.332031 227.328125 256.28125 233.664062 222.042969 C 237.742188 200.019531 237.0625 201.765625 237.0625 201.765625 L 221.753906 204.277344 " fill-opacity="1" fill-rule="nonzero"/><path fill="#000000" d="M 227.691406 203.496094 C 227.691406 203.496094 225.867188 215.449219 229.320312 224.292969 C 232.636719 232.792969 234.753906 266.128906 233.515625 275.757812 C 233.441406 276.367188 233.859375 276.917969 234.460938 277.003906 C 235.96875 277.21875 238.691406 277.507812 240.550781 277.15625 C 240.894531 277.09375 241.171875 276.839844 241.257812 276.5 C 242.484375 271.613281 252.675781 227.445312 245.492188 204.8125 L 227.691406 203.496094 " fill-opacity="1" fill-rule="nonzero"/><path fill="#99b9ff" d="M 231.179688 234.722656 C 230.941406 234.722656 230.746094 234.539062 230.730469 234.300781 C 230.726562 234.257812 230.457031 230.050781 228.464844 225.367188 C 227.832031 223.886719 227.378906 222.125 227.113281 220.136719 C 227.082031 219.890625 227.253906 219.664062 227.5 219.632812 C 227.746094 219.597656 227.972656 219.769531 228.003906 220.019531 C 228.257812 221.925781 228.691406 223.609375 229.289062 225.011719 C 231.347656 229.847656 231.617188 234.070312 231.628906 234.25 C 231.644531 234.496094 231.453125 234.707031 231.207031 234.722656 C 231.199219 234.722656 231.1875 234.722656 231.179688 234.722656 " fill-opacity="1" fill-rule="nonzero"/><path fill="#99b9ff" d="M 231.421875 210.597656 C 231.316406 210.597656 231.246094 210.648438 231.207031 210.683594 C 231.167969 210.722656 231.097656 210.808594 231.101562 210.941406 L 231.464844 217.699219 C 231.5 218.371094 231.832031 218.984375 232.378906 219.378906 L 234.488281 220.917969 C 235.210938 221.441406 236.164062 221.539062 236.980469 221.175781 L 240.242188 219.707031 C 241.066406 219.335938 241.578125 218.511719 241.550781 217.609375 L 241.34375 211.152344 C 241.339844 211.0625 241.300781 210.980469 241.230469 210.921875 C 241.164062 210.859375 241.074219 210.832031 240.988281 210.84375 C 237.035156 211.261719 233.328125 210.871094 231.46875 210.601562 C 231.453125 210.601562 231.4375 210.597656 231.421875 210.597656 Z M 235.960938 222.292969 C 235.253906 222.292969 234.550781 222.070312 233.960938 221.644531 L 231.847656 220.105469 C 231.082031 219.550781 230.617188 218.691406 230.566406 217.75 L 230.203125 210.988281 C 230.183594 210.621094 230.328125 210.269531 230.601562 210.019531 C 230.875 209.769531 231.234375 209.660156 231.601562 209.710938 C 233.414062 209.976562 237.035156 210.359375 240.890625 209.945312 C 241.226562 209.910156 241.566406 210.019531 241.824219 210.242188 C 242.078125 210.464844 242.230469 210.785156 242.242188 211.125 L 242.445312 217.578125 C 242.488281 218.851562 241.769531 220.003906 240.613281 220.527344 L 237.347656 221.996094 C 236.90625 222.195312 236.429688 222.292969 235.960938 222.292969 " fill-opacity="1" fill-rule="nonzero"/><path fill="#99b9ff" d="M 220.199219 220.765625 C 219.945312 220.765625 219.695312 220.6875 219.480469 220.535156 L 218.636719 219.964844 C 218.433594 219.824219 218.378906 219.546875 218.519531 219.339844 C 218.660156 219.132812 218.941406 219.082031 219.144531 219.21875 L 219.996094 219.796875 C 220.105469 219.875 220.242188 219.886719 220.351562 219.828125 L 223.949219 217.996094 C 224.050781 217.941406 224.121094 217.839844 224.132812 217.722656 L 224.945312 210.203125 C 224.964844 210.019531 224.835938 209.855469 224.65625 209.824219 L 221.257812 209.285156 C 221.011719 209.246094 220.84375 209.015625 220.882812 208.773438 C 220.925781 208.527344 221.152344 208.359375 221.398438 208.398438 L 224.796875 208.9375 C 225.453125 209.039062 225.910156 209.636719 225.839844 210.300781 L 225.027344 217.820312 C 224.984375 218.238281 224.730469 218.601562 224.355469 218.792969 L 220.761719 220.628906 C 220.582031 220.722656 220.390625 220.765625 220.199219 220.765625 " fill-opacity="1" fill-rule="nonzero"/><path fill="#ffffff" d="M 208.371094 274.59375 C 208.851562 272.1875 209.058594 271.691406 210.207031 269.835938 C 211.0625 268.457031 208.984375 266.375 207.929688 266.21875 C 206.164062 265.855469 206.445312 266.414062 204.425781 269.011719 L 202.847656 270.964844 C 202.847656 270.964844 207.953125 276.699219 208.371094 274.59375 " fill-opacity="1" fill-rule="nonzero"/><path fill="#000000" d="M 207.902344 275.503906 C 206.449219 275.503906 203.679688 272.578125 202.511719 271.265625 C 202.367188 271.101562 202.359375 270.851562 202.5 270.679688 L 204 268.84375 C 204.542969 268.144531 204.886719 267.585938 205.195312 267.070312 C 205.320312 266.855469 205.597656 266.785156 205.8125 266.914062 C 206.023438 267.042969 206.09375 267.316406 205.964844 267.53125 C 205.644531 268.066406 205.285156 268.65625 204.703125 269.402344 L 203.441406 270.949219 C 205.378906 273.078125 207.414062 274.753906 207.902344 274.605469 C 207.898438 274.605469 207.914062 274.574219 207.929688 274.507812 C 208.363281 272.320312 208.515625 271.683594 209.429688 270.152344 C 209.554688 269.9375 209.832031 269.871094 210.046875 269.996094 C 210.257812 270.125 210.328125 270.402344 210.203125 270.613281 C 209.363281 272.019531 209.230469 272.574219 208.8125 274.683594 C 208.699219 275.242188 208.34375 275.417969 208.140625 275.472656 C 208.066406 275.492188 207.988281 275.503906 207.902344 275.503906 " fill-opacity="1" fill-rule="nonzero"/><path fill="#0b0444" d="M 208.648438 273.691406 L 206.605469 270.59375 C 205.652344 269.148438 203.625 268.933594 202.394531 270.148438 L 200.054688 272.117188 C 200.054688 272.117188 199.609375 273.476562 199.75 274.347656 C 199.9375 275.488281 200.300781 277.113281 201.007812 278.71875 C 202.089844 281.195312 205.09375 286.167969 206.164062 287.917969 C 206.390625 288.28125 206.949219 288.644531 207.339844 288.46875 C 207.804688 288.261719 208.285156 287.886719 208.746094 287.449219 C 209.464844 286.769531 209.222656 283.605469 208.96875 281.402344 C 208.804688 279.988281 208.925781 276.386719 208.984375 274.898438 C 209.003906 274.46875 208.886719 274.046875 208.648438 273.691406 " fill-opacity="1" fill-rule="nonzero"/><path fill="#000000" d="M 200.445312 272.378906 C 200.320312 272.804688 200.101562 273.710938 200.195312 274.277344 C 200.367188 275.347656 200.722656 276.953125 201.417969 278.539062 C 202.507812 281.023438 205.621094 286.164062 206.546875 287.679688 C 206.699219 287.929688 207.050781 288.105469 207.15625 288.058594 C 207.519531 287.894531 207.953125 287.578125 208.4375 287.121094 C 208.550781 287.015625 209.082031 286.246094 208.519531 281.457031 C 208.351562 280.015625 208.476562 276.378906 208.535156 274.882812 C 208.550781 274.546875 208.460938 274.21875 208.273438 273.9375 L 206.230469 270.84375 C 205.851562 270.265625 205.242188 269.894531 204.554688 269.820312 C 203.875 269.75 203.199219 269.984375 202.710938 270.46875 L 202.683594 270.492188 Z M 207.113281 288.964844 C 206.566406 288.964844 206.023438 288.546875 205.78125 288.152344 C 204.582031 286.191406 201.675781 281.367188 200.59375 278.902344 C 199.859375 277.226562 199.488281 275.542969 199.308594 274.421875 C 199.148438 273.449219 199.609375 272.039062 199.628906 271.976562 L 199.667969 271.855469 L 202.089844 269.816406 C 202.773438 269.148438 203.707031 268.828125 204.652344 268.929688 C 205.601562 269.027344 206.453125 269.542969 206.980469 270.347656 L 209.023438 273.445312 C 209.3125 273.882812 209.457031 274.394531 209.433594 274.917969 C 209.375 276.394531 209.253906 279.972656 209.414062 281.351562 C 209.988281 286.265625 209.484375 287.371094 209.054688 287.773438 C 208.488281 288.308594 207.988281 288.667969 207.523438 288.878906 C 207.390625 288.9375 207.253906 288.964844 207.113281 288.964844 " fill-opacity="1" fill-rule="nonzero"/><path fill="#000000" d="M 208.894531 277.671875 C 208.855469 277.671875 208.8125 277.667969 208.773438 277.65625 L 206.574219 277.046875 C 206.335938 276.984375 206.195312 276.734375 206.261719 276.496094 C 206.328125 276.257812 206.574219 276.117188 206.8125 276.179688 L 209.011719 276.789062 C 209.253906 276.855469 209.394531 277.101562 209.328125 277.34375 C 209.273438 277.542969 209.089844 277.671875 208.894531 277.671875 " fill-opacity="1" fill-rule="nonzero"/><path fill="#000000" d="M 208.730469 279.644531 C 208.691406 279.644531 208.652344 279.636719 208.609375 279.628906 L 206.410156 279.019531 C 206.171875 278.953125 206.03125 278.707031 206.097656 278.46875 C 206.164062 278.226562 206.414062 278.089844 206.652344 278.152344 L 208.851562 278.761719 C 209.089844 278.828125 209.230469 279.074219 209.164062 279.3125 C 209.109375 279.511719 208.929688 279.644531 208.730469 279.644531 " fill-opacity="1" fill-rule="nonzero"/><path fill="#ffffff" d="M 206.488281 288.628906 C 206.710938 288.628906 206.925781 288.59375 207.117188 288.527344 C 207.773438 288.300781 209.417969 287.808594 209.234375 285.445312 C 209.042969 282.992188 207.1875 281.742188 205.832031 280.132812 C 204.796875 278.90625 204.902344 273.769531 204.574219 272.765625 C 203.996094 270.960938 201.375 270.691406 200.054688 272.117188 C 199.222656 273.019531 199.125 274.980469 199.207031 276.417969 C 199.359375 279.113281 200.933594 284.480469 202.929688 287.074219 C 203.902344 288.339844 205.402344 288.628906 206.488281 288.628906 " fill-opacity="1" fill-rule="nonzero"/><path fill="#000000" d="M 202.203125 271.65625 C 201.515625 271.65625 200.839844 271.929688 200.386719 272.421875 C 199.816406 273.042969 199.546875 274.488281 199.65625 276.394531 C 199.796875 278.894531 201.28125 284.191406 203.285156 286.800781 C 204.210938 288.003906 205.6875 288.179688 206.488281 288.179688 C 206.660156 288.179688 206.820312 288.15625 206.96875 288.101562 L 207.03125 288.082031 C 207.699219 287.855469 208.9375 287.429688 208.785156 285.476562 C 208.652344 283.753906 207.605469 282.667969 206.5 281.523438 C 206.160156 281.167969 205.8125 280.804688 205.488281 280.421875 C 204.710938 279.5 204.523438 276.972656 204.371094 274.941406 C 204.304688 274.042969 204.242188 273.195312 204.148438 272.902344 C 203.953125 272.300781 203.445312 271.867188 202.746094 271.714844 C 202.570312 271.675781 202.386719 271.65625 202.203125 271.65625 Z M 206.488281 289.082031 C 205.523438 289.082031 203.734375 288.855469 202.574219 287.347656 C 200.464844 284.605469 198.90625 279.058594 198.757812 276.441406 C 198.671875 274.902344 198.769531 272.851562 199.726562 271.8125 C 200.511719 270.960938 201.773438 270.578125 202.941406 270.835938 C 203.957031 271.058594 204.710938 271.710938 205.003906 272.625 C 205.132812 273.019531 205.195312 273.839844 205.269531 274.875 C 205.398438 276.574219 205.589844 279.144531 206.175781 279.84375 C 206.480469 280.203125 206.820312 280.554688 207.148438 280.898438 C 208.316406 282.109375 209.523438 283.363281 209.683594 285.410156 C 209.886719 288.054688 208.023438 288.691406 207.324219 288.933594 L 207.265625 288.953125 C 207.019531 289.039062 206.757812 289.082031 206.488281 289.082031 " fill-opacity="1" fill-rule="nonzero"/><path fill="#000000" d="M 206.488281 289.082031 C 206.210938 289.082031 205.9375 289.0625 205.671875 289.027344 C 205.425781 288.996094 205.253906 288.769531 205.285156 288.523438 C 205.316406 288.277344 205.542969 288.105469 205.789062 288.136719 C 206.015625 288.167969 206.25 288.179688 206.488281 288.179688 C 206.882812 288.179688 207.234375 288.039062 207.449219 287.789062 C 207.628906 287.585938 207.703125 287.320312 207.660156 287.023438 C 207.34375 284.71875 206.109375 283.527344 204.679688 282.148438 C 203.359375 280.878906 203.058594 277 202.898438 274.917969 C 202.863281 274.453125 202.824219 273.972656 202.796875 273.867188 C 202.679688 273.433594 201.988281 272.894531 201.234375 272.8125 C 200.792969 272.761719 200.1875 272.859375 199.808594 273.582031 C 199.691406 273.804688 199.421875 273.886719 199.203125 273.773438 C 198.980469 273.65625 198.898438 273.386719 199.015625 273.164062 C 199.488281 272.261719 200.332031 271.808594 201.332031 271.917969 C 202.410156 272.035156 203.433594 272.789062 203.664062 273.628906 C 203.710938 273.804688 203.742188 274.148438 203.796875 274.847656 C 203.925781 276.53125 204.230469 280.46875 205.304688 281.5 C 206.789062 282.933594 208.191406 284.285156 208.554688 286.898438 C 208.628906 287.453125 208.476562 287.980469 208.128906 288.382812 C 207.742188 288.824219 207.144531 289.082031 206.488281 289.082031 " fill-opacity="1" fill-rule="nonzero"/><path fill="#000000" d="M 245.488281 204.8125 C 242.164062 204.691406 240.960938 200.765625 240.847656 197.441406 L 240.152344 177.433594 C 240.167969 176.773438 239.648438 176.222656 238.988281 176.195312 L 224.714844 175.679688 C 224.050781 175.65625 223.492188 176.167969 223.460938 176.832031 C 223.460938 176.832031 223.753906 198.398438 221.753906 204.277344 L 232.070312 207.4375 L 245.488281 204.8125 " fill-opacity="1" fill-rule="nonzero"/><path fill="#000000" d="M 237.0625 178.375 C 237.085938 178.378906 238.359375 178.375 238.351562 177.257812 C 238.304688 171.144531 240.21875 165.785156 241.609375 164.625 C 242.460938 163.917969 243.847656 163.359375 244.640625 163.078125 C 244.847656 163.003906 244.855469 162.710938 244.648438 162.625 C 244.21875 162.449219 243.648438 162.222656 243.296875 162.109375 C 243.019531 162.019531 241.714844 161.457031 239.894531 163.003906 C 237.367188 165.15625 235.738281 171.722656 235.859375 177.28125 C 235.871094 177.875 236.40625 178.351562 237.0625 178.375 " fill-opacity="1" fill-rule="nonzero"/><path fill="#000000" d="M 227.207031 177.242188 C 227.226562 177.238281 227.246094 177.234375 227.265625 177.230469 C 227.824219 177.097656 228.625 176.449219 228.492188 175.875 C 226.527344 167.316406 227.949219 164.023438 228.894531 162.855469 C 229.035156 162.683594 228.871094 162.433594 228.660156 162.488281 C 228.269531 162.585938 227.394531 162.773438 227.144531 162.847656 C 226.300781 163.105469 223.8125 164.578125 226.007812 176.433594 C 226.113281 176.992188 226.664062 177.335938 227.207031 177.242188 " fill-opacity="1" fill-rule="nonzero"/><path fill="#0b0444" d="M 296.71875 237.703125 C 295.46875 242.917969 297.210938 246.613281 300.296875 249.625 C 302.492188 244.796875 301.234375 240.839844 296.71875 237.703125 " fill-opacity="1" fill-rule="nonzero"/><path fill="#0b0444" d="M 278.953125 268.789062 C 277.707031 274 279.445312 277.695312 282.535156 280.707031 C 284.730469 275.878906 283.46875 271.921875 278.953125 268.789062 " fill-opacity="1" fill-rule="nonzero"/><path fill="#0b0444" d="M 301.058594 275.492188 C 299.8125 280.707031 301.550781 284.402344 304.640625 287.414062 C 306.835938 282.582031 305.574219 278.628906 301.058594 275.492188 " fill-opacity="1" fill-rule="nonzero"/><path fill="#0b0444" d="M 288.242188 292.210938 C 284.667969 294.960938 283.855469 298.296875 284.28125 301.898438 C 288.269531 299.898438 289.539062 296.644531 288.242188 292.210938 " fill-opacity="1" fill-rule="nonzero"/><path fill="#0b0444" d="M 292.914062 257.101562 C 288.949219 260.710938 288.308594 264.742188 289.164062 268.96875 C 293.699219 266.214844 294.882812 262.234375 292.914062 257.101562 " fill-opacity="1" fill-rule="nonzero"/><path fill="#99b9ff" d="M 222.875 109.28125 C 222.875 116.464844 217.050781 122.289062 209.867188 122.289062 C 202.683594 122.289062 196.855469 116.464844 196.855469 109.28125 C 196.855469 102.097656 202.683594 96.273438 209.867188 96.273438 C 217.050781 96.273438 222.875 102.097656 222.875 109.28125 " fill-opacity="1" fill-rule="nonzero"/></svg>