<svg xmlns="http://www.w3.org/2000/svg" xmlns:xlink="http://www.w3.org/1999/xlink" width="500" zoomAndPan="magnify" viewBox="0 0 375 374.999991" height="500" preserveAspectRatio="xMidYMid meet" version="1.0"><defs><clipPath id="25f6ac704a"><path d="M 0 23.164062 L 375 23.164062 L 375 352 L 0 352 Z M 0 23.164062 " clip-rule="nonzero"/></clipPath><clipPath id="6b275468cf"><path d="M 280.683594 23.164062 L 94.316406 23.164062 L 0 187.5 L 94.316406 351.835938 L 280.683594 351.835938 L 375 187.5 L 280.683594 23.164062 M 275.554688 342.933594 L 99.445312 342.933594 L 10.261719 187.5 L 99.445312 32.066406 L 275.554688 32.066406 L 364.738281 187.5 L 275.554688 342.933594 " clip-rule="nonzero"/></clipPath><clipPath id="f44d099408"><path d="M 86.410156 131.648438 L 255 131.648438 L 255 243.398438 L 86.410156 243.398438 Z M 86.410156 131.648438 " clip-rule="nonzero"/></clipPath><clipPath id="0a4e1ef3fa"><path d="M 282 157 L 288.910156 157 L 288.910156 162 L 282 162 Z M 282 157 " clip-rule="nonzero"/></clipPath></defs><rect x="-37.5" width="450" fill="#ffffff" y="-37.499999" height="449.999989" fill-opacity="1"/><rect x="-37.5" width="450" fill="#ffffff" y="-37.499999" height="449.999989" fill-opacity="1"/><g clip-path="url(#25f6ac704a)"><g clip-path="url(#6b275468cf)"><path fill="#000000" d="M 0 23.164062 L 375 23.164062 L 375 352.136719 L 0 352.136719 Z M 0 23.164062 " fill-opacity="1" fill-rule="nonzero"/></g></g><path fill="#0b0444" d="M 152.671875 184.785156 L 151.140625 184.785156 C 146.722656 184.785156 142.828125 187.042969 140.539062 190.464844 C 138.25 187.042969 134.355469 184.785156 129.9375 184.785156 L 128.40625 184.785156 C 126.960938 184.785156 125.78125 185.964844 125.78125 187.410156 L 125.78125 189.273438 C 125.78125 196.109375 131.347656 201.667969 138.1875 201.667969 L 138.394531 201.667969 L 138.394531 213.757812 C 138.394531 214.9375 139.355469 215.898438 140.539062 215.898438 C 141.722656 215.898438 142.683594 214.9375 142.683594 213.757812 L 142.683594 201.667969 L 142.890625 201.667969 C 149.730469 201.667969 155.296875 196.109375 155.296875 189.273438 L 155.296875 187.410156 C 155.296875 185.964844 154.117188 184.785156 152.671875 184.785156 Z M 138.1875 197.386719 C 133.710938 197.386719 130.066406 193.75 130.066406 189.277344 L 130.066406 189.070312 C 134.628906 189.136719 138.324219 192.832031 138.394531 197.386719 Z M 151.011719 189.277344 C 151.011719 193.75 147.367188 197.386719 142.890625 197.386719 L 142.683594 197.386719 C 142.753906 192.828125 146.449219 189.136719 151.011719 189.070312 Z M 151.011719 189.277344 " fill-opacity="1" fill-rule="nonzero"/><g clip-path="url(#f44d099408)"><path fill="#0b0444" d="M 251.933594 157.574219 L 242.691406 157.574219 C 242.121094 157.574219 241.578125 157.800781 241.175781 158.199219 L 234.726562 164.640625 L 233.429688 163.347656 C 233.027344 162.945312 232.480469 162.71875 231.914062 162.71875 C 231.34375 162.71875 230.800781 162.945312 230.398438 163.347656 L 206.28125 187.433594 C 205.445312 188.269531 205.445312 189.625 206.28125 190.460938 L 207.644531 191.824219 L 201.4375 198.027344 C 200.191406 199.269531 199.503906 200.921875 199.503906 202.679688 L 199.503906 228.339844 C 199.503906 229.609375 198.472656 230.636719 197.203125 230.636719 C 195.9375 230.636719 194.902344 229.605469 194.902344 228.339844 L 194.902344 179.726562 C 194.902344 176.097656 191.949219 173.148438 188.316406 173.148438 C 184.683594 173.148438 181.730469 176.097656 181.730469 179.726562 L 181.730469 228.339844 C 181.730469 229.507812 180.851562 230.460938 179.71875 230.609375 L 179.71875 226.703125 C 179.71875 225.523438 178.757812 224.5625 177.574219 224.5625 L 172.3125 224.5625 L 172.3125 160.433594 C 172.3125 159.253906 171.351562 158.292969 170.167969 158.292969 L 160.484375 158.292969 L 160.484375 151.984375 C 160.484375 150.800781 159.523438 149.84375 158.339844 149.84375 L 153.792969 149.84375 L 153.792969 144.367188 C 153.792969 137.359375 148.085938 131.660156 141.070312 131.660156 L 138.238281 131.660156 C 131.585938 131.660156 126.175781 137.066406 126.175781 143.710938 L 126.175781 149.84375 L 121.304688 149.84375 C 120.121094 149.84375 119.164062 150.800781 119.164062 151.984375 L 119.164062 158.292969 L 113.054688 158.292969 L 113.054688 149.351562 C 113.054688 143.035156 107.914062 137.898438 101.589844 137.898438 L 98.941406 137.898438 C 92.324219 137.898438 86.941406 143.277344 86.941406 149.890625 L 86.941406 203.476562 C 86.941406 215.222656 96.503906 224.777344 108.265625 224.777344 L 108.769531 224.777344 L 108.769531 241.246094 C 108.769531 242.429688 109.730469 243.386719 110.914062 243.386719 L 170.167969 243.386719 C 171.351562 243.386719 172.3125 242.429688 172.3125 241.246094 L 172.3125 240.996094 L 177.574219 240.996094 C 178.757812 240.996094 179.71875 240.035156 179.71875 238.855469 L 179.71875 234.90625 C 183.214844 234.75 186.015625 231.871094 186.015625 228.339844 L 186.015625 179.726562 C 186.015625 178.457031 187.046875 177.429688 188.316406 177.429688 C 189.585938 177.429688 190.617188 178.460938 190.617188 179.726562 L 190.617188 228.339844 C 190.617188 231.96875 193.570312 234.917969 197.203125 234.917969 C 200.835938 234.917969 203.792969 231.96875 203.792969 228.339844 L 203.792969 202.679688 C 203.792969 202.0625 204.03125 201.488281 204.464844 201.054688 L 210.675781 194.847656 L 211.722656 195.894531 C 212.125 196.292969 212.671875 196.519531 213.238281 196.519531 C 213.804688 196.519531 214.351562 196.292969 214.753906 195.894531 L 238.871094 171.804688 C 239.707031 170.96875 239.707031 169.613281 238.871094 168.777344 L 237.757812 167.667969 L 243.578125 161.851562 L 251.929688 161.851562 C 253.113281 161.851562 254.074219 160.894531 254.074219 159.710938 C 254.074219 158.53125 253.113281 157.574219 251.933594 157.574219 Z M 113.054688 222.636719 L 113.054688 180.140625 L 168.023438 180.140625 L 168.023438 223.207031 L 113.054688 223.207031 Z M 130.460938 143.710938 C 130.460938 139.425781 133.953125 135.941406 138.238281 135.941406 L 141.070312 135.941406 C 145.722656 135.941406 149.507812 139.722656 149.507812 144.367188 L 149.507812 149.839844 L 130.460938 149.839844 Z M 123.449219 154.125 L 156.195312 154.125 L 156.195312 158.292969 L 123.449219 158.292969 Z M 121.304688 162.574219 L 168.027344 162.574219 L 168.027344 175.859375 L 113.054688 175.859375 L 113.054688 162.574219 Z M 108.265625 220.496094 C 98.871094 220.496094 91.226562 212.859375 91.226562 203.476562 L 91.226562 149.886719 C 91.226562 145.636719 94.6875 142.179688 98.945312 142.179688 L 101.59375 142.179688 C 105.550781 142.179688 108.769531 145.394531 108.769531 149.347656 L 108.769531 220.492188 L 108.265625 220.492188 Z M 168.023438 239.105469 L 113.054688 239.105469 L 113.054688 227.488281 L 168.023438 227.488281 Z M 175.433594 236.710938 L 172.3125 236.710938 L 172.3125 228.84375 L 175.433594 228.84375 Z M 213.617188 190.976562 C 213.605469 190.445312 213.398438 189.914062 212.992188 189.507812 C 212.414062 188.933594 211.59375 188.761719 210.863281 188.980469 L 210.824219 188.945312 L 231.910156 167.882812 L 234.320312 170.292969 Z M 213.617188 190.976562 " fill-opacity="1" fill-rule="nonzero"/></g><path fill="#0b0444" d="M 261.816406 157.574219 L 259.78125 157.574219 C 258.597656 157.574219 257.636719 158.53125 257.636719 159.714844 C 257.636719 160.894531 258.597656 161.855469 259.78125 161.855469 L 261.816406 161.855469 C 263 161.855469 263.960938 160.894531 263.960938 159.714844 C 263.960938 158.53125 263 157.574219 261.816406 157.574219 Z M 261.816406 157.574219 " fill-opacity="1" fill-rule="nonzero"/><path fill="#0b0444" d="M 269.957031 157.574219 L 267.921875 157.574219 C 266.738281 157.574219 265.777344 158.53125 265.777344 159.714844 C 265.777344 160.894531 266.738281 161.855469 267.921875 161.855469 L 269.957031 161.855469 C 271.140625 161.855469 272.101562 160.894531 272.101562 159.714844 C 272.101562 158.53125 271.140625 157.574219 269.957031 157.574219 Z M 269.957031 157.574219 " fill-opacity="1" fill-rule="nonzero"/><path fill="#0b0444" d="M 280.242188 159.714844 C 280.242188 158.53125 279.28125 157.574219 278.097656 157.574219 L 276.0625 157.574219 C 274.878906 157.574219 273.917969 158.53125 273.917969 159.714844 C 273.917969 160.894531 274.878906 161.855469 276.0625 161.855469 L 278.097656 161.855469 C 279.28125 161.855469 280.242188 160.894531 280.242188 159.714844 Z M 280.242188 159.714844 " fill-opacity="1" fill-rule="nonzero"/><g clip-path="url(#0a4e1ef3fa)"><path fill="#0b0444" d="M 286.238281 157.574219 L 284.203125 157.574219 C 283.019531 157.574219 282.058594 158.53125 282.058594 159.714844 C 282.058594 160.894531 283.019531 161.855469 284.203125 161.855469 L 286.238281 161.855469 C 287.421875 161.855469 288.382812 160.894531 288.382812 159.714844 C 288.382812 158.53125 287.421875 157.574219 286.238281 157.574219 Z M 286.238281 157.574219 " fill-opacity="1" fill-rule="nonzero"/></g><path fill="#0b0444" d="M 258.316406 155.457031 C 258.570312 155.457031 258.828125 155.410156 259.082031 155.3125 L 260.980469 154.585938 C 262.085938 154.164062 262.640625 152.925781 262.214844 151.820312 C 261.792969 150.71875 260.554688 150.160156 259.449219 150.589844 L 257.546875 151.316406 C 256.441406 151.738281 255.890625 152.976562 256.3125 154.082031 C 256.640625 154.933594 257.453125 155.457031 258.316406 155.457031 Z M 258.316406 155.457031 " fill-opacity="1" fill-rule="nonzero"/><path fill="#0b0444" d="M 265.914062 152.546875 C 266.171875 152.546875 266.429688 152.5 266.679688 152.402344 L 268.582031 151.675781 C 269.6875 151.25 270.238281 150.011719 269.816406 148.910156 C 269.390625 147.804688 268.152344 147.25 267.046875 147.675781 L 265.148438 148.40625 C 264.042969 148.828125 263.488281 150.066406 263.914062 151.171875 C 264.238281 152.023438 265.050781 152.546875 265.914062 152.546875 Z M 265.914062 152.546875 " fill-opacity="1" fill-rule="nonzero"/><path fill="#0b0444" d="M 273.515625 149.636719 C 273.773438 149.636719 274.03125 149.589844 274.28125 149.492188 L 276.183594 148.765625 C 277.289062 148.339844 277.839844 147.101562 277.417969 146 C 276.992188 144.894531 275.753906 144.339844 274.648438 144.765625 L 272.75 145.496094 C 271.644531 145.917969 271.089844 147.15625 271.515625 148.257812 C 271.839844 149.109375 272.652344 149.636719 273.515625 149.636719 Z M 273.515625 149.636719 " fill-opacity="1" fill-rule="nonzero"/><path fill="#0b0444" d="M 281.117188 146.722656 C 281.371094 146.722656 281.632812 146.679688 281.882812 146.582031 L 283.785156 145.851562 C 284.890625 145.429688 285.441406 144.191406 285.015625 143.085938 C 284.59375 141.984375 283.355469 141.429688 282.246094 141.855469 L 280.347656 142.585938 C 279.242188 143.007812 278.691406 144.246094 279.113281 145.351562 C 279.441406 146.199219 280.253906 146.722656 281.117188 146.722656 Z M 281.117188 146.722656 " fill-opacity="1" fill-rule="nonzero"/><path fill="#0b0444" d="M 260.980469 164.59375 L 259.082031 163.867188 C 257.976562 163.441406 256.738281 163.996094 256.3125 165.097656 C 255.890625 166.203125 256.445312 167.441406 257.546875 167.863281 L 259.449219 168.589844 C 259.699219 168.6875 259.960938 168.734375 260.214844 168.734375 C 261.078125 168.734375 261.890625 168.210938 262.214844 167.359375 C 262.640625 166.253906 262.085938 165.015625 260.980469 164.59375 Z M 260.980469 164.59375 " fill-opacity="1" fill-rule="nonzero"/><path fill="#0b0444" d="M 268.582031 167.503906 L 266.683594 166.777344 C 265.574219 166.351562 264.335938 166.90625 263.914062 168.007812 C 263.492188 169.113281 264.042969 170.351562 265.148438 170.773438 L 267.050781 171.503906 C 267.300781 171.601562 267.5625 171.644531 267.816406 171.644531 C 268.679688 171.644531 269.492188 171.121094 269.816406 170.269531 C 270.242188 169.167969 269.6875 167.925781 268.582031 167.503906 Z M 268.582031 167.503906 " fill-opacity="1" fill-rule="nonzero"/><path fill="#0b0444" d="M 276.183594 170.417969 L 274.285156 169.6875 C 273.179688 169.261719 271.9375 169.8125 271.515625 170.917969 C 271.089844 172.023438 271.640625 173.261719 272.746094 173.683594 L 274.648438 174.414062 C 274.898438 174.511719 275.160156 174.558594 275.414062 174.558594 C 276.277344 174.558594 277.089844 174.035156 277.417969 173.183594 C 277.839844 172.078125 277.289062 170.839844 276.183594 170.417969 Z M 276.183594 170.417969 " fill-opacity="1" fill-rule="nonzero"/><path fill="#0b0444" d="M 283.785156 173.328125 L 281.882812 172.597656 C 280.777344 172.171875 279.539062 172.726562 279.113281 173.832031 C 278.691406 174.933594 279.246094 176.171875 280.351562 176.59375 L 282.25 177.324219 C 282.5 177.421875 282.761719 177.464844 283.015625 177.464844 C 283.878906 177.464844 284.691406 176.941406 285.019531 176.089844 C 285.441406 174.988281 284.890625 173.75 283.785156 173.328125 Z M 283.785156 173.328125 " fill-opacity="1" fill-rule="nonzero"/></svg>