<svg xmlns="http://www.w3.org/2000/svg" xmlns:xlink="http://www.w3.org/1999/xlink" width="500" zoomAndPan="magnify" viewBox="0 0 375 374.999991" height="500" preserveAspectRatio="xMidYMid meet" version="1.0"><defs><clipPath id="d2c35c8f36"><path d="M 0 23.164062 L 375 23.164062 L 375 352 L 0 352 Z M 0 23.164062 " clip-rule="nonzero"/></clipPath><clipPath id="d78415bbc0"><path d="M 280.683594 23.164062 L 94.316406 23.164062 L 0 187.5 L 94.316406 351.835938 L 280.683594 351.835938 L 375 187.5 L 280.683594 23.164062 M 275.554688 342.933594 L 99.445312 342.933594 L 10.261719 187.5 L 99.445312 32.066406 L 275.554688 32.066406 L 364.738281 187.5 L 275.554688 342.933594 " clip-rule="nonzero"/></clipPath><clipPath id="4fc51140d1"><path d="M 99.832031 95 L 148 95 L 148 280.738281 L 99.832031 280.738281 Z M 99.832031 95 " clip-rule="nonzero"/></clipPath><clipPath id="6428399a4a"><path d="M 138 93.988281 L 275.332031 93.988281 L 275.332031 280 L 138 280 Z M 138 93.988281 " clip-rule="nonzero"/></clipPath></defs><rect x="-37.5" width="450" fill="#ffffff" y="-37.499999" height="449.999989" fill-opacity="1"/><rect x="-37.5" width="450" fill="#ffffff" y="-37.499999" height="449.999989" fill-opacity="1"/><g clip-path="url(#d2c35c8f36)"><g clip-path="url(#d78415bbc0)"><path fill="#000000" d="M 0 23.164062 L 375 23.164062 L 375 352.136719 L 0 352.136719 Z M 0 23.164062 " fill-opacity="1" fill-rule="nonzero"/></g></g><g clip-path="url(#4fc51140d1)"><path fill="#0b0444" d="M 99.890625 278.71875 L 137.644531 95.839844 L 147.554688 97.878906 L 109.800781 280.753906 Z M 99.890625 278.71875 " fill-opacity="1" fill-rule="nonzero"/></g><g clip-path="url(#6428399a4a)"><path fill="#0b0444" d="M 145.832031 122.015625 C 145.832031 122.5 145.914062 122.976562 146.066406 123.445312 L 146.066406 129.648438 C 144.996094 129.890625 144.191406 130.84375 144.191406 131.980469 L 144.191406 132.347656 C 144.191406 133.488281 144.996094 134.441406 146.066406 134.679688 L 146.066406 165.71875 C 144.996094 165.957031 144.191406 166.914062 144.191406 168.050781 L 144.191406 168.417969 C 144.191406 169.554688 144.996094 170.511719 146.066406 170.75 L 146.066406 201.785156 C 144.996094 202.027344 144.191406 202.980469 144.191406 204.121094 L 144.191406 204.484375 C 144.191406 205.625 144.996094 206.578125 146.066406 206.820312 L 146.066406 237.855469 C 144.996094 238.09375 144.191406 239.050781 144.191406 240.1875 L 144.191406 240.554688 C 144.191406 241.691406 144.996094 242.648438 146.066406 242.886719 L 146.066406 255.90625 C 146.066406 259.09375 148.464844 261.722656 151.558594 262.101562 L 138.929688 262.101562 L 138.929688 279.886719 L 275.292969 279.886719 L 275.292969 262.101562 L 262.664062 262.101562 C 265.757812 261.722656 268.15625 259.09375 268.15625 255.90625 L 268.15625 242.886719 C 269.226562 242.648438 270.035156 241.691406 270.035156 240.554688 L 270.035156 240.1875 C 270.035156 239.050781 269.226562 238.09375 268.15625 237.855469 L 268.15625 206.820312 C 269.226562 206.578125 270.035156 205.625 270.035156 204.484375 L 270.035156 204.121094 C 270.035156 202.980469 269.226562 202.027344 268.15625 201.785156 L 268.15625 170.75 C 269.226562 170.511719 270.035156 169.554688 270.035156 168.417969 L 270.035156 168.050781 C 270.035156 166.914062 269.226562 165.957031 268.15625 165.71875 L 268.15625 134.679688 C 269.226562 134.441406 270.035156 133.488281 270.035156 132.347656 L 270.035156 131.980469 C 270.035156 130.84375 269.226562 129.890625 268.15625 129.648438 L 268.15625 123.445312 C 268.308594 122.976562 268.390625 122.5 268.390625 122.015625 C 268.390625 116.40625 257.859375 111.457031 241.800781 108.5 L 241.800781 100.160156 C 242.984375 99.78125 243.855469 98.679688 243.855469 97.378906 L 243.855469 96.925781 C 243.855469 95.3125 242.53125 93.988281 240.910156 93.988281 L 173.3125 93.988281 C 171.691406 93.988281 170.367188 95.3125 170.367188 96.925781 L 170.367188 97.378906 C 170.367188 98.679688 171.238281 99.78125 172.421875 100.160156 L 172.421875 108.5 C 156.363281 111.457031 145.832031 116.40625 145.832031 122.015625 Z M 261.894531 258.433594 L 152.328125 258.433594 C 150.933594 258.433594 149.796875 257.300781 149.796875 255.90625 L 149.796875 253.980469 C 151.796875 254.296875 155.421875 254.613281 161.34375 254.351562 C 172.394531 253.867188 186.878906 253.707031 191.335938 254.847656 C 192.390625 255.117188 194.109375 255.222656 196.195312 255.222656 C 200.726562 255.222656 207.003906 254.722656 212.011719 254.324219 C 215.175781 254.074219 217.90625 253.855469 219.132812 253.855469 C 221.015625 253.855469 225.785156 253.984375 230.835938 254.121094 C 236.601562 254.277344 242.5625 254.441406 245.257812 254.441406 C 247.722656 254.441406 250.71875 254.15625 253.890625 253.851562 C 257.34375 253.523438 260.910156 253.1875 264.425781 253.132812 L 264.425781 255.90625 C 264.425781 257.300781 263.289062 258.433594 261.894531 258.433594 Z M 173.097656 112.160156 L 176.152344 111.597656 L 176.152344 97.710938 L 238.070312 97.710938 L 238.070312 111.597656 L 241.125 112.160156 C 258.90625 115.433594 264.660156 120.214844 264.660156 122.015625 C 264.660156 122.097656 264.644531 122.191406 264.605469 122.300781 L 264.425781 122.859375 L 264.425781 252.066406 C 260.863281 252.121094 257.269531 252.460938 253.789062 252.792969 C 250.640625 253.09375 247.671875 253.378906 245.257812 253.378906 C 242.574219 253.378906 236.621094 253.214844 230.863281 253.058594 C 225.808594 252.921875 221.03125 252.792969 219.132812 252.792969 C 217.863281 252.792969 215.242188 253 211.925781 253.265625 C 204.6875 253.839844 194.777344 254.628906 191.601562 253.816406 C 187.03125 252.648438 172.417969 252.804688 161.296875 253.289062 C 155.28125 253.554688 151.679688 253.207031 149.796875 252.898438 L 149.796875 122.863281 L 149.617188 122.308594 C 149.582031 122.195312 149.5625 122.09375 149.5625 122.015625 C 149.5625 120.214844 155.316406 115.433594 173.097656 112.160156 Z M 173.097656 112.160156 " fill-opacity="1" fill-rule="nonzero"/></g><path fill="#0b0444" d="M 174.390625 248.6875 C 175.648438 249.757812 177.1875 250.285156 178.722656 250.285156 C 180.597656 250.285156 182.464844 249.496094 183.78125 247.960938 L 201.402344 227.4375 C 202.714844 225.910156 203.261719 223.875 202.890625 221.898438 L 201.269531 213.25 L 189.109375 204.734375 C 187.941406 204.332031 186.832031 203.503906 185.722656 202.570312 L 189.214844 221.210938 L 173.664062 239.320312 C 171.273438 242.105469 171.597656 246.300781 174.390625 248.6875 Z M 174.390625 248.6875 " fill-opacity="1" fill-rule="nonzero"/><path fill="#0b0444" d="M 251.019531 154.023438 L 235.28125 171.730469 L 217.59375 165.09375 C 214.3125 163.40625 209.699219 163.113281 204.800781 165.875 C 194.960938 171.503906 189.738281 176.214844 182.925781 185.964844 C 178.488281 193.472656 182.304688 198.019531 186 201.199219 C 187.386719 202.394531 188.53125 203.289062 189.664062 203.628906 L 211.75 219.089844 L 222.972656 246.367188 C 224.03125 248.933594 226.515625 250.488281 229.136719 250.488281 C 229.980469 250.488281 230.835938 250.328125 231.664062 249.988281 C 235.066406 248.59375 236.691406 244.714844 235.296875 241.320312 L 223.328125 212.246094 C 222.847656 211.070312 222.035156 210.058594 220.996094 209.328125 L 200.167969 194.75 C 203.171875 191.511719 206.675781 188.578125 210.011719 185.980469 L 205.5625 176.996094 C 204.914062 175.6875 204.816406 174.203125 205.285156 172.816406 C 205.753906 171.433594 206.738281 170.3125 208.050781 169.664062 C 208.816406 169.289062 209.632812 169.097656 210.480469 169.097656 C 212.585938 169.097656 214.472656 170.265625 215.402344 172.148438 L 218.859375 179.125 C 219.890625 178.0625 220.738281 176.847656 221.324219 175.578125 L 235.023438 180.71875 C 235.511719 180.902344 236.019531 180.988281 236.523438 180.988281 C 237.71875 180.988281 238.886719 180.488281 239.714844 179.558594 L 253.179688 164.40625 L 253.179688 166.800781 C 253.179688 167.910156 257.226562 167.910156 257.226562 166.800781 L 257.226562 166.746094 L 261.613281 167.609375 L 261.613281 151.832031 L 260.671875 150.941406 L 261.613281 150.101562 L 261.613281 147.15625 L 257.226562 148.019531 L 257.226562 147.964844 C 257.226562 146.855469 253.179688 146.855469 253.179688 147.964844 L 253.179688 152.71875 C 252.371094 152.917969 251.613281 153.355469 251.019531 154.023438 Z M 261.082031 149.863281 L 259.882812 150.929688 L 261.082031 152.058594 L 261.082031 166.964844 L 257.226562 166.207031 L 257.226562 148.558594 L 261.082031 147.800781 Z M 261.082031 149.863281 " fill-opacity="1" fill-rule="nonzero"/><path fill="#0b0444" d="M 216.515625 196.347656 C 216.957031 197.242188 217.699219 197.949219 218.609375 198.351562 L 242.1875 208.769531 C 242.75 209.015625 243.335938 209.132812 243.914062 209.132812 C 245.546875 209.132812 247.105469 208.1875 247.8125 206.601562 C 248.765625 204.453125 247.792969 201.941406 245.640625 200.992188 L 223.472656 191.203125 L 214.304688 172.691406 C 213.261719 170.585938 210.703125 169.71875 208.59375 170.761719 C 206.484375 171.800781 205.621094 174.351562 206.664062 176.457031 Z M 216.515625 196.347656 " fill-opacity="1" fill-rule="nonzero"/><path fill="#0b0444" d="M 256.78125 172.144531 C 258.347656 172.066406 259.390625 170.886719 259.433594 170.835938 C 259.625 170.617188 259.601562 170.28125 259.378906 170.089844 C 259.160156 169.898438 258.824219 169.921875 258.628906 170.140625 C 258.621094 170.148438 257.828125 171.03125 256.71875 171.082031 C 256.007812 171.117188 255.292969 170.800781 254.597656 170.144531 C 254.382812 169.941406 254.042969 169.949219 253.84375 170.164062 C 253.640625 170.378906 253.652344 170.714844 253.863281 170.914062 C 254.734375 171.734375 255.65625 172.148438 256.613281 172.148438 C 256.667969 172.148438 256.722656 172.148438 256.78125 172.144531 Z M 256.78125 172.144531 " fill-opacity="1" fill-rule="nonzero"/><path fill="#0b0444" d="M 259.820312 172.382812 C 259.808594 172.394531 258.476562 173.738281 256.648438 173.742188 C 256.644531 173.742188 256.644531 173.742188 256.640625 173.742188 C 255.449219 173.742188 254.28125 173.171875 253.179688 172.046875 C 252.972656 171.839844 252.636719 171.835938 252.425781 172.039062 C 252.214844 172.246094 252.210938 172.582031 252.417969 172.792969 C 253.730469 174.128906 255.148438 174.804688 256.640625 174.804688 C 256.648438 174.804688 256.65625 174.804688 256.664062 174.804688 C 258.945312 174.796875 260.519531 173.191406 260.585938 173.121094 C 260.792969 172.910156 260.785156 172.574219 260.574219 172.371094 C 260.363281 172.167969 260.023438 172.171875 259.820312 172.382812 Z M 259.820312 172.382812 " fill-opacity="1" fill-rule="nonzero"/><path fill="#0b0444" d="M 253.316406 144.074219 C 253.125 144.296875 253.148438 144.628906 253.371094 144.824219 C 253.46875 144.910156 253.59375 144.953125 253.71875 144.953125 C 253.867188 144.953125 254.015625 144.890625 254.121094 144.773438 C 254.128906 144.765625 254.921875 143.878906 256.03125 143.828125 C 256.742188 143.796875 257.457031 144.113281 258.152344 144.769531 C 258.367188 144.96875 258.703125 144.960938 258.90625 144.746094 C 259.109375 144.535156 259.097656 144.199219 258.882812 143.996094 C 257.964844 143.128906 256.972656 142.71875 255.96875 142.769531 C 254.398438 142.847656 253.359375 144.027344 253.316406 144.074219 Z M 253.316406 144.074219 " fill-opacity="1" fill-rule="nonzero"/><path fill="#0b0444" d="M 252.925781 142.53125 C 252.941406 142.515625 254.273438 141.171875 256.101562 141.171875 C 256.101562 141.171875 256.105469 141.171875 256.105469 141.171875 C 257.300781 141.171875 258.464844 141.742188 259.570312 142.863281 C 259.675781 142.972656 259.8125 143.023438 259.949219 143.023438 C 260.085938 143.023438 260.21875 142.972656 260.324219 142.871094 C 260.535156 142.667969 260.539062 142.332031 260.332031 142.121094 C 259.019531 140.785156 257.597656 140.109375 256.105469 140.109375 C 256.097656 140.109375 256.09375 140.109375 256.085938 140.109375 C 253.804688 140.117188 252.226562 141.722656 252.160156 141.789062 C 251.957031 142 251.964844 142.335938 252.175781 142.539062 C 252.386719 142.746094 252.722656 142.738281 252.925781 142.53125 Z M 252.925781 142.53125 " fill-opacity="1" fill-rule="nonzero"/><path fill="#0b0444" d="M 221.351562 163.996094 C 227.589844 166.210938 234.445312 162.964844 236.664062 156.742188 C 237.128906 155.449219 237.347656 154.128906 237.359375 152.832031 L 213.828125 149.53125 C 212.152344 155.523438 215.386719 161.878906 221.351562 163.996094 Z M 221.351562 163.996094 " fill-opacity="1" fill-rule="nonzero"/><path fill="#0b0444" d="M 237.796875 151.65625 C 238.703125 151.785156 239.550781 151.148438 239.679688 150.242188 C 239.804688 149.339844 239.167969 148.496094 238.261719 148.367188 L 237.523438 148.265625 C 237.671875 142.472656 233.445312 137.363281 227.554688 136.535156 C 221.664062 135.710938 216.1875 139.457031 214.730469 145.066406 L 213.992188 144.964844 C 213.085938 144.835938 212.242188 145.472656 212.113281 146.378906 C 211.984375 147.28125 212.625 148.125 213.53125 148.253906 Z M 237.796875 151.65625 " fill-opacity="1" fill-rule="nonzero"/></svg>