<svg xmlns="http://www.w3.org/2000/svg" xmlns:xlink="http://www.w3.org/1999/xlink" width="500" zoomAndPan="magnify" viewBox="0 0 375 374.999991" height="500" preserveAspectRatio="xMidYMid meet" version="1.0"><defs><clipPath id="5e3d4adc02"><path d="M 0 23.164062 L 375 23.164062 L 375 352 L 0 352 Z M 0 23.164062 " clip-rule="nonzero"/></clipPath><clipPath id="2d26fb6b76"><path d="M 280.683594 23.164062 L 94.316406 23.164062 L 0 187.5 L 94.316406 351.835938 L 280.683594 351.835938 L 375 187.5 L 280.683594 23.164062 M 275.554688 342.933594 L 99.445312 342.933594 L 10.261719 187.5 L 99.445312 32.066406 L 275.554688 32.066406 L 364.738281 187.5 L 275.554688 342.933594 " clip-rule="nonzero"/></clipPath><clipPath id="6963cb6e9e"><path d="M 104 116.210938 L 276.886719 116.210938 L 276.886719 258.710938 L 104 258.710938 Z M 104 116.210938 " clip-rule="nonzero"/></clipPath><clipPath id="b2ce7d93a2"><path d="M 98.386719 181 L 146 181 L 146 194 L 98.386719 194 Z M 98.386719 181 " clip-rule="nonzero"/></clipPath></defs><rect x="-37.5" width="450" fill="#ffffff" y="-37.499999" height="449.999989" fill-opacity="1"/><rect x="-37.5" width="450" fill="#ffffff" y="-37.499999" height="449.999989" fill-opacity="1"/><rect x="-37.5" width="450" fill="#ffffff" y="-37.499999" height="449.999989" fill-opacity="1"/><g clip-path="url(#5e3d4adc02)"><g clip-path="url(#2d26fb6b76)"><path fill="#000000" d="M 0 23.164062 L 375 23.164062 L 375 352.136719 L 0 352.136719 Z M 0 23.164062 " fill-opacity="1" fill-rule="nonzero"/></g></g><path fill="#0b0444" d="M 264.984375 131.054688 C 266.625 131.054688 267.960938 129.722656 267.960938 128.085938 C 267.960938 126.449219 266.625 125.117188 264.984375 125.117188 C 263.347656 125.117188 262.011719 126.449219 262.011719 128.085938 C 262.011719 129.722656 263.347656 131.054688 264.984375 131.054688 " fill-opacity="1" fill-rule="nonzero"/><path fill="#0b0444" d="M 264.984375 249.804688 C 266.625 249.804688 267.960938 248.472656 267.960938 246.835938 C 267.960938 245.199219 266.625 243.867188 264.984375 243.867188 C 263.347656 243.867188 262.011719 245.199219 262.011719 246.835938 C 262.011719 248.472656 263.347656 249.804688 264.984375 249.804688 " fill-opacity="1" fill-rule="nonzero"/><path fill="#0b0444" d="M 259.035156 131.054688 C 257.398438 131.054688 256.0625 132.386719 256.0625 134.023438 C 256.0625 135.660156 257.398438 136.992188 259.035156 136.992188 C 260.675781 136.992188 262.011719 135.660156 262.011719 134.023438 C 262.011719 132.386719 260.675781 131.054688 259.035156 131.054688 " fill-opacity="1" fill-rule="nonzero"/><path fill="#0b0444" d="M 259.035156 237.929688 C 257.398438 237.929688 256.0625 239.261719 256.0625 240.898438 C 256.0625 242.535156 257.398438 243.867188 259.035156 243.867188 C 260.675781 243.867188 262.011719 242.535156 262.011719 240.898438 C 262.011719 239.261719 260.675781 237.929688 259.035156 237.929688 " fill-opacity="1" fill-rule="nonzero"/><path fill="#0b0444" d="M 253.085938 125.117188 C 251.449219 125.117188 250.109375 126.449219 250.109375 128.085938 C 250.109375 129.722656 251.449219 131.054688 253.085938 131.054688 C 254.726562 131.054688 256.0625 129.722656 256.0625 128.085938 C 256.0625 126.449219 254.726562 125.117188 253.085938 125.117188 " fill-opacity="1" fill-rule="nonzero"/><path fill="#0b0444" d="M 253.085938 249.804688 C 254.726562 249.804688 256.0625 248.472656 256.0625 246.835938 C 256.0625 245.199219 254.726562 243.867188 253.085938 243.867188 C 251.449219 243.867188 250.109375 245.199219 250.109375 246.835938 C 250.109375 248.472656 251.449219 249.804688 253.085938 249.804688 " fill-opacity="1" fill-rule="nonzero"/><path fill="#0b0444" d="M 247.136719 131.054688 C 245.496094 131.054688 244.160156 132.386719 244.160156 134.023438 C 244.160156 135.660156 245.496094 136.992188 247.136719 136.992188 C 248.773438 136.992188 250.109375 135.660156 250.109375 134.023438 C 250.109375 132.386719 248.773438 131.054688 247.136719 131.054688 " fill-opacity="1" fill-rule="nonzero"/><path fill="#0b0444" d="M 247.136719 237.929688 C 245.496094 237.929688 244.160156 239.261719 244.160156 240.898438 C 244.160156 242.535156 245.496094 243.867188 247.136719 243.867188 C 248.773438 243.867188 250.109375 242.535156 250.109375 240.898438 C 250.109375 239.261719 248.773438 237.929688 247.136719 237.929688 " fill-opacity="1" fill-rule="nonzero"/><path fill="#0b0444" d="M 241.1875 125.117188 C 239.546875 125.117188 238.210938 126.449219 238.210938 128.085938 C 238.210938 129.722656 239.546875 131.054688 241.1875 131.054688 C 242.824219 131.054688 244.160156 129.722656 244.160156 128.085938 C 244.160156 126.449219 242.824219 125.117188 241.1875 125.117188 " fill-opacity="1" fill-rule="nonzero"/><path fill="#0b0444" d="M 241.1875 249.804688 C 242.824219 249.804688 244.160156 248.472656 244.160156 246.835938 C 244.160156 245.199219 242.824219 243.867188 241.1875 243.867188 C 239.546875 243.867188 238.210938 245.199219 238.210938 246.835938 C 238.210938 248.472656 239.546875 249.804688 241.1875 249.804688 " fill-opacity="1" fill-rule="nonzero"/><path fill="#0b0444" d="M 235.238281 131.054688 C 233.597656 131.054688 232.261719 132.386719 232.261719 134.023438 C 232.261719 135.660156 233.597656 136.992188 235.238281 136.992188 C 236.875 136.992188 238.210938 135.660156 238.210938 134.023438 C 238.210938 132.386719 236.875 131.054688 235.238281 131.054688 " fill-opacity="1" fill-rule="nonzero"/><path fill="#0b0444" d="M 235.238281 237.929688 C 233.597656 237.929688 232.261719 239.261719 232.261719 240.898438 C 232.261719 242.535156 233.597656 243.867188 235.238281 243.867188 C 236.875 243.867188 238.210938 242.535156 238.210938 240.898438 C 238.210938 239.261719 236.875 237.929688 235.238281 237.929688 " fill-opacity="1" fill-rule="nonzero"/><path fill="#0b0444" d="M 229.285156 125.117188 C 227.648438 125.117188 226.3125 126.449219 226.3125 128.085938 C 226.3125 129.722656 227.648438 131.054688 229.285156 131.054688 C 230.925781 131.054688 232.261719 129.722656 232.261719 128.085938 C 232.261719 126.449219 230.925781 125.117188 229.285156 125.117188 " fill-opacity="1" fill-rule="nonzero"/><path fill="#0b0444" d="M 229.285156 249.804688 C 230.925781 249.804688 232.261719 248.472656 232.261719 246.835938 C 232.261719 245.199219 230.925781 243.867188 229.285156 243.867188 C 227.648438 243.867188 226.3125 245.199219 226.3125 246.835938 C 226.3125 248.472656 227.648438 249.804688 229.285156 249.804688 " fill-opacity="1" fill-rule="nonzero"/><path fill="#0b0444" d="M 223.335938 131.054688 C 221.699219 131.054688 220.363281 132.386719 220.363281 134.023438 C 220.363281 135.660156 221.699219 136.992188 223.335938 136.992188 C 224.976562 136.992188 226.3125 135.660156 226.3125 134.023438 C 226.3125 132.386719 224.976562 131.054688 223.335938 131.054688 " fill-opacity="1" fill-rule="nonzero"/><path fill="#0b0444" d="M 223.335938 237.929688 C 221.699219 237.929688 220.363281 239.261719 220.363281 240.898438 C 220.363281 242.535156 221.699219 243.867188 223.335938 243.867188 C 224.976562 243.867188 226.3125 242.535156 226.3125 240.898438 C 226.3125 239.261719 224.976562 237.929688 223.335938 237.929688 " fill-opacity="1" fill-rule="nonzero"/><path fill="#0b0444" d="M 217.386719 125.117188 C 215.75 125.117188 214.414062 126.449219 214.414062 128.085938 C 214.414062 129.722656 215.75 131.054688 217.386719 131.054688 C 219.027344 131.054688 220.363281 129.722656 220.363281 128.085938 C 220.363281 126.449219 219.027344 125.117188 217.386719 125.117188 " fill-opacity="1" fill-rule="nonzero"/><path fill="#0b0444" d="M 217.386719 249.804688 C 219.027344 249.804688 220.363281 248.472656 220.363281 246.835938 C 220.363281 245.199219 219.027344 243.867188 217.386719 243.867188 C 215.75 243.867188 214.414062 245.199219 214.414062 246.835938 C 214.414062 248.472656 215.75 249.804688 217.386719 249.804688 " fill-opacity="1" fill-rule="nonzero"/><path fill="#0b0444" d="M 211.4375 131.054688 C 209.800781 131.054688 208.460938 132.386719 208.460938 134.023438 C 208.460938 135.660156 209.800781 136.992188 211.4375 136.992188 C 213.074219 136.992188 214.414062 135.660156 214.414062 134.023438 C 214.414062 132.386719 213.074219 131.054688 211.4375 131.054688 " fill-opacity="1" fill-rule="nonzero"/><path fill="#0b0444" d="M 211.4375 237.929688 C 209.800781 237.929688 208.460938 239.261719 208.460938 240.898438 C 208.460938 242.535156 209.800781 243.867188 211.4375 243.867188 C 213.074219 243.867188 214.414062 242.535156 214.414062 240.898438 C 214.414062 239.261719 213.074219 237.929688 211.4375 237.929688 " fill-opacity="1" fill-rule="nonzero"/><path fill="#0b0444" d="M 205.488281 125.117188 C 203.847656 125.117188 202.511719 126.449219 202.511719 128.085938 C 202.511719 129.722656 203.847656 131.054688 205.488281 131.054688 C 207.125 131.054688 208.460938 129.722656 208.460938 128.085938 C 208.460938 126.449219 207.125 125.117188 205.488281 125.117188 " fill-opacity="1" fill-rule="nonzero"/><path fill="#0b0444" d="M 205.488281 249.804688 C 207.125 249.804688 208.460938 248.472656 208.460938 246.835938 C 208.460938 245.199219 207.125 243.867188 205.488281 243.867188 C 203.847656 243.867188 202.511719 245.199219 202.511719 246.835938 C 202.511719 248.472656 203.847656 249.804688 205.488281 249.804688 " fill-opacity="1" fill-rule="nonzero"/><path fill="#0b0444" d="M 199.539062 131.054688 C 197.898438 131.054688 196.5625 132.386719 196.5625 134.023438 C 196.5625 135.660156 197.898438 136.992188 199.539062 136.992188 C 201.175781 136.992188 202.511719 135.660156 202.511719 134.023438 C 202.511719 132.386719 201.175781 131.054688 199.539062 131.054688 " fill-opacity="1" fill-rule="nonzero"/><path fill="#0b0444" d="M 199.539062 237.929688 C 197.898438 237.929688 196.5625 239.261719 196.5625 240.898438 C 196.5625 242.535156 197.898438 243.867188 199.539062 243.867188 C 201.175781 243.867188 202.511719 242.535156 202.511719 240.898438 C 202.511719 239.261719 201.175781 237.929688 199.539062 237.929688 " fill-opacity="1" fill-rule="nonzero"/><path fill="#0b0444" d="M 193.589844 125.117188 C 191.949219 125.117188 190.613281 126.449219 190.613281 128.085938 C 190.613281 129.722656 191.949219 131.054688 193.589844 131.054688 C 195.226562 131.054688 196.5625 129.722656 196.5625 128.085938 C 196.5625 126.449219 195.226562 125.117188 193.589844 125.117188 " fill-opacity="1" fill-rule="nonzero"/><path fill="#0b0444" d="M 193.589844 249.804688 C 195.226562 249.804688 196.5625 248.472656 196.5625 246.835938 C 196.5625 245.199219 195.226562 243.867188 193.589844 243.867188 C 191.949219 243.867188 190.613281 245.199219 190.613281 246.835938 C 190.613281 248.472656 191.949219 249.804688 193.589844 249.804688 " fill-opacity="1" fill-rule="nonzero"/><path fill="#0b0444" d="M 187.636719 131.054688 C 186 131.054688 184.664062 132.386719 184.664062 134.023438 C 184.664062 135.660156 186 136.992188 187.636719 136.992188 C 189.277344 136.992188 190.613281 135.660156 190.613281 134.023438 C 190.613281 132.386719 189.277344 131.054688 187.636719 131.054688 " fill-opacity="1" fill-rule="nonzero"/><path fill="#0b0444" d="M 187.636719 237.929688 C 186 237.929688 184.664062 239.261719 184.664062 240.898438 C 184.664062 242.535156 186 243.867188 187.636719 243.867188 C 189.277344 243.867188 190.613281 242.535156 190.613281 240.898438 C 190.613281 239.261719 189.277344 237.929688 187.636719 237.929688 " fill-opacity="1" fill-rule="nonzero"/><path fill="#0b0444" d="M 181.6875 125.117188 C 180.050781 125.117188 178.714844 126.449219 178.714844 128.085938 C 178.714844 129.09375 179.25 130.011719 180.027344 130.554688 C 180.503906 130.878906 181.0625 131.054688 181.6875 131.054688 C 183.328125 131.054688 184.664062 129.722656 184.664062 128.085938 C 184.664062 126.449219 183.328125 125.117188 181.6875 125.117188 " fill-opacity="1" fill-rule="nonzero"/><path fill="#0b0444" d="M 181.6875 249.804688 C 183.328125 249.804688 184.664062 248.472656 184.664062 246.835938 C 184.664062 245.199219 183.328125 243.867188 181.6875 243.867188 C 180.050781 243.867188 178.714844 245.199219 178.714844 246.835938 C 178.714844 248.472656 180.050781 249.804688 181.6875 249.804688 " fill-opacity="1" fill-rule="nonzero"/><path fill="#0b0444" d="M 175.738281 136.992188 C 177.378906 136.992188 178.714844 135.660156 178.714844 134.023438 C 178.714844 132.386719 177.378906 131.054688 175.738281 131.054688 C 174.101562 131.054688 172.765625 132.386719 172.765625 134.023438 C 172.765625 135.660156 174.101562 136.992188 175.738281 136.992188 " fill-opacity="1" fill-rule="nonzero"/><path fill="#0b0444" d="M 175.738281 237.929688 C 174.101562 237.929688 172.765625 239.261719 172.765625 240.898438 C 172.765625 241.90625 173.296875 242.824219 174.078125 243.367188 C 174.554688 243.691406 175.109375 243.867188 175.738281 243.867188 C 177.378906 243.867188 178.714844 242.535156 178.714844 240.898438 C 178.714844 239.261719 177.378906 237.929688 175.738281 237.929688 " fill-opacity="1" fill-rule="nonzero"/><path fill="#0b0444" d="M 169.789062 125.117188 C 168.148438 125.117188 166.8125 126.449219 166.8125 128.085938 C 166.8125 129.722656 168.148438 131.054688 169.789062 131.054688 C 171.425781 131.054688 172.765625 129.722656 172.765625 128.085938 C 172.765625 126.449219 171.425781 125.117188 169.789062 125.117188 " fill-opacity="1" fill-rule="nonzero"/><path fill="#0b0444" d="M 168.128906 249.304688 C 168.605469 249.628906 169.160156 249.804688 169.789062 249.804688 C 171.425781 249.804688 172.765625 248.472656 172.765625 246.835938 C 172.765625 245.199219 171.425781 243.867188 169.789062 243.867188 C 168.148438 243.867188 166.8125 245.199219 166.8125 246.835938 C 166.8125 247.84375 167.347656 248.761719 168.128906 249.304688 " fill-opacity="1" fill-rule="nonzero"/><path fill="#0b0444" d="M 163.839844 136.992188 C 165.476562 136.992188 166.8125 135.660156 166.8125 134.023438 C 166.8125 132.386719 165.476562 131.054688 163.839844 131.054688 C 162.199219 131.054688 160.863281 132.386719 160.863281 134.023438 C 160.863281 135.660156 162.199219 136.992188 163.839844 136.992188 " fill-opacity="1" fill-rule="nonzero"/><path fill="#0b0444" d="M 163.839844 237.929688 C 162.199219 237.929688 160.863281 239.261719 160.863281 240.898438 C 160.863281 242.535156 162.199219 243.867188 163.839844 243.867188 C 165.476562 243.867188 166.8125 242.535156 166.8125 240.898438 C 166.8125 239.261719 165.476562 237.929688 163.839844 237.929688 " fill-opacity="1" fill-rule="nonzero"/><path fill="#0b0444" d="M 157.890625 125.117188 C 156.25 125.117188 154.914062 126.449219 154.914062 128.085938 C 154.914062 129.722656 156.25 131.054688 157.890625 131.054688 C 159.527344 131.054688 160.863281 129.722656 160.863281 128.085938 C 160.863281 126.449219 159.527344 125.117188 157.890625 125.117188 " fill-opacity="1" fill-rule="nonzero"/><path fill="#0b0444" d="M 157.890625 249.804688 C 159.527344 249.804688 160.863281 248.472656 160.863281 246.835938 C 160.863281 245.199219 159.527344 243.867188 157.890625 243.867188 C 156.25 243.867188 154.914062 245.199219 154.914062 246.835938 C 154.914062 248.472656 156.25 249.804688 157.890625 249.804688 " fill-opacity="1" fill-rule="nonzero"/><path fill="#0b0444" d="M 151.941406 131.054688 C 150.300781 131.054688 148.964844 132.386719 148.964844 134.023438 C 148.964844 135.660156 150.300781 136.992188 151.941406 136.992188 C 153.578125 136.992188 154.914062 135.660156 154.914062 134.023438 C 154.914062 132.386719 153.578125 131.054688 151.941406 131.054688 " fill-opacity="1" fill-rule="nonzero"/><path fill="#0b0444" d="M 151.941406 243.867188 C 153.578125 243.867188 154.914062 242.535156 154.914062 240.898438 C 154.914062 239.261719 153.578125 237.929688 151.941406 237.929688 C 150.300781 237.929688 148.964844 239.261719 148.964844 240.898438 C 148.964844 242.535156 150.300781 243.867188 151.941406 243.867188 " fill-opacity="1" fill-rule="nonzero"/><path fill="#0b0444" d="M 145.988281 125.117188 C 144.351562 125.117188 143.015625 126.449219 143.015625 128.085938 C 143.015625 129.722656 144.351562 131.054688 145.988281 131.054688 C 147.628906 131.054688 148.964844 129.722656 148.964844 128.085938 C 148.964844 126.449219 147.628906 125.117188 145.988281 125.117188 " fill-opacity="1" fill-rule="nonzero"/><path fill="#0b0444" d="M 145.988281 142.929688 C 147.628906 142.929688 148.964844 141.597656 148.964844 139.960938 C 148.964844 138.324219 147.628906 136.992188 145.988281 136.992188 C 144.351562 136.992188 143.015625 138.324219 143.015625 139.960938 C 143.015625 141.597656 144.351562 142.929688 145.988281 142.929688 " fill-opacity="1" fill-rule="nonzero"/><path fill="#0b0444" d="M 145.988281 154.804688 C 147.628906 154.804688 148.964844 153.472656 148.964844 151.835938 C 148.964844 150.199219 147.628906 148.867188 145.988281 148.867188 C 144.351562 148.867188 143.015625 150.199219 143.015625 151.835938 C 143.015625 153.472656 144.351562 154.804688 145.988281 154.804688 " fill-opacity="1" fill-rule="nonzero"/><path fill="#0b0444" d="M 145.988281 166.679688 C 147.628906 166.679688 148.964844 165.347656 148.964844 163.710938 C 148.964844 162.074219 147.628906 160.742188 145.988281 160.742188 C 144.351562 160.742188 143.015625 162.074219 143.015625 163.710938 C 143.015625 165.347656 144.351562 166.679688 145.988281 166.679688 " fill-opacity="1" fill-rule="nonzero"/><path fill="#0b0444" d="M 143.015625 211.210938 C 143.015625 212.847656 144.351562 214.179688 145.988281 214.179688 C 147.628906 214.179688 148.964844 212.847656 148.964844 211.210938 C 148.964844 209.574219 147.628906 208.242188 145.988281 208.242188 C 144.351562 208.242188 143.015625 209.574219 143.015625 211.210938 " fill-opacity="1" fill-rule="nonzero"/><path fill="#0b0444" d="M 145.988281 220.117188 C 144.351562 220.117188 143.015625 221.449219 143.015625 223.085938 C 143.015625 224.722656 144.351562 226.054688 145.988281 226.054688 C 147.628906 226.054688 148.964844 224.722656 148.964844 223.085938 C 148.964844 221.449219 147.628906 220.117188 145.988281 220.117188 " fill-opacity="1" fill-rule="nonzero"/><path fill="#0b0444" d="M 145.988281 231.992188 C 144.351562 231.992188 143.015625 233.324219 143.015625 234.960938 C 143.015625 236.597656 144.351562 237.929688 145.988281 237.929688 C 147.628906 237.929688 148.964844 236.597656 148.964844 234.960938 C 148.964844 233.324219 147.628906 231.992188 145.988281 231.992188 " fill-opacity="1" fill-rule="nonzero"/><path fill="#0b0444" d="M 145.988281 249.804688 C 147.628906 249.804688 148.964844 248.472656 148.964844 246.835938 C 148.964844 245.199219 147.628906 243.867188 145.988281 243.867188 C 144.351562 243.867188 143.015625 245.199219 143.015625 246.835938 C 143.015625 248.472656 144.351562 249.804688 145.988281 249.804688 " fill-opacity="1" fill-rule="nonzero"/><path fill="#0b0444" d="M 140.039062 131.054688 C 138.402344 131.054688 137.066406 132.386719 137.066406 134.023438 C 137.066406 135.660156 138.402344 136.992188 140.039062 136.992188 C 141.679688 136.992188 143.015625 135.660156 143.015625 134.023438 C 143.015625 132.386719 141.679688 131.054688 140.039062 131.054688 " fill-opacity="1" fill-rule="nonzero"/><path fill="#0b0444" d="M 140.039062 142.929688 C 138.402344 142.929688 137.066406 144.261719 137.066406 145.898438 C 137.066406 147.535156 138.402344 148.867188 140.039062 148.867188 C 141.679688 148.867188 143.015625 147.535156 143.015625 145.898438 C 143.015625 144.261719 141.679688 142.929688 140.039062 142.929688 " fill-opacity="1" fill-rule="nonzero"/><path fill="#0b0444" d="M 140.039062 154.804688 C 138.402344 154.804688 137.066406 156.136719 137.066406 157.773438 C 137.066406 159.410156 138.402344 160.742188 140.039062 160.742188 C 141.679688 160.742188 143.015625 159.410156 143.015625 157.773438 C 143.015625 156.136719 141.679688 154.804688 140.039062 154.804688 " fill-opacity="1" fill-rule="nonzero"/><path fill="#0b0444" d="M 140.039062 172.617188 C 141.679688 172.617188 143.015625 171.285156 143.015625 169.648438 C 143.015625 168.011719 141.679688 166.679688 140.039062 166.679688 C 138.402344 166.679688 137.066406 168.011719 137.066406 169.648438 C 137.066406 171.285156 138.402344 172.617188 140.039062 172.617188 " fill-opacity="1" fill-rule="nonzero"/><path fill="#0b0444" d="M 140.039062 202.304688 C 138.402344 202.304688 137.066406 203.636719 137.066406 205.273438 C 137.066406 206.910156 138.402344 208.242188 140.039062 208.242188 C 141.679688 208.242188 143.015625 206.910156 143.015625 205.273438 C 143.015625 203.636719 141.679688 202.304688 140.039062 202.304688 " fill-opacity="1" fill-rule="nonzero"/><path fill="#0b0444" d="M 140.039062 220.117188 C 141.679688 220.117188 143.015625 218.785156 143.015625 217.148438 C 143.015625 215.511719 141.679688 214.179688 140.039062 214.179688 C 138.402344 214.179688 137.066406 215.511719 137.066406 217.148438 C 137.066406 218.785156 138.402344 220.117188 140.039062 220.117188 " fill-opacity="1" fill-rule="nonzero"/><path fill="#0b0444" d="M 140.039062 231.992188 C 141.679688 231.992188 143.015625 230.660156 143.015625 229.023438 C 143.015625 227.386719 141.679688 226.054688 140.039062 226.054688 C 138.402344 226.054688 137.066406 227.386719 137.066406 229.023438 C 137.066406 230.660156 138.402344 231.992188 140.039062 231.992188 " fill-opacity="1" fill-rule="nonzero"/><path fill="#0b0444" d="M 140.039062 243.867188 C 141.679688 243.867188 143.015625 242.535156 143.015625 240.898438 C 143.015625 239.261719 141.679688 237.929688 140.039062 237.929688 C 138.402344 237.929688 137.066406 239.261719 137.066406 240.898438 C 137.066406 242.535156 138.402344 243.867188 140.039062 243.867188 " fill-opacity="1" fill-rule="nonzero"/><path fill="#0b0444" d="M 134.089844 125.117188 C 132.453125 125.117188 131.113281 126.449219 131.113281 128.085938 C 131.113281 129.722656 132.453125 131.054688 134.089844 131.054688 C 135.730469 131.054688 137.066406 129.722656 137.066406 128.085938 C 137.066406 126.449219 135.730469 125.117188 134.089844 125.117188 " fill-opacity="1" fill-rule="nonzero"/><path fill="#0b0444" d="M 134.089844 142.929688 C 135.730469 142.929688 137.066406 141.597656 137.066406 139.960938 C 137.066406 138.324219 135.730469 136.992188 134.089844 136.992188 C 132.453125 136.992188 131.113281 138.324219 131.113281 139.960938 C 131.113281 141.597656 132.453125 142.929688 134.089844 142.929688 " fill-opacity="1" fill-rule="nonzero"/><path fill="#0b0444" d="M 134.089844 154.804688 C 135.730469 154.804688 137.066406 153.472656 137.066406 151.835938 C 137.066406 150.199219 135.730469 148.867188 134.089844 148.867188 C 132.453125 148.867188 131.113281 150.199219 131.113281 151.835938 C 131.113281 153.472656 132.453125 154.804688 134.089844 154.804688 " fill-opacity="1" fill-rule="nonzero"/><path fill="#0b0444" d="M 134.089844 166.679688 C 135.730469 166.679688 137.066406 165.347656 137.066406 163.710938 C 137.066406 162.074219 135.730469 160.742188 134.089844 160.742188 C 132.453125 160.742188 131.113281 162.074219 131.113281 163.710938 C 131.113281 165.347656 132.453125 166.679688 134.089844 166.679688 " fill-opacity="1" fill-rule="nonzero"/><path fill="#0b0444" d="M 134.089844 208.242188 C 132.453125 208.242188 131.113281 209.574219 131.113281 211.210938 C 131.113281 212.847656 132.453125 214.179688 134.089844 214.179688 C 135.730469 214.179688 137.066406 212.847656 137.066406 211.210938 C 137.066406 209.574219 135.730469 208.242188 134.089844 208.242188 " fill-opacity="1" fill-rule="nonzero"/><path fill="#0b0444" d="M 134.089844 220.117188 C 132.453125 220.117188 131.113281 221.449219 131.113281 223.085938 C 131.113281 224.722656 132.453125 226.054688 134.089844 226.054688 C 135.730469 226.054688 137.066406 224.722656 137.066406 223.085938 C 137.066406 221.449219 135.730469 220.117188 134.089844 220.117188 " fill-opacity="1" fill-rule="nonzero"/><path fill="#0b0444" d="M 134.089844 231.992188 C 132.453125 231.992188 131.113281 233.324219 131.113281 234.960938 C 131.113281 236.597656 132.453125 237.929688 134.089844 237.929688 C 135.730469 237.929688 137.066406 236.597656 137.066406 234.960938 C 137.066406 233.324219 135.730469 231.992188 134.089844 231.992188 " fill-opacity="1" fill-rule="nonzero"/><path fill="#0b0444" d="M 134.089844 249.804688 C 135.730469 249.804688 137.066406 248.472656 137.066406 246.835938 C 137.066406 245.199219 135.730469 243.867188 134.089844 243.867188 C 132.453125 243.867188 131.113281 245.199219 131.113281 246.835938 C 131.113281 248.472656 132.453125 249.804688 134.089844 249.804688 " fill-opacity="1" fill-rule="nonzero"/><path fill="#0b0444" d="M 128.140625 131.054688 C 126.5 131.054688 125.164062 132.386719 125.164062 134.023438 C 125.164062 135.660156 126.5 136.992188 128.140625 136.992188 C 129.777344 136.992188 131.113281 135.660156 131.113281 134.023438 C 131.113281 132.386719 129.777344 131.054688 128.140625 131.054688 " fill-opacity="1" fill-rule="nonzero"/><path fill="#0b0444" d="M 128.140625 142.929688 C 126.5 142.929688 125.164062 144.261719 125.164062 145.898438 C 125.164062 147.535156 126.5 148.867188 128.140625 148.867188 C 129.777344 148.867188 131.113281 147.535156 131.113281 145.898438 C 131.113281 144.261719 129.777344 142.929688 128.140625 142.929688 " fill-opacity="1" fill-rule="nonzero"/><path fill="#0b0444" d="M 128.140625 154.804688 C 126.5 154.804688 125.164062 156.136719 125.164062 157.773438 C 125.164062 159.410156 126.5 160.742188 128.140625 160.742188 C 129.777344 160.742188 131.113281 159.410156 131.113281 157.773438 C 131.113281 156.136719 129.777344 154.804688 128.140625 154.804688 " fill-opacity="1" fill-rule="nonzero"/><path fill="#0b0444" d="M 128.140625 172.617188 C 129.777344 172.617188 131.113281 171.285156 131.113281 169.648438 C 131.113281 168.011719 129.777344 166.679688 128.140625 166.679688 C 126.5 166.679688 125.164062 168.011719 125.164062 169.648438 C 125.164062 171.285156 126.5 172.617188 128.140625 172.617188 " fill-opacity="1" fill-rule="nonzero"/><path fill="#0b0444" d="M 128.140625 202.304688 C 126.5 202.304688 125.164062 203.636719 125.164062 205.273438 C 125.164062 206.910156 126.5 208.242188 128.140625 208.242188 C 129.777344 208.242188 131.113281 206.910156 131.113281 205.273438 C 131.113281 203.636719 129.777344 202.304688 128.140625 202.304688 " fill-opacity="1" fill-rule="nonzero"/><path fill="#0b0444" d="M 128.140625 220.117188 C 129.777344 220.117188 131.113281 218.785156 131.113281 217.148438 C 131.113281 215.511719 129.777344 214.179688 128.140625 214.179688 C 126.5 214.179688 125.164062 215.511719 125.164062 217.148438 C 125.164062 218.785156 126.5 220.117188 128.140625 220.117188 " fill-opacity="1" fill-rule="nonzero"/><path fill="#0b0444" d="M 128.140625 231.992188 C 129.777344 231.992188 131.113281 230.660156 131.113281 229.023438 C 131.113281 227.386719 129.777344 226.054688 128.140625 226.054688 C 126.5 226.054688 125.164062 227.386719 125.164062 229.023438 C 125.164062 230.660156 126.5 231.992188 128.140625 231.992188 " fill-opacity="1" fill-rule="nonzero"/><path fill="#0b0444" d="M 128.140625 243.867188 C 129.777344 243.867188 131.113281 242.535156 131.113281 240.898438 C 131.113281 239.261719 129.777344 237.929688 128.140625 237.929688 C 126.5 237.929688 125.164062 239.261719 125.164062 240.898438 C 125.164062 242.535156 126.5 243.867188 128.140625 243.867188 " fill-opacity="1" fill-rule="nonzero"/><path fill="#0b0444" d="M 122.191406 125.117188 C 120.550781 125.117188 119.214844 126.449219 119.214844 128.085938 C 119.214844 129.722656 120.550781 131.054688 122.191406 131.054688 C 123.828125 131.054688 125.164062 129.722656 125.164062 128.085938 C 125.164062 126.449219 123.828125 125.117188 122.191406 125.117188 " fill-opacity="1" fill-rule="nonzero"/><path fill="#0b0444" d="M 122.191406 142.929688 C 123.828125 142.929688 125.164062 141.597656 125.164062 139.960938 C 125.164062 138.324219 123.828125 136.992188 122.191406 136.992188 C 120.550781 136.992188 119.214844 138.324219 119.214844 139.960938 C 119.214844 141.597656 120.550781 142.929688 122.191406 142.929688 " fill-opacity="1" fill-rule="nonzero"/><path fill="#0b0444" d="M 122.191406 154.804688 C 123.828125 154.804688 125.164062 153.472656 125.164062 151.835938 C 125.164062 150.199219 123.828125 148.867188 122.191406 148.867188 C 120.550781 148.867188 119.214844 150.199219 119.214844 151.835938 C 119.214844 153.472656 120.550781 154.804688 122.191406 154.804688 " fill-opacity="1" fill-rule="nonzero"/><path fill="#0b0444" d="M 122.191406 166.679688 C 123.828125 166.679688 125.164062 165.347656 125.164062 163.710938 C 125.164062 162.074219 123.828125 160.742188 122.191406 160.742188 C 120.550781 160.742188 119.214844 162.074219 119.214844 163.710938 C 119.214844 165.347656 120.550781 166.679688 122.191406 166.679688 " fill-opacity="1" fill-rule="nonzero"/><path fill="#0b0444" d="M 122.191406 208.242188 C 120.550781 208.242188 119.214844 209.574219 119.214844 211.210938 C 119.214844 212.847656 120.550781 214.179688 122.191406 214.179688 C 123.828125 214.179688 125.164062 212.847656 125.164062 211.210938 C 125.164062 209.574219 123.828125 208.242188 122.191406 208.242188 " fill-opacity="1" fill-rule="nonzero"/><path fill="#0b0444" d="M 122.191406 220.117188 C 120.550781 220.117188 119.214844 221.449219 119.214844 223.085938 C 119.214844 224.722656 120.550781 226.054688 122.191406 226.054688 C 123.828125 226.054688 125.164062 224.722656 125.164062 223.085938 C 125.164062 221.449219 123.828125 220.117188 122.191406 220.117188 " fill-opacity="1" fill-rule="nonzero"/><path fill="#0b0444" d="M 122.191406 231.992188 C 120.550781 231.992188 119.214844 233.324219 119.214844 234.960938 C 119.214844 236.597656 120.550781 237.929688 122.191406 237.929688 C 123.828125 237.929688 125.164062 236.597656 125.164062 234.960938 C 125.164062 233.324219 123.828125 231.992188 122.191406 231.992188 " fill-opacity="1" fill-rule="nonzero"/><path fill="#0b0444" d="M 122.191406 249.804688 C 123.828125 249.804688 125.164062 248.472656 125.164062 246.835938 C 125.164062 245.199219 123.828125 243.867188 122.191406 243.867188 C 120.550781 243.867188 119.214844 245.199219 119.214844 246.835938 C 119.214844 248.472656 120.550781 249.804688 122.191406 249.804688 " fill-opacity="1" fill-rule="nonzero"/><path fill="#0b0444" d="M 116.242188 131.054688 C 114.601562 131.054688 113.265625 132.386719 113.265625 134.023438 C 113.265625 135.660156 114.601562 136.992188 116.242188 136.992188 C 117.878906 136.992188 119.214844 135.660156 119.214844 134.023438 C 119.214844 132.386719 117.878906 131.054688 116.242188 131.054688 " fill-opacity="1" fill-rule="nonzero"/><path fill="#0b0444" d="M 116.242188 148.867188 C 117.878906 148.867188 119.214844 147.535156 119.214844 145.898438 C 119.214844 144.261719 117.878906 142.929688 116.242188 142.929688 C 114.601562 142.929688 113.265625 144.261719 113.265625 145.898438 C 113.265625 147.535156 114.601562 148.867188 116.242188 148.867188 " fill-opacity="1" fill-rule="nonzero"/><path fill="#0b0444" d="M 116.242188 160.742188 C 117.878906 160.742188 119.214844 159.410156 119.214844 157.773438 C 119.214844 156.136719 117.878906 154.804688 116.242188 154.804688 C 114.601562 154.804688 113.265625 156.136719 113.265625 157.773438 C 113.265625 159.410156 114.601562 160.742188 116.242188 160.742188 " fill-opacity="1" fill-rule="nonzero"/><path fill="#0b0444" d="M 116.242188 172.617188 C 117.878906 172.617188 119.214844 171.285156 119.214844 169.648438 C 119.214844 168.011719 117.878906 166.679688 116.242188 166.679688 C 114.601562 166.679688 113.265625 168.011719 113.265625 169.648438 C 113.265625 171.285156 114.601562 172.617188 116.242188 172.617188 " fill-opacity="1" fill-rule="nonzero"/><path fill="#0b0444" d="M 116.242188 202.304688 C 114.601562 202.304688 113.265625 203.636719 113.265625 205.273438 C 113.265625 206.910156 114.601562 208.242188 116.242188 208.242188 C 117.878906 208.242188 119.214844 206.910156 119.214844 205.273438 C 119.214844 203.636719 117.878906 202.304688 116.242188 202.304688 " fill-opacity="1" fill-rule="nonzero"/><path fill="#0b0444" d="M 116.242188 220.117188 C 117.878906 220.117188 119.214844 218.785156 119.214844 217.148438 C 119.214844 215.511719 117.878906 214.179688 116.242188 214.179688 C 114.601562 214.179688 113.265625 215.511719 113.265625 217.148438 C 113.265625 218.785156 114.601562 220.117188 116.242188 220.117188 " fill-opacity="1" fill-rule="nonzero"/><path fill="#0b0444" d="M 116.242188 231.992188 C 117.878906 231.992188 119.214844 230.660156 119.214844 229.023438 C 119.214844 227.386719 117.878906 226.054688 116.242188 226.054688 C 114.601562 226.054688 113.265625 227.386719 113.265625 229.023438 C 113.265625 230.660156 114.601562 231.992188 116.242188 231.992188 " fill-opacity="1" fill-rule="nonzero"/><path fill="#0b0444" d="M 116.242188 243.867188 C 117.878906 243.867188 119.214844 242.535156 119.214844 240.898438 C 119.214844 239.261719 117.878906 237.929688 116.242188 237.929688 C 114.601562 237.929688 113.265625 239.261719 113.265625 240.898438 C 113.265625 242.535156 114.601562 243.867188 116.242188 243.867188 " fill-opacity="1" fill-rule="nonzero"/><g clip-path="url(#6963cb6e9e)"><path fill="#0b0444" d="M 273.910156 116.210938 L 107.316406 116.210938 C 105.675781 116.210938 104.339844 117.542969 104.339844 119.179688 L 104.339844 175.585938 L 110.289062 175.585938 L 110.289062 166.679688 C 111.929688 166.679688 113.265625 165.347656 113.265625 163.710938 C 113.265625 162.074219 111.929688 160.742188 110.289062 160.742188 L 110.289062 154.804688 C 111.929688 154.804688 113.265625 153.472656 113.265625 151.835938 C 113.265625 150.199219 111.929688 148.867188 110.289062 148.867188 L 110.289062 142.929688 C 111.929688 142.929688 113.265625 141.597656 113.265625 139.960938 C 113.265625 138.324219 111.929688 136.992188 110.289062 136.992188 L 110.289062 131.054688 C 111.929688 131.054688 113.265625 129.722656 113.265625 128.085938 C 113.265625 126.449219 111.929688 125.117188 110.289062 125.117188 L 110.289062 122.148438 L 113.265625 122.148438 C 113.265625 123.785156 114.601562 125.117188 116.242188 125.117188 C 117.878906 125.117188 119.214844 123.785156 119.214844 122.148438 L 125.164062 122.148438 C 125.164062 123.785156 126.5 125.117188 128.140625 125.117188 C 129.777344 125.117188 131.113281 123.785156 131.113281 122.148438 L 137.066406 122.148438 C 137.066406 123.785156 138.402344 125.117188 140.039062 125.117188 C 141.679688 125.117188 143.015625 123.785156 143.015625 122.148438 L 148.964844 122.148438 C 148.964844 123.785156 150.300781 125.117188 151.941406 125.117188 C 153.578125 125.117188 154.914062 123.785156 154.914062 122.148438 L 160.863281 122.148438 C 160.863281 123.785156 162.199219 125.117188 163.839844 125.117188 C 165.476562 125.117188 166.8125 123.785156 166.8125 122.148438 L 172.765625 122.148438 C 172.765625 123.785156 174.101562 125.117188 175.738281 125.117188 C 177.378906 125.117188 178.714844 123.785156 178.714844 122.148438 L 184.664062 122.148438 C 184.664062 123.15625 185.199219 124.074219 185.976562 124.617188 C 186.453125 124.941406 187.011719 125.117188 187.636719 125.117188 C 189.277344 125.117188 190.613281 123.785156 190.613281 122.148438 L 196.5625 122.148438 C 196.5625 123.785156 197.898438 125.117188 199.539062 125.117188 C 201.175781 125.117188 202.511719 123.785156 202.511719 122.148438 L 208.460938 122.148438 C 208.460938 123.785156 209.800781 125.117188 211.4375 125.117188 C 213.074219 125.117188 214.414062 123.785156 214.414062 122.148438 L 220.363281 122.148438 C 220.363281 123.785156 221.699219 125.117188 223.335938 125.117188 C 224.976562 125.117188 226.3125 123.785156 226.3125 122.148438 L 232.261719 122.148438 C 232.261719 123.785156 233.597656 125.117188 235.238281 125.117188 C 236.875 125.117188 238.210938 123.785156 238.210938 122.148438 L 244.160156 122.148438 C 244.160156 123.785156 245.496094 125.117188 247.136719 125.117188 C 248.773438 125.117188 250.109375 123.785156 250.109375 122.148438 L 256.0625 122.148438 C 256.0625 123.785156 257.398438 125.117188 259.035156 125.117188 C 260.675781 125.117188 262.011719 123.785156 262.011719 122.148438 L 267.960938 122.148438 C 267.960938 123.785156 269.296875 125.117188 270.933594 125.117188 L 270.933594 131.054688 C 269.296875 131.054688 267.960938 132.386719 267.960938 134.023438 C 267.960938 135.660156 269.296875 136.992188 270.933594 136.992188 L 270.933594 237.929688 C 269.296875 237.929688 267.960938 239.261719 267.960938 240.898438 C 267.960938 242.535156 269.296875 243.867188 270.933594 243.867188 L 270.933594 249.804688 C 269.296875 249.804688 267.960938 251.136719 267.960938 252.773438 L 262.011719 252.773438 C 262.011719 251.136719 260.675781 249.804688 259.035156 249.804688 C 257.398438 249.804688 256.0625 251.136719 256.0625 252.773438 L 250.109375 252.773438 C 250.109375 251.136719 248.773438 249.804688 247.136719 249.804688 C 245.496094 249.804688 244.160156 251.136719 244.160156 252.773438 L 238.210938 252.773438 C 238.210938 251.136719 236.875 249.804688 235.238281 249.804688 C 233.597656 249.804688 232.261719 251.136719 232.261719 252.773438 L 226.3125 252.773438 C 226.3125 251.136719 224.976562 249.804688 223.335938 249.804688 C 221.699219 249.804688 220.363281 251.136719 220.363281 252.773438 L 214.414062 252.773438 C 214.414062 251.136719 213.074219 249.804688 211.4375 249.804688 C 209.800781 249.804688 208.460938 251.136719 208.460938 252.773438 L 202.511719 252.773438 C 202.511719 251.136719 201.175781 249.804688 199.539062 249.804688 C 197.898438 249.804688 196.5625 251.136719 196.5625 252.773438 L 190.613281 252.773438 C 190.613281 251.136719 189.277344 249.804688 187.636719 249.804688 C 186 249.804688 184.664062 251.136719 184.664062 252.773438 L 178.714844 252.773438 C 178.714844 251.136719 177.378906 249.804688 175.738281 249.804688 C 174.101562 249.804688 172.765625 251.136719 172.765625 252.773438 L 166.8125 252.773438 C 166.8125 251.136719 165.476562 249.804688 163.839844 249.804688 C 162.199219 249.804688 160.863281 251.136719 160.863281 252.773438 L 154.914062 252.773438 C 154.914062 251.136719 153.578125 249.804688 151.941406 249.804688 C 150.300781 249.804688 148.964844 251.136719 148.964844 252.773438 L 143.015625 252.773438 C 143.015625 251.136719 141.679688 249.804688 140.039062 249.804688 C 138.402344 249.804688 137.066406 251.136719 137.066406 252.773438 L 131.113281 252.773438 C 131.113281 251.136719 129.777344 249.804688 128.140625 249.804688 C 126.5 249.804688 125.164062 251.136719 125.164062 252.773438 L 119.214844 252.773438 C 119.214844 251.136719 117.878906 249.804688 116.242188 249.804688 C 114.601562 249.804688 113.265625 251.136719 113.265625 252.773438 L 110.289062 252.773438 L 110.289062 249.804688 C 111.929688 249.804688 113.265625 248.472656 113.265625 246.835938 C 113.265625 245.199219 111.929688 243.867188 110.289062 243.867188 L 110.289062 237.929688 C 111.929688 237.929688 113.265625 236.597656 113.265625 234.960938 C 113.265625 233.324219 111.929688 231.992188 110.289062 231.992188 L 110.289062 226.054688 C 111.929688 226.054688 113.265625 224.722656 113.265625 223.085938 C 113.265625 221.449219 111.929688 220.117188 110.289062 220.117188 L 110.289062 214.179688 C 111.929688 214.179688 113.265625 212.847656 113.265625 211.210938 C 113.265625 209.574219 111.929688 208.242188 110.289062 208.242188 L 110.289062 199.335938 L 104.339844 199.335938 L 104.339844 255.742188 C 104.339844 257.378906 105.675781 258.710938 107.316406 258.710938 L 273.910156 258.710938 C 275.550781 258.710938 276.886719 257.378906 276.886719 255.742188 L 276.886719 119.179688 C 276.886719 117.542969 275.550781 116.210938 273.910156 116.210938 " fill-opacity="1" fill-rule="nonzero"/></g><g clip-path="url(#b2ce7d93a2)"><path fill="#0b0444" d="M 107.316406 193.398438 L 145.988281 193.398438 L 145.988281 181.523438 L 98.390625 181.523438 L 98.390625 193.398438 L 107.316406 193.398438 " fill-opacity="1" fill-rule="nonzero"/></g><path fill="#0b0444" d="M 154.914062 148.867188 L 166.8125 148.867188 C 168.453125 148.867188 169.789062 150.199219 169.789062 151.835938 L 169.789062 163.710938 C 169.789062 165.347656 168.453125 166.679688 166.8125 166.679688 L 154.914062 166.679688 L 154.914062 172.617188 L 166.8125 172.617188 C 171.742188 172.617188 175.738281 176.605469 175.738281 181.523438 L 175.738281 193.398438 C 175.738281 198.316406 171.742188 202.304688 166.8125 202.304688 L 154.914062 202.304688 L 154.914062 229.023438 C 154.914062 232.292969 157.585938 234.960938 160.863281 234.960938 L 178.714844 234.960938 C 181.992188 234.960938 184.664062 232.292969 184.664062 229.023438 L 184.664062 145.898438 C 184.664062 142.628906 181.992188 139.960938 178.714844 139.960938 L 160.863281 139.960938 C 157.585938 139.960938 154.914062 142.628906 154.914062 145.898438 L 154.914062 148.867188 " fill-opacity="1" fill-rule="nonzero"/><path fill="#0b0444" d="M 154.914062 196.367188 L 166.8125 196.367188 C 168.453125 196.367188 169.789062 195.035156 169.789062 193.398438 L 169.789062 181.523438 C 169.789062 179.886719 168.453125 178.554688 166.8125 178.554688 L 154.914062 178.554688 C 154.648438 178.554688 154.414062 178.636719 154.171875 178.707031 C 152.902344 179.042969 151.941406 180.144531 151.941406 181.523438 L 151.941406 193.398438 C 151.941406 194.777344 152.902344 195.878906 154.171875 196.214844 C 154.414062 196.285156 154.648438 196.367188 154.914062 196.367188 " fill-opacity="1" fill-rule="nonzero"/><path fill="#0b0444" d="M 154.914062 154.804688 L 154.914062 160.742188 L 163.839844 160.742188 L 163.839844 154.804688 L 154.914062 154.804688 " fill-opacity="1" fill-rule="nonzero"/></svg>