<svg xmlns="http://www.w3.org/2000/svg" xmlns:xlink="http://www.w3.org/1999/xlink" width="500" zoomAndPan="magnify" viewBox="0 0 375 374.999991" height="500" preserveAspectRatio="xMidYMid meet" version="1.0"><defs><clipPath id="73df4e5aed"><path d="M 0 23.164062 L 375 23.164062 L 375 351.835938 L 0 351.835938 Z M 0 23.164062 " clip-rule="nonzero"/></clipPath><clipPath id="4d8344ea0b"><path d="M 280.683594 23.164062 L 94.316406 23.164062 L 0 187.5 L 94.316406 351.835938 L 280.683594 351.835938 L 375 187.5 Z M 275.554688 342.933594 L 99.445312 342.933594 L 10.261719 187.5 L 99.445312 32.066406 L 275.554688 32.066406 L 364.738281 187.5 Z M 275.554688 342.933594 " clip-rule="nonzero"/></clipPath><clipPath id="58acd516b0"><path d="M 99 114.113281 L 210 114.113281 L 210 167 L 99 167 Z M 99 114.113281 " clip-rule="nonzero"/></clipPath><clipPath id="061f32dc81"><path d="M 209 172 L 275.816406 172 L 275.816406 245 L 209 245 Z M 209 172 " clip-rule="nonzero"/></clipPath><clipPath id="3cc0f62d9a"><path d="M 107 233 L 136 233 L 136 261.113281 L 107 261.113281 Z M 107 233 " clip-rule="nonzero"/></clipPath><clipPath id="5d608bc567"><path d="M 129 233 L 158 233 L 158 261.113281 L 129 261.113281 Z M 129 233 " clip-rule="nonzero"/></clipPath><clipPath id="205bc79eb5"><path d="M 228 233 L 257 233 L 257 261.113281 L 228 261.113281 Z M 228 233 " clip-rule="nonzero"/></clipPath><clipPath id="45687d0b90"><path d="M 223 172 L 275.816406 172 L 275.816406 212 L 223 212 Z M 223 172 " clip-rule="nonzero"/></clipPath><clipPath id="7a0fd696a6"><path d="M 223 219 L 275.816406 219 L 275.816406 226 L 223 226 Z M 223 219 " clip-rule="nonzero"/></clipPath></defs><g clip-path="url(#73df4e5aed)"><g clip-path="url(#4d8344ea0b)"><path fill="#000000" d="M 0 23.164062 L 375 23.164062 L 375 351.835938 L 0 351.835938 Z M 0 23.164062 " fill-opacity="1" fill-rule="nonzero"/></g></g><path fill="#0b0444" d="M 197.535156 225.359375 L 111.195312 225.359375 C 109.671875 225.359375 108.4375 224.121094 108.4375 222.589844 L 108.4375 155.761719 C 108.4375 154.230469 109.671875 152.992188 111.195312 152.992188 C 112.71875 152.992188 113.953125 154.230469 113.953125 155.761719 L 113.953125 219.824219 L 194.773438 219.824219 L 194.773438 155.761719 C 194.773438 154.230469 196.011719 152.992188 197.535156 152.992188 C 199.058594 152.992188 200.292969 154.230469 200.292969 155.761719 L 200.292969 222.589844 C 200.292969 224.121094 199.058594 225.359375 197.535156 225.359375 Z M 197.535156 225.359375 " fill-opacity="1" fill-rule="nonzero"/><g clip-path="url(#58acd516b0)"><path fill="#0b0444" d="M 206.78125 166.808594 C 206.128906 166.808594 205.472656 166.574219 204.949219 166.105469 L 154.363281 120.835938 L 103.78125 166.105469 C 102.644531 167.121094 100.898438 167.023438 99.886719 165.878906 C 98.871094 164.738281 98.972656 162.988281 100.109375 161.972656 L 152.527344 115.058594 C 153.574219 114.121094 155.152344 114.121094 156.199219 115.058594 L 208.621094 161.972656 C 209.757812 162.988281 209.855469 164.738281 208.84375 165.878906 C 208.296875 166.492188 207.542969 166.808594 206.78125 166.808594 Z M 206.78125 166.808594 " fill-opacity="1" fill-rule="nonzero"/></g><path fill="#0b0444" d="M 168.039062 225.359375 L 140.6875 225.359375 C 139.164062 225.359375 137.929688 224.121094 137.929688 222.589844 L 137.929688 186.691406 C 137.929688 185.160156 139.164062 183.921875 140.6875 183.921875 L 168.039062 183.921875 C 169.5625 183.921875 170.796875 185.160156 170.796875 186.691406 L 170.796875 222.589844 C 170.796875 224.121094 169.5625 225.359375 168.039062 225.359375 Z M 143.449219 219.820312 L 165.28125 219.820312 L 165.28125 189.460938 L 143.449219 189.460938 Z M 143.449219 219.820312 " fill-opacity="1" fill-rule="nonzero"/><path fill="#0b0444" d="M 120.445312 150.25 C 118.921875 150.25 117.6875 149.007812 117.6875 147.480469 L 117.6875 123.828125 C 117.6875 122.296875 118.921875 121.058594 120.445312 121.058594 L 132.78125 121.058594 C 134.304688 121.058594 135.539062 122.296875 135.539062 123.828125 L 135.539062 136.441406 C 135.539062 137.972656 134.304688 139.210938 132.78125 139.210938 C 131.257812 139.210938 130.019531 137.972656 130.019531 136.441406 L 130.019531 126.597656 L 123.203125 126.597656 L 123.203125 147.480469 C 123.203125 149.007812 121.96875 150.25 120.445312 150.25 Z M 120.445312 150.25 " fill-opacity="1" fill-rule="nonzero"/><path fill="#0b0444" d="M 154.363281 171.160156 C 145.304688 171.160156 137.929688 163.761719 137.929688 154.667969 C 137.929688 145.570312 145.304688 138.171875 154.363281 138.171875 C 163.425781 138.171875 170.796875 145.570312 170.796875 154.667969 C 170.796875 163.761719 163.425781 171.160156 154.363281 171.160156 Z M 154.363281 143.710938 C 148.34375 143.710938 143.449219 148.625 143.449219 154.667969 C 143.449219 160.707031 148.34375 165.621094 154.363281 165.621094 C 160.382812 165.621094 165.28125 160.707031 165.28125 154.667969 C 165.28125 148.625 160.382812 143.710938 154.363281 143.710938 Z M 154.363281 143.710938 " fill-opacity="1" fill-rule="nonzero"/><path fill="#0b0444" d="M 212.300781 244.742188 L 153.027344 244.742188 C 151.503906 244.742188 150.265625 243.503906 150.265625 241.972656 C 150.265625 240.445312 151.503906 239.203125 153.027344 239.203125 L 209.542969 239.203125 L 209.542969 225.359375 L 104.703125 225.359375 L 104.703125 239.203125 L 111.558594 239.203125 C 113.082031 239.203125 114.316406 240.445312 114.316406 241.972656 C 114.316406 243.503906 113.082031 244.742188 111.558594 244.742188 L 101.945312 244.742188 C 100.421875 244.742188 99.183594 243.503906 99.183594 241.972656 L 99.183594 222.589844 C 99.183594 221.0625 100.421875 219.820312 101.945312 219.820312 L 212.300781 219.820312 C 213.824219 219.820312 215.0625 221.0625 215.0625 222.589844 L 215.0625 241.972656 C 215.0625 243.503906 213.824219 244.742188 212.300781 244.742188 Z M 212.300781 244.742188 " fill-opacity="1" fill-rule="nonzero"/><path fill="#0b0444" d="M 133.628906 244.742188 L 130.953125 244.742188 C 129.429688 244.742188 128.195312 243.503906 128.195312 241.972656 C 128.195312 240.445312 129.429688 239.203125 130.953125 239.203125 L 133.628906 239.203125 C 135.15625 239.203125 136.390625 240.445312 136.390625 241.972656 C 136.390625 243.503906 135.15625 244.742188 133.628906 244.742188 Z M 133.628906 244.742188 " fill-opacity="1" fill-rule="nonzero"/><g clip-path="url(#061f32dc81)"><path fill="#0b0444" d="M 273 244.742188 L 252.347656 244.742188 C 250.824219 244.742188 249.589844 243.503906 249.589844 241.972656 C 249.589844 240.445312 250.824219 239.203125 252.347656 239.203125 L 270.238281 239.203125 L 270.238281 209.648438 L 238.75 178.042969 L 215.0625 178.042969 L 215.0625 239.203125 L 232.953125 239.203125 C 234.476562 239.203125 235.710938 240.445312 235.710938 241.972656 C 235.710938 243.503906 234.476562 244.742188 232.953125 244.742188 L 212.300781 244.742188 C 210.777344 244.742188 209.542969 243.503906 209.542969 241.972656 L 209.542969 175.273438 C 209.542969 173.746094 210.777344 172.503906 212.300781 172.503906 L 239.890625 172.503906 C 240.621094 172.503906 241.324219 172.796875 241.84375 173.316406 L 274.949219 206.542969 C 275.464844 207.0625 275.757812 207.769531 275.757812 208.503906 L 275.757812 241.972656 C 275.757812 243.503906 274.523438 244.742188 273 244.742188 Z M 273 244.742188 " fill-opacity="1" fill-rule="nonzero"/></g><g clip-path="url(#3cc0f62d9a)"><path fill="#0b0444" d="M 121.257812 261.113281 C 113.652344 261.113281 107.460938 254.902344 107.460938 247.269531 C 107.460938 239.636719 113.652344 233.425781 121.257812 233.425781 C 128.863281 233.425781 135.050781 239.636719 135.050781 247.269531 C 135.050781 254.902344 128.863281 261.113281 121.257812 261.113281 Z M 121.257812 238.960938 C 116.691406 238.960938 112.980469 242.6875 112.980469 247.269531 C 112.980469 251.847656 116.691406 255.574219 121.257812 255.574219 C 125.820312 255.574219 129.535156 251.847656 129.535156 247.269531 C 129.535156 242.6875 125.820312 238.960938 121.257812 238.960938 Z M 121.257812 238.960938 " fill-opacity="1" fill-rule="nonzero"/></g><g clip-path="url(#5d608bc567)"><path fill="#0b0444" d="M 143.328125 261.113281 C 135.722656 261.113281 129.535156 254.902344 129.535156 247.269531 C 129.535156 239.636719 135.722656 233.425781 143.328125 233.425781 C 150.933594 233.425781 157.125 239.636719 157.125 247.269531 C 157.125 254.902344 150.933594 261.113281 143.328125 261.113281 Z M 143.328125 238.960938 C 138.765625 238.960938 135.050781 242.6875 135.050781 247.269531 C 135.050781 251.847656 138.765625 255.574219 143.328125 255.574219 C 147.890625 255.574219 151.605469 251.847656 151.605469 247.269531 C 151.605469 242.6875 147.890625 238.960938 143.328125 238.960938 Z M 143.328125 238.960938 " fill-opacity="1" fill-rule="nonzero"/></g><g clip-path="url(#205bc79eb5)"><path fill="#0b0444" d="M 242.648438 261.113281 C 235.042969 261.113281 228.855469 254.902344 228.855469 247.269531 C 228.855469 239.636719 235.042969 233.425781 242.648438 233.425781 C 250.257812 233.425781 256.445312 239.636719 256.445312 247.269531 C 256.445312 254.902344 250.257812 261.113281 242.648438 261.113281 Z M 242.648438 238.960938 C 238.085938 238.960938 234.375 242.6875 234.375 247.269531 C 234.375 251.847656 238.085938 255.574219 242.648438 255.574219 C 247.214844 255.574219 250.925781 251.847656 250.925781 247.269531 C 250.925781 242.6875 247.214844 238.960938 242.648438 238.960938 Z M 242.648438 238.960938 " fill-opacity="1" fill-rule="nonzero"/></g><g clip-path="url(#45687d0b90)"><path fill="#0b0444" d="M 273 211.273438 L 226.097656 211.273438 C 224.574219 211.273438 223.335938 210.03125 223.335938 208.503906 L 223.335938 175.273438 C 223.335938 173.746094 224.574219 172.503906 226.097656 172.503906 C 227.621094 172.503906 228.855469 173.746094 228.855469 175.273438 L 228.855469 205.734375 L 273 205.734375 C 274.523438 205.734375 275.757812 206.972656 275.757812 208.503906 C 275.757812 210.03125 274.523438 211.273438 273 211.273438 Z M 273 211.273438 " fill-opacity="1" fill-rule="nonzero"/></g><g clip-path="url(#7a0fd696a6)"><path fill="#0b0444" d="M 273 225.117188 L 226.097656 225.117188 C 224.574219 225.117188 223.335938 223.878906 223.335938 222.347656 C 223.335938 220.820312 224.574219 219.578125 226.097656 219.578125 L 273 219.578125 C 274.523438 219.578125 275.757812 220.820312 275.757812 222.347656 C 275.757812 223.878906 274.523438 225.117188 273 225.117188 Z M 273 225.117188 " fill-opacity="1" fill-rule="nonzero"/></g></svg>